<svg xmlns="http://www.w3.org/2000/svg" viewBox="0 0 2400.329 215.098"><defs><style>.cls-1{isolation:isolate;}.cls-2{fill:#fff26f;}.cls-3{fill:#f9e33d;opacity:0.35;}.cls-3,.cls-5,.cls-6,.cls-7,.cls-8{mix-blend-mode:multiply;}.cls-4,.cls-5,.cls-6{fill:#add12f;}.cls-5{opacity:0.15;}.cls-6{opacity:0.3;}.cls-7{fill:#eff6d5;}.cls-8{fill:#f9b23d;opacity:0.2;}</style></defs><title>желтый + зеленый бг</title><g class="cls-1"><g id="Isolation_Mode" data-name="Isolation Mode"><polygon class="cls-2" points="0.415 2.28 2400.184 0.321 2400.184 63.987 0.017 63.008 0.415 2.28"/><path class="cls-3" d="M1050.844,28.458c-5.91-.4-12.613,3-18.153,4.669-8.8,2.65-17.16,5.146-25.043,10-5.543,3.412-19.292,14.167-7.415,18.548,5.783,2.134,14.805-.389,20.956.171,6.974.636,12.4,3.7,18.654,6.632,10.247,4.8,19.593,10.915,31.252,10.654,11.522-.258,22.654-5.917,33.614-9.188,5.939-1.772,14.153-2.084,15.985-8.95,2.959-11.1-10.165-11.192-15.08-16.5s3.1-9.094.209-14.316c-3.677-6.641-23.529-3.275-29.57-3.027C1065.187,27.606,1054.61,25.7,1050.844,28.458Z" transform="translate(0.006 0.862)"/><path class="cls-3" d="M1233.511,7.125c-12.048,2.815-24.888,3.019-36.7,7.3-6.193,2.247-22.155,10.145-22.346,18.369-.148,6.365,39.755,12.866,47.758,11.667,6.534-.979,11.3-5.763,17.272-8.653,6.723-3.254,14.452-4.668,21.211-7.834,12.823-6.007,4.012-18.065-7.082-18.852-3.45-.245-7.094-.009-10.264-.518C1239.9,8.051,1236.467,6.032,1233.511,7.125Z" transform="translate(0.006 0.862)"/><path class="cls-3" d="M1521.511,60.458c-7.246-4.33-7.942-12.482-.535-17.329,10.388-6.8,19.778,3.238,29.914.691,5.184-1.3,2.845-2.623,5.759-6.048,3.62-4.255,6.676-5.05,12.015-6.462,8.4-2.221,20.976-6.642,29.4-2.183,6.953,3.683,8.842,8.63,18.1,9.366,7.868.625,16.862-1.675,24.552.116,8.251,1.922,14.129,9.883,8.858,17.148-9.923,13.675-29.633,22.048-45.33,25.884-10.935,2.672-25.253,4.963-36.533,3.235-9.285-1.423-11.883-4.724-18.159-9.781C1542.8,69.658,1531.95,67.05,1521.511,60.458Z" transform="translate(0.006 0.862)"/><rect class="cls-4" y="58.065" width="2400.329" height="157.032"/><path class="cls-5" d="M690.232,82.7c-17.286,0-73.493-2.894-76.608,22.464-3.631,29.56,43.183,11.971,56.488,17.978,7.621,3.441,10.637,10.2,19.356,12.82,8.845,2.662,21.116.771,30.39.735,18.828-.072,27.576,9,47.041,9,18.56,0,38.593,7.378,55.342,5.264,15.687-1.979,25.243-19.643,40.924-27.387,16.471-8.134,41.42-27.858,25.936-43.933-15.858-16.463-41.511-12.983-61.676-8.152-28.227,6.762-53.989,2.324-82.406,2.211C732.264,73.652,698.206,69.879,690.232,82.7Z" transform="translate(0.006 0.862)"/><path class="cls-6" d="M1026.215,199.7c-18.415.508-74.413-19.064-63.515-46.5,5.044-12.7,26.575-16.869,34.335-29.2,6.883-10.94,4.447-18.228,19.847-25.2,25.815-11.68,55.079-3.6,81.27-17.591,23.459-12.535,43.9-18.793,70.571-8.252,21.063,8.323,38.917,8.277,61.482,8.25,14.824-.018,45.9-.188,28.91,21-11.534,14.384-37.176,17.135-54.1,21.582-13.24,3.479-46.755,3.807-56.653,11.422-21.518,16.552,21.564,31.432,20.224,42.762C1165.306,205.72,1045.793,196.487,1026.215,199.7Z" transform="translate(0.006 0.862)"/><path class="cls-5" d="M1486.692,72.2c-19.807,0-45.784-4.788-64.23,2.629-4.533,1.822-5.163,5.981-10.644,8.055-12.82,4.852-28.01,1.877-41.307,2.944-13.941,1.118-26.609,4.378-24.811,20.871,1.655,15.185,10.735,11.435,23.737,12.261,15.526,34.44-62.326,22.99-79.856,20.553-11.12-1.546-39.269,2.84-36.9,21.183,1.34,10.375,37.755,14.174,48.752,17.288,27.333,7.74,55.451,5.292,83.335,2.211,14.528-1.6,27.369-3.2,38.672-13.2,9.121-8.068,5.682-9.595,9.333-19.876,3.291-9.268,1.508-10.616,16.589-14.184,12.641-2.991,20.712.788,32.8,2.277,17.666,2.175,54.185-.076,64.716-18.169,6.214-10.677-3.146-10.252-1.8-21.594,1.3-10.921,17.386-10.654,5.045-19.867C1537.454,66.125,1504.418,76.3,1486.692,72.2Z" transform="translate(0.006 0.862)"/><path class="cls-5" d="M1731.18,84.2c-35.493-.488-95.782-11.152-123.026,16.833-12.908,13.259-11.836,21.3,4.861,27.076a190.575,190.575,0,0,1,31.175,13.5c9.518,5.158,23.3,19.265,32.881,20.665,17.016,2.488,30.382-19.126,49.271-18.149,13.424.694,22.611,9.434,34.832-1.767,10.589-9.705,4.434-19.862,9.344-30.82,4.118-9.192,21.064-14.428,10.233-24.749C1774.286,80.632,1741.6,82.366,1731.18,84.2Z" transform="translate(0.006 0.862)"/><path class="cls-6" d="M897.222,144.2c7.421-1.161,15.081-7.825,22.91-7.906,13.575-.14,8.073,1.941,11.588,12.817,3.281,10.152,3.33,10.1,10.166,19.088,4.408,5.8,9.8,7.035,6.769,14.994-5.984,15.714-52.014,14.577-65.266,15.338-18.541,1.065-36.6,5.168-54.285-.334-18.315-5.7-34.672-9.84-54.953-7.161-11.352,1.5-32.972,13.228-42.292,6.067-19.58-15.047,11.252-22.962,21.747-25.948,24.718-7.031,45.017-5.609,69.744-1.786,17.858,2.762,33.941,8.1,46.952-5.589C878.829,154.806,884.832,147.66,897.222,144.2Z" transform="translate(0.006 0.862)"/><path class="cls-6" d="M1455.194,198.2c-13.03-11.462-.707-28.775,22.464-34.571,17.968-4.494,33.991,3.68,51.11-7.051,12.305-7.713,16.206-15.49,32.622-15.709,14.19-.19,24.012,8.279,37.72,13.5,15.339,5.847,24.175,16.23,37.909,25.411,8.213,5.49,28.386,8.175,19.23,19.539-4.578,5.682-22.428,5.52-28.832,6.333-18.016,2.289-19.009-.441-32.729-7.486-15.549-7.984-35.074-6.683-52.207-2.594-17.97,4.29-30.305,3.773-48.283,1.046C1479.547,194.4,1461.867,204.067,1455.194,198.2Z" transform="translate(0.006 0.862)"/><path class="cls-7" d="M885.909,5.3c-4.4-3.857,8.468,7.721,0,0Z" transform="translate(0.006 0.862)"/><path class="cls-8" d="M728.377,29.848c3.619,3.025,3.984,5.425,9,7.606,4.91,2.136,10.323,5.009,15.835,5.019,7.173.013,14.19-1.842,21.506-1.641,7.164.2,14.423.732,21.585.589,10.24-.2,20.3-1.715,30.586-1.382,10.839.351,20.236,1.576,30.841-1.047,6.891-1.7,8.1-2.586,11.246-8.638,3.347-6.439,8.492-7.528,14.872-10.9C888.659,16.913,905.667,8.5,910.568.6L719.415.911a21.541,21.541,0,0,0-8.605,5.141C693.3,23.48,718.959,21.975,728.377,29.848Z" transform="translate(0.006 0.862)"/><path class="cls-3" d="M1714.844,32.458c7.3,4.395,20.259,9.952,34.631,10,7.6.026,15.265.381,22.805-.669,6.081-.847,18.572-.83,23.142-4.83,6.761-5.918-2.11-10.575-3.3-17.3-.756-4.29,3.712-13.814,4.286-20.519l-89.391.147c-1.361.6-2.769,1.176-4.2,1.825-8.567,3.89-17.917,8.841-12.349,19.346C1694.128,27.344,1707.33,33.222,1714.844,32.458Z" transform="translate(0.006 0.862)"/><path class="cls-3" d="M382.129,28.458c-5.082-.4-10.846,3-15.61,4.669-7.565,2.65-14.756,5.146-21.535,10-4.767,3.412-16.59,14.167-6.377,18.548,4.973,2.134,12.732-.389,18.021.171,6,.636,10.661,3.7,16.041,6.632,8.812,4.8,16.849,10.915,26.874,10.654,9.908-.258,19.481-5.917,28.906-9.188,5.107-1.772,12.171-2.084,13.746-8.95,2.545-11.1-8.742-11.192-12.967-16.5s2.666-9.094.18-14.316c-3.162-6.641-20.233-3.275-25.428-3.027C394.462,27.606,385.367,25.7,382.129,28.458Z" transform="translate(0.006 0.862)"/><path class="cls-3" d="M539.209,7.125c-10.361,2.815-21.4,3.019-31.556,7.3C502.328,16.675,488.6,24.573,488.437,32.8c-.127,6.365,34.186,12.866,41.068,11.667,5.619-.979,9.718-5.763,14.852-8.653,5.781-3.254,12.428-4.668,18.24-7.834,11.027-6.007,3.45-18.065-6.09-18.852-2.967-.245-6.1-.009-8.827-.518C544.7,8.051,541.751,6.032,539.209,7.125Z" transform="translate(0.006 0.862)"/><path class="cls-5" d="M72.027,82.7c-14.865,0-63.2-2.894-65.878,22.464-3.122,29.56,37.134,11.971,48.575,17.978,6.553,3.441,9.147,10.2,16.645,12.82,7.606,2.662,18.158.771,26.133.735,16.191-.072,23.714,9,40.452,9,15.961,0,33.187,7.378,47.591,5.264,13.489-1.979,21.707-19.643,35.192-27.387,14.164-8.134,35.619-27.858,22.3-43.933C229.4,63.18,207.344,66.661,190,71.491c-24.273,6.762-46.427,2.324-70.864,2.211C108.172,73.652,78.884,69.879,72.027,82.7Z" transform="translate(0.006 0.862)"/><path class="cls-6" d="M360.949,199.7c-15.836.508-63.99-19.064-54.618-46.5,4.337-12.7,22.853-16.869,29.525-29.2,5.919-10.94,3.824-18.228,17.067-25.2,22.2-11.68,47.364-3.6,69.886-17.591,20.173-12.535,37.748-18.793,60.686-8.252,18.112,8.323,33.466,8.277,52.87,8.25,12.747-.018,39.469-.188,24.86,21-9.918,14.384-31.969,17.135-46.521,21.582-11.386,3.479-40.206,3.807-48.718,11.422-18.5,16.552,18.543,31.432,17.391,42.762C480.558,205.72,377.785,196.487,360.949,199.7Z" transform="translate(0.006 0.862)"/><path class="cls-6" d="M250.024,144.2c6.381-1.161,12.968-7.825,19.7-7.906,11.674-.14,6.942,1.941,9.965,12.817,2.822,10.152,2.864,10.1,8.742,19.088,3.791,5.8,8.427,7.035,5.821,14.994-5.146,15.714-44.728,14.577-56.124,15.338-15.944,1.065-31.473,5.168-46.682-.334-15.75-5.7-29.816-9.84-47.256-7.161-9.762,1.5-28.354,13.228-36.368,6.067-16.838-15.047,9.676-22.962,18.7-25.948,21.255-7.031,38.711-5.609,59.975-1.786,15.357,2.762,29.187,8.1,40.375-5.589C234.208,154.806,239.37,147.66,250.024,144.2Z" transform="translate(0.006 0.862)"/><path class="cls-8" d="M104.829,29.848c3.112,3.025,3.426,5.425,7.737,7.606,4.222,2.136,8.877,5.009,13.617,5.019,6.168.013,12.2-1.842,18.494-1.641,6.161.2,12.4.732,18.561.589,8.806-.2,17.455-1.715,26.3-1.382,9.32.351,17.4,1.576,26.522-1.047,5.926-1.7,6.965-2.586,9.671-8.638,2.878-6.439,7.3-7.528,12.789-10.9C242.661,16.913,257.287,8.5,261.5.6L97.122.911a18.212,18.212,0,0,0-7.4,5.141C74.663,23.48,96.73,21.975,104.829,29.848Z" transform="translate(0.006 0.862)"/><path class="cls-3" d="M1904.358,28.273c-5.91-.4-12.613,3-18.153,4.669-8.8,2.65-17.16,5.146-25.043,10-5.543,3.412-19.292,14.167-7.415,18.548,5.783,2.134,14.805-.389,20.956.171,6.974.636,12.4,3.7,18.654,6.632,10.247,4.8,19.593,10.915,31.252,10.654,11.522-.258,22.654-5.917,33.614-9.188,5.939-1.772,14.153-2.084,15.985-8.95,2.959-11.1-10.165-11.192-15.08-16.5s3.1-9.094.209-14.316c-3.677-6.641-23.529-3.275-29.57-3.027C1918.7,27.42,1908.124,25.512,1904.358,28.273Z" transform="translate(0.006 0.862)"/><path class="cls-3" d="M2087.025,6.94c-12.048,2.815-24.888,3.019-36.7,7.3-6.193,2.247-22.155,10.145-22.346,18.369-.148,6.365,39.754,12.866,47.758,11.667,6.534-.979,11.3-5.763,17.271-8.653,6.723-3.254,14.452-4.668,21.211-7.834,12.823-6.007,4.012-18.065-7.082-18.852-3.45-.245-7.093-.009-10.265-.518C2093.416,7.866,2089.98,5.847,2087.025,6.94Z" transform="translate(0.006 0.862)"/><path class="cls-6" d="M1879.729,199.511c-18.415.508-74.412-19.064-63.515-46.5,5.044-12.7,26.575-16.869,34.335-29.2,6.883-10.94,4.447-18.228,19.847-25.2,25.815-11.68,55.079-3.6,81.27-17.591,23.459-12.535,43.9-18.793,70.571-8.252,21.063,8.323,38.917,8.277,61.482,8.25,14.824-.018,45.9-.188,28.91,21-11.534,14.384-37.176,17.135-54.1,21.582-13.24,3.479-46.755,3.808-56.653,11.422-21.518,16.552,21.564,31.432,20.224,42.763C2018.82,205.535,1899.307,196.3,1879.729,199.511Z" transform="translate(0.006 0.862)"/><path class="cls-5" d="M2332.458,72.017c-19.152,0-44.269-4.788-62.1,2.629-4.383,1.822-4.993,5.981-10.292,8.055-12.4,4.852-27.083,1.877-39.94,2.944-13.479,1.118-25.728,4.378-23.99,20.871,1.6,15.185,10.38,11.435,22.952,12.261,15.012,34.44-60.264,22.99-77.214,20.553-10.752-1.546-37.97,2.84-35.679,21.183,1.3,10.375,36.506,14.174,47.139,17.288,26.429,7.74,53.617,5.291,80.578,2.211,14.047-1.6,26.463-3.2,37.393-13.2,8.819-8.068,5.494-9.595,9.024-19.875,3.182-9.268,1.458-10.616,16.04-14.184,12.223-2.991,20.027.788,31.717,2.277,17.081,2.175,52.392-.076,62.575-18.169,6.009-10.677-3.042-10.252-1.74-21.594,1.254-10.921,16.811-10.654,4.878-19.867C2381.54,65.94,2349.6,76.119,2332.458,72.017Z" transform="translate(0.006 0.862)"/></g></g></svg>