<?xml version="1.0" encoding="utf-8"?>
<!-- Generator: Adobe Illustrator 20.0.0, SVG Export Plug-In . SVG Version: 6.00 Build 0)  -->
<svg version="1.1" id="Layer_1" xmlns="http://www.w3.org/2000/svg" xmlns:xlink="http://www.w3.org/1999/xlink" x="0px" y="0px"
	 width="134.65px" height="219px" viewBox="0 0 134.65 219" style="enable-background:new 0 0 134.65 219;" xml:space="preserve">
<style type="text/css">
	.st0{fill:url(#XMLID_2_);}
	.st1{fill:#006EB7;}
	.st2{opacity:0.2;fill:#006EB7;}
	.st3{fill:url(#XMLID_3_);}
	.st4{opacity:0.2;}
	.st5{fill:#FFFFFF;}
	.st6{fill:url(#XMLID_4_);}
	.st7{opacity:0.6;}
	.st8{fill:url(#XMLID_20_);}
	.st9{fill:#FAD5E5;}
	.st10{fill:url(#XMLID_21_);}
	.st11{fill:none;}
	.st12{fill:#17479E;}
	.st13{fill:#F391BC;}
	.st14{clip-path:url(#XMLID_22_);fill:#F391BC;}
	.st15{clip-path:url(#XMLID_22_);}
	.st16{fill:url(#XMLID_23_);}
	.st17{fill:url(#XMLID_24_);}
	.st18{fill:url(#XMLID_25_);}
</style>
<linearGradient id="XMLID_2_" gradientUnits="userSpaceOnUse" x1="118.6983" y1="164.2867" x2="91.2395" y2="182.5136">
	<stop  offset="0.001" style="stop-color:#33A3DC"/>
	<stop  offset="0.9974" style="stop-color:#006EB7"/>
</linearGradient>
<path id="XMLID_148_" class="st0" d="M123.401,173.461c-4.394-1.694-7.952,0.644-11.042,4.191c-0.301,0.345-0.655,0.779-1.13,1.226
	c-1.06,0.997-2.723,2.055-5.748,2.328c-0.34,0.03-0.692,0.042-1.043,0.057c-1.85,0.077-3.842-0.071-5.884-0.458
	c-6.477-1.228-13.4-4.88-17.502-11.612c-2.449-4.019-7.69-5.293-11.712-2.842c-4.019,2.449-5.291,7.693-2.842,11.712
	c8.68,14.243,24.238,20.27,37.034,20.27c0.846,0,1.674-0.036,2.492-0.088c0.329-0.021,0.661-0.037,0.985-0.066
	c2.673-0.241,5.181-0.764,7.489-1.531c3.945-1.313,7.288-3.355,9.814-5.983c1.733-1.803,3.087-3.878,3.978-6.188
	C129.981,180.086,127.792,175.154,123.401,173.461z"/>
<g id="XMLID_141_">
	<path id="XMLID_145_" class="st1" d="M98.53,181.72c0-0.307,0.011-0.61,0.023-0.914c-6.477-1.228-13.4-4.88-17.502-11.612
		c-2.449-4.019-7.69-5.293-11.712-2.842c-4.019,2.449-5.291,7.693-2.842,11.712c8.68,14.243,24.238,20.27,37.034,20.27
		c0.846,0,1.674-0.036,2.492-0.088C101.432,194.216,98.53,188.309,98.53,181.72z"/>
	<path id="XMLID_142_" class="st1" d="M114.497,196.649c3.945-1.313,7.288-3.355,9.814-5.983c-1.165,0.495-2.447,0.769-3.792,0.769
		c-5.365,0-9.715-4.349-9.715-9.715c0-0.989,0.15-1.942,0.424-2.841c-1.06,0.997-2.723,2.055-5.748,2.328
		c-0.34,0.03-0.692,0.042-1.043,0.057c-0.004,0.153-0.023,0.302-0.023,0.456C104.414,188.483,108.588,194.263,114.497,196.649z"/>
</g>
<path id="XMLID_140_" class="st2" d="M125.079,174.339c1.491,2.227,1.917,5.118,0.88,7.809c-0.89,2.31-2.245,4.385-3.978,6.188
	c-2.526,2.629-5.869,4.671-9.814,5.983c-0.863,0.287-1.755,0.538-2.674,0.752c-1.634,0.38-3.026-1.242-2.44-2.814l0,0
	c1.999-5.353,3.584-9.608,4.719-13.94c-0.166,0.182-0.339,0.369-0.544,0.562c-1.06,0.997-2.723,2.055-5.748,2.328
	c-0.34,0.03-0.692,0.042-1.043,0.057c-1.85,0.077-3.842-0.071-5.884-0.458c-6.431-1.22-13.299-4.827-17.413-11.466
	c-2.327-3.755-7.163-5.32-11.123-3.361c-4.548,2.25-6.102,7.848-3.521,12.085c1.449,2.377,3.103,4.506,4.891,6.435l0,0c0,0,0,0,0,0
	c0.542,0.585,1.097,1.147,1.664,1.692c0.034,0.033,0.068,0.065,0.102,0.097c2.872,2.739,6.046,4.977,9.377,6.744
	c0.067,0.036,0.134,0.073,0.201,0.109c0.585,0.307,1.175,0.597,1.768,0.875c0.156,0.073,0.312,0.145,0.468,0.216
	c0.559,0.254,1.12,0.5,1.685,0.729c0.185,0.076,0.371,0.145,0.557,0.218c0.557,0.218,1.113,0.433,1.673,0.628
	c0.117,0.041,0.235,0.075,0.352,0.114c1.015,0.343,2.032,0.645,3.051,0.912c0.326,0.086,0.652,0.178,0.978,0.257
	c0.391,0.094,0.78,0.173,1.17,0.255c0.406,0.086,0.812,0.172,1.217,0.247c0.357,0.066,0.713,0.124,1.069,0.181
	c0.446,0.071,0.891,0.135,1.335,0.193c0.321,0.041,0.641,0.082,0.96,0.116c0.504,0.054,1.003,0.095,1.501,0.13
	c0.258,0.018,0.518,0.043,0.774,0.056c0.754,0.041,1.502,0.066,2.24,0.066c0.846,0,1.674-0.036,2.492-0.088
	c0.329-0.021,0.661-0.037,0.985-0.066c0.099-0.009,0.194-0.025,0.293-0.035l0,0c2.562-0.252,4.974-0.758,7.196-1.497
	c3.945-1.313,7.288-3.355,9.814-5.983c1.733-1.803,3.087-3.878,3.978-6.188C129.748,180.69,128.316,176.505,125.079,174.339z"/>
<linearGradient id="XMLID_3_" gradientUnits="userSpaceOnUse" x1="67.6388" y1="122.5312" x2="67.6388" y2="215.4113">
	<stop  offset="0.1267" style="stop-color:#2991CF"/>
	<stop  offset="0.9133" style="stop-color:#006EB7"/>
</linearGradient>
<path id="XMLID_138_" class="st3" d="M93.561,112.122H41.717c-11.122,7.931-18.387,30.138-17.339,52.794
	c0.571,12.354,3.788,18.655,9.131,33.456c-7.392,3.016-8.919,7.907-8.375,10.27c1.737,7.539,10.022,8.323,15.624,7.455
	c5.87-0.909,18.937-5.997,20.357-10.258c1.42-4.261-0.27-5.683-0.959-11.438c-0.28-2.338,0.608-3.027,1.88-3.027h0.036h11.169
	c1.273,0,2.16,0.689,1.88,3.027c-0.689,5.755-2.379,7.177-0.959,11.438c1.42,4.261,14.487,9.348,20.357,10.258
	c5.602,0.868,13.887,0.084,15.624-7.455c0.545-2.364-0.983-7.254-8.375-10.27c5.342-14.801,8.559-21.102,9.131-33.456
	C111.948,142.26,104.683,120.053,93.561,112.122z"/>
<g id="XMLID_135_" class="st4">
	<path id="XMLID_137_" class="st1" d="M40.757,213.03c-5.474,0.848-13.492,0.101-15.478-6.966c-0.28,0.998-0.304,1.895-0.147,2.577
		c1.737,7.539,10.022,8.323,15.624,7.455c5.87-0.909,18.937-5.997,20.357-10.258c0.632-1.897,0.647-3.231,0.409-4.636
		c-0.089,0.485-0.219,1-0.409,1.569C59.694,207.034,46.627,212.121,40.757,213.03z"/>
	<path id="XMLID_136_" class="st1" d="M94.521,213.03c-5.87-0.909-18.937-5.997-20.357-10.258c-0.19-0.569-0.32-1.085-0.409-1.569
		c-0.238,1.404-0.223,2.739,0.409,4.636c1.42,4.261,14.487,9.348,20.357,10.258c5.602,0.868,13.887,0.084,15.624-7.455
		c0.157-0.683,0.133-1.579-0.147-2.577C108.013,213.132,99.995,213.878,94.521,213.03z"/>
</g>
<path id="XMLID_134_" class="st5" d="M82.059,146.635c-2.758-2.758-8.556-3.733-14.907-3.733c-6.351,0-11.395,1.238-14.907,3.733
	c-3.931,2.793-9.65,20.901-2.333,27.333c7.081,6.224,16.628,5.469,17.239,5.469s10.158,0.754,17.239-5.469
	C91.709,167.537,85.469,150.045,82.059,146.635z"/>
<g id="XMLID_132_" class="st4">
	<path id="XMLID_133_" class="st1" d="M84.392,172.22c-7.081,6.223-16.628,5.469-17.239,5.469c-0.611,0-10.158,0.754-17.239-5.469
		c-2.189-1.924-3.205-4.895-3.458-8.186c-0.335,4.655,0.486,9.193,3.458,11.805c7.081,6.223,16.628,5.469,17.239,5.469
		c0.611,0,10.158,0.754,17.239-5.469c2.89-2.54,3.66-6.806,3.33-11.248C87.462,167.645,86.48,170.384,84.392,172.22z"/>
</g>
<g id="XMLID_125_">
	<path id="XMLID_131_" class="st2" d="M88.741,159.116c0,0-3.759,3.071-5.97,5.605c-1.091,1.25-1.808,2.37-1.508,2.925
		c0.278,0.515,1.659,0.401,3.346,0.032c3.199-0.701,7.503-2.322,7.503-2.322L88.741,159.116z"/>
	<path id="XMLID_130_" class="st2" d="M90.306,164.129c0,0-2.758,3.869-4.194,6.833c-0.708,1.462-1.096,2.704-0.67,3.151
		c0.396,0.415,1.67-0.049,3.168-0.834c2.84-1.488,6.487-4.129,6.487-4.129L90.306,164.129z"/>
	<path id="XMLID_129_" class="st2" d="M94.521,167.953c0,0-1.79,4.396-2.516,7.594c-0.358,1.578-0.459,2.865,0.044,3.188
		c0.467,0.299,1.58-0.462,2.837-1.587c2.384-2.133,5.286-5.572,5.286-5.572L94.521,167.953z"/>
	<path id="XMLID_128_" class="st5" d="M89.426,159.383c0,0-3.777,2.826-6.067,5.076c-1.13,1.11-1.9,2.079-1.673,2.499
		c0.21,0.389,1.503,0.168,3.104-0.287c3.036-0.864,7.184-2.573,7.184-2.573L89.426,159.383z"/>
	<path id="XMLID_127_" class="st5" d="M91.181,164.046c0,0-2.899,3.722-4.516,6.495c-0.798,1.368-1.285,2.506-0.956,2.851
		c0.305,0.32,1.494-0.233,2.918-1.095c2.701-1.633,6.252-4.375,6.252-4.375L91.181,164.046z"/>
	<path id="XMLID_126_" class="st5" d="M95.295,167.449c0,0-1.937,4.302-2.852,7.379c-0.452,1.518-0.656,2.739-0.254,2.997
		c0.373,0.239,1.396-0.58,2.577-1.754c2.238-2.226,5.041-5.729,5.041-5.729L95.295,167.449z"/>
</g>
<g id="XMLID_118_">
	<path id="XMLID_124_" class="st2" d="M44.681,159.232c0,0,3.759,3.071,5.97,5.605c1.091,1.25,1.808,2.37,1.508,2.925
		c-0.278,0.515-1.659,0.401-3.346,0.032c-3.199-0.701-7.503-2.322-7.503-2.322L44.681,159.232z"/>
	<path id="XMLID_123_" class="st2" d="M43.116,164.245c0,0,2.758,3.869,4.194,6.833c0.708,1.462,1.096,2.704,0.67,3.151
		c-0.396,0.415-1.67-0.049-3.168-0.834c-2.84-1.488-6.487-4.129-6.487-4.129L43.116,164.245z"/>
	<path id="XMLID_122_" class="st2" d="M38.9,168.069c0,0,1.79,4.396,2.516,7.594c0.358,1.578,0.459,2.865-0.044,3.188
		c-0.467,0.299-1.58-0.462-2.837-1.587c-2.384-2.133-5.286-5.572-5.286-5.572L38.9,168.069z"/>
	<path id="XMLID_121_" class="st5" d="M43.996,159.499c0,0,3.777,2.826,6.067,5.076c1.13,1.11,1.9,2.079,1.673,2.499
		c-0.21,0.389-1.503,0.168-3.104-0.287c-3.036-0.864-7.184-2.573-7.184-2.573L43.996,159.499z"/>
	<path id="XMLID_120_" class="st5" d="M42.241,164.162c0,0,2.899,3.722,4.516,6.495c0.798,1.368,1.285,2.506,0.956,2.851
		c-0.305,0.32-1.494-0.233-2.918-1.095c-2.701-1.633-6.252-4.375-6.252-4.375L42.241,164.162z"/>
	<path id="XMLID_119_" class="st5" d="M38.127,167.565c0,0,1.937,4.302,2.852,7.379c0.452,1.518,0.656,2.739,0.254,2.997
		c-0.373,0.239-1.396-0.58-2.577-1.754c-2.238-2.226-5.041-5.729-5.041-5.729L38.127,167.565z"/>
</g>
<g id="XMLID_115_" class="st4">
	<path id="XMLID_117_" class="st1" d="M83.031,161.696c-0.692,2.702,1.194,10.423,4.868,14.32c2.07,2.195,10.172,6.825,16.838,1.753
		c2.07-1.575,5.431-5.619,5.431-5.619c0.171-1.059,0.317-2.149,0.435-3.285C108.938,170.549,83.516,164.623,83.031,161.696z"/>
	<path id="XMLID_116_" class="st1" d="M45.706,175.91c3.532-3.746,5.405-11.163,4.93-13.985c-0.534,2.897-24.525,9.777-25.758,8.65
		c0.151,1.139,0.331,2.243,0.539,3.317c0,0,2.206,2.824,3.451,3.771C35.534,182.735,43.636,178.105,45.706,175.91z"/>
</g>
<linearGradient id="XMLID_4_" gradientUnits="userSpaceOnUse" x1="90.4779" y1="220.5774" x2="96.8521" y2="162.3681" gradientTransform="matrix(0.9763 -0.2165 0.2165 0.9763 -33.2298 -25.908)">
	<stop  offset="0.0239" style="stop-color:#2B93D1"/>
	<stop  offset="0.257" style="stop-color:#2B93D1"/>
</linearGradient>
<path id="XMLID_114_" class="st6" d="M102.719,110.502c7.146,9.055,15.571,25.904,16.65,35.1
	c0.943,8.037-0.979,17.805-14.738,28.274c-6.666,5.072-14.768,0.442-16.838-1.753c-3.906-4.142-5.793-10.469-4.708-12.901
	c1.796-4.024,9.466-8.069,11.388-12.44c0.81-1.843-5.049-13.063-3.643-21.58S102.719,110.502,102.719,110.502z"/>
<g id="XMLID_111_" class="st7">
	<path id="XMLID_113_" class="st1" d="M97.76,136.433c-2.177-2.541,3.141-10.434,12.215-14.844c1.026,1.731,2.065,4.005,3.169,6.049
		C104.562,131.877,99.95,138.989,97.76,136.433z"/>
	<path id="XMLID_112_" class="st1" d="M107.683,143.598c-2.448-2.406,1.756-8.206,7.858-10.683c0,0,1.773,4.587,2.427,6.565
		C113.384,141.27,110.173,146.046,107.683,143.598z"/>
</g>
<linearGradient id="XMLID_20_" gradientUnits="userSpaceOnUse" x1="-483.523" y1="93.2574" x2="-477.1488" y2="35.0481" gradientTransform="matrix(-0.9763 -0.2165 -0.2165 0.9763 -421.2234 -25.908)">
	<stop  offset="0.0239" style="stop-color:#2B93D1"/>
	<stop  offset="0.257" style="stop-color:#2B93D1"/>
</linearGradient>
<path id="XMLID_110_" class="st8" d="M30.78,110.502c-7.146,9.055-15.571,25.904-16.65,35.1
	c-0.943,8.037,0.979,17.805,14.738,28.274c6.666,5.072,14.768,0.442,16.838-1.753c3.906-4.142,5.793-10.469,4.708-12.901
	c-1.796-4.024-9.466-8.069-11.388-12.44c-0.81-1.843,5.049-13.063,3.643-21.58S30.78,110.502,30.78,110.502z"/>
<g id="XMLID_107_" class="st7">
	<path id="XMLID_109_" class="st1" d="M35.739,136.433c2.177-2.541-3.141-10.434-12.215-14.844
		c-1.026,1.731-2.065,4.005-3.169,6.049C28.936,131.877,33.549,138.989,35.739,136.433z"/>
	<path id="XMLID_108_" class="st1" d="M25.816,143.598c2.448-2.406-1.756-8.206-7.858-10.683c0,0-1.773,4.587-2.428,6.565
		C20.114,141.27,23.326,146.046,25.816,143.598z"/>
</g>
<path id="XMLID_106_" class="st5" d="M68.186,104.518H31.549c-18.343,23.239,38.936,38.377,40.63,34.167
	c2.081-5.171,13.174-7.353,18.794-9.448c21.167-7.89,13.726-24.719,13.726-24.719H68.186z"/>
<g id="XMLID_104_" class="st4">
	<path id="XMLID_105_" class="st1" d="M91.765,126.87c-6.257,1.744-17.648,2.641-19.805,7.812
		c-1.346,3.228-38.193-5.603-44.004-20.301c0.334,21.169,42.8,30.351,44.223,26.814c2.081-5.171,13.238-7.189,18.794-9.448
		c11.995-4.877,13.805-11.939,14.658-17.083C103.669,118.608,99.827,124.623,91.765,126.87z"/>
</g>
<path id="XMLID_103_" class="st1" d="M90.111,22.232c0,0,13.514-25.45,22.49-19.728c6.742,4.297,17.263,33.933,4.735,49.849
	L90.111,22.232z"/>
<path id="XMLID_102_" class="st9" d="M100.359,28.531c4.499-0.479,10.319-8.617,4.149-7.894c6.91-3.493,3.878-13.512,6.713-11.031
	c4.735,4.143,10.654,28.014,3.551,36.695C107.67,54.981,100.359,28.531,100.359,28.531z"/>
<path id="XMLID_101_" class="st1" d="M44.491,22.232c0,0-13.514-25.45-22.49-19.728C15.259,6.8,4.738,36.436,17.265,52.352
	L44.491,22.232z"/>
<path id="XMLID_100_" class="st9" d="M34.243,28.531c-4.499-0.479-10.319-8.617-4.149-7.894c-6.91-3.493-3.878-13.512-6.713-11.031
	c-4.735,4.143-10.654,28.014-3.551,36.695S34.243,28.531,34.243,28.531z"/>
<g id="XMLID_97_">
	<path id="XMLID_99_" class="st2" d="M117.336,52.352c1.468-1.865,2.609-3.924,3.487-6.104c-2.475-4.419-5.388-8.827-8.865-12.918
		C106.238,26.599,99.757,21.491,92.577,18c-1.531,2.477-2.465,4.232-2.465,4.232L117.336,52.352z"/>
	<path id="XMLID_98_" class="st2" d="M44.491,22.232c0,0-0.922-1.732-2.435-4.183c-7.142,3.49-13.59,8.58-19.285,15.281
		c-3.51,4.13-6.45,8.583-8.939,13.044c0.872,2.132,1.994,4.148,3.434,5.978L44.491,22.232z"/>
</g>
<linearGradient id="XMLID_21_" gradientUnits="userSpaceOnUse" x1="67.325" y1="21.1468" x2="67.325" y2="97.2374">
	<stop  offset="0.0059" style="stop-color:#2B93D1"/>
	<stop  offset="1" style="stop-color:#006EB7"/>
</linearGradient>
<path id="XMLID_96_" class="st10" d="M125.695,70.151c-5.735-19.335-21.072-53.007-58.33-53.007S14.77,50.816,9.034,70.151
	c-2.31,7.787-7.899,17.283-1.217,21.624c4.417,2.87,4.517,3.04,2.473,4.242c-0.319,0.187-1.739,0.424-0.888,1.184
	c11.479,10.244,25.758,17.359,42.122,17.359c5.853,0,11.221,0.003,15.84,0c4.829,0.003,10.472,0,16.63,0
	c14.615,0,30.065-7.303,41.332-17.359c0.851-0.759-0.569-0.996-0.888-1.184c-2.045-1.202-1.908-1.317,2.473-4.242
	C133.415,87.434,128.005,77.938,125.695,70.151z"/>
<g id="XMLID_68_" class="st4">
	<path id="XMLID_70_" class="st1" d="M67.369,109.934c-5.116,0.003-11.061,0-17.544,0c-15.319,0-28.98-5.093-40.522-12.852
		c0.034,0.04,0.051,0.075,0.099,0.118c11.479,10.244,25.758,17.359,42.122,17.359c5.853,0,11.221,0.003,15.84,0
		c4.829,0.003,10.472,0,16.63,0c14.615,0,30.065-7.303,41.332-17.359c0.091-0.081,0.144-0.153,0.187-0.223
		c-11.659,7.71-26.018,12.957-39.726,12.957C78.967,109.934,72.717,109.937,67.369,109.934z"/>
</g>
<g id="XMLID_64_">
	<path id="XMLID_67_" class="st1" d="M67.201,36.532c-3.533,0-3.643-18.014-3.646-19.268c2.909-0.12,4.432-0.12,7.291-0.02
		C70.845,18.332,70.756,36.532,67.201,36.532z"/>
	<path id="XMLID_66_" class="st1" d="M80.762,32.682c-3.685,0-3.646-14.718-3.646-14.718s2.528,0.504,3.763,0.812
		c0.862,0.215,3.528,1.012,3.528,1.012S84.447,32.682,80.762,32.682z"/>
	<path id="XMLID_65_" class="st1" d="M53.58,32.752c3.685,0,3.646-14.719,3.646-14.719s-2.226,0.496-3.763,0.798
		c-0.871,0.171-3.528,1.083-3.528,1.083S49.895,32.752,53.58,32.752z"/>
</g>
<g id="XMLID_43_">
	<g id="XMLID_53_">
		<g id="XMLID_60_">
			<path id="XMLID_63_" class="st1" d="M107.051,57.501c-2.381-3.114-6.033-5.173-10.563-5.955c-1.103-0.19-2.213-0.287-3.299-0.287
				c-3.81,0-7.297,1.161-10.085,3.357c-2.967,2.337-4.972,5.732-5.799,9.818c-0.968,4.784-0.155,9.386,2.29,12.959
				c2.362,3.452,6.099,5.773,10.523,6.537c1.126,0.194,2.261,0.293,3.373,0.293c3.912,0,7.478-1.186,10.313-3.429
				c3.101-2.454,5.139-6.051,5.894-10.401C110.799,64.039,108.866,59.875,107.051,57.501z"/>
			<path id="XMLID_62_" class="st2" d="M80.675,65.116c1.301-6.431,6.097-10.424,12.519-10.424c0,0,0.002,0,0.004,0
				c0.892,0,1.804,0.08,2.711,0.236c3.659,0.632,6.571,2.243,8.418,4.659c2.008,2.628,2.698,6.162,1.994,10.22
				c-1.175,6.774-6.088,10.982-12.824,10.982c-0.921,0-1.859-0.082-2.785-0.242c-3.502-0.604-6.442-2.413-8.276-5.096
				C80.491,72.609,79.881,69.036,80.675,65.116z"/>
			<path id="XMLID_61_" class="st5" d="M95.6,56.627c-0.809-0.14-1.612-0.21-2.397-0.21c-5.161,0-9.622,3.012-10.843,9.042
				c-1.441,7.121,2.498,12.327,8.661,13.39c0.827,0.143,1.654,0.215,2.468,0.215c5.252,0,9.992-3.01,11.126-9.545
				C105.924,61.972,101.815,57.7,95.6,56.627z"/>
		</g>
		<g id="XMLID_54_">
			<path id="XMLID_59_" class="st11" d="M41.876,56.417c-0.785,0-1.588,0.07-2.397,0.21c-6.216,1.073-10.324,5.345-9.015,12.893
				c1.134,6.535,5.873,9.545,11.126,9.545c0.814,0,1.641-0.072,2.468-0.215c6.163-1.064,10.102-6.269,8.661-13.39
				C51.498,59.43,47.037,56.417,41.876,56.417z"/>
			<g id="XMLID_55_">
				<path id="XMLID_58_" class="st1" d="M57.775,64.434c-0.827-4.086-2.832-7.481-5.799-9.818
					c-2.788-2.196-6.275-3.358-10.085-3.358h0c-1.087,0-2.197,0.097-3.3,0.287c-4.53,0.782-8.183,2.841-10.564,5.955
					c-1.815,2.374-3.748,6.538-2.645,12.892c0.755,4.35,2.793,7.947,5.894,10.401c2.835,2.243,6.401,3.429,10.313,3.429
					c1.112,0,2.247-0.099,3.373-0.293c4.424-0.763,8.161-3.085,10.523-6.537C57.93,73.821,58.743,69.218,57.775,64.434z"/>
				<path id="XMLID_57_" class="st2" d="M54.41,65.116c-1.301-6.431-6.097-10.424-12.519-10.424c-0.001,0-0.002,0-0.002,0
					c-0.894,0-1.805,0.08-2.712,0.236c-3.659,0.632-6.571,2.243-8.418,4.659c-2.008,2.628-2.698,6.162-1.994,10.22
					c1.175,6.774,6.088,10.982,12.824,10.982c0.921,0,1.859-0.082,2.785-0.242c3.502-0.604,6.442-2.413,8.276-5.096
					C54.594,72.609,55.203,69.036,54.41,65.116z"/>
				<path id="XMLID_56_" class="st5" d="M52.718,65.459c-1.22-6.029-5.681-9.042-10.843-9.042c-0.785,0-1.588,0.07-2.397,0.21
					c-6.216,1.073-10.324,5.345-9.015,12.893c1.134,6.535,5.873,9.545,11.126,9.545c0.814,0,1.641-0.072,2.468-0.215
					C50.221,77.786,54.16,72.58,52.718,65.459z"/>
			</g>
		</g>
	</g>
	<g id="XMLID_51_">
		<path id="XMLID_52_" class="st12" d="M35.502,62.705c1.176-1.321,2.806-2.27,4.705-2.588c4.346-0.727,8.445,2.123,9.155,6.367
			c0.71,4.244-2.237,8.274-6.583,9.001c-2.171,0.363-4.245-0.216-5.935-1.318c-0.471-0.307-0.94-1.237-0.333-1.989
			c0.84-1.039,1.986-2.673,2.469-3.404c0.533-0.806,0.138-1.648-0.386-2.004c-0.599-0.407-1.965-1.226-2.855-1.981
			C34.863,64.046,35.152,63.098,35.502,62.705z"/>
	</g>
	<g id="XMLID_49_">
		<path id="XMLID_50_" class="st5" d="M43.146,70.206c-0.756-0.177-1.521,0.154-1.805,1.02c-0.291,0.888,0.127,1.572,0.888,1.75
			c0.761,0.178,1.577-0.138,1.857-1.081C44.367,70.953,43.914,70.385,43.146,70.206z"/>
	</g>
	<g id="XMLID_44_">
		<g id="XMLID_47_">
			<path id="XMLID_48_" class="st12" d="M99.207,62.705c-1.176-1.321-2.806-2.27-4.705-2.588c-4.346-0.727-8.445,2.123-9.155,6.367
				s2.237,8.274,6.583,9.001c2.171,0.363,4.245-0.216,5.935-1.318c0.471-0.307,0.94-1.237,0.333-1.989
				c-0.84-1.039-1.986-2.673-2.469-3.404c-0.533-0.806-0.138-1.648,0.386-2.004c0.599-0.407,1.965-1.226,2.855-1.981
				C99.846,64.046,99.557,63.098,99.207,62.705z"/>
		</g>
		<g id="XMLID_45_">
			<path id="XMLID_46_" class="st5" d="M91.562,70.206c0.756-0.177,1.521,0.154,1.805,1.02c0.291,0.888-0.127,1.572-0.888,1.75
				s-1.577-0.138-1.857-1.081C90.342,70.953,90.795,70.385,91.562,70.206z"/>
		</g>
	</g>
</g>
<path id="XMLID_42_" class="st13" d="M70.541,76.08c-0.313-0.292-0.72-0.486-1.148-0.486c-0.175,0-0.345,0.024-0.506,0.069
	c-0.916,0.258-1.879,0.17-2.81-0.029c-0.119-0.025-0.242-0.039-0.368-0.041c-0.646-0.008-1.236,0.367-1.59,0.908
	c-0.308,0.472-0.343,0.906-0.269,1.302c-0.001,0.015-0.002,0.03-0.002,0.046c0,2.037,1.657,3.694,3.694,3.694
	s3.694-1.657,3.694-3.694c0-0.023-0.002-0.045-0.003-0.068C71.317,77.289,71.253,76.743,70.541,76.08z"/>
<g id="XMLID_16_">
	<defs>
		<path id="XMLID_17_" d="M81.017,81.777c-2.157-1.819-5.304-1.479-7.199,0.61c-1.807,1.992-4.129,2.959-6.279,2.959
			c-1.566,0-4.082-0.464-6.279-2.959c-1.864-2.117-5.043-2.43-7.199-0.61c-2.153,1.817-2.435,5.037-0.625,7.194l0,0
			c0.543,0.644,5.347,6.084,13.075,6.557c0.337,0.021,0.678,0.035,1.027,0.036h0.002h0.001c0.348-0.001,0.689-0.016,1.027-0.036
			c7.728-0.473,12.531-5.913,13.075-6.557l0,0C83.452,86.815,83.17,83.594,81.017,81.777z"/>
	</defs>
	<use xlink:href="#XMLID_17_"  style="overflow:visible;fill:#E10786;"/>
	<clipPath id="XMLID_22_">
		<use xlink:href="#XMLID_17_"  style="overflow:visible;"/>
	</clipPath>
	<path id="XMLID_41_" class="st14" d="M52.189,108.331c5.662,0,21.544,0,30.701,0c0-10.027-6.873-18.155-15.351-18.155
		S52.189,98.305,52.189,108.331z"/>
	<g id="XMLID_18_" class="st15">
		<path id="XMLID_40_" class="st5" d="M73.399,75.594c0,0,1.071,4.667,2.45,7.751c0.68,1.522,1.435,2.66,2.174,2.66
			c0.685,0,1.336-1.242,1.894-2.867c1.058-3.082,1.784-7.544,1.784-7.544H73.399z"/>
		<path id="XMLID_19_" class="st5" d="M61.49,75.594c0,0-1.071,4.667-2.45,7.751c-0.68,1.522-1.435,2.66-2.174,2.66
			c-0.685,0-1.336-1.242-1.894-2.867c-1.058-3.082-1.784-7.544-1.784-7.544H61.49z"/>
	</g>
</g>
<radialGradient id="XMLID_23_" cx="-11385.7188" cy="75.5214" r="24.9139" gradientTransform="matrix(1 0 0 1 11487.6357 0)" gradientUnits="userSpaceOnUse">
	<stop  offset="0.2084" style="stop-color:#2B93D1"/>
	<stop  offset="0.566" style="stop-color:#157DC2"/>
	<stop  offset="0.8402" style="stop-color:#006EB7;stop-opacity:0.4"/>
</radialGradient>
<path id="XMLID_15_" class="st16" d="M111.048,72.703c0,0-17.424-0.079-21.007,11.366c-1.001,3.198,0.111,5.759,2.234,7.791
	c5.474,5.239,14.523,9.593,18.773,6.95C116.591,95.364,120,72.703,111.048,72.703z"/>
<radialGradient id="XMLID_24_" cx="-13741.9453" cy="75.5274" r="24.7453" gradientTransform="matrix(-1 0 0 1 -13709.3203 0)" gradientUnits="userSpaceOnUse">
	<stop  offset="0.2084" style="stop-color:#2B93D1"/>
	<stop  offset="0.566" style="stop-color:#157DC2"/>
	<stop  offset="0.8402" style="stop-color:#006EB7;stop-opacity:0.4"/>
</radialGradient>
<path id="XMLID_14_" class="st17" d="M23.112,72.703c0,0,17.424-0.079,21.007,11.366c1.001,3.198-0.111,5.759-2.234,7.791
	c-5.474,5.239-14.617,9.738-18.773,6.95C17.691,95.175,16.129,72.703,23.112,72.703z"/>
<g id="XMLID_12_">
	<linearGradient id="XMLID_25_" gradientUnits="userSpaceOnUse" x1="37.0621" y1="185.6677" x2="41.5169" y2="162.0283">
		<stop  offset="0.0239" style="stop-color:#2B93D1"/>
		<stop  offset="0.257" style="stop-color:#2B93D1"/>
	</linearGradient>
	<path id="XMLID_13_" class="st18" d="M39.241,171.522c-0.004-0.009-0.009-0.018-0.013-0.027c0.257,0.824,0.437,1.615,0.562,2.38
		C39.769,173.16,39.61,172.377,39.241,171.522z"/>
</g>
<g id="XMLID_5_">
	<path id="XMLID_11_" class="st9" d="M64.946,163.134c-0.436-2.274,1.193-3.58,2.52-3.634c2.239-0.091,2.911,1.107,2.893,3.362
		c-0.026,3.304-0.86,7.781-3.494,8.034c-0.752,0.072-1.606-0.045-2.023-1.102C63.986,167.627,65.687,166.996,64.946,163.134z"/>
	<path id="XMLID_10_" class="st9" d="M67.561,152.911c-1.484,0-2.706,1-2.753,2.832c-0.048,1.877,1.09,3.03,2.583,3.03
		s2.816-0.994,2.816-2.974C70.208,153.818,69.067,152.911,67.561,152.911z"/>
	<path id="XMLID_8_" class="st9" d="M61.793,157.742c-0.524,0.604-0.635,1.676,0.232,2.505c0.889,0.85,1.982,0.664,2.535,0.158
		c0.589-0.54,0.736-1.782-0.225-2.652C63.375,156.882,62.378,157.066,61.793,157.742z"/>
	<path id="XMLID_6_" class="st9" d="M61.448,162.23c-0.198,0.503,0.011,1.264,0.75,1.551c0.758,0.294,1.39-0.115,1.614-0.625
		c0.263-0.599,0.027-1.361-0.781-1.648C62.224,161.221,61.675,161.653,61.448,162.23z"/>
</g>
</svg>
