<?xml version="1.0" encoding="utf-8"?>
<!-- Generator: Adobe Illustrator 20.0.0, SVG Export Plug-In . SVG Version: 6.00 Build 0)  -->
<svg version="1.1" id="Isolation_Mode" xmlns="http://www.w3.org/2000/svg" xmlns:xlink="http://www.w3.org/1999/xlink" x="0px"
	 y="0px" width="158.009px" height="101.585px" viewBox="0 0 158.009 101.585" style="enable-background:new 0 0 158.009 101.585;"
	 xml:space="preserve">
<style type="text/css">
	.st0{fill:#FFFFFF;}
	.st1{fill:#F9FCFF;}
	.st2{fill:#ECF7FE;}
</style>
<g>
	<path class="st0" d="M15.659,23.313C1.95,33.685-2.855,51.658,2.888,67.861c1.337,3.771,3.362,7.34,6.204,10.156
		c5.451,5.401,13.182,8.756,20.463,11.178c7.053,2.346,20.432-0.487,27.667-7c4.154,8.622,13.226,9.594,22.777,10.197
		c9.551,0.603,19.258-4.283,24.464-12.314c7.949,4.368,17.826,6.809,26.031,2.944c8.205-3.866,12.396-15.987,6.043-22.459
		c8.145-1.622,14.821-4.371,19.042-13.698c3.614-7.985,2.651-22.09-8.884-30.035c-7.218-4.972-19.587-4.645-25.87,1.466
		C121.118,6.365,104.532,1.14,99.555,0.861c-12.965-0.727-12.337-3.005-27.333,5c-6.526,3.484-4,2.667-15.562,12.119
		C44.599,7.579,26.866,14.835,15.659,23.313z"/>
	<path class="st1" d="M147.257,18.376c-2.842-1.958-6.484-3.08-10.238-3.365c-5.656,2.007-10.776,5.548-14.541,10.226
		c-4.798,5.96-8.041,14.06-15.243,16.644c-4.147,1.488-8.729,0.739-13.106,1.246c-4.757,0.551-9.2,2.577-13.813,3.861
		c-15.394,4.284-31.732,0.163-47.173-3.952c-5.887-1.569-11.915-3.193-16.96-6.752c-1.381-0.974-2.592-2.152-3.806-3.272
		C3.103,42.278-0.969,56.94,3.451,69.409c1.337,3.771,3.362,7.34,6.204,10.156c5.451,5.401,13.408,7.56,21.077,7.832
		c9.728,0.344,19.875-2.237,27.109-8.75c4.154,8.622,13.17,14.69,22.721,15.293c9.551,0.603,19.258-4.283,24.464-12.314
		c7.949,4.368,17.826,6.809,26.031,2.943c8.205-3.866,12.396-15.987,6.043-22.459c8.145-1.622,14.821-4.371,19.042-13.698
		C159.755,40.426,158.792,26.321,147.257,18.376z"/>
	<path class="st2" d="M157.132,46.673c0.188-0.491,0.355-1.014,0.518-1.542c-0.792,1.305-1.665,2.542-2.626,3.68
		c-5.602,6.638-13.857,9.989-21.719,8.817c-1.952,7.957-7.374,14.598-14.022,17.176c-6.649,2.578-14.336,1.021-19.884-4.027
		c-5.105,7.706-14.09,10.885-22.284,9.565c-8.194-1.32-15.629-6.591-21.768-13.154C45.261,79.643,28.088,83.76,15.278,75.536
		C6.055,69.615,2.986,60.383,0.869,49.928c-1.366,7.298-1.173,14.964,0.946,22.043c1.36,4.543,3.42,8.843,6.31,12.236
		c5.544,6.507,13.639,9.109,21.439,9.436C39.46,94.057,49.781,90.947,57.14,83.1c4.225,10.387,13.397,17.698,23.112,18.425
		c9.715,0.726,19.59-5.161,24.885-14.836c8.086,5.262,18.132,8.204,26.478,3.546c8.346-4.657,12.61-19.261,6.147-27.059
		C146.047,61.222,152.838,57.91,157.132,46.673z"/>
</g>
</svg>
