<?xml version="1.0" encoding="utf-8"?>
<!-- Generator: Adobe Illustrator 20.0.0, SVG Export Plug-In . SVG Version: 6.00 Build 0)  -->
<svg version="1.1" id="Isolation_Mode" xmlns="http://www.w3.org/2000/svg" xmlns:xlink="http://www.w3.org/1999/xlink" x="0px"
	 y="0px" width="271px" height="127px" viewBox="0 0 271 127" style="enable-background:new 0 0 271 127;" xml:space="preserve">
<style type="text/css">
	.st0{fill:#FFFFFF;}
	.st1{fill:#F9FCFF;}
	.st2{fill:#ECF7FE;}
</style>
<path class="st0" d="M121.5,2C99.419,5.18,99,7,82.5,30c-4.978-5.422-14-4-19.5-1.5c-6.701,3.046-9.507,15.581-10.695,22.845
	c-8.847-7.403-22.524-4.093-32.193,2.2C9.912,60.184,1.034,71.876,3.995,83.681c2.108,8.402,9.845,14.458,18.125,17.001
	c8.28,2.543,17.135,2.183,25.789,1.799c14.97,20.926,49.143,24.217,67.832,6.534c5.7,9.828,16.656,16.39,28.011,16.777
	c11.355,0.387,22.732-5.414,29.088-14.832c14.812,13.264,40.968,10.435,52.601-5.69c14.838,3.534,31.61-4.451,38.22-18.198
	c6.61-13.746,2.375-31.833-9.651-41.216c-12.026-9.383-30.599-9.092-42.326,0.662c0.743-11.992-8.033-21.893-21.358-25.171
	c-10.869-2.674-23.093,3.307-23.093,3.307S159.725-3.504,121.5,2z"/>
<path class="st1" d="M254.511,43.856c-3.556-2.775-7.691-4.681-12.046-5.769c0.32,4.921-0.158,9.765-2.166,14.272
	c-4.207,9.446-14.439,15.131-24.692,16.472c-10.253,1.341-20.613-0.994-30.574-3.769c-4.292-1.196-8.659-2.489-13.109-2.267
	c-6.152,0.307-11.746,3.453-17.589,5.401c-8.534,2.845-17.905,3.125-26.594,0.794c-5.335-1.431-10.514-3.835-16.036-3.936
	c-7.38-0.134-14.116,3.829-21.114,6.175c-12.258,4.109-26.131,3.152-37.709-2.601c-7.195-3.575-12.488-9.64-14.66-17.341
	c-0.588-2.084-0.658-4.133-0.866-6.007c-5.843,0.633-11.814,3.055-16.744,6.264c-10.2,6.639-19.078,18.331-16.117,30.135
	c2.107,8.402,9.845,14.458,18.125,17.001c8.28,2.543,17.135,2.183,25.789,1.799c14.97,20.926,49.143,24.217,67.832,6.534
	c5.7,9.828,16.656,16.39,28.011,16.777c11.355,0.387,22.732-5.414,29.088-14.832c14.812,13.264,40.968,10.435,52.601-5.69
	c14.838,3.534,31.61-4.451,38.22-18.198C270.771,71.326,266.536,53.239,254.511,43.856z"/>
<path class="st2" d="M252.055,79.721c-11.07,6.982-24.817,8.95-37.791,7.233c-4.252,8.021-13.265,12.854-22.32,13.502
	c-9.056,0.648-18.071-2.447-25.825-7.168c-4.919,6.923-13.198,11.336-21.688,11.56c-8.49,0.224-16.99-3.746-22.268-10.4
	c-2.096-2.643-4.422-6.039-7.78-5.726c-2.057,0.192-3.657,1.785-5.194,3.166c-8.184,7.354-19.702,10.844-30.592,9.268
	c-10.89-1.576-20.946-8.187-26.71-17.559c-11.726,5.279-27.187,1.71-34.322-8.989c-3.51-5.262-4.256-11.608-3.243-17.736
	c0.025-0.153,0.06-0.316,0.091-0.475C7.185,63.143,2.161,72.376,4.495,81.681c2.107,8.402,9.845,14.458,18.125,17.001
	c8.28,2.543,17.135,2.183,25.789,1.799c14.97,20.926,49.143,24.217,67.832,6.534c5.7,9.828,16.656,16.39,28.011,16.777
	c11.355,0.387,22.732-5.414,29.088-14.832c14.812,13.264,40.968,10.435,52.601-5.69c14.838,3.534,31.61-4.451,38.22-18.198
	c3.098-6.442,3.786-13.833,2.434-20.839C263.195,70.492,258.093,75.913,252.055,79.721z"/>
</svg>
