<?xml version="1.0" encoding="utf-8"?>
<!-- Generator: Adobe Illustrator 20.0.0, SVG Export Plug-In . SVG Version: 6.00 Build 0)  -->
<svg version="1.1" id="Isolation_Mode" xmlns="http://www.w3.org/2000/svg" xmlns:xlink="http://www.w3.org/1999/xlink" x="0px"
	 y="0px" width="169.492px" height="107.995px" viewBox="0 0 169.492 107.995" style="enable-background:new 0 0 169.492 107.995;"
	 xml:space="preserve">
<style type="text/css">
	.st0{fill:#FFFFFF;}
	.st1{fill:#F9FCFF;}
	.st2{fill:#ECF7FE;}
</style>
<g>
	<path class="st0" d="M22.919,32.739C9.21,43.11,4.406,61.084,10.148,77.287c1.336,3.771,3.362,7.34,6.203,10.156
		c5.451,5.401,13.408,7.56,21.077,7.832c9.728,0.344,19.875-2.237,27.109-8.75c4.154,8.622,13.17,14.69,22.721,15.293
		c9.551,0.603,19.258-4.283,24.464-12.314c7.949,4.368,17.826,6.809,26.031,2.944c8.205-3.866,12.396-15.987,6.043-22.46
		c8.145-1.622,14.821-4.371,19.042-13.698c3.614-7.985,2.651-22.09-8.884-30.035c-7.218-4.972-19.587-4.645-25.87,1.466
		c0.295-11.929-12.831-19.314-17.495-21.073C96.587,1.365,86.466,2.203,76.253,8.739c-6.231,3.988-12.553,8.482-12.333,18.667
		C51.859,17.004,34.127,24.26,22.919,32.739z"/>
	<path class="st1" d="M153.954,26.253c-2.842-1.958-6.484-3.08-10.238-3.365c-5.656,2.007-10.776,5.548-14.541,10.226
		c-4.798,5.96-8.041,14.06-15.243,16.644c-4.147,1.488-8.729,0.739-13.106,1.246c-4.757,0.551-9.2,2.577-13.813,3.861
		c-15.394,4.284-31.732,0.163-47.173-3.952c-5.887-1.569-11.915-3.193-16.96-6.752c-1.381-0.974-2.592-2.152-3.806-3.272
		C9.8,50.156,5.729,64.817,10.148,77.287c1.337,3.771,3.362,7.34,6.204,10.156c5.451,5.401,13.408,7.56,21.077,7.832
		c9.728,0.344,19.875-2.237,27.109-8.75c4.154,8.622,13.17,14.69,22.721,15.293c9.551,0.603,19.258-4.283,24.464-12.314
		c7.949,4.368,17.826,6.809,26.031,2.944c8.204-3.866,12.396-15.987,6.043-22.459c8.145-1.622,14.821-4.371,19.042-13.698
		C166.453,48.303,165.489,34.199,153.954,26.253z"/>
	<path class="st2" d="M162.839,56.288c0.185-0.408,0.349-0.841,0.509-1.28c-0.779,1.083-1.637,2.11-2.582,3.055
		c-5.508,5.51-13.623,8.291-21.352,7.318c-1.919,6.605-7.249,12.116-13.785,14.257c-6.536,2.14-14.094,0.848-19.548-3.343
		c-5.019,6.396-13.851,9.035-21.907,7.939c-8.056-1.096-15.365-5.471-21.4-10.918c-9.915,10.339-26.797,13.755-39.391,6.929
		C14.317,75.331,11.3,67.668,9.219,58.991c-1.343,6.057-1.153,12.42,0.93,18.296c1.337,3.771,3.362,7.34,6.204,10.156
		c5.451,5.401,13.408,7.56,21.077,7.832c9.728,0.344,19.875-2.237,27.109-8.75c4.154,8.622,13.17,14.69,22.721,15.293
		c9.551,0.603,19.258-4.283,24.464-12.314c7.949,4.368,17.826,6.809,26.031,2.944c8.204-3.866,12.396-15.987,6.043-22.459
		C151.941,68.364,158.617,65.615,162.839,56.288z"/>
</g>
</svg>
