<?xml version="1.0" encoding="utf-8"?>
<!-- Generator: Adobe Illustrator 20.0.0, SVG Export Plug-In . SVG Version: 6.00 Build 0)  -->
<svg version="1.1" id="Isolation_Mode" xmlns="http://www.w3.org/2000/svg" xmlns:xlink="http://www.w3.org/1999/xlink" x="0px"
	 y="0px" width="168px" height="105px" viewBox="0 0 168 105" style="enable-background:new 0 0 168 105;" xml:space="preserve">
<style type="text/css">
	.st0{fill:#FFFFFF;}
	.st1{fill:#F9FCFF;}
	.st2{fill:#ECF7FE;}
</style>
<g>
	<path class="st0" d="M21.438,24.786C7.729,35.157,2.924,53.131,8.667,69.333c1.336,3.771,3.362,7.34,6.203,10.156
		c5.451,5.401,13.182,8.756,20.463,11.178c7.053,2.346,20.432-0.487,27.667-7c4.154,8.622,13.226,9.594,22.777,10.197
		c9.551,0.603,19.258-4.283,24.464-12.314c7.949,4.368,17.826,6.809,26.031,2.944c8.205-3.866,12.396-15.987,6.043-22.46
		c8.145-1.622,14.821-4.371,19.042-13.698c3.614-7.985,2.651-22.09-8.884-30.035c-7.218-4.972-19.587-4.645-25.87,1.466
		c0.295-11.928-16.292-17.153-21.269-17.432C92.368,1.606,92.996-0.672,78,7.333C71.474,10.817,74,10,62.438,19.452
		C50.377,9.051,32.645,16.307,21.438,24.786z"/>
	<path class="st1" d="M153.035,19.848c-2.842-1.958-6.484-3.08-10.238-3.365c-5.656,2.007-10.776,5.548-14.542,10.226
		c-4.798,5.96-8.041,14.06-15.243,16.644c-4.147,1.488-8.729,0.739-13.106,1.246c-4.757,0.551-9.2,2.577-13.813,3.861
		c-15.394,4.284-31.732,0.163-47.173-3.952c-5.887-1.569-11.915-3.193-16.96-6.752c-1.381-0.974-2.592-2.152-3.806-3.272
		C8.881,43.75,4.81,58.412,9.229,70.881c1.337,3.771,3.362,7.34,6.204,10.156c5.451,5.401,13.408,7.56,21.077,7.832
		c9.728,0.344,19.875-2.237,27.109-8.75c4.154,8.622,13.17,14.69,22.721,15.293c9.551,0.603,19.258-4.283,24.464-12.314
		c7.949,4.368,17.826,6.809,26.031,2.943c8.204-3.866,12.396-15.987,6.043-22.459c8.145-1.622,14.821-4.371,19.042-13.698
		C165.534,41.898,164.57,27.793,153.035,19.848z"/>
	<path class="st2" d="M162.911,48.145c0.188-0.491,0.355-1.014,0.518-1.542c-0.792,1.305-1.665,2.542-2.626,3.68
		c-5.602,6.638-13.857,9.989-21.719,8.817c-1.952,7.957-7.374,14.598-14.022,17.176c-6.649,2.578-14.336,1.021-19.884-4.027
		c-5.105,7.706-14.09,10.885-22.284,9.565c-8.194-1.32-15.629-6.591-21.768-13.154c-10.085,12.456-27.258,16.573-40.069,8.349
		C11.834,71.087,8.764,61.856,6.647,51.401c-1.366,7.298-1.173,14.964,0.946,22.043c1.36,4.543,3.42,8.843,6.31,12.236
		c5.544,6.507,13.639,9.109,21.439,9.436c9.896,0.415,20.217-2.695,27.576-10.542c4.225,10.387,13.397,17.698,23.112,18.425
		c9.715,0.726,19.59-5.161,24.885-14.836c8.086,5.262,18.132,8.204,26.478,3.546c8.346-4.657,12.61-19.261,6.147-27.059
		C151.825,62.694,158.616,59.382,162.911,48.145z"/>
</g>
</svg>
