<?xml version="1.0" encoding="utf-8"?>
<!-- Generator: Adobe Illustrator 20.0.0, SVG Export Plug-In . SVG Version: 6.00 Build 0)  -->
<svg version="1.1" id="Isolation_Mode" xmlns="http://www.w3.org/2000/svg" xmlns:xlink="http://www.w3.org/1999/xlink" x="0px"
	 y="0px" width="161px" height="102.5px" viewBox="0 0 161 102.5" style="enable-background:new 0 0 161 102.5;"
	 xml:space="preserve">
<style type="text/css">
	.st0{fill:#FFFFFF;}
	.st1{fill:#F9FCFF;}
	.st2{fill:#ECF7FE;}
</style>
<g>
	<path class="st0" d="M21.333,29.333C5.611,36.284-1.589,58.71,4.154,74.913c1.337,3.771,3.362,7.34,6.203,10.156
		c5.451,5.401,13.408,7.56,21.077,7.832c9.728,0.345,19.875-2.237,27.109-8.75c4.154,8.622,13.17,14.69,22.721,15.293
		c9.551,0.603,19.258-4.283,24.464-12.314c7.949,4.368,17.826,6.809,26.031,2.944c8.205-3.866,12.396-15.987,6.043-22.46
		c8.145-1.622,14.821-4.371,19.042-13.698c3.614-7.985,2.651-22.09-8.884-30.035c-7.218-4.972-19.587-4.645-25.87,1.466
		c0.295-11.929-11.38-20.041-17.495-21.073c-14.756-2.49-29.966-1.497-37.428,8.061c-6.548,8.387-7.053,9.815-6.833,20
		C48.273,21.932,37.674,22.109,21.333,29.333z"/>
	<path class="st1" d="M147.96,23.88c-2.842-1.958-6.484-3.08-10.238-3.365c-5.656,2.007-10.776,5.548-14.541,10.226
		c-4.798,5.96-8.041,14.06-15.243,16.644c-4.147,1.488-8.729,0.739-13.106,1.246c-4.757,0.551-9.2,2.577-13.813,3.861
		c-15.394,4.284-31.732,0.163-47.173-3.952c-5.887-1.569-11.915-3.193-16.96-6.752c-1.381-0.974-2.592-2.152-3.806-3.272
		C3.806,47.782-0.265,62.444,4.154,74.913c1.337,3.771,3.362,7.34,6.204,10.156c5.451,5.401,13.408,7.56,21.077,7.832
		c9.728,0.344,19.875-2.237,27.109-8.75c4.154,8.622,13.17,14.69,22.721,15.293c9.551,0.603,19.258-4.283,24.464-12.314
		c7.949,4.368,17.826,6.809,26.031,2.944c8.204-3.866,12.396-15.987,6.043-22.459c8.145-1.622,14.821-4.371,19.042-13.698
		C160.459,45.93,159.495,31.825,147.96,23.88z"/>
	<path class="st2" d="M156.844,53.915c0.185-0.408,0.349-0.842,0.509-1.28c-0.779,1.083-1.637,2.11-2.582,3.055
		c-5.507,5.509-13.623,8.291-21.352,7.318c-1.919,6.605-7.249,12.116-13.785,14.257c-6.536,2.14-14.094,0.848-19.548-3.343
		c-5.019,6.396-13.851,9.035-21.907,7.939c-8.056-1.096-15.364-5.471-21.399-10.918c-9.915,10.339-26.797,13.756-39.391,6.929
		C8.323,72.957,5.305,65.295,3.225,56.617c-1.343,6.057-1.153,12.42,0.93,18.296c1.337,3.771,3.362,7.34,6.204,10.156
		c5.451,5.401,13.408,7.56,21.077,7.832c9.728,0.344,19.875-2.237,27.109-8.75c4.154,8.622,13.17,14.69,22.721,15.293
		c9.551,0.603,19.258-4.283,24.464-12.314c7.949,4.368,17.826,6.809,26.031,2.944c8.204-3.866,12.396-15.987,6.043-22.459
		C145.947,65.991,152.623,63.242,156.844,53.915z"/>
</g>
</svg>
