<?xml version="1.0" encoding="utf-8"?>
<!-- Generator: Adobe Illustrator 20.0.0, SVG Export Plug-In . SVG Version: 6.00 Build 0)  -->
<svg version="1.1" id="Isolation_Mode" xmlns="http://www.w3.org/2000/svg" xmlns:xlink="http://www.w3.org/1999/xlink" x="0px"
	 y="0px" width="32.333px" height="33px" viewBox="0 0 32.333 33" style="enable-background:new 0 0 32.333 33;"
	 xml:space="preserve">
<style type="text/css">
	.st0{fill:#F9E33D;}
	.st1{fill:url(#SVGID_1_);}
	.st2{opacity:0.6;fill:#F9B23D;}
	.st3{opacity:0.5;fill:#F9E33D;}
	.st4{fill:url(#SVGID_2_);}
</style>
<g>
	<path class="st0" d="M3.895,9.642c-3.647,6.534-2.113,16.272,4.829,20.475c5.651,3.421,15.624,3.027,19.533-3.679
		c4.198-7.202,3.25-14.032-1.881-20.032C20.963,0.074,9.417-0.25,3.895,9.642z"/>
	<linearGradient id="SVGID_1_" gradientUnits="userSpaceOnUse" x1="9.0446" y1="7.0149" x2="28.6985" y2="35.0173">
		<stop  offset="0" style="stop-color:#F9E33D;stop-opacity:0"/>
		<stop  offset="0.9657" style="stop-color:#F9E33D;stop-opacity:0.9657"/>
		<stop  offset="1" style="stop-color:#F9E33D"/>
	</linearGradient>
	<path class="st1" d="M3.895,9.642c-3.647,6.534-2.113,16.272,4.829,20.475c5.651,3.421,15.624,3.027,19.533-3.679
		c4.198-7.202,3.25-14.032-1.881-20.032C20.963,0.074,9.417-0.25,3.895,9.642z"/>
	<path class="st2" d="M24.211,8.726c-4.234-4.952-13.265-5.205-17.583,2.532c-2.853,5.111-1.653,12.728,3.777,16.014
		c4.42,2.676,12.22,2.368,15.278-2.878C28.966,18.762,28.224,13.419,24.211,8.726z M23.548,22.701
		c-2.352,4.035-8.351,4.271-11.751,2.213c-4.176-2.528-5.099-8.386-2.905-12.317c3.322-5.951,10.268-5.756,13.524-1.947
		C25.503,14.26,26.073,18.369,23.548,22.701z"/>
	<path class="st3" d="M12.614,4.252c5.135-1.847,11.472-0.208,14.979,3.704c-0.376-0.523-0.78-1.04-1.217-1.551
		C20.963,0.074,9.417-0.25,3.895,9.642C1.462,14,1.339,19.783,3.584,24.399C3.202,23.286,0.824,8.494,12.614,4.252z"/>
	<path class="st3" d="M9.024,19.342c-0.304-3.153,0.775-7.153,3.785-8.763c3.137-1.678,7.828-0.821,10.488,1.225
		c-0.705-0.883-1.23-1.606-1.977-2.171c-4.146-3.138-8.928-1.699-11.544,1.631c-2.683,3.414-3.098,9.327,1.13,13.013
		C9.934,22.808,9.194,21.11,9.024,19.342C8.917,18.227,9.195,21.112,9.024,19.342z"/>
	<g>
		<path class="st2" d="M7.149,12.301c4.319-7.737,13.35-7.484,17.584-2.532c0.762,0.891,1.404,1.805,1.925,2.741
			c-0.588-1.301-1.404-2.565-2.447-3.784c-4.234-4.952-13.265-5.205-17.583,2.532c-2.013,3.606-1.998,8.454,0.087,12.154
			C5.167,19.877,5.321,15.577,7.149,12.301z"/>
		<path class="st2" d="M12.319,25.958c3.4,2.058,9.399,1.821,11.751-2.213c2.072-3.555,2.057-6.958,0.281-10.059
			c1.227,2.815,1.039,5.855-0.803,9.016c-2.352,4.035-8.351,4.271-11.751,2.213c-1.207-0.731-2.133-1.744-2.8-2.904
			C9.657,23.608,10.761,25.015,12.319,25.958z"/>
	</g>
	<linearGradient id="SVGID_2_" gradientUnits="userSpaceOnUse" x1="9.0446" y1="7.0149" x2="28.6984" y2="35.0173">
		<stop  offset="0" style="stop-color:#F9E33D;stop-opacity:0"/>
		<stop  offset="1" style="stop-color:#F9E33D"/>
	</linearGradient>
	<path class="st4" d="M26.376,6.405C20.963,0.074,9.417-0.25,3.895,9.642c-3.647,6.534-2.113,16.272,4.829,20.475
		c5.651,3.421,15.624,3.027,19.533-3.679C32.455,19.235,31.507,12.405,26.376,6.405z M27.407,25.255
		c-3.607,6.188-12.808,6.551-18.021,3.394c-6.404-3.877-7.82-12.862-4.455-18.89c5.094-9.126,15.747-8.827,20.741-2.987
		C30.406,12.309,31.281,18.611,27.407,25.255z"/>
</g>
</svg>
