<svg id="Layer_2" data-name="Layer 2" xmlns="http://www.w3.org/2000/svg" viewBox="0 0 222.058 202.001"><defs><style>.cls-1{fill:#396fd8;}.cls-2{fill:#f0f2ff;}.cls-3{fill:#fff;}</style></defs><title>фейсбук</title><path class="cls-1" d="M193.767,9.507c-34.191-5.385-73.835-5.338-109.12-1.59C60.37,10.5,33.235,14.392,19.243,30.274,9.306,41.552,3.884,141.324,12.411,174.224c2.255,8.7,5.357,17.618,12.6,24.416s119.787,9.148,144.195,5.613c9.322-1.35,18.753-3.186,26.705-7.259,18.6-9.526,27.675-28.384,27.772-45.892C224,92.427,224.577,14.359,193.767,9.507Z" transform="translate(-4.33 -3.887)"/><path id="_Path_" data-name="&lt;Path&gt;" class="cls-2" d="M150.42,90.99a1.836,1.836,0,0,1-1.836-1.836V78.2c0-6.232,4.157-7.683,7.074-7.683h16.108a1.836,1.836,0,0,0,1.836-1.836V44.933a1.836,1.836,0,0,0-1.828-1.836L148.889,43c-27.43,0-33.664,20.445-33.664,33.53V89.154a1.836,1.836,0,0,1-1.836,1.836H101.2a1.836,1.836,0,0,0-1.836,1.836v28.316a1.836,1.836,0,0,0,1.836,1.836h12.327a1.836,1.836,0,0,1,1.836,1.836v79.239a1.836,1.836,0,0,0,1.836,1.836h28.317a1.836,1.836,0,0,0,1.836-1.836V124.813a1.836,1.836,0,0,1,1.836-1.836h20.232a1.836,1.836,0,0,0,1.828-1.669l1-10.895,1.586-17.422a1.836,1.836,0,0,0-1.828-2Z" transform="translate(-4.33 -3.887)"/><path class="cls-3" d="M148.164,122.93a38.408,38.408,0,0,0-.972,9.526.289.289,0,0,0,.578,0c.152-3.177.509-6.3.885-9.46.034-.282-.426-.336-.491-.066Z" transform="translate(-4.33 -3.887)"/><path class="cls-3" d="M148.408,125.093a87.013,87.013,0,0,0-1.347,16.8.164.164,0,0,0,.328,0c.131-5.626.628-11.187,1.111-16.789a.047.047,0,0,0-.092-.012Z" transform="translate(-4.33 -3.887)"/><path class="cls-3" d="M147.573,122.974a15.979,15.979,0,0,0-.84,6.6.219.219,0,0,0,.438,0,47.136,47.136,0,0,1,.673-6.523.141.141,0,0,0-.271-.075Z" transform="translate(-4.33 -3.887)"/><path class="cls-3" d="M146.933,124.6a16.709,16.709,0,0,1,.2,4.187c-.006.081.117.079.125,0a14.548,14.548,0,0,0-.231-4.212c-.012-.059-.1-.034-.09.025Z" transform="translate(-4.33 -3.887)"/><path class="cls-3" d="M146.9,140.321a165.808,165.808,0,0,0,.752,19.4c.011.109.182.111.172,0-.563-6.461-.893-12.914-.845-19.4a.039.039,0,0,0-.078,0Z" transform="translate(-4.33 -3.887)"/><path class="cls-3" d="M147.275,144.211c1.1,10.14.747,20.282.616,30.457a.227.227,0,0,0,.453,0c.6-10.186.754-20.384-.916-30.478-.014-.086-.163-.067-.153.021Z" transform="translate(-4.33 -3.887)"/><path class="cls-3" d="M148.075,159.452a147.043,147.043,0,0,0-1.053,24.128.2.2,0,0,0,.406,0c.056-8.059.219-16.09.85-24.128.01-.132-.188-.127-.2,0Z" transform="translate(-4.33 -3.887)"/><path class="cls-3" d="M147.464,157.365a265.776,265.776,0,0,0-.031,33.559c.017.289.46.294.453,0-.251-11.2-.275-22.362-.266-33.559a.078.078,0,0,0-.156,0Z" transform="translate(-4.33 -3.887)"/><path class="cls-3" d="M146.834,175.977a206.751,206.751,0,0,0,1.183,23.6c.033.295.5.3.469,0-.689-7.853-1.234-15.716-1.48-23.6a.086.086,0,0,0-.172,0Z" transform="translate(-4.33 -3.887)"/><path class="cls-3" d="M147.349,193.281a17.973,17.973,0,0,0,.388,6.1c.069.3.5.168.452-.125a46.3,46.3,0,0,1-.59-5.974.125.125,0,0,0-.25,0Z" transform="translate(-4.33 -3.887)"/><path class="cls-3" d="M147.364,198.491a15.311,15.311,0,0,0,.123,5.075c.041.2.388.162.368-.05a45.645,45.645,0,0,1-.23-4.989c0-.145-.24-.187-.261-.035Z" transform="translate(-4.33 -3.887)"/><path class="cls-3" d="M147.407,201.671c-.024.742-.052,1.483-.069,2.225l.29-.079-.277-.653c-.058-.138-.292-.039-.243.1l.235.67c.055.157.314.144.306-.041-.033-.742-.078-1.484-.117-2.225a.063.063,0,0,0-.125,0Z" transform="translate(-4.33 -3.887)"/><path class="cls-3" d="M147.158,203.244a1.152,1.152,0,0,0,.532,1.12c.08.052.182-.074.1-.135a1.267,1.267,0,0,1-.527-.985.055.055,0,0,0-.109,0Z" transform="translate(-4.33 -3.887)"/><path class="cls-3" d="M114.869,125.485c-1.063,7.1-.159,15.3.314,22.44a.258.258,0,0,0,.516,0c.161-7.155.713-15.393-.664-22.44-.016-.08-.153-.084-.166,0Z" transform="translate(-4.33 -3.887)"/><path class="cls-3" d="M115.446,136.653a258.31,258.31,0,0,0-.424,38.8c.014.209.338.212.328,0a347.268,347.268,0,0,1,.237-38.8c.006-.091-.133-.089-.141,0Z" transform="translate(-4.33 -3.887)"/><path class="cls-3" d="M114.725,151.6c-.869,10.814-1.415,21.654-1.377,32.506a.266.266,0,0,0,.531,0c.239-10.838.461-21.674.924-32.506,0-.051-.074-.05-.078,0Z" transform="translate(-4.33 -3.887)"/><path class="cls-3" d="M113.3,179.386c.148,3.236.29,6.469.506,9.7.007.109.176.111.172,0-.132-3.237-.337-6.468-.537-9.7-.006-.09-.145-.091-.141,0Z" transform="translate(-4.33 -3.887)"/><path class="cls-3" d="M113.834,191.183a29.736,29.736,0,0,0,.574,7.16c.07.339.66.269.614-.083a57.965,57.965,0,0,1-.532-7.077.328.328,0,0,0-.656,0Z" transform="translate(-4.33 -3.887)"/><path class="cls-3" d="M114.783,201.146c-.089-4.02-.165-8.04-.294-12.059a.086.086,0,0,0-.172,0c.082,4.02.218,8.039.341,12.059a.063.063,0,0,0,.125,0Z" transform="translate(-4.33 -3.887)"/><path class="cls-3" d="M114.911,180.172c-.332,7.69-.6,15.375-.405,23.072a.2.2,0,0,0,.406,0c.028-7.692-.076-15.381.077-23.072a.039.039,0,0,0-.078,0Z" transform="translate(-4.33 -3.887)"/><path class="cls-3" d="M103.947,124.608c1.228-.157,2.457-.3,3.681-.49.026,0,.02-.049-.006-.046-1.23.14-2.455.32-3.681.49-.026,0-.02.049.006.046Z" transform="translate(-4.33 -3.887)"/><path class="cls-3" d="M106.1,123.335c-.483-.13-.953-.278-1.429-.431v.555a6.223,6.223,0,0,1,2.161-.24c.208.012.26-.334.05-.368a6.379,6.379,0,0,0-2.364.053c-.345.071-.219.529.076.565.474.058.943.117,1.414.2.214.036.309-.273.091-.331Z" transform="translate(-4.33 -3.887)"/><path class="cls-3" d="M108.411,121.927a5.469,5.469,0,0,0-4.248.046.317.317,0,0,0,0,.605,13.581,13.581,0,0,0,4.853.715c.7,0,5.331.41,5.75-.265-.122.2-4.514.222-5.148.277a19.092,19.092,0,0,1-7.417-.825c-.444-.135-.631.553-.191.693,4.656,1.479,8.977-.274,13.636.457.237.037.341-.322.1-.364a33.5,33.5,0,0,0-5.381-.485c-.895-.013-1.794,0-2.687-.083a13.225,13.225,0,0,1-2.514-.436,3.414,3.414,0,0,1,3.206-.185.078.078,0,0,0,.042-.151Z" transform="translate(-4.33 -3.887)"/><path class="cls-3" d="M100.026,121.538a13.172,13.172,0,0,0-2.472.145.431.431,0,0,0-.1.779.788.788,0,0,0,1.169-.431c.058-.192-.215-.371-.353-.205-.062.076-.156.163-.233.053l-.368.642a13.177,13.177,0,0,0,2.425-.492.251.251,0,0,0-.066-.491Z" transform="translate(-4.33 -3.887)"/><path class="cls-3" d="M99.435,121.272a.742.742,0,0,1-.944-.391c-.05-.1-.194-.028-.171.072a.861.861,0,0,0,1.19.59c.166-.066.094-.338-.075-.271Z" transform="translate(-4.33 -3.887)"/><path class="cls-3" d="M98.613,101.517a109.957,109.957,0,0,0,.121,14.944.289.289,0,0,0,.578,0c.02-4.971-.135-9.977-.34-14.943a.18.18,0,0,0-.359,0Z" transform="translate(-4.33 -3.887)"/><path class="cls-3" d="M98.266,106.478l-.253-1.051c-.015-.063-.111-.036-.1.027l.253,1.051c.015.063.112.036.1-.027Z" transform="translate(-4.33 -3.887)"/><path class="cls-3" d="M98.281,96.76a47.556,47.556,0,0,0-.094,21.086c.089.371.609.2.557-.154a70.122,70.122,0,0,1-.268-20.878c.019-.126-.168-.184-.2-.054Z" transform="translate(-4.33 -3.887)"/><path class="cls-3" d="M98.67,114.37c-.19-4.207-.444-8.416-.55-12.626a54.349,54.349,0,0,1,.1-6.083c-.076.873.31-6.5.859-2.825a.177.177,0,0,0,.338,0c.3-1.78,2.038-.912,3.608-1.592.29-.126.073-.542-.2-.485l-3.317-.22a.371.371,0,0,0-.551.316q.027,2.068.091-.266a.109.109,0,0,0-.213-.029c-2.47,7.313-.654,16.248-.256,23.81,0,.06.1.06.094,0Z" transform="translate(-4.33 -3.887)"/><path class="cls-3" d="M102.081,90.379a3.018,3.018,0,0,1-1.8-.086c-.558-.2-.806.7-.245.888.416.141.829.282,1.252.4l.2-.736c-.5-.163-1.526-.5-1.92.012a.265.265,0,0,0,.052.4c.224.169.439.121.711.129a2.8,2.8,0,0,1,.954.19c.4.158.678-.5.294-.7s-.79-.371-1.191-.547l-.232.858a4.421,4.421,0,0,0,2.042-.533.157.157,0,0,0-.12-.286Z" transform="translate(-4.33 -3.887)"/><path class="cls-3" d="M108.144,91.461a13.952,13.952,0,0,0,5.046-.727c.317-.11.3-.676-.085-.629-1.651.2-3.3.43-4.961.575a.391.391,0,0,0,0,.781Z" transform="translate(-4.33 -3.887)"/><path class="cls-3" d="M113.736,90.037l1.055-.24c.439-.1.252-.8-.187-.678l-1.042.285a.328.328,0,0,0,.174.633Z" transform="translate(-4.33 -3.887)"/><path class="cls-3" d="M126.586,49.158A30.615,30.615,0,0,0,114.638,71.71c-.014.242.4.3.43.058A36.473,36.473,0,0,1,126.775,49.4c.127-.118-.046-.354-.189-.245Z" transform="translate(-4.33 -3.887)"/><path class="cls-3" d="M117.181,61.507a50.592,50.592,0,0,0-3.248,18.113.18.18,0,0,0,.359,0A93.159,93.159,0,0,1,117.3,61.54c.022-.078-.093-.108-.121-.033Z" transform="translate(-4.33 -3.887)"/><path class="cls-3" d="M114.2,73.5a49.7,49.7,0,0,0,.055,5.355.156.156,0,0,0,.313,0,49.7,49.7,0,0,0,.055-5.355.211.211,0,0,0-.422,0Z" transform="translate(-4.33 -3.887)"/><path class="cls-3" d="M114.211,78.859a7.527,7.527,0,0,1-.221,2,.2.2,0,0,0,.371.157,2.611,2.611,0,0,0,.2-2.2c-.055-.188-.366-.161-.353.048Z" transform="translate(-4.33 -3.887)"/><path class="cls-3" d="M123.023,51.465a15.436,15.436,0,0,0-6.3,11.063c-.015.223.326.26.384.052a23.345,23.345,0,0,1,6.083-10.894c.111-.108-.041-.32-.17-.221Z" transform="translate(-4.33 -3.887)"/><path class="cls-3" d="M117.444,62.062a4.2,4.2,0,0,0,.669-1.716.248.248,0,0,0-.451-.19c-.341.63-.64,1.283-.952,1.928a12.949,12.949,0,0,0-.808,1.729c-.026.085.1.166.157.091a12.982,12.982,0,0,0,.973-1.633c.357-.619.728-1.232,1.057-1.867l-.451-.19a4.149,4.149,0,0,0-.35,1.806.094.094,0,0,0,.157.041Z" transform="translate(-4.33 -3.887)"/><path class="cls-3" d="M151.9,42.53a28.634,28.634,0,0,0,9.5-.68c.218-.05.177-.426-.054-.4-3.149.366-6.288.54-9.442.814a.133.133,0,0,0,0,.266Z" transform="translate(-4.33 -3.887)"/><path class="cls-3" d="M160,41.792a14.676,14.676,0,0,0,3.843.978.1.1,0,0,0,.054-.2,14.667,14.667,0,0,0-3.877-.855.039.039,0,0,0-.02.073Z" transform="translate(-4.33 -3.887)"/><path class="cls-3" d="M168.539,43.086a2.315,2.315,0,0,0-.581-.443q-.168-.074-.337-.145-.079-.039.015.138a12.054,12.054,0,0,1,2.367.268c.09.011.125-.133.046-.171q-.335-.171-.685-.311l-.088.21a4.8,4.8,0,0,0,3.557.117c.184-.055.1-.35-.079-.286a5.374,5.374,0,0,1-3.417-.051c-.14-.052-.194.166-.061.221.823.337-.144-.008-.457-.045q-.789-.093-1.578-.184c-.106-.012-.126.159-.025.184a2.1,2.1,0,0,1,1.19.631c.09.08.223-.052.133-.133Z" transform="translate(-4.33 -3.887)"/><path class="cls-3" d="M174.662,43.631a.836.836,0,0,1-.026-.624l-.74-.1a26.66,26.66,0,0,0,.159,3.815c.022.283.492.4.537.073a12.494,12.494,0,0,0,.044-3.988c-.08-.419-.754-.321-.74.1a.842.842,0,0,0,.66.862.1.1,0,0,0,.106-.138Z" transform="translate(-4.33 -3.887)"/><path class="cls-3" d="M174.121,45.713q-.609.123-.245.9l-.011.8c0,.932,0,1.863-.018,2.8-.032,1.728-.166,3.455-.168,5.183,0,.1.167.132.184.025a39.193,39.193,0,0,0,.356-10.4.142.142,0,1,0-.281.038l.106.66a.039.039,0,0,0,.075,0Z" transform="translate(-4.33 -3.887)"/><path class="cls-3" d="M174.761,46.468c-.6,5.494-1.026,11.053-1.225,16.576-.014.38.536.36.578,0,.65-5.491,1.081-11.053,1.334-16.576.021-.45-.641-.43-.687,0Z" transform="translate(-4.33 -3.887)"/><path class="cls-3" d="M174.569,52.591a52.144,52.144,0,0,1-.245,11.464c-.015.106.141.157.166.046a32.553,32.553,0,0,0,.594-11.51c-.042-.319-.543-.337-.516,0Z" transform="translate(-4.33 -3.887)"/><path class="cls-3" d="M173.992,62.439a5.4,5.4,0,0,0,.08,3.8l.3-.174-.076-1.359-.417-.115a6.3,6.3,0,0,0,.064,3.378.165.165,0,0,0,.283,0,6.29,6.29,0,0,0,.069-3.378c-.043-.272-.465-.159-.417.115.085.485.113.96.171,1.446a.173.173,0,0,0,.346,0c.089-1.192,0-2.362.2-3.55a.313.313,0,0,0-.6-.166Z" transform="translate(-4.33 -3.887)"/><path class="cls-3" d="M173.833,66.808a14.329,14.329,0,0,0-.389,3.554l.626-.17a3.789,3.789,0,0,1-.494-1.3c-.028-.245-.368-.488-.566-.234a1.794,1.794,0,0,0,.472,2.717.229.229,0,0,0,.333-.256,5.282,5.282,0,0,1-.239-2.227l-.618.167a3.824,3.824,0,0,1,.5,1.392.338.338,0,0,0,.66-.089,29.216,29.216,0,0,1,.085-3.5c.02-.211-.322-.254-.368-.05Z" transform="translate(-4.33 -3.887)"/><path class="cls-3" d="M173.063,69.428a.008.008,0,0,0,0-.016.008.008,0,0,0,0,.016Z" transform="translate(-4.33 -3.887)"/><path class="cls-3" d="M173.059,71.186c-3.322-.289-7.113-1.019-10.438-.546-.1.015-.091.173,0,.2,3.258.83,7.1.5,10.438.569.143,0,.138-.207,0-.219Z" transform="translate(-4.33 -3.887)"/><path class="cls-3" d="M168.46,69.8c-4.311.047-8.624.49-12.922.807a.3.3,0,0,0,0,.594q.985.072,1.971.136a.149.149,0,0,0,.039-.292q-.965-.218-1.931-.428l-.079.584c4.3-.277,8.641-.435,12.922-.98.261-.033.28-.425,0-.422Z" transform="translate(-4.33 -3.887)"/><path class="cls-3" d="M162.625,70.884a12.862,12.862,0,0,0-6.7-.378.157.157,0,0,0,.042.307,24.483,24.483,0,0,1,6.622.191.063.063,0,0,0,.033-.121Z" transform="translate(-4.33 -3.887)"/><path class="cls-3" d="M156.739,70.184a8.48,8.48,0,0,0-4.159.172.244.244,0,0,0,.064.476c1.333.148,2.744-.141,4.095-.085.371.015.348-.518,0-.562Z" transform="translate(-4.33 -3.887)"/><path class="cls-3" d="M150.173,72.714a6.078,6.078,0,0,0-.941,4.654c.037.216.4.167.384-.052a7.753,7.753,0,0,1,1.084-4.294.3.3,0,0,0-.526-.308Z" transform="translate(-4.33 -3.887)"/><path class="cls-3" d="M149.269,72.207a39.858,39.858,0,0,0-.584,12.775c.015.127.215.132.2,0a47.6,47.6,0,0,1,.456-12.755c.009-.049-.065-.07-.075-.021Z" transform="translate(-4.33 -3.887)"/><path class="cls-3" d="M148.063,80.111c-.3,3.494-.54,7.724.8,11.045.065.161.324.155.322-.044-.028-3.7-.782-7.261-.557-11,.022-.364-.532-.357-.562,0Z" transform="translate(-4.33 -3.887)"/><path class="cls-3" d="M148.917,88.3c-.04-.466-.078-.932-.122-1.4a.227.227,0,0,0-.453,0,5.58,5.58,0,0,0,.931,3.476c.049.067.17.031.143-.06a11.1,11.1,0,0,1-.62-3.416l-.445.06c.119.456.244.909.367,1.364.029.107.21.09.2-.027Z" transform="translate(-4.33 -3.887)"/><path class="cls-3" d="M149.054,89.847a5.621,5.621,0,0,0,1.249.848.149.149,0,0,0,.15-.256,5.636,5.636,0,0,0-1.323-.723.079.079,0,0,0-.076.131Z" transform="translate(-4.33 -3.887)"/><path class="cls-3" d="M151.387,89.132c.561,1.5,3.072,1.281,4.4,1.464a63.347,63.347,0,0,0,8.614.7c.323,0,.419-.537.079-.583-1.857-.255-3.719-.454-5.583-.651-1.322-.14-6.219-.06-7.022-1.131-.163-.218-.6-.1-.485.2Z" transform="translate(-4.33 -3.887)"/><path class="cls-3" d="M157.262,91.167l-.123-.076a.282.282,0,0,0-.377.1l-.114.156c-.127.174.02.373.179.439,1.98.829,5.873-.3,8.059-.378.394-.014,5.045-.134,5.048-.08q.29-1.031-1.2-.406a26.608,26.608,0,0,1-3.576-.351v.8a19.679,19.679,0,0,1,8.069.536.355.355,0,0,0,.343-.589,2.464,2.464,0,0,0-2.216-.8.426.426,0,0,0,0,.852q2.883,2,1.673,4.561c-.025.088.1.121.136.037,1.144-3.076,2.133-4.967-1.809-5.451v.852c2.327-.3-1.35-1.082-2.128-1.141a15.288,15.288,0,0,0-4.289.343c-.533.108-.3.88.221.8a23.462,23.462,0,0,1,6.033-.2c.216.023.268-.345.052-.382a30.041,30.041,0,0,0-6.361-.2c-1.262.051-2.521.138-3.779.252-.91.083-3.495.968-4.044.791.285.091.442-.321.2-.471Z" transform="translate(-4.33 -3.887)"/><path class="cls-3" d="M174.323,93.089a144.2,144.2,0,0,0-1.3,14.848c-.01.185.26.175.281,0a143.542,143.542,0,0,0,1.275-14.813c0-.145-.237-.186-.261-.035Z" transform="translate(-4.33 -3.887)"/><path class="cls-3" d="M172.938,96.96c-.707,8.171-1.436,16.328-2.337,24.481-.02.181.259.176.281,0,1.039-8.123,1.838-16.3,2.244-24.481.006-.122-.177-.119-.187,0Z" transform="translate(-4.33 -3.887)"/><path class="cls-3" d="M171.354,111.021c.091.124-.044,1.941-.026,2.25.039.689.085,1.381.143,2.068.137,1.613.322,3.221.522,4.826.014.116.19.124.188,0-.04-2.187-.13-4.368-.291-6.55-.056-.756.183-2.36-.532-2.844a.149.149,0,0,0-.2.052l-.079.114a.128.128,0,0,0,.045.171l.082.061c.086.064.213-.063.15-.15Z" transform="translate(-4.33 -3.887)"/><path class="cls-3" d="M171.541,114.3l.255-2.04c0-.01-.014-.01-.016,0l-.255,2.04c0,.01.014.01.016,0Z" transform="translate(-4.33 -3.887)"/><path class="cls-3" d="M171.949,112.264c-.035,1.957-.094,3.909-.023,5.865a.117.117,0,0,0,.234,0c.07-1.956.012-3.909-.023-5.865a.094.094,0,0,0-.187,0Z" transform="translate(-4.33 -3.887)"/><path class="cls-3" d="M171.936,116.855a1.462,1.462,0,0,0-.455-.921.224.224,0,0,0-.372.1,4.679,4.679,0,0,0-.044,1.076c.009.208.345.279.384.052a4.65,4.65,0,0,0,.1-1.069l-.335.192a1,1,0,0,1,.418.613c.044.164.329.138.307-.042Z" transform="translate(-4.33 -3.887)"/><path class="cls-3" d="M159.663,123.523a9.831,9.831,0,0,0,8.136.108.2.2,0,0,0-.1-.364c-1.326.042-2.653.43-3.977.427a34.272,34.272,0,0,1-3.961-.535c-.193-.023-.265.281-.1.364Z" transform="translate(-4.33 -3.887)"/><path class="cls-3" d="M168.227,123.766a13.631,13.631,0,0,0,1.745-.293c.319-.083.631-.121.949-.182a.462.462,0,0,0,.314-.154c.38-.439-.422-.854-.565-.353a.208.208,0,0,0,.092.226l.03.023a.165.165,0,0,0,.224-.059c-.029.055-1.515.075-1.738.1-.376.043-.746.126-1.118.2-.272.054-.215.526.066.491Z" transform="translate(-4.33 -3.887)"/><path class="cls-1" d="M222.984,71.158c.863,15.509,1.935,30.987,1.954,46.531.019,15.082.846,31.773-4.394,46.131-.279.764.912,1.065,1.205.332,5.608-14,4.577-30.677,4.545-45.493-.035-15.874-.63-31.836-2.865-47.562-.036-.252-.459-.193-.445.06Z" transform="translate(-4.33 -3.887)"/><path class="cls-1" d="M208.388,16.582c4.242,7.871,8.327,15.614,10.424,24.374,2.042,8.53,1.758,17.107,2.71,25.743a.6.6,0,0,0,1.2,0c.786-17.667-3.672-35.867-13.986-50.322a.2.2,0,0,0-.351.205Z" transform="translate(-4.33 -3.887)"/><path class="cls-1" d="M198.259,4.362c3.854,2.165,7.36,3.911,10.484,7.167,2.616,2.726,4.678,5.892,7.119,8.763.272.32.753-.089.564-.435-3.543-6.532-10.2-14.657-17.968-15.966-.272-.046-.471.318-.2.471Z" transform="translate(-4.33 -3.887)"/><path class="cls-1" d="M208.7,4.81a24.064,24.064,0,0,1,5.5,5.572c.265.369.857.045.621-.363a17.164,17.164,0,0,0-5.8-5.762c-.353-.225-.652.317-.323.553Z" transform="translate(-4.33 -3.887)"/><path class="cls-1" d="M218.442,183.917c-11.65,10.73-24.956,15.7-39.933,19.9-.474.133-.4.944.12.89,14.81-1.517,30.08-9.609,40.1-20.507a.2.2,0,0,0-.287-.287Z" transform="translate(-4.33 -3.887)"/><path class="cls-1" d="M24.646,25.184c-8.522,6.951-14.33,18.132-15.752,28.97-.036.272.414.326.476.064,2.709-11.408,8.3-19.759,15.563-28.747a.2.2,0,0,0-.287-.287Z" transform="translate(-4.33 -3.887)"/><path class="cls-1" d="M9.01,59.61C6.649,67.2,6.5,75.942,6.755,83.808a.321.321,0,0,0,.641,0c.171-8.119,1.475-16.091,1.86-24.165.007-.145-.2-.164-.246-.033Z" transform="translate(-4.33 -3.887)"/><path class="cls-1" d="M7.056,87.873c-.785,3.743-.39,7.922-.332,11.715q.159,10.428.543,20.852c.421,11.2.6,22.536,1.921,33.673.027.224.377.234.359,0-.832-10.993-.933-22.084-1.289-33.1C7.905,110.066,8.364,98.8,7.271,87.9c-.011-.113-.188-.159-.215-.029Z" transform="translate(-4.33 -3.887)"/><path class="cls-1" d="M4.33,152.99a107.615,107.615,0,0,0,4.86,30.747.313.313,0,0,0,.6-.166A219.163,219.163,0,0,1,4.877,152.99c-.03-.345-.551-.358-.547,0Z" transform="translate(-4.33 -3.887)"/><path class="cls-2" d="M13.507,120.278c-1.221,12.536-.833,25.079,2.426,37.3.082.306.519.173.467-.129-2.11-12.318-3.456-24.662-2.706-37.169.007-.122-.176-.118-.187,0Z" transform="translate(-4.33 -3.887)"/><path class="cls-2" d="M17.112,162.489a51.033,51.033,0,0,0,2.057,9.338.18.18,0,0,0,.347-.1,50.917,50.917,0,0,0-2.143-9.277c-.049-.129-.274-.126-.261.035Z" transform="translate(-4.33 -3.887)"/><path class="cls-2" d="M22.1,177.728a.055.055,0,0,0,0-.109.055.055,0,0,0,0,.109Z" transform="translate(-4.33 -3.887)"/><path class="cls-2" d="M10.821,132.683A108.486,108.486,0,0,0,12.726,155.1c.06.289.552.23.522-.071-.752-7.475-1.652-14.836-2.083-22.348a.172.172,0,0,0-.344,0Z" transform="translate(-4.33 -3.887)"/><path class="cls-2" d="M24.956,180.218c1.573,5.59,4.027,11.611,7.74,16.131.084.1.223.027.263-.07l.346-.835c.045-.108-.13-.176-.186-.078-.257.455-4.051-5.936-4.378-6.58a71.659,71.659,0,0,1-3.605-8.618.094.094,0,0,0-.181.05Z" transform="translate(-4.33 -3.887)"/><path class="cls-2" d="M32.449,193.221a4.534,4.534,0,0,0,.736,2.164c.253.441.622,1.163,1.2,1.23.608.07.924-.732.249-.8-.167-.018-.243.185-.178.311A6.939,6.939,0,0,0,35.678,198c.136.134.413,0,.34-.2a7.114,7.114,0,0,0-1.235-1.927l-.146.353c-.359,0-1.059-1.415-1.233-1.71a10.348,10.348,0,0,0-.834-1.344c-.04-.049-.121-.007-.12.05Z" transform="translate(-4.33 -3.887)"/><path class="cls-2" d="M20.9,35.05Q18.974,45.2,17.338,55.4c-.02.127.172.184.2.054q1.886-10.159,3.49-20.368c.012-.078-.105-.113-.121-.033Z" transform="translate(-4.33 -3.887)"/><path class="cls-2" d="M16.4,64.151A137.572,137.572,0,0,0,15.537,87.8a.117.117,0,0,0,.234,0,227.225,227.225,0,0,1,.912-23.651c.018-.181-.261-.177-.281,0Z" transform="translate(-4.33 -3.887)"/><path class="cls-2" d="M16.339,92.8a.023.023,0,0,0,0-.047.023.023,0,0,0,0,.047Z" transform="translate(-4.33 -3.887)"/><path class="cls-2" d="M16.207,95.306a1.7,1.7,0,0,1-.448,1.568c-.087.085.044.214.133.133a1.516,1.516,0,0,0,.515-1.785c-.061-.121-.215-.028-.2.084Z" transform="translate(-4.33 -3.887)"/><path class="cls-2" d="M202.632,14.277c1.6,5.013,3.158,10.04,4.825,15.03.019.057.108.033.09-.025-1.544-5.03-3.2-10.027-4.81-15.034-.022-.067-.127-.038-.105.029Z" transform="translate(-4.33 -3.887)"/><path class="cls-2" d="M210.852,43.792a57.392,57.392,0,0,1,1.3,8.31c.01.108.176.112.172,0a35.794,35.794,0,0,0-1.362-8.34.055.055,0,0,0-.105.029Z" transform="translate(-4.33 -3.887)"/><path class="cls-2" d="M212.3,57.079c-.044,2.491-.09,4.981-.016,7.472a.086.086,0,0,0,.172,0c.074-2.491.029-4.981-.016-7.472a.07.07,0,0,0-.141,0Z" transform="translate(-4.33 -3.887)"/><path class="cls-2" d="M212.2,66.2a100.447,100.447,0,0,0-.712-21,49.081,49.081,0,0,0-1.1-5.116c-.251-.929-1.932-4.074-1.656-5.02-.26.889,1.165,3.41,1.664,4.764a52.343,52.343,0,0,1,1.874,6.5c.045.2.343.113.3-.083a57.223,57.223,0,0,0-4.555-12.895c-.135-.285-.631-.082-.515.217,4.068,10.539,4.1,21.528,4.607,32.641a.047.047,0,0,0,.094,0Z" transform="translate(-4.33 -3.887)"/><path class="cls-2" d="M215.551,70.771a54.171,54.171,0,0,0-.7,5.4c-.01.121.2.151.215.029a54.137,54.137,0,0,0,.581-5.417c0-.052-.082-.065-.092-.012Z" transform="translate(-4.33 -3.887)"/><path class="cls-2" d="M214.82,77.009a21.23,21.23,0,0,1-.374,6.2.133.133,0,0,0,.256.071,14.162,14.162,0,0,0,.394-6.312c-.022-.155-.293-.12-.276.037Z" transform="translate(-4.33 -3.887)"/><path class="cls-2" d="M216.1,49.6a78.692,78.692,0,0,1,.887,18.264c0,.05.075.05.078,0a78.657,78.657,0,0,0-.935-18.273c0-.02-.033-.011-.03.008Z" transform="translate(-4.33 -3.887)"/><path class="cls-2" d="M211.3,38.82a53.255,53.255,0,0,1,3.569,15.769c.011.16.262.161.25,0a49.521,49.521,0,0,0-3.773-15.781c-.011-.027-.056-.016-.045.012Z" transform="translate(-4.33 -3.887)"/><path class="cls-2" d="M218.953,100.259c.227,9.721.557,19.324.046,29.047-.007.132.191.128.2,0a132.894,132.894,0,0,0,0-29.047c-.02-.154-.254-.166-.25,0Z" transform="translate(-4.33 -3.887)"/><path class="cls-2" d="M218.784,140.935q.357-1.2-.351-.534.083,1.006.105,2.016c.022,1.008,0,2.019-.069,3.025a41.386,41.386,0,0,1-1.407,7.928.141.141,0,0,0,.271.075,31.967,31.967,0,0,0,1.565-14.05.263.263,0,1,0-.519.07l.2,1.47a.1.1,0,0,0,.2,0Z" transform="translate(-4.33 -3.887)"/><path class="cls-2" d="M209.478,105.653a8.877,8.877,0,0,0,1.231,4.605c.034.062.126.007.094-.055a13.322,13.322,0,0,1-1.278-4.55.023.023,0,0,0-.047,0Z" transform="translate(-4.33 -3.887)"/><path class="cls-2" d="M202.938,176.9q-3.658,4.321-7.2,8.729c-.2.248.15.6.354.354q3.584-4.42,7.046-8.931c.086-.112-.1-.26-.2-.151Z" transform="translate(-4.33 -3.887)"/><path class="cls-2" d="M187.675,193.653a35.551,35.551,0,0,0,9.731-5.133c.365-.247-.048-.781-.369-.478-1.427,1.352-2.826,2.728-4.218,4.116-.151.151.074.369.232.232,1.487-1.291,2.962-2.59,4.416-3.918l-.43-.43c-2.265,2.907-5.922,4.537-9.367,5.6a.008.008,0,0,0,0,.015Z" transform="translate(-4.33 -3.887)"/><path class="cls-2" d="M192.831,193.406l1.015-1.6c.005-.009-.008-.016-.013-.008l-1.015,1.6c-.005.009.008.016.013.008Z" transform="translate(-4.33 -3.887)"/><path class="cls-2" d="M203.861,180.093c-.677.936-1.346,1.871-1.982,2.835-.058.087.081.2.147.114.723-.916,1.408-1.853,2.091-2.8.112-.155-.145-.3-.256-.15Z" transform="translate(-4.33 -3.887)"/><path class="cls-2" d="M204.078,180.235a20.946,20.946,0,0,0,2.648-3.4c.17-.243-.219-.547-.414-.319-.325.381-.637.759-.93,1.164-.111.153.119.3.245.189.37-.311.714-.641,1.057-.98l-.44-.256a8.7,8.7,0,0,1-2.233,3.532.047.047,0,0,0,.066.066Z" transform="translate(-4.33 -3.887)"/><path class="cls-2" d="M206.583,175.358a4.84,4.84,0,0,1,1.035-3.168c.042-.057-.053-.13-.1-.076a4.506,4.506,0,0,0-1.062,3.244c.006.08.129.081.125,0Z" transform="translate(-4.33 -3.887)"/><path class="cls-2" d="M204.866,138.062a49.68,49.68,0,0,1-2.307,12.052c0,.01.012.014.015,0a46.894,46.894,0,0,0,2.307-12.056c0-.01-.015-.01-.016,0Z" transform="translate(-4.33 -3.887)"/><path class="cls-2" d="M199.941,158.119a3.756,3.756,0,0,0-1.048,2.8c0,.01.016.01.016,0a3.732,3.732,0,0,1,1.044-2.793c.007-.007,0-.019-.011-.011Z" transform="translate(-4.33 -3.887)"/><path class="cls-2" d="M203.851,150.488l-.481,4.413c0,.02.029.02.031,0l.481-4.413c0-.02-.029-.02-.031,0Z" transform="translate(-4.33 -3.887)"/><path class="cls-2" d="M37.016,26.228a49.359,49.359,0,0,1,7.512-5.3.047.047,0,0,0-.047-.081,49.459,49.459,0,0,0-7.5,5.346c-.023.02.01.053.033.033Z" transform="translate(-4.33 -3.887)"/><path class="cls-2" d="M34.376,30.559c4.747-2.925,9.5-5.841,14.215-8.816.059-.037.005-.131-.055-.094-4.756,2.912-9.474,5.881-14.2,8.843-.042.027,0,.094.039.067Z" transform="translate(-4.33 -3.887)"/><path class="cls-2" d="M73.018,14.57l1.523-.4a.008.008,0,0,0,0-.015l-1.523.4a.008.008,0,0,0,0,.015Z" transform="translate(-4.33 -3.887)"/><path class="cls-2" d="M111.078,10.515l2.031-.4c.03-.006.017-.051-.012-.045l-2.027.415c-.02,0-.011.034.008.03Z" transform="translate(-4.33 -3.887)"/><path class="cls-2" d="M113.619,10.073c-8.51.893-16.99,2-25.4,3.583-.169.032-.1.283.071.256,8.429-1.382,16.854-2.733,25.331-3.792.029,0,.03-.05,0-.047Z" transform="translate(-4.33 -3.887)"/><path class="cls-2" d="M70.975,19.358l2.541-.8c.01,0,.005-.018,0-.015l-2.541.8c-.01,0-.005.018,0,.015Z" transform="translate(-4.33 -3.887)"/><path class="cls-2" d="M142.053,11.34l3.046-.4c.01,0,.01-.017,0-.016l-3.046.4c-.01,0-.01.017,0,.016Z" transform="translate(-4.33 -3.887)"/><path class="cls-2" d="M152.719,10.568a.016.016,0,0,0,0-.031.016.016,0,0,0,0,.031Z" transform="translate(-4.33 -3.887)"/><path class="cls-2" d="M157.334,11.481c1.506-.441,3.013-.876,4.515-1.328a.047.047,0,0,0-.025-.09c-1.512.418-3.019.854-4.528,1.283a.07.07,0,0,0,.037.136Z" transform="translate(-4.33 -3.887)"/><path class="cls-2" d="M169.479,9.769a15.214,15.214,0,0,1,3.029-.468c.01,0,.006-.016,0-.015a15.231,15.231,0,0,1-3.038.385c-.074-.005-.056.124.013.1Z" transform="translate(-4.33 -3.887)"/><path class="cls-2" d="M142.058,17.778l5.077.008a.016.016,0,0,0,0-.031l-5.077.008a.008.008,0,0,0,0,.016Z" transform="translate(-4.33 -3.887)"/><path class="cls-2" d="M168.807,14.744q5.381-.174,10.754.123c.03,0,.03-.045,0-.047q-5.376-.289-10.754-.107c-.02,0-.02.032,0,.031Z" transform="translate(-4.33 -3.887)"/><path class="cls-2" d="M182.877,15.527a77.953,77.953,0,0,1,9.253,3.49c.027.012.051-.027.024-.04a48.553,48.553,0,0,0-9.26-3.51.031.031,0,0,0-.017.06Z" transform="translate(-4.33 -3.887)"/><path class="cls-2" d="M190.864,10.536a2.97,2.97,0,0,1,1.619.836l.091-.157c-.178-.05-.35-.1-.531-.133a.078.078,0,0,0-.042.151c.173.065.345.113.523.163a.094.094,0,0,0,.091-.157,2.577,2.577,0,0,0-1.745-.749c-.026,0-.032.041-.006.046Z" transform="translate(-4.33 -3.887)"/><path class="cls-2" d="M32.949,134.731v4.278a.031.031,0,0,0,.063,0v-4.278a.031.031,0,0,0-.062,0Z" transform="translate(-4.33 -3.887)"/><path class="cls-2" d="M34.6,154.149v.329a.05.05,0,0,0,.1,0v-.329a.05.05,0,0,0-.1,0Z" transform="translate(-4.33 -3.887)"/><path class="cls-2" d="M36.662,159.758a35.809,35.809,0,0,0,2.854,8.264c.024.046.106.014.086-.036a65.96,65.96,0,0,1-2.879-8.245.031.031,0,0,0-.06.017Z" transform="translate(-4.33 -3.887)"/><path class="cls-2" d="M39.648,168.317a.016.016,0,0,0,0-.031.016.016,0,0,0,0,.031Z" transform="translate(-4.33 -3.887)"/><path class="cls-2" d="M53.02,132.427a5.254,5.254,0,0,1,.087-.876.167.167,0,0,0-.322-.089,11.3,11.3,0,0,0-.322,4.949c.024.156.287.12.276-.037a16.581,16.581,0,0,1,.368-4.823h-.322a5.084,5.084,0,0,1,.157.876.039.039,0,0,0,.078,0Z" transform="translate(-4.33 -3.887)"/><path class="cls-2" d="M53.85,140.347c-.219-.311-.433-.622-.045-.927l-.284-.075a7.714,7.714,0,0,1,.3.982.8.8,0,0,0,.235.475.19.19,0,0,0,.32-.133.831.831,0,0,0-.153-.54,7.813,7.813,0,0,1-.372-.875.173.173,0,0,0-.284-.075c-.415.343-.456,1.192.2,1.282.059.008.132-.052.088-.115Z" transform="translate(-4.33 -3.887)"/><path class="cls-2" d="M177.069,121.254a6.536,6.536,0,0,1-.4,4.149l.17.072c.355-.993.506-2.077.959-3.033a.228.228,0,0,0-.393-.23,2.909,2.909,0,0,0-.439,2.371.212.212,0,0,0,.414-.056,4.7,4.7,0,0,1,.418-2.085l-.424-.115c-.1,1.054-.516,2.062-.714,3.1-.023.118.16.167.18.05.111-.655.266-1.3.332-1.965.077-.764-.028-1.51,0-2.269,0-.072-.119-.058-.1.013Z" transform="translate(-4.33 -3.887)"/><path class="cls-2" d="M85.318,34.021c-.037,1.426-.07,2.853.008,4.279a.156.156,0,0,0,.313,0c.078-1.425.045-2.853.008-4.279a.164.164,0,0,0-.328,0Z" transform="translate(-4.33 -3.887)"/><path class="cls-2" d="M86.315,41.6a.008.008,0,0,0,0-.016.008.008,0,0,0,0,.016Z" transform="translate(-4.33 -3.887)"/><path class="cls-2" d="M87.518,35.659l-.424,1.974c0,.02.026.028.03.008l.424-1.974c0-.02-.026-.028-.03-.008Z" transform="translate(-4.33 -3.887)"/><path class="cls-2" d="M87.927,36.654l-.008,2.065a.08.08,0,0,0,.148.04,2.472,2.472,0,0,0,.424-2.042c-.024-.137-.237-.1-.237.032a59.886,59.886,0,0,0,.514,6.48c.021.206.343.213.328,0-.1-1.5-.214-2.992-.357-4.486-.023-.235.014-1.412-.161-1.54l-.268.739q-.327.532-.248,0a4.766,4.766,0,0,1-.026-1.291.055.055,0,0,0-.109,0Z" transform="translate(-4.33 -3.887)"/><path class="cls-2" d="M57.068,193.479a4.934,4.934,0,0,1,1.592-1.436c.175-.1.865-.539.986-.415a6.157,6.157,0,0,1-.341,1.105c-.13.421-.428.967-.2,1.4.129.249.33.37.585.228.08-.045.01-.161-.071-.121-.483.239-.369-.561-.333-.753.044-.238.133-.476.2-.709l.367-1.316a.074.074,0,0,0-.09-.09,5.346,5.346,0,0,0-2.813,2.033c-.051.076.07.144.121.071Z" transform="translate(-4.33 -3.887)"/></svg>