<svg xmlns="http://www.w3.org/2000/svg" viewBox="0 0 185.044 67.993"><defs><style>.cls-1{isolation:isolate;}.cls-2{fill:#b07958;}.cls-3{fill:#8d7052;}.cls-4{fill:#616b5a;opacity:0.3;mix-blend-mode:multiply;}.cls-5{fill:#3a9d1d;}.cls-6{fill:#5fbe39;}</style></defs><title>плашка под героем</title><g class="cls-1"><g id="Isolation_Mode" data-name="Isolation Mode"><path class="cls-2" d="M1.79,17.015V35.364a33.9,33.9,0,0,0,33.9,33.9H151.893a33.9,33.9,0,0,0,33.9-33.9V17.015Z" transform="translate(-1.209 -1.267)"/><path class="cls-3" d="M1.79,17.015V35.364a33.9,33.9,0,0,0,33.9,33.9H151.893a33.9,33.9,0,0,0,33.9-33.9V17.015Z" transform="translate(-1.209 -1.267)"/><path class="cls-4" d="M81.886,14.356c-10.6-.386-21.387-1.694-31.695.691-7.215,1.669-13.892,5.092-21.138,6.637-7.013,1.495-14.423,1.2-21.227,3.4-2.412.781-4.883,2.026-5.967,4.219C.047,32.975,8,37.881,18.385,42.521c11.019-6.772,24.28,6.615,35.791,7.527,4.206,0,7.36-12,10.514-9,11.565,10,15.771,4,27.337,0,3.154-1,6.308,7,11.565,4s9.463-14,16.823-10c10.514,6,19.977,9,31.542,0,2.1-3,6.308,1,9.463,2,4.855.66,11.08-2.593,14.757-1.156a31.4,31.4,0,0,0,9.5-18.2C152.743,6.942,116.679,15.624,81.886,14.356Z" transform="translate(-1.209 -1.267)"/><path class="cls-5" d="M7.021,3.3c-4.192.24-4.1,4.885-4.241,6.4L1.45,23.668c-.31,3.252-.581,6.717.941,9.608,2.972,5.648,10.921,6.111,17.131,4.637s12.714-4.111,18.737-2c5.655,1.984,10.738,8,16.366,5.943,4.7-1.723,6.61-8.484,11.582-9.074,4.822-.572,8.661,5.284,13.48,4.681,2.9-.363,5.19-3.031,8.108-3.094,2.843-.061,5.165,2.364,7.97,2.825,5.6.92,9.446-5.884,14.944-7.3a16.811,16.811,0,0,1,6.825.148c7.918,1.268,10.058,4.32,18.071,4.006,8.5-.333,11.67-5.325,16.333-5.833,1.543-.168,4.667,3.5,8,3.038,1.75-.243,2.682-2.362,4.3-3.069,2.634-1.15,6.5-.164,9.37.03a10.437,10.437,0,0,0,10.621-7.2c2.593-7.089,3.046-11.962-.7-17.046-2.849-3.862-22.25-1.75-31.5-2.25C126.281.324,20.1,2.548,7.021,3.3Z" transform="translate(-1.209 -1.267)"/><path class="cls-6" d="M48.271,15.215c3-1,4-5,9-7,6-2,12.02,4.942,15,6,14.083,5,24.75-11.75,36-4,6.791,4.678,16,0,24,1,3,1,5,4,7,6,1,1,4,1,5,0,5-4,8.714-11.463,15.542-9.625,1.083.292,2.575,1.861,2.083,5.792-1.042,8.333,13.125-5.917,24.347-1.824a12.862,12.862,0,0,0-2.722-7.593c-2.849-3.862-22.25-1.75-31.5-2.25C126.281.324,20.1,2.548,7.021,3.3c-4.192.24-4.1,4.885-4.241,6.4l-.763,8.008a17.979,17.979,0,0,1,6.254-3.492C22.271,8.215,35.271,19.215,48.271,15.215Z" transform="translate(-1.209 -1.267)"/></g></g></svg>