<?xml version="1.0" encoding="utf-8"?>
<!-- Generator: Adobe Illustrator 20.0.0, SVG Export Plug-In . SVG Version: 6.00 Build 0)  -->
<svg version="1.1" id="Isolation_Mode" xmlns="http://www.w3.org/2000/svg" xmlns:xlink="http://www.w3.org/1999/xlink" x="0px"
	 y="0px" width="61.5px" height="49.25px" viewBox="0 0 61.5 49.25" style="enable-background:new 0 0 61.5 49.25;"
	 xml:space="preserve">
<style type="text/css">
	.st0{fill:url(#SVGID_1_);}
	.st1{opacity:0.5;fill:url(#SVGID_2_);}
	.st2{opacity:0.55;fill:#F15F90;}
</style>
<g>
	<linearGradient id="SVGID_1_" gradientUnits="userSpaceOnUse" x1="8.8843" y1="-8.1844" x2="54.8842" y2="43.3155">
		<stop  offset="0" style="stop-color:#ED3774"/>
		<stop  offset="0.2897" style="stop-color:#EB3670"/>
		<stop  offset="0.5611" style="stop-color:#E53365"/>
		<stop  offset="0.8242" style="stop-color:#DA2D52"/>
		<stop  offset="1" style="stop-color:#D12841"/>
	</linearGradient>
	<path class="st0" d="M38.376,6.238c13.239-13.772,26.58,4.278,20.162,16.664c-8.329,16.073-25.862,25.402-25.862,25.402
		s-5.596-2.503-10.606-5.65C11.858,36.24-3.416,21.845,2.841,7.895c2.502-5.578,8.053-8.097,14.066-7.03
		c8.809,1.562,11.531,7.864,14.599,15.316C34.136,11.067,35.641,9.084,38.376,6.238z"/>
	<linearGradient id="SVGID_2_" gradientUnits="userSpaceOnUse" x1="9.1" y1="-5.4663" x2="40.5229" y2="29.7136">
		<stop  offset="0" style="stop-color:#ED3774"/>
		<stop  offset="0.2897" style="stop-color:#EB3670;stop-opacity:0.7103"/>
		<stop  offset="0.5611" style="stop-color:#E53365;stop-opacity:0.4389"/>
		<stop  offset="0.8242" style="stop-color:#DA2D52;stop-opacity:0.1758"/>
		<stop  offset="1" style="stop-color:#D12841;stop-opacity:0"/>
	</linearGradient>
	<path class="st1" d="M48.327,1.303c-3.095-0.048-6.525,1.371-9.951,4.935c-2.735,2.845-4.239,4.828-6.87,9.943
		C28.438,8.729,25.715,2.427,16.907,0.865C10.894-0.202,5.343,2.317,2.841,7.895C-2.024,18.742,6.128,29.856,14.796,37.28
		C32.736,32.619,44.903,18.285,48.327,1.303z"/>
	<path class="st2" d="M3.472,13.278c0.085,1.675,0.931,3.579,2.582,3.872c1.426,0.253,2.753-0.828,3.576-2.02
		c0.822-1.192,1.396-2.589,2.486-3.542c1.403-1.227,3.386-1.488,5.246-1.601c1.025-0.062,2.081-0.103,3.014-0.528
		c0.934-0.426,1.726-1.349,1.654-2.373c-0.069-0.987-0.884-1.751-1.718-2.284C13.855,0.673,3.045,4.832,3.472,13.278z"/>
</g>
</svg>
