<svg id="Layer_2" data-name="Layer 2" xmlns="http://www.w3.org/2000/svg" xmlns:xlink="http://www.w3.org/1999/xlink" viewBox="0 0 220.245 199.325"><defs><style>.cls-1{fill:url(#linear-gradient);}.cls-2{fill:#f0f2ff;}.cls-3{fill:#d80047;}.cls-4{fill:#f2ce47;}.cls-5{fill:#d800b9;}.cls-6{fill:#a443a2;}.cls-7{fill:#8b43a2;}.cls-8{fill:#4845a2;}</style><linearGradient id="linear-gradient" x1="203.77" y1="14.677" x2="31.416" y2="192.815" gradientUnits="userSpaceOnUse"><stop offset="0" stop-color="#4845a2"/><stop offset="0.221" stop-color="#8744a1"/><stop offset="0.351" stop-color="#a844a1"/><stop offset="0.403" stop-color="#ab429a"/><stop offset="0.476" stop-color="#b43c88"/><stop offset="0.562" stop-color="#c33269"/><stop offset="0.658" stop-color="#d7243f"/><stop offset="0.66" stop-color="#d7243e"/><stop offset="0.979" stop-color="#f9a326"/></linearGradient></defs><title>инстаграм</title><path class="cls-1" d="M40.4,198.533c33.253,2.714,152.488,7.424,168.379-10.615,9.654-10.958,16.927-120.16,8.477-151.67-2.235-8.335-5.83-25.075-18.733-28.764-9.315-2.663-112.46-3.382-136.648,0C52.635,8.78,43.289,10.539,35.408,14.44A49.333,49.333,0,0,0,7.886,58.393C7.565,114.589,9.59,196.019,40.4,198.533Z" transform="translate(-5.02 -5.209)"/><path class="cls-2" d="M150.063,170.588H75.405c-15.464,0-28.043-12.292-28.043-27.4V66.305c0-15.108,12.579-27.4,28.043-27.4h74.658c15.461,0,28.04,12.292,28.04,27.4v76.88C178.1,158.3,165.524,170.588,150.063,170.588ZM75.405,50.191c-9.24,0-16.756,7.229-16.756,16.114v76.88c0,8.886,7.517,16.114,16.756,16.114h74.658c9.237,0,16.753-7.228,16.753-16.114V66.305c0-8.885-7.517-16.114-16.753-16.114Z" transform="translate(-5.02 -5.209)"/><path class="cls-2" d="M47.332,64.936a254.8,254.8,0,0,0,.715,32.84c.021.216.346.225.344,0-.121-10.944-.654-21.9-.965-32.84a.047.047,0,0,0-.094,0Z" transform="translate(-5.02 -5.209)"/><path class="cls-2" d="M47.074,82.964c-.4,11.656-.36,23.44.025,35.1a.109.109,0,0,0,.219,0,290.638,290.638,0,0,0-.119-35.1.063.063,0,0,0-.125,0Z" transform="translate(-5.02 -5.209)"/><path class="cls-2" d="M46.923,110.014a237.652,237.652,0,0,0-.368,33.808.149.149,0,0,0,.3,0c.325-11.256.176-22.547.2-33.808a.063.063,0,0,0-.125,0Z" transform="translate(-5.02 -5.209)"/><path class="cls-2" d="M51.821,157.281a61.8,61.8,0,0,0,4.754,7.229c1.258,1.529,2.789,2.829,4.85,2.827.2,0,.264-.331.05-.368-4.581-.793-7.016-6.363-9.533-9.758-.053-.071-.17-.008-.121.071Z" transform="translate(-5.02 -5.209)"/><path class="cls-2" d="M59.57,71.38c-.916,22.185-1.52,44.81.252,66.966a.235.235,0,0,0,.469,0c.154-22.313-.75-44.643-.627-66.966a.047.047,0,0,0-.094,0Z" transform="translate(-5.02 -5.209)"/><path class="cls-2" d="M85.774,84.508a40.836,40.836,0,0,0-6.992,16.8c-.024.146.191.212.226.062a54.052,54.052,0,0,1,6.874-16.8c.044-.069-.063-.128-.108-.063Z" transform="translate(-5.02 -5.209)"/><path class="cls-2" d="M78.788,101.3a26.453,26.453,0,0,0,4.859,21.832c.094.12.284-.034.209-.161a32.877,32.877,0,0,1-4.761-21.629c.022-.174-.271-.213-.307-.042Z" transform="translate(-5.02 -5.209)"/><path class="cls-2" d="M83.939,124.63a12.475,12.475,0,0,0,7.424,7.682c.275.091.4-.294.187-.443a30.678,30.678,0,0,1-4.172-3.174,29.8,29.8,0,0,1-3.2-4.168.133.133,0,0,0-.243.1Z" transform="translate(-5.02 -5.209)"/><path class="cls-2" d="M97.86,88.821a31.916,31.916,0,0,1,17-6.636.078.078,0,0,0,0-.156A24.834,24.834,0,0,0,97.65,88.612c-.145.13.064.325.21.21Z" transform="translate(-5.02 -5.209)"/><path class="cls-2" d="M116.064,83.036c7,1.12,12.924,4.433,15.656,11.26.07.174.355.1.286-.079-2.422-6.4-8.734-11.983-15.864-11.764-.318.01-.423.528-.079.583Z" transform="translate(-5.02 -5.209)"/><path class="cls-2" d="M134.262,98.712a28.936,28.936,0,0,0,1.1,3.3c.029.066.132.018.114-.048a28.8,28.8,0,0,0-1.183-3.259c-.007-.018-.036-.011-.03.008Z" transform="translate(-5.02 -5.209)"/><path class="cls-2" d="M135.45,104.22c.678,3.648-.176,6.863-1.382,10.276-.054.153.177.242.257.108,1.873-3.113,1.893-6.941,1.155-10.392,0-.02-.034-.011-.03.008Z" transform="translate(-5.02 -5.209)"/><path class="cls-2" d="M131.866,118.324c-1.711,1.61-3.5,3.157-5.162,4.819-.064.065.032.159.1.1,1.754-1.559,3.4-3.259,5.107-4.875.029-.028-.015-.072-.044-.044Z" transform="translate(-5.02 -5.209)"/><path class="cls-2" d="M120.3,126.647a22.6,22.6,0,0,1-5.127,1.382c-.06.009-.047.114.015.107a17.723,17.723,0,0,0,5.173-1.347c.08-.035.022-.175-.06-.143Z" transform="translate(-5.02 -5.209)"/><path class="cls-2" d="M111.039,128.2a16.767,16.767,0,0,1-3.2-1.223c-.111-.053-.253.094-.142.184a6.336,6.336,0,0,0,3.306,1.33c.167.022.2-.253.039-.292Z" transform="translate(-5.02 -5.209)"/><path class="cls-2" d="M104.987,125.348a13.51,13.51,0,0,0-5.263-2.794c-.124-.032-.215.157-.09.214a38.5,38.5,0,0,1,5.211,2.763c.109.072.246-.1.142-.184Z" transform="translate(-5.02 -5.209)"/><path class="cls-2" d="M97.23,121.519a24.287,24.287,0,0,1-6.2-12.491.1.1,0,0,0-.2.027,17.712,17.712,0,0,0,6.312,12.552.063.063,0,0,0,.088-.088Z" transform="translate(-5.02 -5.209)"/><path class="cls-2" d="M142.469,85.587c.9,1.589,1.641,3.253,2.475,4.876a.126.126,0,0,0,.228-.1,23.883,23.883,0,0,0-2.407-4.954.172.172,0,0,0-.3.173Z" transform="translate(-5.02 -5.209)"/><path class="cls-2" d="M146.129,94.866a21.283,21.283,0,0,1,.769,5.485.039.039,0,0,0,.078,0,16.547,16.547,0,0,0-.832-5.489.008.008,0,0,0-.015,0Z" transform="translate(-5.02 -5.209)"/><path class="cls-2" d="M147.368,101.641l-.008,3.22a.016.016,0,0,0,.031,0l-.008-3.22a.008.008,0,0,0-.016,0Z" transform="translate(-5.02 -5.209)"/><path class="cls-2" d="M143.492,119.65a7.248,7.248,0,0,0-2.036,3.2.086.086,0,0,0,.157.066,21.325,21.325,0,0,1,1.912-3.234c.019-.023-.012-.055-.033-.033Z" transform="translate(-5.02 -5.209)"/><path class="cls-2" d="M139.55,126.332a6.574,6.574,0,0,0-1.6,2.331c-.047.125.151.2.214.09a10.111,10.111,0,0,1,1.565-2.245.125.125,0,0,0-.177-.177Z" transform="translate(-5.02 -5.209)"/><path class="cls-2" d="M133.778,131.822a39.705,39.705,0,0,1-12.832,6.737.1.1,0,0,0,.054.2,29.356,29.356,0,0,0,12.833-6.878c.038-.035-.017-.085-.055-.055Z" transform="translate(-5.02 -5.209)"/><path class="cls-2" d="M119.022,139.229a25.333,25.333,0,0,1-10.246-.379.2.2,0,0,0-.1.377,14.243,14.243,0,0,0,10.4.168.086.086,0,0,0-.046-.166Z" transform="translate(-5.02 -5.209)"/><path class="cls-2" d="M85.661,84.312a24.022,24.022,0,0,1,6.746-6.351.039.039,0,0,0-.039-.067,21.885,21.885,0,0,0-6.936,6.284c-.1.142.13.269.229.134Z" transform="translate(-5.02 -5.209)"/><path class="cls-2" d="M93.953,76.871a9.42,9.42,0,0,1,3.2-2.273c.018-.008,0-.035-.016-.027a9.434,9.434,0,0,0-3.218,2.267c-.021.022.013.055.033.033Z" transform="translate(-5.02 -5.209)"/><path class="cls-2" d="M98.439,73.646a.016.016,0,0,0,0-.031.016.016,0,0,0,0,.031Z" transform="translate(-5.02 -5.209)"/><path class="cls-2" d="M100.976,72.2c2.6-.5,5.231-.954,7.816-1.5a.094.094,0,0,0-.025-.184,29.194,29.194,0,0,0-7.808,1.62.031.031,0,0,0,.017.06Z" transform="translate(-5.02 -5.209)"/><path class="cls-2" d="M110.345,70.425c4.723-2.126,9.191.955,13.751,1.847a.266.266,0,0,0,.141-.512,45.524,45.524,0,0,0-8.419-2.167,7.479,7.479,0,0,0-5.505.779c-.036.02,0,.07.032.054Z" transform="translate(-5.02 -5.209)"/><path class="cls-2" d="M143.119,63.568c-3.687,4.565-.965,11.012,4.578,12.267.147.033.209-.189.062-.226-5.552-1.384-7.325-7.192-4.37-11.833.1-.161-.146-.362-.27-.208Z" transform="translate(-5.02 -5.209)"/><path class="cls-2" d="M156.524,63.83a6.268,6.268,0,0,1-.291,8.03c-.249.277.167.69.409.409a6.765,6.765,0,0,0,.147-8.7c-.153-.189-.41.078-.265.265Z" transform="translate(-5.02 -5.209)"/><path class="cls-2" d="M165.79,81.679c-.47,21.961-.4,44.039.026,66a.281.281,0,0,0,.563,0c.265-21.966.17-44.044-.463-66a.063.063,0,0,0-.125,0Z" transform="translate(-5.02 -5.209)"/><path class="cls-2" d="M178.769,67.836c-.564,7.395-.6,14.816-1.241,22.212-.01.112.158.107.172,0,.927-7.332,1.731-14.816,1.257-22.212a.094.094,0,0,0-.187,0Z" transform="translate(-5.02 -5.209)"/><path class="cls-2" d="M177.507,92.948a33.859,33.859,0,0,0-.062,4.829.2.2,0,0,0,.391,0,33.864,33.864,0,0,0-.062-4.829.133.133,0,0,0-.266,0Z" transform="translate(-5.02 -5.209)"/><path class="cls-2" d="M177.979,102.6l.333,4.828c0,.05.082.05.078,0l-.364-4.828c0-.03-.049-.03-.047,0Z" transform="translate(-5.02 -5.209)"/><path class="cls-2" d="M178.634,116.774c-.205,8.467-.77,16.963-.581,25.432a.141.141,0,0,0,.281,0c.507-8.454.264-16.964.378-25.432a.039.039,0,0,0-.078,0Z" transform="translate(-5.02 -5.209)"/><path class="cls-2" d="M103.481,160.006a23.34,23.34,0,0,1,7.341-.733,16.078,16.078,0,0,0,5.754-.28c.136-.043.121-.273-.035-.261a54.854,54.854,0,0,1-7.053.372,14.029,14.029,0,0,0-6.1.569.172.172,0,0,0,.091.331Z" transform="translate(-5.02 -5.209)"/><path class="cls-2" d="M118.915,159.168a5.034,5.034,0,0,0,1-.016.164.164,0,0,0,0-.328,5.041,5.041,0,0,0-1-.016.18.18,0,0,0,0,.359Z" transform="translate(-5.02 -5.209)"/><path class="cls-2" d="M165.366,147.99a16.305,16.305,0,0,1-2.617,4.758c-.036.046.024.112.066.066a12.488,12.488,0,0,0,2.762-4.766c.043-.135-.165-.19-.211-.058Z" transform="translate(-5.02 -5.209)"/><path class="cls-2" d="M159.762,155.488l-1,.741c-.024.018,0,.059.024.04l.992-.754c.016-.012,0-.039-.016-.027Z" transform="translate(-5.02 -5.209)"/><path class="cls-2" d="M155.942,157.837a2.707,2.707,0,0,0-.778.532c-.1.123-.01.342.167.287a2.662,2.662,0,0,0,.792-.509c.179-.136.024-.43-.181-.31Z" transform="translate(-5.02 -5.209)"/><path class="cls-2" d="M154.752,170.552c1.323.717,3.113.19,4.306-.549.129-.08.046-.316-.108-.257a9.639,9.639,0,0,1-2.194.564c-.661.087-1.337.045-1.992.157a.047.047,0,0,0-.011.086Z" transform="translate(-5.02 -5.209)"/><path class="cls-2" d="M162.577,168.059a45.316,45.316,0,0,0,6.238-4.508c.092-.086-.026-.232-.133-.172a45.359,45.359,0,0,0-6.172,4.594c-.048.039.015.12.066.086Z" transform="translate(-5.02 -5.209)"/><path class="cls-2" d="M169.484,162.471a28.786,28.786,0,0,0,2.786-2.439c.034-.037-.011-.106-.057-.074a28.949,28.949,0,0,0-2.8,2.446c-.045.041.021.1.066.066Z" transform="translate(-5.02 -5.209)"/><path class="cls-2" d="M172.984,159.007c1.319-.726.256-.18.257-.142.017.372-1.037,1.374-1.244,1.63a30.8,30.8,0,0,1-2.608,2.86,48.422,48.422,0,0,1-6.422,4.791.2.2,0,0,0,.2.337,23.581,23.581,0,0,0,10.775-10.025.141.141,0,0,0-.22-.17l-.763.682c-.02.018.006.049.028.037Z" transform="translate(-5.02 -5.209)"/><path class="cls-2" d="M131.12,170.959c-1.409-.142-2.816-.311-4.23-.38-.092,0-.088.132,0,.141,1.406.143,2.819.185,4.23.255.01,0,.01-.015,0-.016Z" transform="translate(-5.02 -5.209)"/><path class="cls-2" d="M108.451,170.669a144.187,144.187,0,0,1-23.906-.151c-.132-.011-.127.188,0,.2a110.191,110.191,0,0,0,23.906-.005c.03,0,.03-.049,0-.047Z" transform="translate(-5.02 -5.209)"/><path class="cls-2" d="M65.871,53.9a9.194,9.194,0,0,1,5.214-1.5c.051,0,.049-.073,0-.078a7.189,7.189,0,0,0-5.277,1.471c-.063.047-.005.153.063.108Z" transform="translate(-5.02 -5.209)"/><path class="cls-2" d="M74.323,51.667a.047.047,0,0,0,0-.094.047.047,0,0,0,0,.094Z" transform="translate(-5.02 -5.209)"/><path class="cls-2" d="M79.306,50.755c3.825.09,7.632.192,11.459.109a.109.109,0,0,0,0-.219c-3.826-.1-7.634-.012-11.459.063a.023.023,0,0,0,0,.047Z" transform="translate(-5.02 -5.209)"/><path class="cls-2" d="M101.979,50.953c.831-.076,1.663-.142,2.492-.236.039,0,.041-.066,0-.062-.832.063-1.662.155-2.492.236-.04,0-.04.066,0,.063Z" transform="translate(-5.02 -5.209)"/><path class="cls-2" d="M108.975,50.441a9.5,9.5,0,0,1,3.71-.472.078.078,0,0,0,.021-.153,6.005,6.005,0,0,0-3.755.568c-.032.015-.009.07.024.057Z" transform="translate(-5.02 -5.209)"/><path class="cls-2" d="M116.423,50.382h.5a.008.008,0,0,0,0-.016h-.5a.008.008,0,0,0,0,.016Z" transform="translate(-5.02 -5.209)"/><path class="cls-2" d="M120.659,50.559c5.946,0,12.008.395,17.936.025a.086.086,0,0,0,0-.172c-5.932-.34-11.989.089-17.936.116a.016.016,0,0,0,0,.031Z" transform="translate(-5.02 -5.209)"/><path class="cls-2" d="M75.6,38.776a28.2,28.2,0,0,1,9.692-.828c.1.009.119-.153.023-.169a18.834,18.834,0,0,0-9.76.831.086.086,0,0,0,.046.166Z" transform="translate(-5.02 -5.209)"/><path class="cls-2" d="M88.76,38.47,90,38.731c.03.006.042-.039.012-.045l-1.247-.246c-.02,0-.028.026-.008.03Z" transform="translate(-5.02 -5.209)"/><path class="cls-2" d="M93.505,38.417c5.486.246,10.949.44,16.44.369a.039.039,0,0,0,0-.078c-5.48-.163-10.959-.2-16.44-.322a.016.016,0,0,0,0,.031Z" transform="translate(-5.02 -5.209)"/><path class="cls-2" d="M113.668,38.723a11.33,11.33,0,0,0,3.751.245c.078-.009.082-.128,0-.125a17.681,17.681,0,0,1-3.726-.21c-.059-.01-.085.077-.025.09Z" transform="translate(-5.02 -5.209)"/><path class="cls-2" d="M119.667,39.055c7.691.215,15.459-.367,23.164-.4a.086.086,0,0,0,0-.172c-7.634-.138-15.576-.41-23.164.492a.039.039,0,0,0,0,.078Z" transform="translate(-5.02 -5.209)"/><path class="cls-2" d="M167.08,44.668a17.392,17.392,0,0,1,5.91,4.267,30.405,30.405,0,0,1,3.16,5.959.071.071,0,0,0,.131-.035c-.515-4.519-4.867-9.122-8.936-10.819-.359-.15-.608.452-.265.628Z" transform="translate(-5.02 -5.209)"/><path class="cls-2" d="M176.46,56.112a.008.008,0,0,0,0-.016.008.008,0,0,0,0,.016Z" transform="translate(-5.02 -5.209)"/><path class="cls-2" d="M176.945,58.6a16.1,16.1,0,0,1,.713,3.074c.111,1.05.017,2.1.148,3.151a.156.156,0,0,0,.313,0,8.148,8.148,0,0,0-.291-2.952,31.778,31.778,0,0,0-.823-3.29c-.013-.038-.072-.022-.06.017Z" transform="translate(-5.02 -5.209)"/><path class="cls-2" d="M54.436,47.52A82.466,82.466,0,0,0,47.38,58.558C46,61.253,46.872,63.9,47.252,66.8c.009.068.115.071.109,0-.327-4.015-.588-6.72,1.736-10.3,1.9-2.926,3.919-5.759,5.622-8.807a.164.164,0,0,0-.283-.166Z" transform="translate(-5.02 -5.209)"/><path class="cls-2" d="M112.733,138.924a34.178,34.178,0,1,1,34.178-34.178A34.217,34.217,0,0,1,112.733,138.924Zm0-57.068a22.89,22.89,0,1,0,22.892,22.891A22.913,22.913,0,0,0,112.733,81.855Z" transform="translate(-5.02 -5.209)"/><circle class="cls-2" cx="144.396" cy="63.64" r="7.994"/><path class="cls-3" d="M8.575,134.959c-.761-12.6-1.972-25.164-2.114-37.8A329.663,329.663,0,0,1,10.4,45.618c.114-.779-1.062-1.133-1.205-.332A279.378,279.378,0,0,0,8.13,135.019c.037.252.46.193.445-.06Z" transform="translate(-5.02 -5.209)"/><path class="cls-4" d="M30.733,194.316c-7.209-6.268-11.279-15.876-14.4-24.675-3.582-10.091-4.816-20.068-6.324-30.572-.1-.7-1.144-.479-1.182.16-.643,11,3.364,23.428,7.334,33.513,3.081,7.827,7.182,16.938,14.329,21.892.188.131.42-.168.246-.319Z" transform="translate(-5.02 -5.209)"/><path class="cls-4" d="M36.741,204.06c-3.81-2.1-7.254-3.717-10.386-6.872-2.585-2.6-4.635-5.643-7.057-8.386-.276-.312-.759.087-.564.435,3.552,6.346,10.205,14.113,17.809,15.294.269.042.475-.319.2-.471Z" transform="translate(-5.02 -5.209)"/><path class="cls-4" d="M24.122,203.684a23.631,23.631,0,0,1-5.451-5.333c-.269-.362-.865-.044-.621.363a16.686,16.686,0,0,0,5.748,5.523c.356.219.657-.321.323-.553Z" transform="translate(-5.02 -5.209)"/><path class="cls-5" d="M13.075,26.971C24.708,16.641,37.929,11.983,52.65,7.921c.476-.131.4-.94-.12-.89C38,8.412,22.8,16.157,12.788,26.684a.2.2,0,0,0,.287.287Z" transform="translate(-5.02 -5.209)"/><path class="cls-6" d="M207.621,189.307c9.45-7.945,9.709-23.823,11.055-35.14.032-.271-.419-.329-.476-.064-2.563,12.016-2.707,24.965-10.866,34.917a.2.2,0,0,0,.287.287Z" transform="translate(-5.02 -5.209)"/><path class="cls-7" d="M220.626,146.021c2.342-7.233,2.487-15.657,2.236-23.177a.321.321,0,0,0-.641,0c-.171,7.78-1.47,15.409-1.841,23.144-.007.146.2.163.246.033Z" transform="translate(-5.02 -5.209)"/><path class="cls-8" d="M222.563,118.952c.795-3.636.388-7.73.329-11.417q-.158-9.878-.534-19.752c-.418-10.73-.6-21.6-1.908-32.273-.027-.224-.378-.234-.359,0,.82,10.526.922,21.152,1.274,31.7.35,10.474-.117,21.289.983,31.713.012.113.186.159.215.029Z" transform="translate(-5.02 -5.209)"/><path class="cls-8" d="M225.266,56.586a100.158,100.158,0,0,0-4.816-29.451.313.313,0,0,0-.6.166,204.309,204.309,0,0,1,4.871,29.285c.031.344.551.358.547,0Z" transform="translate(-5.02 -5.209)"/><path class="cls-2" d="M216.169,87.915c1.209-12.027.815-24.022-2.4-35.724-.084-.305-.521-.174-.467.129,2.092,11.794,3.42,23.608,2.682,35.6-.007.122.176.118.188,0Z" transform="translate(-5.02 -5.209)"/><path class="cls-2" d="M212.6,47.487a47.017,47.017,0,0,0-2.038-8.945.18.18,0,0,0-.347.1,46.922,46.922,0,0,0,2.124,8.885c.05.127.274.127.261-.035Z" transform="translate(-5.02 -5.209)"/><path class="cls-2" d="M207.652,33a.055.055,0,0,0,0-.109.055.055,0,0,0,0,.109Z" transform="translate(-5.02 -5.209)"/><path class="cls-2" d="M218.832,76.034a100.288,100.288,0,0,0-1.887-21.474c-.062-.288-.553-.23-.522.071.742,7.161,1.636,14.2,2.065,21.4a.172.172,0,0,0,.344,0Z" transform="translate(-5.02 -5.209)"/><path class="cls-2" d="M204.823,30.506c-1.565-5.377-4-11.166-7.671-15.453a.158.158,0,0,0-.247.032l-.348.814c-.05.117.107.219.175.1.278-.474,4.015,5.694,4.336,6.3a67.44,67.44,0,0,1,3.574,8.25c.041.112.215.068.181-.05Z" transform="translate(-5.02 -5.209)"/><path class="cls-2" d="M197.4,18.055a4.226,4.226,0,0,0-.728-2.079c-.261-.44-.62-1.115-1.193-1.183-.6-.071-.918.719-.247.789.166.017.245-.186.179-.311a6.505,6.505,0,0,0-1.21-1.8c-.137-.128-.416,0-.34.2a6.667,6.667,0,0,0,1.224,1.85l.146-.353c.336,0,1.049,1.373,1.22,1.653a9.464,9.464,0,0,0,.828,1.283.071.071,0,0,0,.12-.05Z" transform="translate(-5.02 -5.209)"/><path class="cls-2" d="M208.839,169.542q1.914-9.716,3.534-19.487c.021-.127-.171-.183-.2-.054q-1.87,9.728-3.459,19.508c-.013.078.1.113.121.033Z" transform="translate(-5.02 -5.209)"/><path class="cls-2" d="M213.3,141.67a127.229,127.229,0,0,0,.857-22.652.117.117,0,0,0-.234,0,210.93,210.93,0,0,1-.9,22.652c-.018.181.26.177.281,0Z" transform="translate(-5.02 -5.209)"/><path class="cls-2" d="M213.362,114.274a.023.023,0,0,0,0-.047.023.023,0,0,0,0,.047Z" transform="translate(-5.02 -5.209)"/><path class="cls-2" d="M213.494,111.83a1.58,1.58,0,0,1,.444-1.5c.088-.084-.043-.212-.133-.133a1.43,1.43,0,0,0-.511,1.714c.062.12.215.028.2-.084Z" transform="translate(-5.02 -5.209)"/><path class="cls-2" d="M28.743,189.436c-1.583-4.8-3.129-9.617-4.782-14.395-.02-.056-.109-.033-.09.025,1.529,4.819,3.167,9.6,4.767,14.4.022.066.128.038.105-.029Z" transform="translate(-5.02 -5.209)"/><path class="cls-2" d="M20.6,161.168a53.43,53.43,0,0,1-1.284-7.959c-.01-.108-.176-.112-.172,0a33.148,33.148,0,0,0,1.35,7.988.055.055,0,0,0,.105-.029Z" transform="translate(-5.02 -5.209)"/><path class="cls-2" d="M19.157,148.443c.044-2.386.09-4.77.016-7.156a.086.086,0,0,0-.172,0c-.074,2.386-.029,4.77.016,7.156a.07.07,0,0,0,.141,0Z" transform="translate(-5.02 -5.209)"/><path class="cls-2" d="M19.26,139.705c-.38,7.012-.43,14.3.884,21.222.487,2.564,2.634,6.185,2.547,8.591.09-2.5-2.743-7.584-3.5-10.776-.046-.2-.344-.113-.3.083a53.688,53.688,0,0,0,4.513,12.355c.139.283.635.082.516-.218-4-10.064-4.078-20.608-4.568-31.258a.047.047,0,0,0-.094,0Z" transform="translate(-5.02 -5.209)"/><path class="cls-2" d="M15.94,135.33a49.693,49.693,0,0,0,.7-5.173c.01-.121-.2-.151-.215-.029a49.715,49.715,0,0,0-.576,5.19.047.047,0,0,0,.092.012Z" transform="translate(-5.02 -5.209)"/><path class="cls-2" d="M16.666,129.355a19.73,19.73,0,0,1,.37-5.94.133.133,0,0,0-.256-.071,13.1,13.1,0,0,0-.39,6.048c.022.155.294.12.276-.037Z" transform="translate(-5.02 -5.209)"/><path class="cls-2" d="M15.395,155.6a72.866,72.866,0,0,1-.879-17.492c0-.05-.075-.05-.078,0a72.838,72.838,0,0,0,.927,17.5c0,.02.034.011.03-.008Z" transform="translate(-5.02 -5.209)"/><path class="cls-2" d="M20.151,165.93a49.585,49.585,0,0,1-3.536-15.1c-.011-.16-.262-.161-.25,0a46.17,46.17,0,0,0,3.743,15.12c.01.024.053.007.043-.018Z" transform="translate(-5.02 -5.209)"/><path class="cls-2" d="M12.57,107.088c-.226-9.31-.552-18.507-.046-27.819.007-.132-.191-.128-.2,0a123.869,123.869,0,0,0,0,27.819c.02.154.254.166.25,0Z" transform="translate(-5.02 -5.209)"/><path class="cls-2" d="M12.735,68.131q-.347,1.147.352.511-.082-.964-.1-1.931c-.022-.965,0-1.934.068-2.9a38.5,38.5,0,0,1,1.393-7.591.141.141,0,0,0-.271-.075A29.625,29.625,0,0,0,12.62,69.606a.263.263,0,1,0,.519-.07l-.2-1.4a.1.1,0,0,0-.2,0Z" transform="translate(-5.02 -5.209)"/><path class="cls-2" d="M21.959,101.922a8.281,8.281,0,0,0-1.219-4.412c-.035-.061-.127-.007-.094.055a12.482,12.482,0,0,1,1.267,4.357.023.023,0,0,0,.047,0Z" transform="translate(-5.02 -5.209)"/><path class="cls-2" d="M28.44,33.691q3.625-4.133,7.14-8.357c.2-.245-.146-.6-.354-.354q-3.542,4.22-6.963,8.533c-.1.123.069.3.177.177Z" transform="translate(-5.02 -5.209)"/><path class="cls-2" d="M43.565,17.64a34.728,34.728,0,0,0-9.645,4.906.3.3,0,1,0,.368.477c1.414-1.3,2.8-2.615,4.179-3.946.154-.149-.073-.366-.232-.232-1.473,1.234-2.936,2.476-4.377,3.748l.43.43c2.316-2.808,5.858-4.351,9.281-5.368a.008.008,0,0,0,0-.015Z" transform="translate(-5.02 -5.209)"/><path class="cls-2" d="M38.455,17.877l-1.006,1.536c-.006.008.008.016.013.008l1.006-1.536c.006-.008-.008-.016-.013-.008Z" transform="translate(-5.02 -5.209)"/><path class="cls-2" d="M27.526,30.631c.67-.9,1.334-1.792,1.964-2.716.059-.087-.079-.2-.147-.114-.717.875-1.4,1.774-2.073,2.68-.114.153.143.3.256.15Z" transform="translate(-5.02 -5.209)"/><path class="cls-2" d="M27.31,30.49a20.908,20.908,0,0,0-2.626,3.247c-.177.241.217.543.414.32.322-.366.63-.729.921-1.119.114-.153-.119-.291-.245-.189-.367.3-.707.611-1.049.936l.441.257a8.213,8.213,0,0,1,2.21-3.384.047.047,0,0,0-.066-.066Z" transform="translate(-5.02 -5.209)"/><path class="cls-2" d="M24.826,35.162A4.534,4.534,0,0,1,23.8,38.2c-.043.056.052.129.1.076a4.223,4.223,0,0,0,1.053-3.109c-.006-.08-.129-.081-.125,0Z" transform="translate(-5.02 -5.209)"/><path class="cls-2" d="M26.528,70.883A46.17,46.17,0,0,1,28.814,59.34c0-.01-.012-.014-.015,0a43.565,43.565,0,0,0-2.287,11.547c0,.01.015.01.016,0Z" transform="translate(-5.02 -5.209)"/><path class="cls-2" d="M31.409,51.674a3.526,3.526,0,0,0,1.039-2.686c0-.01-.016-.01-.016,0A3.5,3.5,0,0,1,31.4,51.662c-.007.007,0,.018.011.011Z" transform="translate(-5.02 -5.209)"/><path class="cls-2" d="M27.534,58.982l.476-4.226c0-.02-.029-.02-.031,0L27.5,58.982c0,.02.029.02.031,0Z" transform="translate(-5.02 -5.209)"/><path class="cls-2" d="M192.871,177.99a48.922,48.922,0,0,1-7.445,5.073c-.053.029-.005.111.047.081a49.034,49.034,0,0,0,7.431-5.121c.023-.019-.01-.052-.033-.033Z" transform="translate(-5.02 -5.209)"/><path class="cls-2" d="M195.487,173.841c-4.7,2.8-9.413,5.592-14.087,8.443a.055.055,0,0,0,.055.094c4.712-2.787,9.389-5.632,14.071-8.47a.039.039,0,0,0-.039-.067Z" transform="translate(-5.02 -5.209)"/><path class="cls-2" d="M157.193,189.156l-1.509.384a.008.008,0,0,0,0,.015l1.509-.384a.008.008,0,0,0,0-.015Z" transform="translate(-5.02 -5.209)"/><path class="cls-2" d="M119.474,193.039l-2.012.383c-.03.006-.017.051.012.045l2.008-.4c.02,0,.011-.034-.008-.03Z" transform="translate(-5.02 -5.209)"/><path class="cls-2" d="M116.956,193.464c8.431-.852,16.835-1.9,25.174-3.427.169-.031.1-.282-.071-.256-8.355,1.32-16.705,2.618-25.1,3.636-.029,0-.03.05,0,.047Z" transform="translate(-5.02 -5.209)"/><path class="cls-2" d="M159.217,184.57l-2.518.762a.008.008,0,0,0,0,.015l2.518-.762a.008.008,0,0,0,0-.015Z" transform="translate(-5.02 -5.209)"/><path class="cls-2" d="M88.777,192.249l-3.018.385c-.01,0-.01.017,0,.016l3.018-.385c.01,0,.01-.017,0-.016Z" transform="translate(-5.02 -5.209)"/><path class="cls-2" d="M78.207,193.019a.016.016,0,0,0,0-.031.016.016,0,0,0,0,.031Z" transform="translate(-5.02 -5.209)"/><path class="cls-2" d="M73.633,192.111c-1.492.423-2.986.839-4.475,1.273a.047.047,0,0,0,.025.09c1.5-.4,2.992-.817,4.487-1.228a.07.07,0,0,0-.037-.136Z" transform="translate(-5.02 -5.209)"/><path class="cls-2" d="M61.6,193.752a14.93,14.93,0,0,1-3,.45.008.008,0,1,0,0,.015,14.952,14.952,0,0,1,3.011-.367c.073.006.057-.124-.013-.1Z" transform="translate(-5.02 -5.209)"/><path class="cls-2" d="M88.772,186.083l-5.031-.008a.016.016,0,0,0,0,.031l5.031-.008a.008.008,0,0,0,0-.016Z" transform="translate(-5.02 -5.209)"/><path class="cls-2" d="M62.264,188.988q-5.333.167-10.657-.118c-.03,0-.03.045,0,.047q5.328.277,10.657.1c.02,0,.02-.032,0-.031Z" transform="translate(-5.02 -5.209)"/><path class="cls-2" d="M48.32,188.238a79.891,79.891,0,0,1-9.169-3.342c-.027-.012-.051.027-.024.04A48.8,48.8,0,0,0,48.3,188.3a.031.031,0,0,0,.017-.06Z" transform="translate(-5.02 -5.209)"/><path class="cls-2" d="M40.405,193.019a3,3,0,0,1-1.6-.8l-.091.157c.176.048.346.094.526.126a.078.078,0,0,0,.042-.151c-.172-.063-.342-.109-.518-.156a.094.094,0,0,0-.091.157,2.585,2.585,0,0,0,1.73.716c.026,0,.032-.041.006-.046Z" transform="translate(-5.02 -5.209)"/><path class="cls-2" d="M196.9,74.072v-4.1a.031.031,0,0,0-.062,0v4.1a.031.031,0,0,0,.063,0Z" transform="translate(-5.02 -5.209)"/><path class="cls-2" d="M195.268,55.475V55.16a.05.05,0,0,0-.1,0v.315a.05.05,0,0,0,.1,0Z" transform="translate(-5.02 -5.209)"/><path class="cls-2" d="M193.222,50.1a33.3,33.3,0,0,0-2.828-7.915c-.024-.046-.106-.014-.086.036a61.57,61.57,0,0,1,2.853,7.9.031.031,0,0,0,.06-.017Z" transform="translate(-5.02 -5.209)"/><path class="cls-2" d="M190.263,41.936a.016.016,0,0,0,0-.031.016.016,0,0,0,0,.031Z" transform="translate(-5.02 -5.209)"/><path class="cls-2" d="M177.01,76.279a4.812,4.812,0,0,1-.087.837.167.167,0,0,0,.322.089,10.455,10.455,0,0,0,.319-4.744c-.025-.156-.287-.12-.276.037a15.409,15.409,0,0,1-.365,4.617h.322a4.639,4.639,0,0,1-.156-.837.039.039,0,0,0-.078,0Z" transform="translate(-5.02 -5.209)"/><path class="cls-2" d="M176.187,68.7c.207.3.437.577.044.882l.284.075a7.073,7.073,0,0,1-.294-.939.751.751,0,0,0-.234-.461.19.19,0,0,0-.32.133.772.772,0,0,0,.151.522,7.177,7.177,0,0,1,.369.835.173.173,0,0,0,.284.075c.427-.347.434-1.166-.217-1.239a.079.079,0,0,0-.067.118Z" transform="translate(-5.02 -5.209)"/><path class="cls-2" d="M54.076,86.98a6.086,6.086,0,0,1,.4-3.971l-.17-.071a30.078,30.078,0,0,1-.951,2.9.227.227,0,0,0,.392.229,2.711,2.711,0,0,0,.435-2.278.212.212,0,0,0-.414.056,4.381,4.381,0,0,1-.413,1.992l.423.115a30.173,30.173,0,0,1,.707-2.966c.023-.117-.159-.166-.179-.049-.109.628-.263,1.248-.329,1.883-.076.732.028,1.446,0,2.173,0,.073.12.058.1-.013Z" transform="translate(-5.02 -5.209)"/><path class="cls-2" d="M145,170.527c.037-1.365.07-2.733-.008-4.1a.156.156,0,0,0-.312,0c-.078,1.365-.045,2.732-.008,4.1a.164.164,0,0,0,.328,0Z" transform="translate(-5.02 -5.209)"/><path class="cls-2" d="M144.014,163.284a.008.008,0,0,0,0-.016.008.008,0,0,0,0,.016Z" transform="translate(-5.02 -5.209)"/><path class="cls-2" d="M142.823,168.959l.42-1.89c0-.02-.026-.028-.03-.008l-.42,1.89c0,.02.026.028.03.008Z" transform="translate(-5.02 -5.209)"/><path class="cls-2" d="M142.417,168q0-.989.008-1.978a.08.08,0,0,0-.148-.04,2.308,2.308,0,0,0-.421,1.958c.025.137.237.1.238-.032a55.025,55.025,0,0,0-.51-6.207c-.022-.206-.343-.213-.328,0,.1,1.435.211,2.866.353,4.3.022.224-.008,1.357.159,1.477l.268-.708q.321-.513.244,0a4.561,4.561,0,0,1,.026,1.236.055.055,0,0,0,.109,0Z" transform="translate(-5.02 -5.209)"/><path class="cls-2" d="M165.493,17.5a5.325,5.325,0,0,1-2.705,1.878l.09.09.43-1.347a2.382,2.382,0,0,0,.244-1.044c-.057-.333-.331-.6-.655-.426-.08.044-.01.16.071.121.478-.228.365.527.329.717-.043.228-.132.456-.2.679l-.364,1.26a.074.074,0,0,0,.09.09,5.289,5.289,0,0,0,2.788-1.948c.052-.075-.069-.143-.121-.071Z" transform="translate(-5.02 -5.209)"/></svg>