<svg xmlns="http://www.w3.org/2000/svg" xmlns:xlink="http://www.w3.org/1999/xlink" viewBox="0 0 125.838 242.629"><defs><style>.cls-1{fill:#881477;}.cls-2{isolation:isolate;}.cls-3{fill:#f49ac1;}.cls-4,.cls-8{opacity:0.65;}.cls-15,.cls-16,.cls-17,.cls-4,.cls-8{mix-blend-mode:multiply;}.cls-15,.cls-5,.cls-8{fill:#c7c8ca;}.cls-6{fill:#6dcff6;}.cls-7{fill:#fff;}.cls-9{fill:#17479e;}.cls-10{fill:url(#linear-gradient);}.cls-11{fill:url(#linear-gradient-2);}.cls-12{fill:url(#linear-gradient-3);}.cls-13{fill:url(#radial-gradient);}.cls-14{fill:none;}.cls-16,.cls-18{fill:#fad5e5;}.cls-19{clip-path:url(#clip-path);}.cls-20{fill:#ef5399;}.cls-21{fill:#2b93d1;}.cls-22{fill:url(#linear-gradient-4);}.cls-23{fill:#007fc4;}.cls-24{fill:#1b75bc;}</style><linearGradient id="linear-gradient" x1="67.416" y1="207.668" x2="67.416" y2="149.327" gradientUnits="userSpaceOnUse"><stop offset="0" stop-color="#2b93d1"/><stop offset="0.522" stop-color="#127ec2"/><stop offset="1" stop-color="#006eb7"/></linearGradient><linearGradient id="linear-gradient-2" x1="99.07" y1="203.496" x2="99.07" y2="130.736" gradientUnits="userSpaceOnUse"><stop offset="0" stop-color="#f8c1d9"/><stop offset="0.482" stop-color="#f6accc"/><stop offset="1" stop-color="#f49ac1"/></linearGradient><linearGradient id="linear-gradient-3" x1="35.311" y1="203.496" x2="35.311" y2="130.736" xlink:href="#linear-gradient-2"/><radialGradient id="radial-gradient" cx="66.999" cy="46.562" r="95.61" gradientTransform="translate(0 8.429) scale(1 0.819)" gradientUnits="userSpaceOnUse"><stop offset="0.338" stop-color="#f8c1d9"/><stop offset="0.657" stop-color="#f6accc"/><stop offset="1" stop-color="#f49ac1"/></radialGradient><clipPath id="clip-path" transform="translate(-4.28 -3.07)"><path id="_Clipping_Path_" data-name="&lt;Clipping Path&gt;" class="cls-1" d="M67.51,96.879c-11.554,0-14.369,4.21-14.092,6.09,1.113,7.549,5.85,13.291,13.828,13.291,8.165,0,12.616-5.748,13.839-13.357C81.3,101.585,79.213,96.879,67.51,96.879Z"/></clipPath><linearGradient id="linear-gradient-4" x1="67.464" y1="118.014" x2="67.464" y2="169.981" gradientUnits="userSpaceOnUse"><stop offset="0" stop-color="#006eb7"/><stop offset="0.482" stop-color="#0c59aa"/><stop offset="1" stop-color="#17479e"/></linearGradient></defs><title>Джо</title><g class="cls-2"><g id="Layer_3" data-name="Layer 3"><path id="_Path_" data-name="&lt;Path&gt;" class="cls-3" d="M67.416,185.066a144.934,144.934,0,0,1,8.925,38.387c.684,7.057,2.493,18.062,2.493,18.062H94.25s-2.4-44.88-7.232-63.047S67.416,185.066,67.416,185.066Z" transform="translate(-4.28 -3.07)"/><g id="_Group_" data-name="&lt;Group&gt;" class="cls-4"><path id="_Path_2" data-name="&lt;Path&gt;" class="cls-5" d="M67.5,184.928l.084.138s-.03.071-.084.2a136.657,136.657,0,0,1,6.681,23.517c5.522,1.156,12.87.1,16.437-2.156.238-.119.507-.271.79-.444-1.127-10.479-2.589-20.951-4.389-27.718C82.4,161.093,68.685,182.988,67.5,184.928Z" transform="translate(-4.28 -3.07)"/></g><g id="_Group_2" data-name="&lt;Group&gt;"><path id="_Path_3" data-name="&lt;Path&gt;" class="cls-6" d="M92.811,221.027c-3.313,2.188-11.054,3.158-16.559,1.6.029.278.062.549.089.829.684,7.057,2.493,18.062,2.493,18.062H94.25S93.771,232.557,92.811,221.027Z" transform="translate(-4.28 -3.07)"/><path id="_Path_4" data-name="&lt;Path&gt;" class="cls-7" d="M92.811,221.027c-.144-1.725-.3-3.505-.463-5.324-3.256,2.248-11.154,3.257-16.725,1.659.237,1.706.445,3.467.629,5.261C81.756,224.185,89.5,223.215,92.811,221.027Z" transform="translate(-4.28 -3.07)"/></g><path id="_Path_5" data-name="&lt;Path&gt;" class="cls-3" d="M67.583,185.066a144.934,144.934,0,0,0-8.925,38.387c-.684,7.057-2.493,18.062-2.493,18.062H40.749s2.4-44.88,7.232-63.047S67.583,185.066,67.583,185.066Z" transform="translate(-4.28 -3.07)"/><path id="_Path_6" data-name="&lt;Path&gt;" class="cls-8" d="M67.416,185.066l.084-.138c-1.185-1.94-14.9-23.835-19.519-6.459-1.806,6.787-3.271,17.3-4.4,27.814.225.134.439.251.633.348,2.573,1.625,7.117,2.631,11.522,2.631a24.03,24.03,0,0,0,5.089-.511A136.611,136.611,0,0,1,67.5,185.269C67.446,185.137,67.416,185.066,67.416,185.066Z" transform="translate(-4.28 -3.07)"/><g id="_Group_3" data-name="&lt;Group&gt;"><path id="_Path_7" data-name="&lt;Path&gt;" class="cls-6" d="M42.193,220.978c-.963,11.554-1.443,20.537-1.443,20.537H56.166s1.809-11.005,2.493-18.062c.026-.273.059-.537.087-.808C53.2,224.185,45.446,223.191,42.193,220.978Z" transform="translate(-4.28 -3.07)"/><path id="_Path_8" data-name="&lt;Path&gt;" class="cls-7" d="M42.652,215.7l-.011.109c-.16,1.763-.31,3.491-.449,5.166,3.254,2.212,11.011,3.207,16.553,1.667.185-1.8.394-3.57.631-5.283C53.806,218.96,45.909,217.951,42.652,215.7Z" transform="translate(-4.28 -3.07)"/></g><path id="_Path_9" data-name="&lt;Path&gt;" class="cls-9" d="M55.332,244.511C60.879,242.1,59.589,230.9,47.21,230.9c-15.174,0-11.894,12.51-8.03,13.615C44.971,246.167,51.861,246.023,55.332,244.511Z" transform="translate(-4.28 -3.07)"/><path id="_Path_10" data-name="&lt;Path&gt;" class="cls-9" d="M95.148,244.511C100.694,242.1,99.4,230.9,87.025,230.9c-15.174,0-11.894,12.51-8.03,13.615C84.786,246.167,91.676,246.023,95.148,244.511Z" transform="translate(-4.28 -3.07)"/><path id="_Path_11" data-name="&lt;Path&gt;" class="cls-10" d="M83.706,155.5c-1.011-.891-2.034-3.41-3.052-3.948-.007-.036-.009-.076-.017-.111-3.016-1.535-8.125-2.3-13.221-2.286-5.1-.009-10.2.752-13.221,2.286-.008.035-.01.075-.017.111-1.018.538-2.042,3.057-3.052,3.948,0,0-8.294,27.211-10.129,45.489.068,1.642,2.23,3.492,3.957,4.333,5.073,3.278,17.526,3.5,20.518-.676.156-.681,1.568-11.586,1.945-15.58.377,3.994,1.789,14.9,1.945,15.58,2.992,4.176,15.445,3.954,20.518.676,1.727-.841,3.889-2.691,3.957-4.333C92,182.711,83.706,155.5,83.706,155.5Z" transform="translate(-4.28 -3.07)"/><g id="_Group_4" data-name="&lt;Group&gt;"><path id="_Path_12" data-name="&lt;Path&gt;" class="cls-6" d="M56.918,151.9c.006-.041.008-.087.014-.127,2.392-1.756,6.443-2.627,10.484-2.616-5.1-.009-10.2.752-13.221,2.286-.008.035-.01.075-.017.111-1.018.538-2.042,3.057-3.052,3.948,0,0-8.294,27.211-10.129,45.489.068,1.642,2.23,3.492,3.957,4.333a11.017,11.017,0,0,0,1.69.859c1.743-20.824,7.855-49.765,7.855-49.765C55.3,155.4,56.111,152.514,56.918,151.9Z" transform="translate(-4.28 -3.07)"/><path id="_Path_13" data-name="&lt;Path&gt;" class="cls-6" d="M83.706,155.5c-1.011-.891-2.034-3.41-3.052-3.948-.007-.036-.009-.076-.017-.111-3.016-1.535-8.125-2.3-13.221-2.286,4.041-.011,8.093.86,10.484,2.616.006.041.008.086.014.127.807.615,1.619,3.5,2.421,4.518,0,0,6.112,28.941,7.855,49.765a11.017,11.017,0,0,0,1.69-.859c1.727-.841,3.889-2.691,3.957-4.333C92,182.711,83.706,155.5,83.706,155.5Z" transform="translate(-4.28 -3.07)"/></g><g id="_Group_5" data-name="&lt;Group&gt;"><path id="_Path_14" data-name="&lt;Path&gt;" class="cls-11" d="M118.163,185.38c-.605-2.752-10.133-2.048-10.133-2.048s-.287.021-.688.055c-1.849-3.573-3.312-8.31-5.61-12.966-3.74-7.577-7.052-16.126-9.369-31.57,0,0-1.791-8.268-4.168-8.768-2.109-.444-5.046-1.291-7.651-1.684a80.446,80.446,0,0,1-.6,8.23l1.032,7.746,6.332,22.046c2.645,9.246,10.076,23.641,11.071,27.374.609,2.286,3.059,11.259,4.661,10.551s.367-9.368.367-9.368,3.165,10.46,5.5,9.179-1.432-10.994-1.432-10.994,4.875,10.088,7.9,8.45c2.353-1.275-5.33-13.57-5.33-13.57S118.769,188.132,118.163,185.38Z" transform="translate(-4.28 -3.07)"/><path id="_Path_15" data-name="&lt;Path&gt;" class="cls-12" d="M46.454,130.083c-2.377.5-4.168,8.768-4.168,8.768-2.317,15.445-5.629,23.994-9.369,31.57-2.3,4.656-3.761,9.393-5.61,12.966-.4-.034-.688-.055-.688-.055s-9.528-.7-10.133,2.048,8.111,2.662,8.111,2.662-7.683,12.3-5.33,13.57c3.025,1.639,7.9-8.45,7.9-8.45s-3.77,9.713-1.432,10.994,5.5-9.179,5.5-9.179-1.235,8.66.367,9.368,4.052-8.265,4.661-10.551c.995-3.734,7.441-15.3,10.064-24.462l6.6-22.083s1.239-15.365,1.239-18.86C51.546,128.784,48.58,129.636,46.454,130.083Z" transform="translate(-4.28 -3.07)"/></g><path id="_Path_16" data-name="&lt;Path&gt;" class="cls-3" d="M60.025,122.114v2.956s2.021,1.05,7.3,1.05,7.3-1.05,7.3-1.05v-2.956Z" transform="translate(-4.28 -3.07)"/><path id="_Path_17" data-name="&lt;Path&gt;" class="cls-8" d="M60.025,122.114v2.956s2.021,1.05,7.3,1.05,7.3-1.05,7.3-1.05v-2.956Z" transform="translate(-4.28 -3.07)"/><path id="_Path_18" data-name="&lt;Path&gt;" class="cls-9" d="M119.388,42.414l9.162,1.25c-3.875-11.375-14-8.75-14-8.75,12.945-18.949-10.027-26.625-10.027-26.625l-.692,17.176C100.01,11.14,78.548,3.07,65.958,3.07c-14.61,0-36.451,4.863-36.451,4.863,2.167,7.184,10.484,9.819,10.484,9.819s-14.984.584-21.435-.635c0,0-1.968,7.145,6.693,9.461,0,0-27.153,13.783-19.66,56.106l2.919-.79s1.421,13.388,3.651,20.4c1.977-1.033,3.482-1.916,3.482-1.916s4.378,12.382,18.75,20.247l.221-5.864h65.731l.173,5.864c14.372-7.864,18.75-20.247,18.75-20.247s1.5.882,3.482,1.916c2.231-7.016,3.651-20.4,3.651-20.4l2.919.79C133.59,46.267,119.388,42.414,119.388,42.414Z" transform="translate(-4.28 -3.07)"/><path id="_Path_19" data-name="&lt;Path&gt;" class="cls-8" d="M119.307,86.733a63.7,63.7,0,0,0,.671-9.112l0-.689-.3-.621c-9.036-18.847-22.691-28.459-32.556-33.2a59.745,59.745,0,0,0-19.661-5.862l-.167-.012-.167.006c-.342.013-8.508.381-19.046,5.41-9.631,4.6-23.215,14.155-33.234,33.583l-.337.653,0,.735a63.708,63.708,0,0,0,.671,9.111,8.453,8.453,0,0,0-1.872,12.889,7.83,7.83,0,0,0,1.507,1.228c.5-.285.814-.465.814-.465s.146.41.466,1.122a9.341,9.341,0,0,0,2.575.628,32.481,32.481,0,0,0,7.994,11.4,39.973,39.973,0,0,0,7.769,5.652l.127-3.388.039-1.033h65.731l.022.748.1,3.439a39.788,39.788,0,0,0,7.358-5.418,32.481,32.481,0,0,0,7.994-11.4,9.08,9.08,0,0,0,3.085-.861c.248-.567.363-.888.363-.888s.219.128.6.343a7.826,7.826,0,0,0,1.318-1.1,8.453,8.453,0,0,0-1.872-12.889Z" transform="translate(-4.28 -3.07)"/><path id="_Path_20" data-name="&lt;Path&gt;" class="cls-13" d="M115.865,88.858a52.618,52.618,0,0,0,1.114-11.25c-16.763-34.966-49.729-37.37-49.729-37.37s-31.076,1.2-49.729,37.371a52.618,52.618,0,0,0,1.114,11.25c-5.909,0-6.79,11.166,2.2,10.285,0,0,5.584,24.412,46.417,24.412s46.417-24.412,46.417-24.412C122.655,100.024,121.774,88.858,115.865,88.858Z" transform="translate(-4.28 -3.07)"/><path id="_Path_21" data-name="&lt;Path&gt;" class="cls-14" d="M115.865,88.858a52.616,52.616,0,0,0,1.114-11.25c-16.763-34.966-49.729-37.37-49.729-37.37s-31.076,1.2-49.729,37.371a52.619,52.619,0,0,0,1.114,11.25c-5.684,0-6.715,10.334,1.217,10.334.314,0,.64-.016.981-.05,0,0,5.584,24.412,46.417,24.412s46.417-24.412,46.417-24.412q.512.05.981.05C122.581,99.192,121.549,88.858,115.865,88.858Z" transform="translate(-4.28 -3.07)"/><path id="_Path_22" data-name="&lt;Path&gt;" class="cls-15" d="M115.384,91.839l-.925,4.263a2.022,2.022,0,0,0,2.776-1.388C118.028,92.467,115.384,91.839,115.384,91.839Z" transform="translate(-4.28 -3.07)"/><path id="_Path_23" data-name="&lt;Path&gt;" class="cls-15" d="M19.092,91.839l.925,4.263a2.022,2.022,0,0,1-2.776-1.388C16.448,92.467,19.092,91.839,19.092,91.839Z" transform="translate(-4.28 -3.07)"/><g id="_Group_6" data-name="&lt;Group&gt;"><path id="_Path_24" data-name="&lt;Path&gt;" class="cls-9" d="M106.642,80.782c-.914,0-2.534-4.2-4.74-5.284a1.968,1.968,0,1,1,1.736-3.533c3.959,1.945,4.47,8.555,3.406,8.776A2.056,2.056,0,0,1,106.642,80.782Z" transform="translate(-4.28 -3.07)"/></g><g id="_Group_7" data-name="&lt;Group&gt;"><path id="_Path_25" data-name="&lt;Path&gt;" class="cls-9" d="M29.072,80.782c.914,0,2.534-4.2,4.74-5.284a1.968,1.968,0,1,0-1.736-3.533c-3.959,1.945-4.47,8.555-3.406,8.776A2.056,2.056,0,0,0,29.072,80.782Z" transform="translate(-4.28 -3.07)"/></g><g id="_Group_8" data-name="&lt;Group&gt;"><g id="_Group_9" data-name="&lt;Group&gt;"><g id="_Group_10" data-name="&lt;Group&gt;"><g id="_Group_11" data-name="&lt;Group&gt;"><path id="_Compound_Path_" data-name="&lt;Compound Path&gt;" class="cls-16" d="M42.344,79.313H42.27a11.588,11.588,0,0,0-8.043,2.881,11.372,11.372,0,0,0-3.3,8.655c.041,6.883,4.97,11.691,11.987,11.691a11.13,11.13,0,0,0,8.114-3.288,11.722,11.722,0,0,0,3.08-8.765C53.888,83.908,49.049,79.313,42.344,79.313Z" transform="translate(-4.28 -3.07)"/><path id="_Path_26" data-name="&lt;Path&gt;" class="cls-7" d="M52.641,90.533c-.214-6.313-4.781-9.75-10.312-9.75h-.067c-5.643.029-9.9,3.192-9.86,10.046.04,6.826,4.98,10.242,10.549,10.242h.069C48.616,101.042,52.861,97.03,52.641,90.533Z" transform="translate(-4.28 -3.07)"/></g><g id="_Group_12" data-name="&lt;Group&gt;"><path id="_Path_27" data-name="&lt;Path&gt;" class="cls-9" d="M37.854,85.559a7.208,7.208,0,0,1,4.534-1.589,6.973,6.973,0,1,1,0,13.942,7.438,7.438,0,0,1-5.043-2.04,1.251,1.251,0,0,1,0-1.8c.895-.793,2.147-2.066,2.682-2.639a1.289,1.289,0,0,0-.045-1.826,29.817,29.817,0,0,1-2.227-2.17A1.287,1.287,0,0,1,37.854,85.559Z" transform="translate(-4.28 -3.07)"/></g><g id="_Group_13" data-name="&lt;Group&gt;"><path id="_Path_28" data-name="&lt;Path&gt;" class="cls-7" d="M43.492,93.307a1.314,1.314,0,0,0-1.744.634,1.121,1.121,0,0,0,.525,1.676,1.339,1.339,0,0,0,1.8-.679A1.081,1.081,0,0,0,43.492,93.307Z" transform="translate(-4.28 -3.07)"/></g><g id="_Group_14" data-name="&lt;Group&gt;"><path id="_Compound_Path_2" data-name="&lt;Compound Path&gt;" class="cls-16" d="M100.293,82.171a11.619,11.619,0,0,0-8.065-2.889h-.074c-6.723,0-11.574,4.607-11.8,11.2a11.752,11.752,0,0,0,3.088,8.788,11.109,11.109,0,0,0,8.06,3.3c7.111,0,12.053-4.82,12.094-11.721A11.4,11.4,0,0,0,100.293,82.171Z" transform="translate(-4.28 -3.07)"/><path id="_Path_29" data-name="&lt;Path&gt;" class="cls-7" d="M102.1,90.828c.041-6.854-4.216-10.017-9.86-10.046h-.067c-5.531,0-10.1,3.437-10.312,9.75-.22,6.5,4.025,10.509,9.621,10.538h.069C97.116,101.07,102.056,97.654,102.1,90.828Z" transform="translate(-4.28 -3.07)"/></g><g id="_Group_15" data-name="&lt;Group&gt;"><path id="_Path_30" data-name="&lt;Path&gt;" class="cls-9" d="M96.644,85.559A7.208,7.208,0,0,0,92.11,83.97a6.973,6.973,0,1,0,0,13.942,7.438,7.438,0,0,0,5.043-2.04,1.251,1.251,0,0,0,0-1.8c-.895-.793-2.147-2.066-2.682-2.639a1.289,1.289,0,0,1,.045-1.826,29.817,29.817,0,0,0,2.227-2.17A1.287,1.287,0,0,0,96.644,85.559Z" transform="translate(-4.28 -3.07)"/></g><g id="_Group_16" data-name="&lt;Group&gt;"><path id="_Path_31" data-name="&lt;Path&gt;" class="cls-7" d="M92.051,93.307a1.314,1.314,0,0,0-1.744.634,1.121,1.121,0,0,0,.525,1.676,1.339,1.339,0,0,0,1.8-.679A1.081,1.081,0,0,0,92.051,93.307Z" transform="translate(-4.28 -3.07)"/></g></g></g><g id="_Group_17" data-name="&lt;Group&gt;" class="cls-17"><path id="_Path_32" data-name="&lt;Path&gt;" class="cls-18" d="M109.952,101.078c-2.144-1.825-5.142-1.883-7.462.706-2.379,2.654-2.151,5.72.007,7.557a5.3,5.3,0,0,0,3.949,1.33,25.662,25.662,0,0,0,5.273-6.888A5.165,5.165,0,0,0,109.952,101.078Z" transform="translate(-4.28 -3.07)"/><path id="_Path_33" data-name="&lt;Path&gt;" class="cls-18" d="M24.546,101.078c2.144-1.825,5.142-1.883,7.462.706,2.379,2.654,2.151,5.72-.007,7.557a5.29,5.29,0,0,1-3.979,1.326,28.761,28.761,0,0,1-5.242-6.885A5.165,5.165,0,0,1,24.546,101.078Z" transform="translate(-4.28 -3.07)"/></g><g id="_Clip_Group_" data-name="&lt;Clip Group&gt;"><path id="_Clipping_Path_2" data-name="&lt;Clipping Path&gt;" class="cls-1" d="M67.51,96.879c-11.554,0-14.369,4.21-14.092,6.09,1.113,7.549,5.85,13.291,13.828,13.291,8.165,0,12.616-5.748,13.839-13.357C81.3,101.585,79.213,96.879,67.51,96.879Z" transform="translate(-4.28 -3.07)"/><g class="cls-19"><path id="_Path_34" data-name="&lt;Path&gt;" class="cls-20" d="M53.159,121.213H81.332c0-9.081-6.307-16.443-14.087-16.443S53.159,112.132,53.159,121.213Z" transform="translate(-4.28 -3.07)"/></g></g></g><path id="_Path_35" data-name="&lt;Path&gt;" class="cls-8" d="M9.825,70.11c.007.677,19.509-5.623,57.5-5.623,39.675,0,57.338,6.319,57.341,5.753.021-3.337-.153-10.257-1.747-15.369-3.544-5.308-23.893-14.587-55.471-14.587S15.625,50.25,11.275,54.87C9.9,59.5,9.787,66.611,9.825,70.11Z" transform="translate(-4.28 -3.07)"/><path id="_Path_36" data-name="&lt;Path&gt;" class="cls-21" d="M9.873,70.2c.34-3.267,26-9.045,57.576-9.045s57.219,5.278,57.176,9.045c0,0,.47-8.35-1.706-15.33C120.709,51.079,99.026,44.6,67.449,44.6s-52.2,7.136-56.174,10.27C9.4,61.2,9.873,70.2,9.873,70.2Z" transform="translate(-4.28 -3.07)"/><g id="_Group_18" data-name="&lt;Group&gt;" class="cls-4"><path id="_Path_37" data-name="&lt;Path&gt;" class="cls-5" d="M124.625,70.2s.47-8.35-1.706-15.33c-.666-1.141-3.107-2.526-7.041-3.9a69.908,69.908,0,0,1,3.519,15.98C122.755,68.052,124.636,69.181,124.625,70.2Z" transform="translate(-4.28 -3.07)"/></g><path id="_Path_38" data-name="&lt;Path&gt;" class="cls-8" d="M67.445,29.514l-27.775,16.5.433-2.676a28.2,28.2,0,0,0,.615,23.328s3.932-10.1,5.849-13.368c.845,11.871,7.3,25.545,7.365,25.688l.952,2V65.418c3.292,11.8,11.59,20.517,11.684,20.614l.519.538L75.059,68.33l-1.905,8.952,1-.614c16.16-9.975,24.309-36.486,24.408-36.753L95.917,38Z" transform="translate(-4.28 -3.07)"/><path id="_Path_39" data-name="&lt;Path&gt;" class="cls-9" d="M67.511,27.055,40.1,43.333c-2.193,8.5.625,18.517.625,18.517a58.926,58.926,0,0,1,6.258-13.227c.307,12.25,7.4,27.143,7.4,27.143V57.642C56.4,71.767,66.926,82.685,66.926,82.685l9.647-22.069L73.886,73.242c16.2-10,25.925-36.5,25.925-36.5Z" transform="translate(-4.28 -3.07)"/><g id="_Group_19" data-name="&lt;Group&gt;"><path id="_Path_40" data-name="&lt;Path&gt;" class="cls-22" d="M80.545,128.4c-3.211-.484-5.915-.839-5.915-.839l-7.3,2.8-7.3-2.8s-2.67.351-5.855.83a24.76,24.76,0,0,1-3.372,12.988c-.1,2.885-2.884,26.1-2.884,26.1a84.033,84.033,0,0,0,19.416,2.707,95.463,95.463,0,0,0,19.693-2.414s-3.063-23.136-3.162-26.021h.061A27.028,27.028,0,0,1,80.545,128.4Z" transform="translate(-4.28 -3.07)"/></g><path id="_Path_41" data-name="&lt;Path&gt;" class="cls-3" d="M60.021,127.56s-.562,7.611,7.761,7.611c7.426,0,6.847-7.611,6.847-7.611H60.021Z" transform="translate(-4.28 -3.07)"/><g id="_Group_20" data-name="&lt;Group&gt;"><path id="_Path_42" data-name="&lt;Path&gt;" class="cls-8" d="M72.056,143.87h-8.5a5.07,5.07,0,0,0-5.089,5.04V151.7a5.044,5.044,0,0,0,4.084,4.918l-1.351,2.79a5.194,5.194,0,0,0-.223,4.079,5.417,5.417,0,0,0,9.988.392l5.557-12.413a5.82,5.82,0,0,0,.574-2.512A5.07,5.07,0,0,0,72.056,143.87Z" transform="translate(-4.28 -3.07)"/><g id="_Group_21" data-name="&lt;Group&gt;"><path id="_Path_43" data-name="&lt;Path&gt;" class="cls-23" d="M73.839,147.634a1.836,1.836,0,0,0-1.783-1.83h-8.5a1.8,1.8,0,0,0-1.831,1.782v2.794a1.785,1.785,0,0,0,1.831,1.758,1.815,1.815,0,0,0,1.83-1.758v-.914h3.876c-.866,1.4-1.613,2.769-1.829,3.226l-3.3,6.816a2,2,0,0,0,1.06,2.746,2.151,2.151,0,0,0,.869.181,2.084,2.084,0,0,0,1.923-1.192l5.563-12.427A2.582,2.582,0,0,0,73.839,147.634Z" transform="translate(-4.28 -3.07)"/><path id="_Compound_Path_3" data-name="&lt;Compound Path&gt;" class="cls-6" d="M72.056,142.546h-8.5a5.07,5.07,0,0,0-5.089,5.04v2.794a5.044,5.044,0,0,0,4.084,4.918l-1.351,2.79a5.194,5.194,0,0,0-.223,4.079,5.417,5.417,0,0,0,9.988.392l5.557-12.413a5.82,5.82,0,0,0,.574-2.512A5.07,5.07,0,0,0,72.056,142.546Zm-5.994,19.888a2.151,2.151,0,0,1-.869-.181,2,2,0,0,1-1.06-2.746l3.3-6.816c.216-.457.963-1.83,1.829-3.226H65.386v.914a1.815,1.815,0,0,1-1.83,1.758,1.785,1.785,0,0,1-1.831-1.758v-2.794a1.8,1.8,0,0,1,1.831-1.782h8.5a1.836,1.836,0,0,1,1.783,1.83,2.582,2.582,0,0,1-.29,1.181l-5.563,12.427A2.084,2.084,0,0,1,66.062,162.435Z" transform="translate(-4.28 -3.07)"/></g></g><path id="_Path_44" data-name="&lt;Path&gt;" class="cls-9" d="M121.75,78.21s1.532-20.033-7.875-36.46c0,0,11.235,5.242,12.568,8.091C132.243,62.233,121.75,78.21,121.75,78.21Z" transform="translate(-4.28 -3.07)"/><g id="_Group_22" data-name="&lt;Group&gt;" class="cls-4"><path id="_Path_45" data-name="&lt;Path&gt;" class="cls-5" d="M9.268,70.638A49.36,49.36,0,0,1,10.973,55.5c.666-1.141,3.107-2.526,7.041-3.9a68.492,68.492,0,0,0-3.519,15.788C11.138,68.489,9.256,69.619,9.268,70.638Z" transform="translate(-4.28 -3.07)"/></g><path id="_Path_46" data-name="&lt;Path&gt;" class="cls-9" d="M12.143,78.21s-1.532-20.033,7.875-36.46c0,0-11.235,5.242-12.568,8.091C1.65,62.233,12.143,78.21,12.143,78.21Z" transform="translate(-4.28 -3.07)"/><path id="_Path_47" data-name="&lt;Path&gt;" class="cls-6" d="M78.8,128.129l-4.121-.569a7.354,7.354,0,0,1-7.292,7.014c-3.69,0-7.292-3.159-7.292-7.014l-4.408.569c1.469,8.094,6.451,10.156,11.7,10.156h0C72.636,138.286,77.938,135.379,78.8,128.129Z" transform="translate(-4.28 -3.07)"/></g><g id="Layer_1" data-name="Layer 1"><g id="_Group_23" data-name="&lt;Group&gt;"><path id="_Path_48" data-name="&lt;Path&gt;" class="cls-24" d="M84.023,195.337a2.881,2.881,0,0,1,2.058-3.914c2.211-.363,3.024.744,3.281,2.984.377,3.283.1,7.827-2.488,8.4a1.745,1.745,0,0,1-2.142-.847C83.619,199.914,85.23,199.08,84.023,195.337Z" transform="translate(-4.28 -3.07)"/><path id="_Path_49" data-name="&lt;Path&gt;" class="cls-24" d="M85.372,184.871a2.682,2.682,0,0,0-2.387,3.147c.181,1.869,1.452,2.874,2.934,2.692a2.737,2.737,0,0,0,2.432-3.3C88.109,185.449,86.866,184.687,85.372,184.871Z" transform="translate(-4.28 -3.07)"/><path id="_Compound_Path_4" data-name="&lt;Compound Path&gt;" class="cls-24" d="M80.236,190.37a1.79,1.79,0,0,0,.536,2.458,1.846,1.846,0,0,0,2.536-.153,1.824,1.824,0,0,0-.547-2.605A1.673,1.673,0,0,0,80.236,190.37Z" transform="translate(-4.28 -3.07)"/><path id="_Compound_Path_5" data-name="&lt;Compound Path&gt;" class="cls-24" d="M80.442,194.866a1.274,1.274,0,0,0,2.46.63,1.21,1.21,0,0,0-.976-1.54A1.172,1.172,0,0,0,80.442,194.866Z" transform="translate(-4.28 -3.07)"/></g></g></g></svg>