<svg xmlns="http://www.w3.org/2000/svg" xmlns:xlink="http://www.w3.org/1999/xlink" viewBox="0 0 126.874 242.492"><defs><style>.cls-1{isolation:isolate;}.cls-2{fill:#6dcff6;}.cls-15,.cls-16,.cls-3{fill:#c7c8ca;}.cls-14,.cls-3{opacity:0.65;}.cls-14,.cls-16,.cls-3{mix-blend-mode:multiply;}.cls-4{fill:#e10786;}.cls-25,.cls-5{opacity:0.2;}.cls-25,.cls-6{fill:#881477;}.cls-7{fill:url(#radial-gradient);}.cls-8{fill:#17479e;}.cls-9{fill:#e1058c;}.cls-10{fill:url(#linear-gradient);}.cls-11{fill:url(#linear-gradient-2);}.cls-12{fill:url(#linear-gradient-3);}.cls-13{fill:url(#linear-gradient-4);}.cls-17{fill:url(#linear-gradient-5);}.cls-18{fill:url(#linear-gradient-6);}.cls-19{fill:url(#linear-gradient-7);}.cls-20{fill:url(#linear-gradient-8);}.cls-21{fill:url(#linear-gradient-9);}.cls-22{fill:url(#linear-gradient-10);}.cls-23{fill:url(#linear-gradient-11);}.cls-24{fill:#fff;}.cls-26{fill:none;}.cls-27{fill:url(#linear-gradient-12);}.cls-28{fill:url(#linear-gradient-13);}.cls-29{fill:url(#linear-gradient-14);}.cls-30{fill:url(#linear-gradient-15);}.cls-31{fill:url(#linear-gradient-16);}.cls-32{fill:#f49ac1;}.cls-33{fill:#1268b3;}</style><radialGradient id="radial-gradient" cx="67.075" cy="60.136" r="84.592" gradientTransform="translate(0 10.887) scale(1 0.819)" gradientUnits="userSpaceOnUse"><stop offset="0.342" stop-color="#abe1fa"/><stop offset="0.761" stop-color="#7fd4f7"/><stop offset="0.985" stop-color="#6dcff6"/></radialGradient><linearGradient id="linear-gradient" x1="124.437" y1="46.549" x2="100.202" y2="59.691" gradientTransform="translate(34.061 53.434) rotate(20.67)" gradientUnits="userSpaceOnUse"><stop offset="0.342" stop-color="#6dcff6"/><stop offset="0.573" stop-color="#41b6e7"/><stop offset="0.851" stop-color="#129bd6"/><stop offset="0.99" stop-color="#0091d0"/></linearGradient><linearGradient id="linear-gradient-2" x1="100.748" y1="60.072" x2="83.06" y2="55.705" xlink:href="#linear-gradient"/><linearGradient id="linear-gradient-3" x1="-426.331" y1="254.338" x2="-450.566" y2="267.481" gradientTransform="matrix(-0.936, 0.353, 0.353, 0.936, -488.072, 53.434)" xlink:href="#linear-gradient"/><linearGradient id="linear-gradient-4" x1="-450.019" y1="267.862" x2="-467.707" y2="263.495" gradientTransform="matrix(-0.936, 0.353, 0.353, 0.936, -488.072, 53.434)" xlink:href="#linear-gradient"/><linearGradient id="linear-gradient-5" x1="89.023" y1="169.976" x2="94.722" y2="169.976" gradientUnits="userSpaceOnUse"><stop offset="0.783" stop-color="#0092d1"/><stop offset="0.99" stop-color="#0091d0"/></linearGradient><linearGradient id="linear-gradient-6" x1="39.988" y1="169.976" x2="45.688" y2="169.976" xlink:href="#linear-gradient-5"/><linearGradient id="linear-gradient-7" x1="45.313" y1="167.202" x2="53.125" y2="167.202" xlink:href="#linear-gradient-5"/><linearGradient id="linear-gradient-8" x1="56.156" y1="165.786" x2="60.406" y2="165.786" xlink:href="#linear-gradient-5"/><linearGradient id="linear-gradient-9" x1="81.586" y1="167.202" x2="89.398" y2="167.202" xlink:href="#linear-gradient-5"/><linearGradient id="linear-gradient-10" x1="74.304" y1="165.786" x2="78.554" y2="165.786" xlink:href="#linear-gradient-5"/><linearGradient id="linear-gradient-11" x1="10.438" y1="188.527" x2="34.307" y2="188.527" gradientUnits="userSpaceOnUse"><stop offset="0.079" stop-color="#3777bc"/><stop offset="0.254" stop-color="#3777bc"/></linearGradient><linearGradient id="linear-gradient-12" x1="80" y1="156.5" x2="80" y2="170.881" gradientUnits="userSpaceOnUse"><stop offset="0" stop-color="#0089cf"/><stop offset="0.109" stop-color="#0877c2"/><stop offset="0.295" stop-color="#135fb0"/><stop offset="0.491" stop-color="#1b4ea4"/><stop offset="0.703" stop-color="#20439c"/><stop offset="0.958" stop-color="#21409a"/></linearGradient><linearGradient id="linear-gradient-13" x1="86.479" y1="156.333" x2="86.479" y2="175.624" xlink:href="#linear-gradient-12"/><linearGradient id="linear-gradient-14" x1="67.359" y1="156.167" x2="67.359" y2="167.503" xlink:href="#linear-gradient-12"/><linearGradient id="linear-gradient-15" x1="-425.537" y1="156.5" x2="-425.537" y2="170.881" gradientTransform="matrix(-1, 0, 0, 1, -370.818, 0)" xlink:href="#linear-gradient-12"/><linearGradient id="linear-gradient-16" x1="-419.058" y1="156.333" x2="-419.058" y2="175.624" gradientTransform="matrix(-1, 0, 0, 1, -370.818, 0)" xlink:href="#linear-gradient-12"/></defs><title>Лайвли</title><g class="cls-1"><g id="Layer_3" data-name="Layer 3"><path id="_Path_" data-name="&lt;Path&gt;" class="cls-2" d="M60.025,122.114v2.956s2.021,1.05,7.3,1.05,7.3-1.05,7.3-1.05v-2.956Z" transform="translate(-3.418 -7.019)"/><path id="_Path_2" data-name="&lt;Path&gt;" class="cls-3" d="M60.025,122.114v2.956s2.021,1.05,7.3,1.05,7.3-1.05,7.3-1.05v-2.956Z" transform="translate(-3.418 -7.019)"/><path id="_Path_3" data-name="&lt;Path&gt;" class="cls-4" d="M116.557,60.992s5.948-11.341-3.45-19.851A44.9,44.9,0,0,0,95.331,31.009C98.005,19.679,82.7,7.227,67.325,7.022,51.27,6.807,35.138,19.337,39.319,31.009A44.9,44.9,0,0,0,21.543,41.141c-9.4,8.51-3.45,19.851-3.45,19.851C13.864,63.444,13.8,68,14.631,71.678a39.873,39.873,0,0,1,.66,9.4c-.052,3.809,3.281,7.415,3.281,7.415,0-.075.008-.149.009-.224l97.487,0c0,.073.009.147.01.22,0,0,3.333-3.606,3.281-7.415a39.876,39.876,0,0,1,.66-9.4C120.854,68,120.786,63.444,116.557,60.992Z" transform="translate(-3.418 -7.019)"/><g id="_Group_" data-name="&lt;Group&gt;" class="cls-5"><path id="_Path_4" data-name="&lt;Path&gt;" class="cls-6" d="M18.581,88.27l97.487,0c0,.073.009.147.01.22a15.251,15.251,0,0,0,2.714-4.452,64.307,64.307,0,0,0-4.176-16.676,3,3,0,0,0-4.732-1.178c-.244.208-.513.415-.8.617l-.06.042c-.281.2-.57.379-.855.543l-.055.032a12.793,12.793,0,0,1-1.973.908l-.108.036c-.3.105-.617.2-.941.292l-.189.048-.108.027c-.258.064-.522.122-.79.172-.122.023-.242.045-.363.065-.265.043-.536.076-.81.1l-.185.021c-.053.006-.107.013-.161.017-.433.034-.819.051-1.178.051-5.129,0-9.754-2.715-11.248-6.6a3,3,0,0,0-2.8-1.924q-.1,0-.2.006a3,3,0,0,0-2.721,2.291c-1.583,6.573-8.789,11.344-17.134,11.344-8.067,0-15.223-4.585-17.014-10.9A3,3,0,0,0,47.473,61.2q-.082,0-.164,0a3,3,0,0,0-2.779,1.873c-1.569,3.872-6.066,6.473-11.188,6.473-.365,0-.761-.018-1.21-.054-.067-.005-.133-.014-.2-.021l-.169-.019c-.276-.03-.549-.065-.818-.109-.133-.022-.265-.046-.4-.071-.264-.051-.526-.111-.784-.177l-.164-.041c-.058-.014-.117-.028-.174-.044-.4-.112-.743-.223-1.051-.338l-.029-.011c-.3-.114-.625-.252-.98-.419l-.117-.059L27.1,68.1c-.231-.116-.457-.236-.677-.365-.1-.056-.192-.114-.287-.173-.213-.132-.418-.27-.619-.413l-.124-.087-.11-.078c-.3-.225-.55-.429-.765-.624a3,3,0,0,0-4.809,1.14,62.784,62.784,0,0,0-3.875,16.485,15.2,15.2,0,0,0,2.737,4.512C18.573,88.42,18.58,88.345,18.581,88.27Z" transform="translate(-3.418 -7.019)"/></g><path id="_Path_5" data-name="&lt;Path&gt;" class="cls-7" d="M115.941,88.858s.05-.2.127-.583a59.021,59.021,0,0,0-4.24-19.8q-.485.412-1.015.784l-.071.05q-.519.361-1.077.684l-.041.025a15.752,15.752,0,0,1-2.489,1.146c-.034.012-.069.022-.1.034q-.564.2-1.151.357c-.118.032-.238.06-.358.09q-.475.118-.963.21c-.145.027-.29.054-.437.078-.323.052-.65.093-.98.127-.139.014-.277.033-.418.044-.466.037-.937.06-1.415.06-6.58,0-12.149-3.582-14.048-8.527-1.874,7.78-10.137,13.641-20.05,13.641-9.674,0-17.774-5.584-19.9-13.084-1.966,4.849-7.471,8.346-13.969,8.346-.491,0-.975-.025-1.454-.064-.15-.012-.3-.032-.444-.048-.333-.036-.662-.078-.987-.132-.161-.027-.32-.055-.479-.086-.322-.063-.64-.135-.954-.216-.137-.035-.275-.066-.41-.1-.438-.123-.868-.259-1.286-.415h0c-.425-.159-.836-.337-1.238-.527-.113-.053-.221-.112-.331-.167-.287-.144-.568-.294-.842-.454-.121-.071-.241-.143-.359-.216-.266-.165-.525-.339-.777-.518-.1-.07-.2-.138-.3-.21-.338-.254-.666-.518-.975-.8A59.43,59.43,0,0,0,18.581,88.27c.078.381.128.587.128.587-5.909,0-6.79,11.166,2.2,10.285,0,0,5.584,24.412,46.417,24.412s46.417-24.412,46.417-24.412C122.731,100.024,121.85,88.858,115.941,88.858Z" transform="translate(-3.418 -7.019)"/><path id="_Path_6" data-name="&lt;Path&gt;" class="cls-2" d="M78.007,233.888s3.522-15.477-4.871-51.32l14.4-12.033s12.568,26.4,8.58,64.733c0,0,3.423,6.422-7.895,5.842S78.007,233.888,78.007,233.888Z" transform="translate(-3.418 -7.019)"/><g id="_Group_2" data-name="&lt;Group&gt;"><path id="_Path_7" data-name="&lt;Path&gt;" class="cls-8" d="M78.007,233.888s2.221-9.8-1.088-31.837c4.3-2.407,12.846-4.151,18.33-3.476A108.576,108.576,0,0,1,96.6,232.7s-1.14,10.88-12.457,10.3S78.007,233.888,78.007,233.888Z" transform="translate(-3.418 -7.019)"/></g><path id="_Path_8" data-name="&lt;Path&gt;" class="cls-9" d="M96.538,232.475c-.01.034.023-.028,0,0-9.935,12.15-20.629,6.15-18.531,1.413,0,0-11.175,14.041,4.41,15.5,8.9.831,12.309-2.552,14.256-6.281C98.84,238.951,96.522,232.524,96.538,232.475Z" transform="translate(-3.418 -7.019)"/><g id="_Group_3" data-name="&lt;Group&gt;"><path id="_Path_9" data-name="&lt;Path&gt;" class="cls-10" d="M109.347,138.669c19.4-1.551,33.6-16.039,3.824-6.86L96.99,136.034,82.474,146.505c2.143,13.41,8.447,11.567,5.669,4.505,6.01,9.949,11.732,8.114,4.247-.9,15.884,12.987,24.86,7.647,5.337-2.816,21.1,10.486,30.2.8,8.142-2.03l-.9-.115.557.059C123.243,147.094,138.027,136.514,109.347,138.669Z" transform="translate(-3.418 -7.019)"/><path id="_Path_10" data-name="&lt;Path&gt;" class="cls-11" d="M97.626,137.392c14.942-.788,25.3-11,1.308-4.836-4.554,1.169-10.448,9.786-16.831,8.389l.919,3.537c3.585,7.14,11.17,8.944,5.255.346,4.932,5.9,16.215,7.782,2.966-2.383,10.245,7.666,25.5,4.774,3.188-2.351C109.259,144.738,118.83,136.63,97.626,137.392Z" transform="translate(-3.418 -7.019)"/><path id="_Path_11" data-name="&lt;Path&gt;" class="cls-12" d="M25.3,138.669c-19.4-1.551-33.6-16.039-3.824-6.86l16.181,4.225,14.516,10.471c-2.821,13.182-8.447,11.567-5.669,4.505-6.01,9.949-11.523,7.823-4.247-.9-15.884,12.987-24.86,7.647-5.337-2.816-21.1,10.486-30.2.8-8.142-2.03l.9-.115-.557.059C11.407,147.094-3.377,136.514,25.3,138.669Z" transform="translate(-3.418 -7.019)"/><path id="_Path_12" data-name="&lt;Path&gt;" class="cls-13" d="M37.024,137.392c-14.942-.788-25.3-11-1.308-4.836,4.554,1.169,10.448,9.786,16.831,8.389l-.919,3.537c-3.585,7.14-11.17,8.944-5.255.346-4.932,5.9-16.215,7.782-2.966-2.383-10.245,7.666-25.5,4.774-3.188-2.351C25.391,144.738,15.82,136.63,37.024,137.392Z" transform="translate(-3.418 -7.019)"/></g><g id="_Group_4" data-name="&lt;Group&gt;" class="cls-14"><path id="_Path_13" data-name="&lt;Path&gt;" class="cls-15" d="M95.79,138.511c-.171-.827-.452-2.174-.89-3.67-3.791,2.86-8.165,7.118-12.8,6.1l.371,5.56c2.143,13.41,8.447,11.567,5.669,4.505,6.01,9.949,11.732,8.114,4.247-.9a51.336,51.336,0,0,0,6.913,4.826A118.336,118.336,0,0,1,95.824,138.7Z" transform="translate(-3.418 -7.019)"/><path id="_Path_14" data-name="&lt;Path&gt;" class="cls-15" d="M46.507,151.011c-2.779,7.062,2.847,8.677,5.669-4.505l.371-5.56c-4.625,1.012-8.993-3.232-12.781-6.092-.317,1.07-.622,2.282-.907,3.657l-.034.191a118.341,118.341,0,0,1-3.478,16.235,51.335,51.335,0,0,0,6.912-4.826C34.984,158.833,40.5,160.96,46.507,151.011Z" transform="translate(-3.418 -7.019)"/></g><path id="_Path_15" data-name="&lt;Path&gt;" class="cls-2" d="M56.652,233.888s-3.522-15.477,4.871-51.32l-14.4-12.033s-12.568,26.4-8.58,64.733c0,0-3.423,6.422,7.895,5.842S56.652,233.888,56.652,233.888Z" transform="translate(-3.418 -7.019)"/><g id="_Group_5" data-name="&lt;Group&gt;" class="cls-14"><path id="_Path_16" data-name="&lt;Path&gt;" class="cls-15" d="M87.531,170.536l-14.4,12.033c.238,1.016.463,2.011.683,2.995,8.849-.63,14.322-2.512,17.593-4.264A81.724,81.724,0,0,0,87.531,170.536Z" transform="translate(-3.418 -7.019)"/><path id="_Path_17" data-name="&lt;Path&gt;" class="cls-15" d="M47.127,170.536a81.77,81.77,0,0,0-3.884,10.776c.7.369,1.415.706,2.108.995a49.936,49.936,0,0,0,15.492,3.245c.218-.98.443-1.971.68-2.984Z" transform="translate(-3.418 -7.019)"/></g><g id="_Group_6" data-name="&lt;Group&gt;"><path id="_Path_18" data-name="&lt;Path&gt;" class="cls-8" d="M56.652,233.888s-2.221-9.8,1.088-31.837c-4.3-2.407-12.846-4.151-18.33-3.476A108.576,108.576,0,0,0,38.054,232.7s1.14,10.88,12.457,10.3S56.652,233.888,56.652,233.888Z" transform="translate(-3.418 -7.019)"/></g><g id="_Group_7" data-name="&lt;Group&gt;"><path id="_Path_19" data-name="&lt;Path&gt;" class="cls-16" d="M115.46,91.839l-.925,4.263a2.022,2.022,0,0,0,2.776-1.388C118.1,92.467,115.46,91.839,115.46,91.839Z" transform="translate(-3.418 -7.019)"/><path id="_Path_20" data-name="&lt;Path&gt;" class="cls-16" d="M19.168,91.839l.925,4.263a2.022,2.022,0,0,1-2.776-1.388C16.524,92.467,19.168,91.839,19.168,91.839Z" transform="translate(-3.418 -7.019)"/></g><path id="_Path_21" data-name="&lt;Path&gt;" class="cls-2" d="M118.191,182.38c-.605-2.752-10.133-2.048-10.133-2.048s-.287.021-.688.055c-1.849-3.573-3.312-5.31-5.61-9.966-3.74-7.577-7.052-15.755-9.369-31.2,0,0-1.791-8.639-4.168-9.139-2.125-.447-5.092-.928-7.712-1.323-3.185-.479-5.855-.83-5.855-.83H60.048s-2.67.351-5.855.83c-2.62.394-5.586.875-7.712,1.323-2.377.5-4.168,9.139-4.168,9.139-2.317,15.445-5.629,23.623-9.369,31.2-2.3,4.656-15.521,25.218-13.168,26.493,3.025,1.639,7.418-6.753,7.418-6.753s-4.36,8.923-2.022,10.2,6.094-8.389,6.094-8.389-1.259,7.147.344,7.856,4.075-6.752,4.684-9.038c.5-1.867,5.506-12.9,9.39-23.471s6.644-20.671,6.644-20.671l.032-.481c3.409-1.021,13.126-3.068,29.486.1l.231,1.145s2.529,9.124,6.311,19.03c4.1,10.743,9.5,22.406,10.018,24.348.609,2.286,2.6,10.4,4.2,9.689s.827-8.506.827-8.506,3.165,10.46,5.5,9.179-1.432-10.994-1.432-10.994,4.875,10.088,7.9,8.45c2.353-1.275-5.33-13.57-5.33-13.57S118.8,185.132,118.191,182.38Z" transform="translate(-3.418 -7.019)"/><g id="_Group_8" data-name="&lt;Group&gt;" class="cls-14"><path id="_Path_22" data-name="&lt;Path&gt;" class="cls-15" d="M95.775,177.908a2,2,0,0,0,.372-1.161,9.42,9.42,0,0,0-1.241-3.982,3.741,3.741,0,0,0,1.637-1.805,2.651,2.651,0,0,0-.075-2.089,1.964,1.964,0,0,0-.112-.233,26.777,26.777,0,0,0-10.99-10.656c.874,2.6,1.892,5.5,3.025,8.465,1.736,4.548,3.7,9.258,5.437,13.329A9.249,9.249,0,0,0,95.775,177.908Z" transform="translate(-3.418 -7.019)"/><path id="_Path_23" data-name="&lt;Path&gt;" class="cls-15" d="M48.812,158.266a26.9,26.9,0,0,0-10.438,10.351,2.665,2.665,0,0,0-.212,2.331,3.758,3.758,0,0,0,1.674,1.836,9.445,9.445,0,0,0-1.221,3.963c0,1.005.89,2.06,2.165,3.026,1.571-3.8,3.33-8.158,4.907-12.448C46.842,164.178,47.9,161.075,48.812,158.266Z" transform="translate(-3.418 -7.019)"/></g><g id="_Group_9" data-name="&lt;Group&gt;"><path id="_Path_24" data-name="&lt;Path&gt;" class="cls-17" d="M94.607,169.621c.812,1.337-2.938,2.337-2.938,2.337l-2.646-3.553,3.063-.412Z" transform="translate(-3.418 -7.019)"/><path id="_Path_25" data-name="&lt;Path&gt;" class="cls-18" d="M40.1,169.621c-.812,1.337,2.938,2.337,2.938,2.337l2.646-3.553-3.062-.412Z" transform="translate(-3.418 -7.019)"/></g><path id="_Path_26" data-name="&lt;Path&gt;" class="cls-9" d="M38.121,232.475c.01.034-.023-.028,0,0,9.935,12.15,20.629,6.15,18.531,1.413,0,0,11.175,14.041-4.41,15.5-8.9.831-12.309-2.552-14.256-6.281C35.818,238.951,38.136,232.524,38.121,232.475Z" transform="translate(-3.418 -7.019)"/><path id="_Path_27" data-name="&lt;Path&gt;" class="cls-9" d="M94.147,176.747s-5.022,7.039-26.766,7.039c-21.006,0-26.766-6.519-26.766-7.039,0-3.888,10.753-19.461,26.707-19.461S94.147,172.859,94.147,176.747Z" transform="translate(-3.418 -7.019)"/><g id="_Group_10" data-name="&lt;Group&gt;"><path id="_Path_28" data-name="&lt;Path&gt;" class="cls-19" d="M49.434,170.277c.063-.1,3.691-5.679,3.691-5.679s-4.5-1.058-5.687,0-2.125,4.715-2.125,4.715Z" transform="translate(-3.418 -7.019)"/><path id="_Path_29" data-name="&lt;Path&gt;" class="cls-20" d="M58.619,168.009c.046-.084,1.788-4.446,1.788-4.446l-4.25,1.75.375,2.125Z" transform="translate(-3.418 -7.019)"/><path id="_Path_30" data-name="&lt;Path&gt;" class="cls-21" d="M85.277,170.277c-.063-.1-3.691-5.679-3.691-5.679s4.5-1.058,5.688,0,2.125,4.715,2.125,4.715Z" transform="translate(-3.418 -7.019)"/><path id="_Path_31" data-name="&lt;Path&gt;" class="cls-22" d="M76.092,168.009c-.046-.084-1.788-4.446-1.788-4.446l4.25,1.75-.375,2.125Z" transform="translate(-3.418 -7.019)"/></g><path id="_Path_32" data-name="&lt;Path&gt;" class="cls-9" d="M50.608,142.582c-.293-4.872,33.735-5.612,33.434,0-.046.854-2.98,9.441-6.528,17.936-3.65,8.739-17.112,8.633-20.653-.194A180.081,180.081,0,0,1,50.608,142.582Z" transform="translate(-3.418 -7.019)"/><path id="_Path_33" data-name="&lt;Path&gt;" class="cls-8" d="M83.462,159.306c-7.014-3.864-15.75-2.991-16.1-2.954-.353-.037-9.088-.91-16.1,2.954A24.172,24.172,0,0,0,40.1,169.621l.043.086a8.754,8.754,0,0,1,4.695.379c3.517,1.019,5.893.265,4.005-.475-2.076-.814-1.942-1.474-1.577-1.731.869-.613,2.731-.632,6.858.244,2.89.613,5.395.131,4.263-.56-1.427-.872-1.634-1.517.543-1.7s5.8,1.267,5.8,1.267c2.036-3.042,2.515-7.37,2.626-9.5.111,2.126.59,6.454,2.626,9.5,0,0,3.625-1.447,5.8-1.267s1.97.825.543,1.7c-1.132.691,1.373,1.173,4.263.56,4.127-.875,5.989-.857,6.858-.244.364.257.5.917-1.577,1.731-1.888.74.488,1.494,4.005.475a8.754,8.754,0,0,1,4.695-.379l.043-.086A24.172,24.172,0,0,0,83.462,159.306Z" transform="translate(-3.418 -7.019)"/><path id="_Path_34" data-name="&lt;Path&gt;" class="cls-8" d="M80.486,153.343c-4.905-2.9-12.33-4.846-13.161,1.218-.832-6.064-8.256-4.119-13.161-1.218L56.4,159.25l11.007-2.977,10.833,2.977Z" transform="translate(-3.418 -7.019)"/><path id="_Path_35" data-name="&lt;Path&gt;" class="cls-23" d="M34.21,183.853a1.09,1.09,0,0,0-1.426-.549L10.438,193l.31.841,22.85-8.516A1.09,1.09,0,0,0,34.21,183.853Z" transform="translate(-3.418 -7.019)"/><g id="_Group_11" data-name="&lt;Group&gt;"><polygon id="_Path_36" data-name="&lt;Path&gt;" class="cls-9" points="0 188.829 3.008 184.971 2.475 180.107 7.074 181.776 11.535 179.765 11.369 184.655 14.659 188.276 9.957 189.63 7.53 193.878 4.79 189.825 0 188.829"/></g><g id="_Group_12" data-name="&lt;Group&gt;"><path id="_Path_37" data-name="&lt;Path&gt;" class="cls-2" d="M29.5,177.922l-.026-.986s-13.733,13.211-9.39,14.147c2.306.5,10.8-7.185,10.8-7.185C30.324,183.391,27.451,178.916,29.5,177.922Z" transform="translate(-3.418 -7.019)"/><path id="_Path_38" data-name="&lt;Path&gt;" class="cls-2" d="M30.953,183.843c-.023.019-.05.036-.073.055C30.962,183.973,31,183.965,30.953,183.843Z" transform="translate(-3.418 -7.019)"/></g><path id="_Path_39" data-name="&lt;Path&gt;" class="cls-4" d="M69.749,103.676a3.207,3.207,0,0,0-1.142.178,3.57,3.57,0,0,1-2.566,0,3.207,3.207,0,0,0-1.142-.178c-1.907,0-5.4,2.872-5.4,2.872s1.33,4.877,7.825,4.877c6.421,0,7.819-4.964,7.819-4.964S71.656,103.676,69.749,103.676Z" transform="translate(-3.418 -7.019)"/><g id="_Group_13" data-name="&lt;Group&gt;"><g id="_Group_14" data-name="&lt;Group&gt;"><g id="_Group_15" data-name="&lt;Group&gt;"><g id="_Group_16" data-name="&lt;Group&gt;"><path id="_Path_40" data-name="&lt;Path&gt;" class="cls-24" d="M52.414,95.426c-.216-6.384-4.835-9.86-10.427-9.86h-.068c-5.707.029-10.012,3.228-9.971,10.159.041,6.9,5.036,10.357,10.667,10.357h.07C48.344,106.053,52.637,102,52.414,95.426Z" transform="translate(-3.418 -7.019)"/></g><g id="_Group_17" data-name="&lt;Group&gt;"><path id="_Path_41" data-name="&lt;Path&gt;" class="cls-24" d="M92.732,85.566h-.068c-5.593,0-10.211,3.476-10.427,9.86-.222,6.57,4.07,10.627,9.729,10.656h.07c5.631,0,10.626-3.454,10.667-10.357C102.744,88.794,98.439,85.594,92.732,85.566Z" transform="translate(-3.418 -7.019)"/></g><g id="_Group_18" data-name="&lt;Group&gt;"><path id="_Path_42" data-name="&lt;Path&gt;" class="cls-8" d="M97.189,90.4A7.289,7.289,0,0,0,92.6,88.789a7.052,7.052,0,1,0,0,14.1,7.521,7.521,0,0,0,5.1-2.063A1.265,1.265,0,0,0,97.7,99c-.9-.8-2.171-2.089-2.712-2.669a1.3,1.3,0,0,1,.045-1.846,30.152,30.152,0,0,0,2.252-2.194A1.3,1.3,0,0,0,97.189,90.4Z" transform="translate(-3.418 -7.019)"/></g><g id="_Group_19" data-name="&lt;Group&gt;"><path id="_Path_43" data-name="&lt;Path&gt;" class="cls-24" d="M92.544,98.231a1.329,1.329,0,0,0-1.763.641,1.134,1.134,0,0,0,.531,1.695,1.354,1.354,0,0,0,1.819-.687A1.093,1.093,0,0,0,92.544,98.231Z" transform="translate(-3.418 -7.019)"/></g><g id="_Group_20" data-name="&lt;Group&gt;"><path id="_Path_44" data-name="&lt;Path&gt;" class="cls-8" d="M37.461,90.4a7.289,7.289,0,0,1,4.585-1.607,7.052,7.052,0,1,1,0,14.1,7.521,7.521,0,0,1-5.1-2.063,1.265,1.265,0,0,1,0-1.825c.9-.8,2.171-2.089,2.712-2.669a1.3,1.3,0,0,0-.045-1.846,30.152,30.152,0,0,1-2.252-2.194A1.3,1.3,0,0,1,37.461,90.4Z" transform="translate(-3.418 -7.019)"/></g><g id="_Group_21" data-name="&lt;Group&gt;"><path id="_Path_45" data-name="&lt;Path&gt;" class="cls-24" d="M43.163,98.231a1.329,1.329,0,0,0-1.763.641,1.134,1.134,0,0,0,.531,1.695,1.354,1.354,0,0,0,1.819-.687A1.093,1.093,0,0,0,43.163,98.231Z" transform="translate(-3.418 -7.019)"/></g></g></g></g><g id="_Group_22" data-name="&lt;Group&gt;"><g id="_Group_23" data-name="&lt;Group&gt;"><g id="_Group_24" data-name="&lt;Group&gt;"><path id="_Path_46" data-name="&lt;Path&gt;" class="cls-6" d="M104.15,87.18a1.582,1.582,0,0,1-1.476-1.013,4.787,4.787,0,0,0-4.139-3.188,1.589,1.589,0,0,1-1.542-1.612,1.563,1.563,0,0,1,1.588-1.55,7.914,7.914,0,0,1,7.043,5.212,1.582,1.582,0,0,1-1.475,2.15Z" transform="translate(-3.418 -7.019)"/></g></g><g id="_Group_25" data-name="&lt;Group&gt;"><g id="_Group_26" data-name="&lt;Group&gt;"><path id="_Path_47" data-name="&lt;Path&gt;" class="cls-6" d="M30.5,87.18a1.582,1.582,0,0,0,1.476-1.013,4.787,4.787,0,0,1,4.139-3.188,1.589,1.589,0,0,0,1.542-1.612,1.563,1.563,0,0,0-1.588-1.55,7.914,7.914,0,0,0-7.043,5.212A1.582,1.582,0,0,0,30.5,87.18Z" transform="translate(-3.418 -7.019)"/></g></g></g><path id="_Path_48" data-name="&lt;Path&gt;" class="cls-25" d="M39.319,31.009s24.257-3.3,56.013,0l.3-1.649s-29.277-13.046-56.938-.207Z" transform="translate(-3.418 -7.019)"/><g id="_Group_27" data-name="&lt;Group&gt;"><path id="_Path_49" data-name="&lt;Path&gt;" class="cls-26" d="M77.4,166.447l0,.016Z" transform="translate(-3.418 -7.019)"/><path id="_Path_50" data-name="&lt;Path&gt;" class="cls-26" d="M87.569,167.993l.017.031C87.58,168.014,87.577,168,87.569,167.993Z" transform="translate(-3.418 -7.019)"/><path id="_Path_51" data-name="&lt;Path&gt;" class="cls-27" d="M78.342,157.3a31.7,31.7,0,0,0-5.911-.964A51.875,51.875,0,0,1,77.4,166.447l0,.016c.01.056.012.092,0,.093.014,0,.012-.037,0-.093.035.292-.37.668-1.079,1.1-1.132.691,1.373,1.173,4.263.56,4.127-.875,5.989-.857,6.858-.244a.574.574,0,0,1,.12.113A39.7,39.7,0,0,0,78.342,157.3Z" transform="translate(-3.418 -7.019)"/><path id="_Path_52" data-name="&lt;Path&gt;" class="cls-28" d="M83.462,159.306a22.733,22.733,0,0,0-5.12-2.007,39.7,39.7,0,0,1,9.227,10.695c.007.009.01.021.017.031l.054.1-.054-.1c.214.316.052.895-1.714,1.587-1.888.74.488,1.494,4.005.475a8.754,8.754,0,0,1,4.695-.379l.043-.086A24.172,24.172,0,0,0,83.462,159.306Z" transform="translate(-3.418 -7.019)"/></g><g id="_Group_28" data-name="&lt;Group&gt;"><path id="_Path_53" data-name="&lt;Path&gt;" class="cls-26" d="M57.315,166.447l0,.016Z" transform="translate(-3.418 -7.019)"/><path id="_Path_54" data-name="&lt;Path&gt;" class="cls-26" d="M47.149,167.993l-.017.031C47.139,168.014,47.142,168,47.149,167.993Z" transform="translate(-3.418 -7.019)"/><path id="_Path_55" data-name="&lt;Path&gt;" class="cls-29" d="M72.431,156.335a31.921,31.921,0,0,0-5.072.018,31.922,31.922,0,0,0-5.072-.018,51.875,51.875,0,0,0-4.972,10.112c.052-.287.542-.49,1.617-.579,2.176-.18,5.8,1.267,5.8,1.267,2.036-3.042,2.515-7.37,2.626-9.5.111,2.126.59,6.454,2.626,9.5,0,0,3.625-1.447,5.8-1.267,1.076.089,1.565.292,1.617.579A51.875,51.875,0,0,0,72.431,156.335Z" transform="translate(-3.418 -7.019)"/><path id="_Path_56" data-name="&lt;Path&gt;" class="cls-30" d="M56.377,157.3a31.7,31.7,0,0,1,5.911-.964,51.875,51.875,0,0,0-4.972,10.112l0,.016c-.01.056-.012.092,0,.093-.014,0-.012-.037,0-.093-.035.292.37.668,1.079,1.1,1.132.691-1.373,1.173-4.263.56-4.127-.875-5.989-.857-6.858-.244a.574.574,0,0,0-.12.113A39.7,39.7,0,0,1,56.377,157.3Z" transform="translate(-3.418 -7.019)"/><path id="_Path_57" data-name="&lt;Path&gt;" class="cls-31" d="M51.257,159.306a22.733,22.733,0,0,1,5.12-2.007,39.7,39.7,0,0,0-9.227,10.695c-.007.009-.01.021-.017.031l-.054.1.054-.1c-.214.316-.052.895,1.714,1.587,1.888.74-.488,1.494-4.005.475a8.754,8.754,0,0,0-4.695-.379l-.043-.086A24.172,24.172,0,0,1,51.257,159.306Z" transform="translate(-3.418 -7.019)"/></g><g id="_Group_29" data-name="&lt;Group&gt;"><path id="_Path_58" data-name="&lt;Path&gt;" class="cls-26" d="M102.724,72.1c-.466.037-.937.06-1.415.06C101.787,72.164,102.258,72.14,102.724,72.1Z" transform="translate(-3.418 -7.019)"/><path id="_Path_59" data-name="&lt;Path&gt;" class="cls-26" d="M33.341,72.54c-.491,0-.975-.025-1.454-.064C32.366,72.515,32.85,72.54,33.341,72.54Z" transform="translate(-3.418 -7.019)"/><path id="_Path_60" data-name="&lt;Path&gt;" class="cls-26" d="M31.443,72.428c-.332-.036-.662-.078-.987-.132C30.781,72.35,31.111,72.392,31.443,72.428Z" transform="translate(-3.418 -7.019)"/><path id="_Path_61" data-name="&lt;Path&gt;" class="cls-26" d="M104.122,71.932c-.323.052-.65.092-.98.127C103.472,72.024,103.8,71.984,104.122,71.932Z" transform="translate(-3.418 -7.019)"/><path id="_Path_62" data-name="&lt;Path&gt;" class="cls-26" d="M109.624,70.016a15.781,15.781,0,0,1-2.489,1.146A15.752,15.752,0,0,0,109.624,70.016Z" transform="translate(-3.418 -7.019)"/><path id="_Path_63" data-name="&lt;Path&gt;" class="cls-26" d="M29.977,72.21c-.322-.063-.64-.135-.954-.216C29.338,72.074,29.655,72.147,29.977,72.21Z" transform="translate(-3.418 -7.019)"/><path id="_Path_64" data-name="&lt;Path&gt;" class="cls-26" d="M107.031,71.2c-.376.133-.76.251-1.151.357Q106.467,71.394,107.031,71.2Z" transform="translate(-3.418 -7.019)"/><path id="_Path_65" data-name="&lt;Path&gt;" class="cls-26" d="M105.522,71.644q-.475.118-.963.21Q105.047,71.763,105.522,71.644Z" transform="translate(-3.418 -7.019)"/><path id="_Path_66" data-name="&lt;Path&gt;" class="cls-26" d="M110.742,69.308q-.519.362-1.077.684Q110.223,69.67,110.742,69.308Z" transform="translate(-3.418 -7.019)"/><path id="_Path_67" data-name="&lt;Path&gt;" class="cls-26" d="M110.813,69.258q.529-.373,1.015-.784h0C111.505,68.748,111.165,69.009,110.813,69.258Z" transform="translate(-3.418 -7.019)"/><path id="_Path_68" data-name="&lt;Path&gt;" class="cls-26" d="M22.506,68.583c.309.279.636.543.975.8-.338-.254-.666-.518-.975-.8Z" transform="translate(-3.418 -7.019)"/><path id="_Path_69" data-name="&lt;Path&gt;" class="cls-26" d="M28.614,71.89c-.438-.123-.868-.259-1.286-.415C27.746,71.631,28.176,71.766,28.614,71.89Z" transform="translate(-3.418 -7.019)"/><path id="_Path_70" data-name="&lt;Path&gt;" class="cls-26" d="M24.553,70.109q-.4-.248-.777-.518C24.028,69.77,24.286,69.943,24.553,70.109Z" transform="translate(-3.418 -7.019)"/><path id="_Path_71" data-name="&lt;Path&gt;" class="cls-26" d="M27.323,71.473c-.425-.159-.836-.337-1.238-.527C26.487,71.136,26.9,71.315,27.323,71.473Z" transform="translate(-3.418 -7.019)"/><path id="_Path_72" data-name="&lt;Path&gt;" class="cls-26" d="M25.754,70.779c-.287-.144-.568-.294-.842-.454C25.186,70.484,25.467,70.635,25.754,70.779Z" transform="translate(-3.418 -7.019)"/></g><path id="_Path_73" data-name="&lt;Path&gt;" class="cls-32" d="M38.344,14.267c-1.425.7-1.752,9.324-2.667,9.624s-9.421-7.925-10.989-7.151.467,12.3-.328,12.84-5.859-4.255-7.284-3.552S27.4,43.662,27.4,43.662A23.316,23.316,0,0,0,46.6,34.329S39.769,13.564,38.344,14.267Z" transform="translate(-3.418 -7.019)"/><g id="_Group_30" data-name="&lt;Group&gt;"><path id="_Path_74" data-name="&lt;Path&gt;" class="cls-9" d="M29.957,27.843l-.094,5.087a.912.912,0,0,0,.431.792l4.6,2.857a.912.912,0,0,0,1.393-.758l.094-5.087a.912.912,0,0,0-.431-.792l-4.6-2.857A.912.912,0,0,0,29.957,27.843Z" transform="translate(-3.418 -7.019)"/></g></g><g id="Layer_1" data-name="Layer 1"><g id="_Group_31" data-name="&lt;Group&gt;"><path id="_Path_75" data-name="&lt;Path&gt;" class="cls-33" d="M87.232,224.337a2.881,2.881,0,0,1,2.784-3.436c2.239.076,2.82,1.322,2.634,3.568-.273,3.293-1.439,7.695-4.084,7.751a1.745,1.745,0,0,1-1.935-1.25C85.94,228.746,87.683,228.244,87.232,224.337Z" transform="translate(-3.418 -7.019)"/><path id="_Path_76" data-name="&lt;Path&gt;" class="cls-33" d="M90.6,214.338a2.682,2.682,0,0,0-2.957,2.618c-.188,1.868.861,3.1,2.35,3.214a2.737,2.737,0,0,0,3.031-2.755C93.175,215.441,92.105,214.45,90.6,214.338Z" transform="translate(-3.418 -7.019)"/><path id="_Compound_Path_" data-name="&lt;Compound Path&gt;" class="cls-33" d="M84.49,218.725a1.79,1.79,0,0,0,.045,2.516,1.846,1.846,0,0,0,2.517.347,1.824,1.824,0,0,0-.026-2.662A1.673,1.673,0,0,0,84.49,218.725Z" transform="translate(-3.418 -7.019)"/><path id="_Compound_Path_2" data-name="&lt;Compound Path&gt;" class="cls-33" d="M83.812,223.174a1.274,1.274,0,0,0,2.289,1.1,1.21,1.21,0,0,0-.656-1.7A1.172,1.172,0,0,0,83.812,223.174Z" transform="translate(-3.418 -7.019)"/></g></g></g></svg>