<svg xmlns="http://www.w3.org/2000/svg" xmlns:xlink="http://www.w3.org/1999/xlink" viewBox="0 0 129.033 237.296"><defs><style>.cls-1,.cls-10{fill:#881477;}.cls-2{isolation:isolate;}.cls-3{fill:#ef5399;}.cls-4{fill:#007fc4;}.cls-5{fill:#bfbfbf;opacity:0.3;}.cls-11,.cls-12,.cls-15,.cls-18,.cls-5,.cls-8{mix-blend-mode:multiply;}.cls-6{fill:#f49ac1;}.cls-7{fill:url(#radial-gradient);}.cls-11,.cls-19,.cls-8{fill:#c7c8ca;}.cls-18,.cls-8{opacity:0.65;}.cls-9{fill:url(#radial-gradient-3);}.cls-10{opacity:0.5;}.cls-12,.cls-16{fill:#fad5e5;}.cls-13{fill:#fff;}.cls-14{fill:#17479e;}.cls-17{clip-path:url(#clip-path);}.cls-20{fill:#f8c1d9;}.cls-21{fill:url(#linear-gradient);}.cls-22{fill:url(#linear-gradient-2);}.cls-23{fill:url(#linear-gradient-3);}.cls-24{fill:url(#linear-gradient-4);}.cls-25{fill:url(#linear-gradient-5);}</style><radialGradient id="radial-gradient" cx="67.75" cy="205" r="77.549" gradientUnits="userSpaceOnUse"><stop offset="0" stop-color="#f8c1d9"/><stop offset="0.482" stop-color="#f6accc"/><stop offset="1" stop-color="#f49ac1"/></radialGradient><radialGradient id="radial-gradient-3" cx="67.749" cy="46.562" r="95.61" gradientTransform="translate(0 8.429) scale(1 0.819)" gradientUnits="userSpaceOnUse"><stop offset="0.338" stop-color="#f8c1d9"/><stop offset="0.657" stop-color="#f6accc"/><stop offset="1" stop-color="#f49ac1"/></radialGradient><clipPath id="clip-path" transform="translate(-2.808 -13.447)"><path id="_Clipping_Path_" data-name="&lt;Clipping Path&gt;" class="cls-1" d="M67.586,91.878c-11.554,0-14.369,4.21-14.092,6.09,1.113,7.549,5.85,13.291,13.828,13.291,8.165,0,12.616-5.748,13.839-13.357C81.372,96.584,79.289,91.878,67.586,91.878Z"/></clipPath><linearGradient id="linear-gradient" x1="97.027" y1="148.833" x2="97.027" y2="159.533" gradientUnits="userSpaceOnUse"><stop offset="0.005" stop-color="#2484c6"/><stop offset="1" stop-color="#1a63af"/></linearGradient><linearGradient id="linear-gradient-2" x1="37.899" y1="148.833" x2="37.899" y2="159.533" xlink:href="#linear-gradient"/><linearGradient id="linear-gradient-3" x1="41.25" y1="155.5" x2="41.25" y2="186.531" xlink:href="#linear-gradient"/><linearGradient id="linear-gradient-4" x1="93.411" y1="155.5" x2="93.411" y2="186.531" xlink:href="#linear-gradient"/><linearGradient id="linear-gradient-5" x1="67.324" y1="158.667" x2="67.324" y2="196.938" gradientUnits="userSpaceOnUse"><stop offset="0.005" stop-color="#2484c6"/><stop offset="0.266" stop-color="#227dc1"/><stop offset="0.64" stop-color="#1c6ab4"/><stop offset="0.758" stop-color="#1a63af"/></linearGradient></defs><title>Мрийка</title><g class="cls-2"><g id="Layer_3" data-name="Layer 3"><g id="_Group_" data-name="&lt;Group&gt;"><g id="_Group_2" data-name="&lt;Group&gt;"><path id="_Path_" data-name="&lt;Path&gt;" class="cls-3" d="M49.206,26.915a15.032,15.032,0,0,0-1.752-5.54c-5.025-9.153-18.677-10.315-30.492-3.828S-.356,35.712,4.669,44.866a16.372,16.372,0,0,0,10.215,7.718C14.894,52.313,16.037,23.584,49.206,26.915Z" transform="translate(-2.808 -13.447)"/><path id="_Path_2" data-name="&lt;Path&gt;" class="cls-4" d="M14.884,52.584c6.032,1.7,13.456.855,20.277-2.89,9.567-5.253,14.994-14.565,14.045-22.778C16.037,23.584,14.894,52.313,14.884,52.584Z" transform="translate(-2.808 -13.447)"/></g><g id="_Group_3" data-name="&lt;Group&gt;"><path id="_Path_3" data-name="&lt;Path&gt;" class="cls-3" d="M85.444,26.915a15.032,15.032,0,0,1,1.752-5.54c5.025-9.153,18.677-10.315,30.492-3.828s17.319,18.165,12.294,27.319a16.372,16.372,0,0,1-10.215,7.718C119.756,52.313,118.613,23.584,85.444,26.915Z" transform="translate(-2.808 -13.447)"/><path id="_Path_4" data-name="&lt;Path&gt;" class="cls-4" d="M119.766,52.584c-6.032,1.7-13.456.855-20.277-2.89-9.567-5.253-14.994-14.565-14.045-22.778C118.613,23.584,119.756,52.313,119.766,52.584Z" transform="translate(-2.808 -13.447)"/></g></g><path id="_Path_5" data-name="&lt;Path&gt;" class="cls-3" d="M128.144,83.035c0-27.349-27.23-58.52-60.819-58.52S6.506,55.686,6.506,83.035s27.23,37.519,60.819,37.519S128.144,110.384,128.144,83.035Z" transform="translate(-2.808 -13.447)"/><g id="_Group_4" data-name="&lt;Group&gt;"><path id="_Path_6" data-name="&lt;Path&gt;" class="cls-5" d="M115.865,101.182a7.542,7.542,0,0,0,5.338-2.248,7.419,7.419,0,0,0-2.245-11.63,67.065,67.065,0,0,0-1.105-25.983l-.345-1.446-1.484-.086c-.754-.044-1.541-.106-2.477-.194a67.015,67.015,0,0,1-15.425-3.318A83.276,83.276,0,0,1,68.746,38.83L67.233,37.3,65.82,38.92c-.1.111-9.965,11.187-27.944,17.356a67.02,67.02,0,0,1-15.425,3.318c-.936.089-1.723.15-2.477.194l-1.484.086-.345,1.446A67.066,67.066,0,0,0,17.04,87.3a7.419,7.419,0,0,0-2.245,11.63,7.541,7.541,0,0,0,5.338,2.248,30.983,30.983,0,0,0,7.977,11.624c.728.684,1.54,1.383,2.434,2.085,10.215,3.934,22.957,5.663,36.782,5.663,15.048,0,28.809-2.05,39.428-6.762.379-.328.768-.64,1.135-.985A30.982,30.982,0,0,0,115.865,101.182Z" transform="translate(-2.808 -13.447)"/></g><path id="_Path_7" data-name="&lt;Path&gt;" class="cls-6" d="M56.652,233.888s-3.522-15.477,4.871-51.32L49.485,170.184s-14.926,26.75-10.938,65.086c0,0-3.423,6.422,7.895,5.842S56.652,233.888,56.652,233.888Z" transform="translate(-2.808 -13.447)"/><g id="_Group_5" data-name="&lt;Group&gt;"><path id="_Path_8" data-name="&lt;Path&gt;" class="cls-3" d="M56.652,233.888s-2.221-9.8,1.088-31.837c-4.3-2.407-12.177-3.995-17.661-3.32C38.11,208.68,36.6,218.743,38.054,232.7c0,0,1.14,10.88,12.457,10.3S56.652,233.888,56.652,233.888Z" transform="translate(-2.808 -13.447)"/></g><path id="_Path_9" data-name="&lt;Path&gt;" class="cls-7" d="M42.287,139.222c-2.317,15.445-5.629,23.623-9.369,31.2-2.3,4.656-3.761,9.393-5.61,12.966-.4-.034-.688-.055-.688-.055s-9.528-.7-10.133,2.048,8.111,2.662,8.111,2.662-7.683,12.3-5.33,13.57c3.025,1.639,7.9-8.45,7.9-8.45s-3.77,9.713-1.432,10.994,5.5-9.179,5.5-9.179-1.235,8.66.367,9.368,4.052-8.265,4.661-10.551c.995-3.734,3.4-4.442,6.019-13.609L52.3,146.654l.625-9.326-10.641,1.895" transform="translate(-2.808 -13.447)"/><path id="_Path_10" data-name="&lt;Path&gt;" class="cls-7" d="M92.363,139.222,79.947,137l2.106,10.417,10.311,32.77c2.623,9.167,5.025,9.875,6.019,13.609.609,2.286,3.059,11.259,4.661,10.551s.367-9.368.367-9.368,3.165,10.46,5.5,9.179-1.432-10.994-1.432-10.994,4.875,10.088,7.9,8.45c2.353-1.275-5.33-13.57-5.33-13.57s8.716.09,8.111-2.662-10.133-2.048-10.133-2.048-.287.021-.688.055c-1.849-3.573-3.312-8.31-5.61-12.966-3.74-7.577-7.052-15.755-9.369-31.2" transform="translate(-2.808 -13.447)"/><path id="_Path_11" data-name="&lt;Path&gt;" class="cls-6" d="M60.025,122.114v2.956s2.021,1.05,7.3,1.05,7.3-1.05,7.3-1.05v-2.956Z" transform="translate(-2.808 -13.447)"/><path id="_Path_12" data-name="&lt;Path&gt;" class="cls-8" d="M60.025,122.114v2.956s2.021,1.05,7.3,1.05,7.3-1.05,7.3-1.05v-2.956Z" transform="translate(-2.808 -13.447)"/><path id="_Path_13" data-name="&lt;Path&gt;" class="cls-9" d="M116.615,88.858a62.861,62.861,0,0,0-.707-27.073c-.862-.05-1.709-.12-2.549-.2a68.774,68.774,0,0,1-15.886-3.417A84.752,84.752,0,0,1,67.325,40.237s-10.042,11.494-28.8,17.93a68.775,68.775,0,0,1-15.886,3.417c-.84.079-1.687.149-2.549.2a62.862,62.862,0,0,0-.707,27.073c-5.909,0-6.79,11.166,2.2,10.285,0,0,5.584,24.412,46.417,24.412s46.417-24.412,46.417-24.412C123.4,100.024,122.524,88.858,116.615,88.858Z" transform="translate(-2.808 -13.447)"/><path id="_Path_14" data-name="&lt;Path&gt;" class="cls-10" d="M92.245,75.782l9.511,13.284C107.967,75.4,102.173,75.782,92.245,75.782Z" transform="translate(-2.808 -13.447)"/><path id="_Path_15" data-name="&lt;Path&gt;" class="cls-10" d="M42.287,75.782,32.775,89.066C26.565,75.4,32.359,75.782,42.287,75.782Z" transform="translate(-2.808 -13.447)"/><path id="_Path_16" data-name="&lt;Path&gt;" class="cls-11" d="M116.134,91.839l-.925,4.263a2.022,2.022,0,0,0,2.776-1.388C118.778,92.467,116.134,91.839,116.134,91.839Z" transform="translate(-2.808 -13.447)"/><path id="_Path_17" data-name="&lt;Path&gt;" class="cls-11" d="M19.842,91.839l.925,4.263a2.022,2.022,0,0,1-2.776-1.388C17.2,92.467,19.842,91.839,19.842,91.839Z" transform="translate(-2.808 -13.447)"/><g id="_Group_6" data-name="&lt;Group&gt;"><path id="_Path_18" data-name="&lt;Path&gt;" class="cls-1" d="M106.718,75.782c-.914,0-2.534-4.2-4.74-5.284a1.968,1.968,0,1,1,1.736-3.533c3.959,1.945,4.47,8.555,3.406,8.776A2.056,2.056,0,0,1,106.718,75.782Z" transform="translate(-2.808 -13.447)"/></g><g id="_Group_7" data-name="&lt;Group&gt;"><path id="_Path_19" data-name="&lt;Path&gt;" class="cls-1" d="M29.148,75.782c.914,0,2.534-4.2,4.74-5.284a1.968,1.968,0,1,0-1.736-3.533c-3.959,1.945-4.47,8.555-3.406,8.776A2.056,2.056,0,0,0,29.148,75.782Z" transform="translate(-2.808 -13.447)"/></g><path id="_Path_20" data-name="&lt;Path&gt;" class="cls-7" d="M88.2,130.083c-2.125-.447-5.092-.928-7.712-1.323-3.185-.479-5.855-.83-5.855-.83H60.021s-2.67.351-5.855.83c-2.62.394-5.586.875-7.712,1.323-2.377.5-4.168,9.139-4.168,9.139q.571.112,1.095.224c5.628,1.2,7.241,2.3,7.241,2.3h.172a34.982,34.982,0,0,0,.146,4.905s10.678-4.68,32.77,0a34.982,34.982,0,0,0,.146-4.905h.172s1.613-1.107,7.241-2.3q.524-.111,1.095-.224S90.572,130.583,88.2,130.083Z" transform="translate(-2.808 -13.447)"/><path id="_Path_21" data-name="&lt;Path&gt;" class="cls-4" d="M38.121,232.475c.01.034-.023-.028,0,0,9.935,12.15,20.629,6.15,18.531,1.413,0,0,11.175,14.041-4.41,15.5-8.9.831-12.309-2.552-14.256-6.281C35.818,238.951,38.136,232.524,38.121,232.475Z" transform="translate(-2.808 -13.447)"/><path id="_Path_22" data-name="&lt;Path&gt;" class="cls-6" d="M75.013,234.454s4.919-15.091-.168-51.55l13.118-11.235s12.423,28,4.954,65.812c0,0,2.823,6.707-8.395,5.1S75.013,234.454,75.013,234.454Z" transform="translate(-2.808 -13.447)"/><g id="_Group_8" data-name="&lt;Group&gt;"><path id="_Path_23" data-name="&lt;Path&gt;" class="cls-3" d="M75.013,234.454s3.231-9.939,1.739-33.141c2.747-1.668,13.56-4.313,17.825-1.739,1.139,10.547,1.908,21-.936,35.393,0,0-2.128,10.731-13.345,9.121S75.013,234.454,75.013,234.454Z" transform="translate(-2.808 -13.447)"/></g><path id="_Path_24" data-name="&lt;Path&gt;" class="cls-4" d="M93.6,234.737c-.013.033.025-.025,0,0-11,11.193-21.1,4.242-18.583-.284,0,0-12.41,12.963,2.978,15.834,8.787,1.64,12.49-1.418,14.769-4.954C95.3,241.4,93.576,234.785,93.6,234.737Z" transform="translate(-2.808 -13.447)"/><path id="_Path_25" data-name="&lt;Path&gt;" class="cls-3" d="M51.939,147.255c-3.969-5.919.964-14.2,7.135-10.74,1.876-8.685,12.819-9.877,16.072-1.306,6.692-2.725,11.48,4.7,7.212,12.952,0,0-11.644,15.741-16.524,15.788S51.939,147.255,51.939,147.255Z" transform="translate(-2.808 -13.447)"/><g id="_Group_9" data-name="&lt;Group&gt;"><g id="_Group_10" data-name="&lt;Group&gt;"><g id="_Group_11" data-name="&lt;Group&gt;"><g id="_Group_12" data-name="&lt;Group&gt;"><path id="_Compound_Path_" data-name="&lt;Compound Path&gt;" class="cls-12" d="M42.42,74.312h-.075A11.588,11.588,0,0,0,34.3,77.194a11.372,11.372,0,0,0-3.3,8.655c.041,6.883,4.97,11.691,11.987,11.691a11.13,11.13,0,0,0,8.114-3.288,11.722,11.722,0,0,0,3.08-8.765C53.964,78.907,49.126,74.312,42.42,74.312Z" transform="translate(-2.808 -13.447)"/><path id="_Path_26" data-name="&lt;Path&gt;" class="cls-13" d="M52.717,85.532c-.214-6.313-4.781-9.75-10.312-9.75h-.067c-5.643.029-9.9,3.192-9.86,10.046.04,6.826,4.98,10.242,10.549,10.242H43.1C48.692,96.041,52.937,92.029,52.717,85.532Z" transform="translate(-2.808 -13.447)"/></g><g id="_Group_13" data-name="&lt;Group&gt;"><path id="_Path_27" data-name="&lt;Path&gt;" class="cls-14" d="M37.93,80.559a7.208,7.208,0,0,1,4.534-1.589,6.973,6.973,0,1,1,0,13.942,7.438,7.438,0,0,1-5.043-2.04,1.251,1.251,0,0,1,0-1.8c.895-.793,2.147-2.066,2.682-2.639a1.289,1.289,0,0,0-.045-1.826,29.817,29.817,0,0,1-2.227-2.17A1.287,1.287,0,0,1,37.93,80.559Z" transform="translate(-2.808 -13.447)"/></g><g id="_Group_14" data-name="&lt;Group&gt;"><path id="_Path_28" data-name="&lt;Path&gt;" class="cls-13" d="M43.568,88.307a1.314,1.314,0,0,0-1.744.634,1.121,1.121,0,0,0,.525,1.676,1.339,1.339,0,0,0,1.8-.679A1.081,1.081,0,0,0,43.568,88.307Z" transform="translate(-2.808 -13.447)"/></g><g id="_Group_15" data-name="&lt;Group&gt;"><path id="_Compound_Path_2" data-name="&lt;Compound Path&gt;" class="cls-12" d="M100.369,77.171A11.619,11.619,0,0,0,92.3,74.282H92.23c-6.723,0-11.574,4.607-11.8,11.2a11.752,11.752,0,0,0,3.088,8.788,11.109,11.109,0,0,0,8.06,3.3c7.111,0,12.053-4.82,12.094-11.721A11.4,11.4,0,0,0,100.369,77.171Z" transform="translate(-2.808 -13.447)"/><path id="_Path_29" data-name="&lt;Path&gt;" class="cls-13" d="M102.172,85.828c.041-6.854-4.216-10.017-9.86-10.046h-.067c-5.531,0-10.1,3.437-10.312,9.75-.22,6.5,4.025,10.509,9.621,10.538h.069C97.192,96.07,102.132,92.654,102.172,85.828Z" transform="translate(-2.808 -13.447)"/></g><g id="_Group_16" data-name="&lt;Group&gt;"><path id="_Path_30" data-name="&lt;Path&gt;" class="cls-14" d="M96.72,80.559a7.208,7.208,0,0,0-4.534-1.589,6.973,6.973,0,1,0,0,13.942,7.438,7.438,0,0,0,5.043-2.04,1.251,1.251,0,0,0,0-1.8c-.895-.793-2.147-2.066-2.682-2.639a1.289,1.289,0,0,1,.045-1.826,29.817,29.817,0,0,0,2.227-2.17A1.287,1.287,0,0,0,96.72,80.559Z" transform="translate(-2.808 -13.447)"/></g><g id="_Group_17" data-name="&lt;Group&gt;"><path id="_Path_31" data-name="&lt;Path&gt;" class="cls-13" d="M92.127,88.307a1.314,1.314,0,0,0-1.744.634,1.121,1.121,0,0,0,.525,1.676,1.339,1.339,0,0,0,1.8-.679A1.081,1.081,0,0,0,92.127,88.307Z" transform="translate(-2.808 -13.447)"/></g></g></g><g id="_Group_18" data-name="&lt;Group&gt;" class="cls-15"><path id="_Path_32" data-name="&lt;Path&gt;" class="cls-16" d="M110.028,91.918c-2.144-1.825-5.142-1.883-7.462.706-2.379,2.654-2.151,5.72.007,7.557s5.293,2.027,7.728-.834S112.2,93.769,110.028,91.918Z" transform="translate(-2.808 -13.447)"/><path id="_Path_33" data-name="&lt;Path&gt;" class="cls-16" d="M24.622,91.918c2.144-1.825,5.142-1.883,7.462.706,2.379,2.654,2.151,5.72-.007,7.557s-5.293,2.027-7.728-.834S22.446,93.769,24.622,91.918Z" transform="translate(-2.808 -13.447)"/></g><g id="_Clip_Group_" data-name="&lt;Clip Group&gt;"><path id="_Clipping_Path_2" data-name="&lt;Clipping Path&gt;" class="cls-1" d="M67.586,91.878c-11.554,0-14.369,4.21-14.092,6.09,1.113,7.549,5.85,13.291,13.828,13.291,8.165,0,12.616-5.748,13.839-13.357C81.372,96.584,79.289,91.878,67.586,91.878Z" transform="translate(-2.808 -13.447)"/><g class="cls-17"><path id="_Path_34" data-name="&lt;Path&gt;" class="cls-3" d="M53.235,116.213H81.408c0-9.081-6.307-16.443-14.087-16.443S53.235,107.131,53.235,116.213Z" transform="translate(-2.808 -13.447)"/></g></g></g><path id="_Path_35" data-name="&lt;Path&gt;" class="cls-4" d="M95.438,21.561l-2.713.082a1.436,1.436,0,1,0,.087,2.87l2.713-.082a1.436,1.436,0,1,0-.087-2.87Z" transform="translate(-2.808 -13.447)"/><path id="_Path_36" data-name="&lt;Path&gt;" class="cls-4" d="M125.42,31.284l-1.278-1.423a1.436,1.436,0,0,0-2.106,1.952l1.845,1.991a1.436,1.436,0,0,0,2.029.077C126.493,33.342,125.96,31.866,125.42,31.284Z" transform="translate(-2.808 -13.447)"/><path id="_Path_37" data-name="&lt;Path&gt;" class="cls-13" d="M115.294,28.253,112.8,29.325a1.436,1.436,0,0,0-.752,1.886h0a1.436,1.436,0,0,0,1.886.752l2.494-1.072a1.436,1.436,0,0,0,.752-1.886h0A1.436,1.436,0,0,0,115.294,28.253Z" transform="translate(-2.808 -13.447)"/><path id="_Path_38" data-name="&lt;Path&gt;" class="cls-13" d="M127.407,39.677a1.436,1.436,0,0,0-1.495,1.375l-.113,2.712a1.436,1.436,0,1,0,2.869.12l.113-2.712A1.436,1.436,0,0,0,127.407,39.677Z" transform="translate(-2.808 -13.447)"/><path id="_Path_39" data-name="&lt;Path&gt;" class="cls-1" d="M107.826,22.121a1.436,1.436,0,0,0-1.97.491l-1.4,2.326a1.436,1.436,0,0,0,2.461,1.48l1.4-2.326A1.436,1.436,0,0,0,107.826,22.121Z" transform="translate(-2.808 -13.447)"/><path id="_Path_40" data-name="&lt;Path&gt;" class="cls-1" d="M120.438,35.047l-2.705,2.63a1.436,1.436,0,0,0,2,2.059l2.705-2.63a1.436,1.436,0,0,0-2-2.059Z" transform="translate(-2.808 -13.447)"/><path id="_Path_41" data-name="&lt;Path&gt;" class="cls-1" d="M12.379,30.4l-2.253-1.514a1.436,1.436,0,0,0-1.6,2.384l2.253,1.514a1.436,1.436,0,0,0,1.6-2.384Z" transform="translate(-2.808 -13.447)"/><path id="_Path_42" data-name="&lt;Path&gt;" class="cls-4" d="M105.643,17.3l-1.278-1.423a1.436,1.436,0,0,0-2.106,1.952l1.845,1.991a1.436,1.436,0,0,0,2.029.077C106.716,19.353,106.183,17.877,105.643,17.3Z" transform="translate(-2.808 -13.447)"/><path id="_Path_43" data-name="&lt;Path&gt;" class="cls-13" d="M25.925,17.466l-2.494,1.072a1.436,1.436,0,0,0-.752,1.886h0a1.436,1.436,0,0,0,1.886.752L27.059,20.1a1.436,1.436,0,0,0,.752-1.886h0A1.436,1.436,0,0,0,25.925,17.466Z" transform="translate(-2.808 -13.447)"/><path id="_Path_44" data-name="&lt;Path&gt;" class="cls-13" d="M115.922,18.5a1.436,1.436,0,0,0-1.495,1.375l-.113,2.712a1.436,1.436,0,1,0,2.869.12L117.3,20A1.436,1.436,0,0,0,115.922,18.5Z" transform="translate(-2.808 -13.447)"/><path id="_Path_45" data-name="&lt;Path&gt;" class="cls-13" d="M10.189,40.607a1.436,1.436,0,0,0-2.56,1.3L8.86,44.329a1.436,1.436,0,0,0,2.56-1.3Z" transform="translate(-2.808 -13.447)"/><path id="_Path_46" data-name="&lt;Path&gt;" class="cls-13" d="M24.4,26.351l-.983,2.53a1.436,1.436,0,0,0,2.677,1.04l.983-2.53a1.436,1.436,0,1,0-2.677-1.04Z" transform="translate(-2.808 -13.447)"/><path id="_Path_47" data-name="&lt;Path&gt;" class="cls-4" d="M17.9,20.644a1.436,1.436,0,0,0-1.97.491l-1.4,2.326a1.436,1.436,0,0,0,2.461,1.48l1.4-2.326A1.436,1.436,0,0,0,17.9,20.644Z" transform="translate(-2.808 -13.447)"/><path id="_Path_48" data-name="&lt;Path&gt;" class="cls-4" d="M16.155,33.421l-2.705,2.63a1.436,1.436,0,0,0,2,2.059l2.705-2.63a1.436,1.436,0,0,0-2-2.059Z" transform="translate(-2.808 -13.447)"/><path id="_Path_49" data-name="&lt;Path&gt;" class="cls-1" d="M34.38,25.1l-1.045-3.626a1.436,1.436,0,0,0-1.777-.982h0a1.436,1.436,0,0,0-.982,1.777L31.62,25.9a1.436,1.436,0,1,0,2.759-.8Z" transform="translate(-2.808 -13.447)"/><g id="_Group_19" data-name="&lt;Group&gt;" class="cls-18"><path id="_Path_50" data-name="&lt;Path&gt;" class="cls-19" d="M65.833,163.95c4.88-.047,16.524-15.788,16.524-15.788a14.792,14.792,0,0,0,1.352-3.72c-.057,0-.111-.01-.168-.01a6.619,6.619,0,0,0-2.5.52,4.887,4.887,0,0,0-3.343-1.3h0a6.022,6.022,0,0,0-3.376,1.1,5.91,5.91,0,0,0-3.4-1.074,6.518,6.518,0,0,0-3.6,1.118,6.519,6.519,0,0,0-3.6-1.118h0a5.909,5.909,0,0,0-3.4,1.074,6.024,6.024,0,0,0-3.375-1.1h0a4.886,4.886,0,0,0-3.343,1.3,6.62,6.62,0,0,0-2.5-.52c-.131,0-.257.014-.384.023a8.385,8.385,0,0,0,1.214,2.8S60.953,164,65.833,163.95Z" transform="translate(-2.808 -13.447)"/></g><path id="_Path_51" data-name="&lt;Path&gt;" class="cls-20" d="M110.6,153.875c7.137-2.023,7.981-7.625-1.693-6.625L67.325,175.569,25.674,147.25c-9.674-1-8.83,4.6-1.693,6.625-8.731-.042-8.064,7.625,1.283,6.331-9.847,1.21-6.889,8.261.674,6.215-7.354,3.329-5.271,10.162,2.8,6.589-6.4,5.823-1.382,11.97,4.926,4.912-4.413,7.661,2.42,11.911,7.149,2.869-3.062,9.75,3.772,11.042,8.131,4.335-2.61,9.707,4.454,12.067,8.954,4.442-1.816,9.475,6.912,11.651,9.393,1.349,2.48,10.3,11.208,8.126,9.393-1.349,4.5,7.625,11.564,5.265,8.954-4.442,4.36,6.707,11.193,5.415,8.131-4.335,4.813,7.916,10.716,4.7,7.149-2.869,6.308,7.058,12.167,1.161,4.926-4.912,8.07,3.573,10.074-2.408,2.8-6.589,8.108,2.572,10.108-4.564.674-6.215C117.417,161.857,119,153.833,110.6,153.875Z" transform="translate(-2.808 -13.447)"/><path id="_Path_52" data-name="&lt;Path&gt;" class="cls-20" d="M79.9,150.119c.137-5.128-4.626-4.092-5.988.033-.065-4.858-6.034-4.4-6.588.036-.554-4.441-6.523-4.894-6.587-.036-1.361-4.125-6.125-5.161-5.988-.033-1.161-3.547-7.538-3.97-4.305,1.093.454.711,17.055,25.849,17.055,25.849s16.251-25.138,16.705-25.849C87.438,146.149,81.061,146.572,79.9,150.119Z" transform="translate(-2.808 -13.447)"/><path id="_Path_53" data-name="&lt;Path&gt;" class="cls-4" d="M108.976,147.25C102.62,149.194,99.032,150,99.032,150s-10.335-1.261-15.318,3.926c-.11.055-.222.122-.333.182-.135.074-.27.142-.407.223a30.6,30.6,0,0,0-5.591,4.623,6.523,6.523,0,0,0-1.862-1.76c-3.141-1.817-13.251-1.817-16.392,0a6.522,6.522,0,0,0-1.862,1.76,32.909,32.909,0,0,0-4.982-4.242c-.155-.1-.309-.2-.465-.3-4.061-6.105-16.2-4.415-16.2-4.415s-3.588-.808-9.944-2.752c0,0-3.527,4.91-.41,12.957.038.1.065.19.1.289,0,0-1.326,15.954,14.712,20.261.25,0,.493.013.732.035,6.876.625,9.325,9.946,26.525,9.946,13.387,0,19.3-9.338,26.5-9.948h0c.243-.021.487-.032.734-.032,16.038-4.307,14.712-20.261,14.712-20.261.04-.1.067-.191.1-.289C112.5,152.16,108.976,147.25,108.976,147.25Z" transform="translate(-2.808 -13.447)"/><g id="_Group_20" data-name="&lt;Group&gt;"><path id="_Path_54" data-name="&lt;Path&gt;" class="cls-21" d="M86.5,154.188c3.689.649,8.368,5.277,8.368,5.277,5.661-1.608,12.182.037,14.518.742h0c3.117-8.047-.41-12.957-.41-12.957C102.62,149.194,99.032,150,99.032,150s-10.335-1.261-15.318,3.926c-.11.055-.222.122-.333.182A8.907,8.907,0,0,1,86.5,154.188Z" transform="translate(-2.808 -13.447)"/><path id="_Path_55" data-name="&lt;Path&gt;" class="cls-22" d="M39.782,159.464s5.525-3.979,9.155-4.9c1.5-.382,2.419-.442,2.883-.145-4.061-6.105-16.2-4.415-16.2-4.415s-3.588-.808-9.944-2.752c0,0-3.527,4.91-.41,12.957h0C27.6,159.5,34.122,157.857,39.782,159.464Z" transform="translate(-2.808 -13.447)"/><g id="_Group_21" data-name="&lt;Group&gt;"><path id="_Path_56" data-name="&lt;Path&gt;" class="cls-23" d="M51.053,168.486c2.811-2.7,4.228-6.96,6.182-9.561a32.79,32.79,0,0,0-4.95-4.211c-.155-.1-.309-.2-.465-.3-.465-.3-1.38-.237-2.883.145-3.631.922-9.155,4.9-9.155,4.9-5.66-1.608-12.182.037-14.518.742.038.1.065.19.1.289,0,0-1.326,15.954,14.712,20.261.25,0,.732.035.732.035C42.758,178.239,48.118,171.306,51.053,168.486Z" transform="translate(-2.808 -13.447)"/><path id="_Path_57" data-name="&lt;Path&gt;" class="cls-24" d="M109.386,160.207c-2.336-.705-8.858-2.35-14.518-.742,0,0-4.679-4.628-8.368-5.277a8.907,8.907,0,0,0-3.119-.077c-.135.074-.27.142-.407.223a30.4,30.4,0,0,0-5.539,4.571c1.943,2.6,3.361,6.891,6.162,9.582,2.935,2.82,8.293,9.749,10.24,12.3.243-.021.487-.032.734-.032,16.038-4.307,14.712-20.261,14.712-20.261C109.322,160.4,109.348,160.3,109.386,160.207Z" transform="translate(-2.808 -13.447)"/><path id="_Path_58" data-name="&lt;Path&gt;" class="cls-25" d="M83.6,168.486c-2.8-2.691-4.218-6.977-6.162-9.582l-.052.052a6.523,6.523,0,0,0-1.862-1.76c-3.141-1.817-13.251-1.817-16.392,0a6.522,6.522,0,0,0-1.862,1.76l-.031-.031c-1.954,2.6-3.371,6.86-6.182,9.561-2.935,2.82-8.3,9.753-10.242,12.306,6.876.625,9.325,9.946,26.525,9.946,13.387,0,19.3-9.338,26.5-9.948h0C91.889,178.235,86.531,171.305,83.6,168.486Z" transform="translate(-2.808 -13.447)"/></g></g><g id="_Group_22" data-name="&lt;Group&gt;" class="cls-18"><path id="_Path_59" data-name="&lt;Path&gt;" class="cls-19" d="M57.9,189.568c-1.815,3.075-4.047,4.526-5.893,4.526-2.731,0-4.618-3.176-3.061-8.968-1.807,2.779-4.037,4.184-5.813,4.184a2.988,2.988,0,0,1-.838-.119q-.385,1.406-.756,2.9a6.035,6.035,0,0,0,1.594.217,7.168,7.168,0,0,0,2.593-.51,7.824,7.824,0,0,0,1.342,2.836A6.108,6.108,0,0,0,52,197.094a7.441,7.441,0,0,0,3.411-.864,8.068,8.068,0,0,0,1.241,2.092,6.866,6.866,0,0,0,1.459,1.322q.281-1.734.608-3.562C57.778,194.7,57.339,192.479,57.9,189.568Z" transform="translate(-2.808 -13.447)"/><path id="_Path_60" data-name="&lt;Path&gt;" class="cls-19" d="M40.812,180.791c-1.889,3.612-4.113,5.1-5.823,5.1-2.57,0-3.976-3.371-1.326-7.972-1.994,2.231-3.857,3.139-5.274,3.159-.352.806-.708,1.586-1.081,2.307-.4-.034-.688-.055-.688-.055s-.485-.034-1.222-.058a5.646,5.646,0,0,0,2.943.81A6.731,6.731,0,0,0,29.374,184a6.676,6.676,0,0,0,.769,2.08,5.548,5.548,0,0,0,4.847,2.811,6.572,6.572,0,0,0,2.6-.551,6.551,6.551,0,0,0,.689,1.341,31.291,31.291,0,0,0,1.857-3.477A12.486,12.486,0,0,1,40.812,180.791Z" transform="translate(-2.808 -13.447)"/><path id="_Path_61" data-name="&lt;Path&gt;" class="cls-19" d="M107.342,183.388c-.367-.709-.717-1.475-1.063-2.266-1.493-.076-3.4-1.009-5.362-3.2,2.12,4.5.9,7.459-1.459,7.459-1.606,0-3.738-1.379-5.69-4.59a12.734,12.734,0,0,1,.7,5.3,30.993,30.993,0,0,0,1.88,3.544,6.884,6.884,0,0,0,.784-1.7,6.525,6.525,0,0,0,2.325.44A5.283,5.283,0,0,0,104,185.887a6.255,6.255,0,0,0,.8-1.95,7.3,7.3,0,0,0,1.676.2,5.905,5.905,0,0,0,3.143-.873c-.952.022-1.592.069-1.592.069S107.744,183.354,107.342,183.388Z" transform="translate(-2.808 -13.447)"/><path id="_Path_62" data-name="&lt;Path&gt;" class="cls-19" d="M91.45,189.311c-1.776,0-4.007-1.406-5.813-4.184,1.557,5.793-.329,8.968-3.061,8.968-1.846,0-4.078-1.452-5.893-4.526a9.543,9.543,0,0,1-.4,5.736c.133,1.455.245,2.856.345,4.223a6.907,6.907,0,0,0,1.293-1.2,8.069,8.069,0,0,0,1.241-2.092,7.441,7.441,0,0,0,3.411.864,6.109,6.109,0,0,0,4.939-2.457,7.822,7.822,0,0,0,1.342-2.836,7.168,7.168,0,0,0,2.593.509,5.948,5.948,0,0,0,2.064-.361q-.272-1.583-.566-3.059A2.785,2.785,0,0,1,91.45,189.311Z" transform="translate(-2.808 -13.447)"/></g></g></g></svg>