<?xml version="1.0" encoding="utf-8"?>
<!-- Generator: Adobe Illustrator 20.0.0, SVG Export Plug-In . SVG Version: 6.00 Build 0)  -->
<svg version="1.1" id="Layer_1" xmlns="http://www.w3.org/2000/svg" xmlns:xlink="http://www.w3.org/1999/xlink" x="0px" y="0px"
	 width="134.65px" height="187px" viewBox="0 0 134.65 187" style="enable-background:new 0 0 134.65 187;" xml:space="preserve">
<style type="text/css">
	.st0{fill:#9274B4;}
	.st1{fill:url(#XMLID_2_);}
	.st2{fill:url(#XMLID_3_);}
	.st3{fill:#FAD5E5;}
	.st4{opacity:0.25;}
	.st5{fill:#C7C8CA;}
	.st6{fill:url(#XMLID_4_);}
	.st7{fill:#A788BE;}
	.st8{fill:url(#XMLID_5_);}
	.st9{opacity:0.3;}
	.st10{fill:#8A6BAF;}
	.st11{fill:url(#XMLID_6_);}
	.st12{fill:none;}
	.st13{fill:url(#XMLID_7_);}
	.st14{fill:#FFFFFF;}
	.st15{fill:#17479E;}
	.st16{opacity:0.25;fill:#C7C8CA;}
	.st17{opacity:0.25;fill:#BFBFBF;}
	.st18{fill:#B28ABF;}
	.st19{fill:url(#XMLID_8_);}
	.st20{fill:url(#XMLID_9_);}
	.st21{fill:url(#XMLID_10_);}
	.st22{fill:url(#XMLID_11_);}
	.st23{fill:url(#XMLID_12_);}
	.st24{fill:url(#XMLID_13_);}
</style>
<path id="XMLID_116_" class="st0" d="M20.56,145.103c0,19.354,20.745,35.043,46.336,35.043c0.073,0,0.142-0.008,0.214-0.009
	c0.072,0.001,0.142,0.009,0.214,0.009c25.591,0,46.336-15.689,46.336-35.043S20.56,125.749,20.56,145.103z"/>
<linearGradient id="XMLID_2_" gradientUnits="userSpaceOnUse" x1="67.1107" y1="179.1097" x2="67.1107" y2="111.3802">
	<stop  offset="0.1755" style="stop-color:#B28ABF"/>
	<stop  offset="0.796" style="stop-color:#9274B4"/>
</linearGradient>
<path id="XMLID_115_" class="st1" d="M121.541,126.858c-5.377-6.388-19.874-7.819-19.874-7.819l-34.284-8.969v-0.009l-0.031,0.004
	l-0.026-0.004v0.008l-0.214,0.056l-0.214-0.056v-0.008l-0.026,0.004l-0.031-0.004v0.009l-34.284,8.969c0,0-14.497,1.43-19.874,7.819
	c-10.553,12.537,2.322,29.976,22.195,43.54c-11.067-9.146-4.128-27.247,10.229-27.247h44.014c14.357,0,21.295,18.102,10.229,27.247
	C119.219,156.833,132.094,139.395,121.541,126.858z"/>
<linearGradient id="XMLID_3_" gradientUnits="userSpaceOnUse" x1="23.5622" y1="141.7411" x2="110.8266" y2="141.7411">
	<stop  offset="0.1457" style="stop-color:#FFFFFF"/>
	<stop  offset="0.6309" style="stop-color:#E6E7E8"/>
</linearGradient>
<path id="XMLID_114_" class="st2" d="M106.783,123.473c-6.542-7.043-27.29-11.467-39.437,5.638
	c-12.147-17.105-33.198-12.681-39.74-5.638c-9.953,11.692-0.372,34.253,16.106,34.547c-2.373-3.051-1.427-6.942,0-4.795
	c6.93,10.426,23.635,13.026,23.635,13.026s16.401-2.601,23.331-13.026c1.427-2.147,2.373,1.744,0,4.795
	C107.155,157.726,116.736,135.165,106.783,123.473z"/>
<g id="XMLID_134_">
	<path id="XMLID_141_" class="st3" d="M64.946,143.886c-0.436-2.274,1.193-3.58,2.52-3.634c2.239-0.091,2.911,1.107,2.893,3.362
		c-0.026,3.304-0.86,7.781-3.494,8.034c-0.752,0.072-1.606-0.045-2.023-1.102C63.986,148.38,65.687,147.749,64.946,143.886z"/>
	<path id="XMLID_139_" class="st3" d="M67.561,133.663c-1.484,0-2.706,1-2.753,2.832c-0.048,1.877,1.09,3.03,2.583,3.03
		s2.816-0.994,2.816-2.974C70.208,134.571,69.067,133.663,67.561,133.663z"/>
	<path id="XMLID_137_" class="st3" d="M61.793,138.495c-0.524,0.604-0.635,1.676,0.232,2.505c0.889,0.85,1.982,0.664,2.535,0.158
		c0.589-0.54,0.736-1.782-0.225-2.652C63.375,137.634,62.378,137.819,61.793,138.495z"/>
	<path id="XMLID_135_" class="st3" d="M61.448,142.982c-0.198,0.503,0.011,1.264,0.75,1.551c0.758,0.294,1.39-0.115,1.614-0.625
		c0.263-0.599,0.027-1.361-0.781-1.648C62.224,141.973,61.675,142.406,61.448,142.982z"/>
</g>
<g id="XMLID_112_" class="st4">
	<path id="XMLID_113_" class="st5" d="M27.901,126.306c0.76,2.816,4.276,4.641,9.647,5.004c0.672,0.045,1.354,0.067,2.049,0.067
		c9.78,0,21.516-7.244,27.728-17.627c6.212,10.384,17.948,17.628,27.728,17.627c0.693,0,1.379-0.022,2.049-0.067
		c5.371-0.363,8.888-2.188,9.647-5.004c0.219-0.81,0.249-1.838-0.27-3.004c3.19-0.081,5.518-0.695,7.182-1.428
		c-3.578-1.665-11.995-2.835-11.995-2.835l-34.284-8.969v-0.009h-0.001l-0.03,0.004l-0.025-0.004c0,0-0.001,0-0.001,0h0v0.008
		l-34.342,8.971c0,0-5.065,0.25-12.209,2.739c1.674,0.775,4.064,1.44,7.396,1.524C27.653,124.468,27.683,125.496,27.901,126.306z"/>
</g>
<g id="XMLID_110_" class="st4">
	<path id="XMLID_111_" class="st5" d="M90.677,152.391c2.373-3.051,1.427-6.942,0-4.795c-6.93,10.425-23.331,13.026-23.331,13.026
		s-16.705-2.601-23.635-13.026c-1.427-2.147-2.373,1.744,0,4.795c-10.834-0.193-18.685-10.013-19.964-20.04
		c-1.577,11.612,7.088,25.439,19.964,25.669c-2.373-3.051-1.427-6.942,0-4.795c6.93,10.425,23.635,13.026,23.635,13.026
		s16.401-2.601,23.331-13.026c1.427-2.147,2.373,1.744,0,4.795c12.876-0.23,21.541-14.057,19.964-25.669
		C109.362,142.378,101.511,152.198,90.677,152.391z"/>
</g>
<linearGradient id="XMLID_4_" gradientUnits="userSpaceOnUse" x1="75.7949" y1="19.5146" x2="121.3253" y2="19.5146">
	<stop  offset="0.796" style="stop-color:#9274B4"/>
	<stop  offset="0.9655" style="stop-color:#9274B4"/>
</linearGradient>
<path id="XMLID_109_" class="st6" d="M75.795,23.407c14.209-14.015,44.493-20.399,45.264-21.17c0,0,3.282,24.261-13.203,34.555
	L75.795,23.407z"/>
<path id="XMLID_108_" class="st7" d="M121.059,2.237c0,0,14.09,36.427-6.068,34.555l-17.3-11.255
	C97.691,25.537,121.699,20.735,121.059,2.237z"/>
<linearGradient id="XMLID_5_" gradientUnits="userSpaceOnUse" x1="-842.774" y1="19.5146" x2="-797.2436" y2="19.5146" gradientTransform="matrix(-1 0 0 1 -783.7334 0)">
	<stop  offset="0.796" style="stop-color:#9274B4"/>
	<stop  offset="0.9655" style="stop-color:#9274B4"/>
</linearGradient>
<path id="XMLID_107_" class="st8" d="M59.041,23.407C44.831,9.392,14.503,2.964,13.776,2.237c0,0-3.282,24.261,13.203,34.555
	L59.041,23.407z"/>
<path id="XMLID_106_" class="st7" d="M13.776,2.237c0,0-14.09,36.427,6.068,34.555l17.3-11.255
	C37.144,25.537,13.136,20.735,13.776,2.237z"/>
<g id="XMLID_103_" class="st9">
	<path id="XMLID_105_" class="st10" d="M107.856,36.792c1.212-0.757,2.286-1.607,3.293-2.499l3.841,2.499
		c3.599,0.334,6.091-0.568,7.782-2.25c-0.836-1.806-2.267-3.832-4.625-6.029c-2.854-2.659-6.07-4.624-8.828-6.146
		c1.119-1.398,1.733-3.104,1.205-5.198c-1.282-5.078-7.513-5.078-11.236-5.078c-1.174,0-2.739-0.323-4.456-0.751
		c-7.012,3.133-14.025,7.123-19.037,12.067L107.856,36.792z"/>
	<path id="XMLID_104_" class="st10" d="M19.845,36.792l3.841-2.499c1.007,0.892,2.082,1.742,3.293,2.499l32.061-13.385
		c-5.05-4.981-12.137-8.999-19.207-12.148c-1.727,0.473-3.3,0.832-4.472,0.832c-3.723,0-9.954,0-11.236,5.078
		c-0.529,2.094,0.086,3.8,1.205,5.198c-2.758,1.522-5.975,3.487-8.828,6.146c-2.307,2.15-3.724,4.134-4.567,5.911
		C13.626,36.186,16.158,37.134,19.845,36.792z"/>
</g>
<linearGradient id="XMLID_6_" gradientUnits="userSpaceOnUse" x1="67.325" y1="13.254" x2="67.325" y2="110.0628">
	<stop  offset="0.1457" style="stop-color:#FFFFFF"/>
	<stop  offset="0.6309" style="stop-color:#E6E7E8"/>
</linearGradient>
<path id="XMLID_102_" class="st11" d="M129.383,69.398c-3.682-21.934-18.089-30.255-14.727-28.494c3.362,1.761,7.043-2.081,0-8.644
	c-6.699-6.242-16.614-8.544-13.558-10.192c5.046-2.721,7.49-4.856-1.809-4.856c-8.305,0-21.824-9.018-31.963,1.121
	C56.592,7.6,43.667,17.213,35.362,17.213c-9.299,0-6.855,2.134-1.809,4.856c3.056,1.648-6.859,3.949-13.558,10.192
	c-7.043,6.563-3.362,10.405,0,8.644c3.362-1.761-11.045,6.56-14.727,28.494s9.175,30.2,19.515,36.192
	c8.178,4.739,42.543,4.47,42.543,4.47s34.364,0.269,42.543-4.47C120.208,99.598,133.065,91.332,129.383,69.398z"/>
<g id="XMLID_97_">
	<g id="XMLID_99_">
		<path id="XMLID_101_" class="st12" d="M109.868,105.59"/>
		<path id="XMLID_100_" class="st12" d="M24.469,105.148"/>
	</g>
	<linearGradient id="XMLID_7_" gradientUnits="userSpaceOnUse" x1="67.0638" y1="40.9497" x2="67.0638" y2="126.0561">
		<stop  offset="0.1755" style="stop-color:#B28ABF"/>
		<stop  offset="0.796" style="stop-color:#9274B4"/>
	</linearGradient>
	<path id="XMLID_98_" class="st13" d="M24.469,105.148c3.754-3.49,7.913-6.466,12.4-8.883c-12.484-2.242-21.96-13.151-21.96-26.281
		c0-14.752,11.959-26.71,26.71-26.71c11.914,0,22.003,7.802,25.444,18.575c3.442-10.773,13.53-18.575,25.444-18.575
		c14.752,0,26.71,11.959,26.71,26.71c0,13.248-9.648,24.238-22.299,26.341c4.69,2.508,9.036,5.614,12.949,9.264
		c0,0-3.912,4.47-42.543,4.47S24.469,105.148,24.469,105.148z"/>
</g>
<g id="XMLID_64_">
	<g id="XMLID_70_">
		<path id="XMLID_96_" class="st14" d="M91.902,86.308c1.274,0,2.584-0.166,3.913-0.519c8.592-2.285,13.767-8.38,12.612-17.798
			c-1.125-9.171-9.193-13.106-15.71-13.106c-1.351,0-2.634,0.169-3.776,0.495c-8.494,2.428-14.729,9.751-11.763,19.638
			C79.08,81.357,84.944,86.308,91.902,86.308z"/>
	</g>
	<g id="XMLID_67_">
		<path id="XMLID_68_" class="st15" d="M103.422,65.641c-1.358-2.223-3.482-4.056-6.171-5.076
			c-6.154-2.336-12.925,0.463-15.123,6.253c-2.198,5.79,1.01,12.377,7.164,14.713c3.075,1.167,6.265,0.972,9.037-0.079
			c0.772-0.293,1.713-1.468,1.03-2.714c-0.944-1.723-2.173-4.379-2.68-5.558c-0.559-1.3,0.249-2.373,1.112-2.719
			c0.987-0.396,3.207-1.143,4.715-1.943C103.989,67.729,103.826,66.303,103.422,65.641z"/>
	</g>
	<g id="XMLID_65_">
		<path id="XMLID_66_" class="st14" d="M99.201,63.998c-0.964-0.435-2.052-0.144-2.62,1.031c-0.583,1.205-0.181,2.289,0.789,2.727
			c0.97,0.438,2.122,0.181,2.703-1.105C100.654,65.364,100.179,64.44,99.201,63.998z"/>
	</g>
</g>
<g id="XMLID_50_">
	<g id="XMLID_59_">
		<path id="XMLID_63_" class="st14" d="M42.276,87.589c-1.412,0-2.839-0.19-4.242-0.563c-9.791-2.604-14.732-9.6-13.554-19.193
			c1.199-9.776,9.642-14.229,16.981-14.229c1.474,0,2.863,0.183,4.127,0.544c5.225,1.493,9.345,4.586,11.598,8.707
			c2.028,3.708,2.387,8.04,1.041,12.531C56.07,82.571,49.512,87.589,42.276,87.589z"/>
		<path id="XMLID_60_" class="st10" d="M41.459,54.885c1.351,0,2.634,0.169,3.776,0.495c8.494,2.428,14.729,9.751,11.763,19.638
			c-1.902,6.339-7.766,11.29-14.724,11.29c-1.274,0-2.584-0.166-3.913-0.519c-8.592-2.285-13.767-8.38-12.612-17.798
			C26.875,58.819,34.943,54.885,41.459,54.885 M41.46,52.324L41.46,52.324c-7.884,0-16.959,4.806-18.252,15.355
			c-1.244,10.144,4.175,17.84,14.496,20.585c1.51,0.402,3.048,0.606,4.571,0.606c7.797,0,14.861-5.393,17.177-13.116
			c1.448-4.826,1.052-9.499-1.143-13.513c-2.419-4.424-6.812-7.735-12.37-9.324C44.561,52.523,43.054,52.324,41.46,52.324
			L41.46,52.324z"/>
	</g>
	<g id="XMLID_55_">
		<path id="XMLID_56_" class="st10" d="M92.719,54.885c6.517,0,14.585,3.934,15.71,13.106c1.155,9.418-4.02,15.513-12.612,17.798
			c-1.329,0.354-2.639,0.519-3.913,0.519c-6.958,0-12.823-4.951-14.724-11.29c-2.966-9.887,3.269-17.21,11.763-19.638
			C90.084,55.054,91.368,54.885,92.719,54.885 M92.718,52.324c-1.594,0-3.101,0.2-4.479,0.594c-5.557,1.589-9.95,4.9-12.37,9.324
			c-2.195,4.014-2.591,8.687-1.143,13.513c2.317,7.722,9.38,13.116,17.177,13.116c1.523,0,3.061-0.204,4.571-0.606
			c10.321-2.745,15.74-10.441,14.496-20.585C109.677,57.129,100.602,52.324,92.718,52.324L92.718,52.324L92.718,52.324z"/>
	</g>
	<g id="XMLID_53_">
		<path id="XMLID_54_" class="st15" d="M30.755,65.641c1.358-2.223,3.482-4.056,6.171-5.076c6.154-2.336,12.925,0.463,15.123,6.253
			s-1.01,12.377-7.164,14.713c-3.075,1.167-6.265,0.972-9.037-0.079c-0.772-0.293-1.713-1.468-1.03-2.714
			c0.944-1.723,2.173-4.379,2.68-5.558c0.559-1.3-0.249-2.373-1.112-2.719c-0.987-0.396-3.207-1.143-4.715-1.943
			C30.188,67.729,30.351,66.303,30.755,65.641z"/>
	</g>
	<g id="XMLID_51_">
		<path id="XMLID_52_" class="st14" d="M46.933,63.804c-0.964-0.435-2.052-0.144-2.62,1.031c-0.583,1.205-0.181,2.289,0.789,2.727
			c0.97,0.438,2.122,0.181,2.703-1.105C48.386,65.171,47.911,64.246,46.933,63.804z"/>
	</g>
</g>
<path id="XMLID_49_" class="st3" d="M67.325,79.302c-4.738,0-8.579,1.345-8.579,5.557c0,5.603,6.245,10.144,8.579,10.144
	c2.535,0,8.579-4.54,8.579-10.144C75.904,80.647,72.063,79.302,67.325,79.302z"/>
<path id="XMLID_48_" class="st16" d="M109.868,98.817c-8.179,4.739-42.543,4.468-42.543,4.468s-34.364,0.271-42.543-4.468
	C16.297,93.901,6.136,87.437,4.79,73.162C3.115,92.3,15.057,99.955,24.782,105.59c8.178,4.739,42.543,4.47,42.543,4.47
	s34.364,0.269,42.543-4.47c9.725-5.635,21.668-13.289,19.992-32.427C128.514,87.437,118.353,93.901,109.868,98.817z"/>
<g id="XMLID_46_">
	<path id="XMLID_47_" class="st17" d="M67.325,18.333c-7.382-7.382-15.801-5.14-23.04-3.02c7.324,0.57,15.825,0.874,23.04,8.089
		c7.192-7.192,16.359-7.248,24.05-7.666C83.756,13.686,74.66,10.999,67.325,18.333z"/>
</g>
<path id="XMLID_45_" class="st18" d="M116.321,114.185c-0.197-1.182-2.52-1.691-5.643-2.024
	c-14.055-1.496-29.219-2.102-43.352-2.101l0,0c10.222,24.273,48.874,18.808,34.342,8.979
	C112.474,120.399,116.668,116.262,116.321,114.185z"/>
<path id="XMLID_44_" class="st18" d="M18.329,114.185c0.197-1.182,2.52-1.691,5.643-2.024c14.055-1.496,29.219-2.102,43.352-2.101
	l0,0c-10.222,24.273-48.874,18.808-34.342,8.979C22.176,120.399,17.982,116.262,18.329,114.185z"/>
<radialGradient id="XMLID_8_" cx="89.5477" cy="175.2682" r="11.0771" gradientTransform="matrix(0.938 0.3467 -0.5412 1.4641 100.401 -112.3889)" gradientUnits="userSpaceOnUse">
	<stop  offset="0.0664" style="stop-color:#FFFFFF"/>
	<stop  offset="0.6276" style="stop-color:#DCDDDE"/>
</radialGradient>
<path id="XMLID_42_" class="st19" d="M83.655,173.777l-3.702,7.977c-0.65,1.467,1.388,4.519,7.221-1.583
	C92.413,174.689,89.573,166.918,83.655,173.777z"/>
<radialGradient id="XMLID_9_" cx="84.3096" cy="171.7219" r="10.2545" gradientTransform="matrix(0.9299 0.3677 -0.5721 1.4467 104.149 -107.7094)" gradientUnits="userSpaceOnUse">
	<stop  offset="0.0879" style="stop-color:#FFFFFF"/>
	<stop  offset="0.7843" style="stop-color:#DCDDDE"/>
</radialGradient>
<path id="XMLID_41_" class="st20" d="M76.834,172.231l-1.328,9.059c0.098,4.312,3.46,2.766,6.544-2.707
	C86.05,171.486,81.917,164.652,76.834,172.231z"/>
<radialGradient id="XMLID_10_" cx="76.7288" cy="169.5259" r="10.3713" gradientTransform="matrix(0.9658 0.2594 -0.4278 1.5929 75.1526 -120.4082)" gradientUnits="userSpaceOnUse">
	<stop  offset="0.1457" style="stop-color:#FFFFFF"/>
	<stop  offset="0.6276" style="stop-color:#DCDDDE"/>
</radialGradient>
<path id="XMLID_40_" class="st21" d="M73.883,168.19c-3.668-0.745-4.893,5.591-5.301,9.62l2.78,0.001l0.001-0.005
	c-0.192,2.122-0.269,6.293,2.146,6.021C76.21,183.522,79.217,169.273,73.883,168.19z"/>
<radialGradient id="XMLID_11_" cx="-423.8713" cy="175.2682" r="11.0771" gradientTransform="matrix(-0.938 0.3467 0.5412 1.4641 -447.3275 65.6084)" gradientUnits="userSpaceOnUse">
	<stop  offset="0.0664" style="stop-color:#FFFFFF"/>
	<stop  offset="0.6276" style="stop-color:#DCDDDE"/>
</radialGradient>
<path id="XMLID_38_" class="st22" d="M50.995,173.777l3.702,7.977c0.65,1.467-1.388,4.519-7.221-1.583
	C42.237,174.689,45.077,166.918,50.995,173.777z"/>
<radialGradient id="XMLID_12_" cx="-429.1094" cy="171.7219" r="10.2545" gradientTransform="matrix(-0.9299 0.3677 0.5721 1.4467 -446.9414 81.0966)" gradientUnits="userSpaceOnUse">
	<stop  offset="0.0879" style="stop-color:#FFFFFF"/>
	<stop  offset="0.7843" style="stop-color:#DCDDDE"/>
</radialGradient>
<path id="XMLID_19_" class="st23" d="M57.816,172.231l1.328,9.059c-0.098,4.312-3.46,2.766-6.544-2.707
	C48.6,171.486,52.733,164.652,57.816,172.231z"/>
<radialGradient id="XMLID_13_" cx="-436.6902" cy="169.5259" r="10.3713" gradientTransform="matrix(-0.9658 0.2594 0.4278 1.5929 -436.3482 12.7684)" gradientUnits="userSpaceOnUse">
	<stop  offset="0.1457" style="stop-color:#FFFFFF"/>
	<stop  offset="0.6276" style="stop-color:#DCDDDE"/>
</radialGradient>
<path id="XMLID_18_" class="st24" d="M60.767,168.19c3.668-0.745,4.893,5.591,5.301,9.62l-2.78,0.001l-0.001-0.005
	c0.192,2.122,0.269,6.293-2.146,6.021C58.44,183.522,55.433,169.273,60.767,168.19z"/>
</svg>
