<svg id="Layer_1" data-name="Layer 1" xmlns="http://www.w3.org/2000/svg" viewBox="0 0 4109.617 1831.87"><defs><style>.cls-1{fill:#bfe5fc;}.cls-2{fill:#d2edfd;}.cls-3{fill:#e5f5fe;}.cls-4{fill:#dff2fd;}.cls-5{fill:#64bbde;opacity:0.09;}.cls-5,.cls-7,.cls-8{isolation:isolate;}.cls-6{fill:#eff6d5;}.cls-7{fill:#91dee3;opacity:0.33;}.cls-8{fill:#7fd7df;opacity:0.32;}</style></defs><title>синий бг</title><rect class="cls-1" x="3.277" width="4106.34" height="1831.87"/><path class="cls-2" d="M4103.07,299.07c-25.332,2.534-55.054,10.642-92.68,17.405-131.069,23.563-264.5,28.076-395.509.536-62.147-13.063-121.752-32.448-187.029-37.052-168.613-11.9-308.035,74.381-464.98,113.931-129.321,32.587-273.332,33.173-413.19,33.266-318.687.209-674.751-47.984-993.341-52.705C1025.439,366.6,529.2,393.706,1.634,426.3V1836.389H4103.07Z" transform="translate(3.277 -4.519)"/><path class="cls-3" d="M351.77,1224.965l-1.946-.3Z" transform="translate(3.277 -4.519)"/><path class="cls-3" d="M358.317,1225.978l-6.547-1.013Z" transform="translate(3.277 -4.519)"/><path class="cls-3" d="M349.824,1224.664l-2.313-.358Z" transform="translate(3.277 -4.519)"/><path class="cls-3" d="M359.052,1226.089l-.735-.114Z" transform="translate(3.277 -4.519)"/><path class="cls-3" d="M370.713,1227.9l-2.768-.428Z" transform="translate(3.277 -4.519)"/><path class="cls-3" d="M375.3,1228.606l-4.583-.71Z" transform="translate(3.277 -4.519)"/><path class="cls-3" d="M347.511,1224.306l-1.817-.281Z" transform="translate(3.277 -4.519)"/><path class="cls-3" d="M367.945,1227.468l-8.893-1.376Z" transform="translate(3.277 -4.519)"/><path class="cls-3" d="M375.3,1228.606l3.274.506h0Z" transform="translate(3.277 -4.519)"/><path class="cls-3" d="M345.694,1224.025l-.751-.116Z" transform="translate(3.277 -4.519)"/><path class="cls-3" d="M342.818,1223.58" transform="translate(3.277 -4.519)"/><path class="cls-4" d="M4102.077,706.459c-123.3-41.841-331.442-14.8-484.191-4.289-106.735,7.34-219.465,24.037-326.049,8.153-113.635-16.934-166.369-66.991-261.557-99.493-126-43.034-219.988-17.193-352.187,1.7-127.8,18.267-226.148,7.22-354.935,2.106-234.825-9.328-457.5,69.967-687.028,32.9-237.049-38.291-343.51,25.282-574.938,47.341-214.478,20.424-520.454-40.644-707.1-98.807l.033.011-.033-.011C233.989,558.648,91.876,547.4,1.634,581.8V1836.389H4102.077ZM357.33,597.081l.82.255Zm3.246,1.021,1.227.382Z" transform="translate(3.277 -4.519)"/><path class="cls-3" d="M344.943,1223.909l-1.247-.193Z" transform="translate(3.277 -4.519)"/><path class="cls-3" d="M343.7,1223.716l-.2-.031Z" transform="translate(3.277 -4.519)"/><path class="cls-3" d="M343.5,1223.689l-.678-.1Z" transform="translate(3.277 -4.519)"/><path class="cls-5" d="M4103.07,1014.9c-96.02,38.848-208.4,68.272-316.642,46.013-59.2-12.175-108.967-39.192-172.752-39.774-88.972-.813-144.986,48.335-223.931,69.38-129.855,34.619-287.644-14.506-376.93-73.947S2861.921,883.732,2740.4,841.916c-47.386-16.308-106.257-27.043-161.6-19.886-33.332,4.31-62.332,14.668-89.53,25.441a1182.342,1182.342,0,0,0-167.209,81.113c-86.356,51.193-189.163,117.038-317.89,101.956-114.776-13.449-167.07-85.35-274.374-110.183-95.9-22.189-210.48-.493-292.914,33.028s-145.8,78.073-228.313,111.542c-22.867,9.275-47.749,17.808-75.985,21.541-64.593,8.54-131.019-9.54-183.306-30.773-144.627-58.744-244.762-146.809-410.611-188.28C386.594,829.387,200.413,844.6,65.53,894.133A461.33,461.33,0,0,0-3.277,925.678v910.711H4103.07Z" transform="translate(3.277 -4.519)"/><path class="cls-6" d="M1003.351,1627.563C988.523,1623.706,1031.876,1635.283,1003.351,1627.563Z" transform="translate(3.277 -4.519)"/><path class="cls-7" d="M4103.079,1834.634l-.01-487.7L3801,1463.273c-24.813,9.556-51.819,19.362-78.755,15.029-45.939-7.39-66.615-49.512-94.826-79.871-46.392-49.927-131.425-73.776-205.86-57.744-69.155,14.893-128.114,60.353-199.658,60.046-119.96-.516-195.243-126.812-315.187-128.253-66.128-.795-121.788,37.157-174.81,69.272s-121.2,61.34-182.567,41.3c-28.227-9.219-50.051-27.61-72.692-44.117-53.844-39.257-123.853-71.4-195.346-62.345-50.28,6.373-93.222,32.068-133.021,57.822-153.1,99.075-286.014,211.444-413.734,330.854-87.893-99.3-204.607-185.726-318.718-266.86-27.4-19.481-55.459-39.234-88.965-50.821-86.556-29.931-184.727.675-272.749,27.641s-193.191,48.945-270.866,5.832c-44.05-24.438-71.7-66.744-120.2-84.8-84.027-31.275-174.738,23.882-262.658,47.062-85.235,22.461-182.352,13.1-258.747-24.947C110.764,1303,50.986,1249.725-.354,1229.229v605.405Z" transform="translate(3.277 -4.519)"/><path class="cls-8" d="M4103.069,1835.633v-26.4c-30.059-22.281-91.26-38.784-156.48-37.385-19.173.411-41.047,1.788-55.318-3.216-7.586-2.663-11.157-6.6-14.216-10.4-12.317-15.279-21.192-31.2-41.469-45.13s-55.152-25.933-96.219-26.712c-36.972-.7-76.468,7.48-109.29.815-18.448-3.746-29.273-11.277-42.994-17.369-35.333-15.686-92.48-22.029-145.882-20.351s-103.714,10.441-150.078,20.9c-12.2,2.752-24.728,5.7-38.751,6.28-14.049.582-27.889-1.281-41.6-2.6-97.064-9.37-207.533,11.277-249.5,46.632-89.191-2.6-180.542,13.712-233.676,41.737a147,147,0,0,0-35.916,27.424c3.953-29.488-4.952-59.28-40.023-85.165-44.6-32.914-140.234-57.378-234.158-50.531-68.209,4.97-128.649,25.161-197.807,22.943-25.515-.82-49.628-4.7-74.48-7.1-77.207-7.446-163.08.373-223.8,20.379-18.525,6.1-35.386,13.4-57.845,16.97-25.432,4.047-54.047,2.716-81.494,2.251-113.44-1.922-240.455,14.832-290.3,57.711a78.428,78.428,0,0,0-10.69,11.095c-44.158-26.435-99.015-50.359-162.65-70.475-39.91-12.616-82.982-23.745-125.973-34.85-31.186-8.056-63.6-16.308-100.86-18.884-77.833-5.382-153.159,15.1-232.293,14.528-60.657-.439-115.451-13.108-174.393-18.49-70.87-6.471-148.466-1.864-210.529,12.493-63.867,14.777-120.4,40.323-195.251,38.158-39.506-1.142-73.959-10.155-111.765-14.6-54.32-6.386-114.159-2.885-165.729,6.413v142.925Z" transform="translate(3.277 -4.519)"/></svg>