<svg xmlns="http://www.w3.org/2000/svg" viewBox="0 0 216.822 317.439"><defs><style>.cls-1{isolation:isolate;}.cls-2,.cls-4{fill:#8e7254;}.cls-3{fill:#616b5a;}.cls-3,.cls-7{opacity:0.15;}.cls-11,.cls-3,.cls-6,.cls-7,.cls-9{mix-blend-mode:multiply;}.cls-4{opacity:0.4;mix-blend-mode:screen;}.cls-11,.cls-5{fill:#4db723;}.cls-6{fill:#eff6d5;}.cls-7{fill:#3a991a;}.cls-8{fill:#64c03f;}.cls-9{fill:#f1f9ed;}.cls-10{fill:#5fbe39;}.cls-11{opacity:0.35;}</style></defs><title>дерево2</title><g class="cls-1"><g id="Isolation_Mode" data-name="Isolation Mode"><path class="cls-2" d="M117.817,227.3c3.658,7.506,7.334,16.414,3.529,23.846-2.685,5.245-8.869,9.132-8.632,15.019.085,2.128,1.058,4.127,1.3,6.243.745,6.4-4.976,11.463-9.848,15.681a130.281,130.281,0,0,0-29.508,36.913l90.694,2.865a50.8,50.8,0,0,0-25.4-34.463L157.154,265.5a18.061,18.061,0,0,0,2.932-6.614c.944-6.384-4.764-11.5-9.049-16.328-13.964-15.728-15.5-41.136-3.535-58.433-8.095-1.39-16.315-2.785-24.481-1.908C91.063,185.644,108.991,209.195,117.817,227.3Z" transform="translate(-2.226 -10.431)"/><path class="cls-3" d="M139.96,293.407,157.154,265.5a18.06,18.06,0,0,0,2.932-6.614c.944-6.384-4.764-11.5-9.049-16.328-11.434-12.878-14.53-32.243-8.711-48.333-12.378,1.639-25.313,2.98-36.9,6.423,2,8.3,8.215,18.087,12.392,26.658.9,1.847,1.8,3.78,2.592,5.755,1.18-.372,2.367-.715,3.565-.987.219.833.41,1.6.528,2.235,1.435,7.818,2.544,16.895-2.772,22.8-1.27,1.411-2.843,2.541-4.006,4.042a10,10,0,0,0-.823,10.7,37.974,37.974,0,0,1,12.179-18.6,125.666,125.666,0,0,1-9.81,27.793,17.207,17.207,0,0,1-3.433,5.167c-1.666,1.552-3.845,2.435-5.636,3.841a12.157,12.157,0,0,0-4.457,10.921c.2,1.521.659,3.2-.177,4.488-.608.936-1.767,1.4-2.389,2.324-.762,1.136-.53,2.641-.268,3.984l2.776,14.215,3.933.124a12.917,12.917,0,0,0-.586-2.249c-1.188-3.268-2.831-7.087-.882-9.966,1.109-1.637,3.235-2.606,3.731-4.52.556-2.146-1.236-4.14-1.745-6.3-.9-3.823,2.306-7.347,5.534-9.584s7.026-4.344,8.267-8.071a32.355,32.355,0,0,0,.79-5.122,28.387,28.387,0,0,1,2.694-7.441l6.21-13.165a47.894,47.894,0,0,1-6.78,26.188,10.547,10.547,0,0,0-1.872,4.346c-.325,3.789,3.838,7.457,2.2,10.887-2.468-1.086-5.365,1.169-5.987,3.793s.322,5.337,1.251,7.869l5.1,13.9,3.024.1a18.221,18.221,0,0,0-1.81-6.864c-1.052-2.132-2.547-4.126-2.883-6.479s1.165-5.218,3.541-5.165l4.314,2.4c-3.49-7.4-3.666-15.968-2.471-24.062s3.674-15.939,5.3-23.958a9.9,9.9,0,0,0,.187-4.419c-.444-1.714-1.719-3.062-2.715-4.526a15.8,15.8,0,0,1-1.26-15.209,46.9,46.9,0,0,0,7.227,16.193c1.3,1.862,2.769,3.681,3.43,5.856,2.634,8.663-8.452,17.045-6.015,25.765a73.6,73.6,0,0,0,9.2-20.589c.754-2.766,1.345-5.7.62-8.476-.886-3.393-3.565-5.962-5.573-8.836s-3.352-6.875-1.392-9.782a5.945,5.945,0,0,1-.574-.516,5.519,5.519,0,0,1,1.278.689,9.246,9.246,0,0,1,2.333,3.061l6.02,10.744a12.984,12.984,0,0,1,1.918,4.876,12.355,12.355,0,0,1-1.182,5.649,122.429,122.429,0,0,1-10.581,20.922c-2.159,3.412-4.6,7.284-3.583,11.192.644,2.482,2.567,4.387,4.277,6.3a52.039,52.039,0,0,1,12.393,25.929l12.793.4A50.8,50.8,0,0,0,139.96,293.407Z" transform="translate(-2.226 -10.431)"/><path class="cls-3" d="M139.96,293.407,157.154,265.5a18.06,18.06,0,0,0,2.932-6.614c.944-6.384-4.764-11.5-9.049-16.328-11.434-12.878-14.53-32.243-8.711-48.333-12.378,1.639-25.313,2.98-36.9,6.423,2,8.3,8.215,18.087,12.392,26.658.9,1.846,1.8,3.778,2.59,5.751a36.393,36.393,0,0,1,5.724-1.4,5.189,5.189,0,0,1,3.761.516c1.156.821,1.552,2.359,2.524,3.391,2.119,2.251,6.069,1.385,8.551,3.228a9.246,9.246,0,0,1,2.333,3.061l6.02,10.744a12.984,12.984,0,0,1,1.918,4.876,12.355,12.355,0,0,1-1.182,5.649,122.429,122.429,0,0,1-10.581,20.922c-2.159,3.412-4.6,7.284-3.583,11.192.644,2.482,2.567,4.387,4.277,6.3a52.039,52.039,0,0,1,12.393,25.929l12.793.4A50.8,50.8,0,0,0,139.96,293.407Z" transform="translate(-2.226 -10.431)"/><path class="cls-4" d="M74.662,325.005l17.538.554q.031-3.683.062-7.366c.026-3.143.064-6.354,1.109-9.318,1.286-3.648,3.977-6.6,6.6-9.44l10.789-11.685c3.421-3.706,7.084-8.1,6.508-13.112-.33-2.873-2.049-5.438-2.427-8.305a20.415,20.415,0,0,1,1.9-8.486c.119-.281.309-.652.531-1.074-2.411,2.9-4.707,5.767-4.562,9.4.086,2.128,1.059,4.127,1.3,6.243.745,6.4-4.976,11.463-9.848,15.681A130.277,130.277,0,0,0,74.662,325.005Z" transform="translate(-2.226 -10.431)"/><path class="cls-5" d="M56.005,61.891c-1.622-8.3,1.7-18,9.345-21.621,6.612-3.13,14.743-1.223,21.406-4.243,5.877-2.664,9.442-8.574,13.74-13.387,5.59-6.261,13.148-11.067,21.484-12.042s17.375,2.378,22.006,9.378c2.948,4.456,4.143,10.2,8.265,13.6,4.745,3.912,11.6,3.353,17.581,4.789a25.561,25.561,0,0,1,16.089,37.767c-6.5,11.111-20.593,15.754-33.455,15.176S127.37,85.951,115,82.378c-6.21-1.794-12.963-3.275-19.024-1.028-2.65.982-5.022,2.636-7.714,3.5C72.822,89.785,58.77,76.041,56.005,61.891Z" transform="translate(-2.226 -10.431)"/><path class="cls-6" d="M187.379,53.2a25.985,25.985,0,0,0-17.546-14.836c-5.613-1.348-12-.939-16.685-4.12-4.508-.237-8.878-2.535-12.672-2.535-16,0-32,14-49,7A7.434,7.434,0,0,1,87.607,35.6c-.28.147-.56.293-.851.425-6.663,3.021-14.794,1.113-21.406,4.243-7.643,3.618-10.967,13.322-9.345,21.621,2.765,14.15,16.817,27.895,32.258,22.956,2.692-.861,5.064-2.515,7.714-3.5,6.061-2.247,12.814-.766,19.024,1.028,12.369,3.573,24.6,8.351,37.466,8.929s26.95-4.065,33.455-15.176A25.985,25.985,0,0,0,187.379,53.2Z" transform="translate(-2.226 -10.431)"/><path class="cls-7" d="M142.476,55.71c-10,5-19-7-31-9-11-3-21-1-29,5-8.807,5.871-16,12.277-23.947,17.644C63.858,80.366,75.59,88.9,88.263,84.847c2.692-.861,5.064-2.515,7.714-3.5,6.061-2.247,12.814-.766,19.024,1.028,12.369,3.573,24.6,8.351,37.466,8.929s26.95-4.065,33.455-15.176A25.966,25.966,0,0,0,189.2,60.163C176.11,50.847,160.233,46.525,142.476,55.71Z" transform="translate(-2.226 -10.431)"/><path class="cls-8" d="M141.5,16.97A24.151,24.151,0,0,0,121.981,10.6a31.3,31.3,0,0,0-13.5,5.113C117.067,23.794,125.476,15.71,141.5,16.97Z" transform="translate(-2.226 -10.431)"/><path class="cls-5" d="M21.444,80.5c4.995-8.3,14.885-14,24.412-12.248,3.841.706,7.467,2.533,11.366,2.73,7,.354,13.02-4.464,18.823-8.386,10.88-7.353,24.744-12.35,37.1-7.913,6.243,2.241,11.588,6.721,18.026,8.321,14.111,3.505,29.45-7.62,42.958-2.24,10.68,4.253,15.2,16.87,24.033,24.23,4.49,3.742,10.127,6.132,13.928,10.573,4.685,5.473,5.783,13.083,6.4,20.261.659,7.688.978,15.491-.475,23.069A50.021,50.021,0,0,1,152.3,176.671c-23.46-8.246-39.681-33.379-64.4-36.108-15.92-1.757-53.742,17.594-63.8-1.434-3.332-6.306-2.8-16.106-4.732-23.065C16.12,104.344,14.881,91.4,21.444,80.5Z" transform="translate(-2.226 -10.431)"/><path class="cls-9" d="M141.476,82.71c-19-12-36,4-54,8-21,4-41-6-62,0a26.312,26.312,0,0,0-8.444,2.9c-.916,7.435.325,15.178,2.347,22.451,1.935,6.96,1.4,16.759,4.732,23.065,10.054,19.028,47.876-.323,63.8,1.434,24.717,2.728,40.938,27.862,64.4,36.108a50.021,50.021,0,0,0,65.714-37.776c1.452-7.578,1.133-15.381.475-23.069a75.1,75.1,0,0,0-1.05-8.072,28.215,28.215,0,0,1-6.967,1.956C183.476,112.71,162.476,97.71,141.476,82.71Z" transform="translate(-2.226 -10.431)"/><path class="cls-7" d="M156.309,114.043c-17.6-3.226-20.833-26.333-39.833-19.333-15,5-27,18-44,12a83.683,83.683,0,0,0-55.094.149,78.27,78.27,0,0,0,2,9.2c1.935,6.96,1.4,16.759,4.732,23.065,10.054,19.028,47.876-.323,63.8,1.434,24.717,2.728,40.938,27.862,64.4,36.108a50.735,50.735,0,0,0,41.517-3.825A50.007,50.007,0,0,0,208.791,159.5c-4.379-8.87-8.3-14.631-12.149-26.626C192.309,119.377,166.309,115.877,156.309,114.043Z" transform="translate(-2.226 -10.431)"/><path class="cls-10" d="M95.476,63.71c7-5,15-4,22-1,8,4,17,11,26,9a104.447,104.447,0,0,1,39.651-4.418,25.015,25.015,0,0,0-8.993-6.53c-13.508-5.379-28.847,5.745-42.958,2.24-6.438-1.6-11.783-6.08-18.026-8.321-12.36-4.437-26.224.56-37.1,7.913-5.8,3.922-11.828,8.74-18.824,8.386-3.9-.2-7.526-2.024-11.366-2.73a21.981,21.981,0,0,0-15.244,3.117C53.232,84.429,75.8,76.5,95.476,63.71Z" transform="translate(-2.226 -10.431)"/><path class="cls-5" d="M38.286,188.984c-.768-4.26-.636-8.8-2.607-12.654-4.009-7.836-14.39-9.293-21.765-14.1-10.349-6.74-14.364-21.283-9.858-32.782s16.552-19.3,28.894-19.773c16.862-.648,32.91,10.767,49.585,8.18,8.31-1.289,15.646-5.93,23.355-9.29s16.884-5.393,24.326-1.478c5.308,2.793,8.853,8.184,14.093,11.1,8.321,4.636,18.8,2.075,27.985,4.611a26.085,26.085,0,0,1,16.9,14.949c1.323,3.2,1.993,6.662,3.5,9.782,3.66,7.564,11.675,12.1,16.186,19.185,5.442,8.55,4.941,20.048.239,29.026s-13.083,15.615-22.257,19.922c-5.389,2.53-11.294,4.366-17.225,3.855-5.225-.45-10.1-2.677-15.043-4.427-13.421-4.753-24.4-3.9-37.312,1.42-8.943,3.685-15.637,2.376-24.924,2.029C70.819,217.742,43.112,215.765,38.286,188.984Z" transform="translate(-2.226 -10.431)"/><path class="cls-6" d="M197.665,154.45c-7.263,9.339-17.863,14.781-30.19,11.26-16-4-30-2-45,2-16,4-28-6-42-13C56.5,141.285,19.659,160.036,2.565,135.146c-1.55,10.249,2.65,21.423,11.349,27.088,7.376,4.8,17.757,6.26,21.765,14.1,1.971,3.854,1.839,8.394,2.607,12.654,4.826,26.781,32.534,28.758,54.072,29.562,9.287.347,15.981,1.656,24.924-2.029,12.915-5.322,23.89-6.173,37.312-1.42,4.943,1.751,9.819,3.977,15.043,4.427,5.931.511,11.837-1.325,17.225-3.855,9.174-4.307,17.555-10.944,22.257-19.922s5.2-20.476-.239-29.026C205.911,162.056,201.429,158.494,197.665,154.45Z" transform="translate(-2.226 -10.431)"/><path class="cls-11" d="M208.881,166.722c-.1-.16-.219-.31-.325-.468.977,11.252-3.015,24.063-11.08,31.456-7,5-15,10-24,8-18-5-35-15-53-8-24,9-51,14-74-1a35.944,35.944,0,0,1-8.253-8.129c.022.134.039.27.063.4,4.826,26.781,32.534,28.758,54.072,29.562,9.287.347,15.981,1.656,24.924-2.029,12.915-5.322,23.89-6.173,37.312-1.42,4.943,1.751,9.819,3.977,15.043,4.427,5.931.511,11.837-1.325,17.225-3.855,9.174-4.307,17.555-10.944,22.257-19.922S214.322,175.272,208.881,166.722Z" transform="translate(-2.226 -10.431)"/><path class="cls-10" d="M172.293,122.806c-9.181-2.536-19.665.025-27.985-4.611-5.239-2.919-8.784-8.31-14.093-11.1-7.442-3.915-16.617-1.882-24.326,1.478s-15.045,8-23.355,9.29c-16.675,2.587-32.723-8.828-49.585-8.18-11.092.427-21.927,6.781-27.282,16.409a44.927,44.927,0,0,1,17.809-8.379c17-4,28,9,43,14,9,2,19,1,25-5,16-12,35-15,48,2,8.59,10.5,19.555,1.418,32.167.25,4.745-.439,12.833,3.167,17.217,8.057A26.1,26.1,0,0,0,172.293,122.806Z" transform="translate(-2.226 -10.431)"/></g></g></svg>