<svg xmlns="http://www.w3.org/2000/svg" viewBox="0 0 237.201 294.768"><defs><style>.cls-1{isolation:isolate;}.cls-2,.cls-3,.cls-5{fill:#8e7254;}.cls-3{opacity:0.2;}.cls-10,.cls-3,.cls-4,.cls-7,.cls-8{mix-blend-mode:multiply;}.cls-4{fill:#616b5a;}.cls-4,.cls-8{opacity:0.15;}.cls-5{opacity:0.4;mix-blend-mode:screen;}.cls-10,.cls-6{fill:#4db723;}.cls-7{fill:#eff6d5;}.cls-8{fill:#3a991a;}.cls-9{fill:#5fbe39;}.cls-10{opacity:0.35;}</style></defs><title>дерево1</title><g class="cls-1"><g id="Isolation_Mode" data-name="Isolation Mode"><path class="cls-2" d="M103.284,194.8c-1.173,1.464-2.443,3.046-2.56,4.958-.282,4.618,5.495,6.324,8.992,9.124,4.805,3.847,5.658,11.4,3.715,17.415s-6.07,10.922-9.929,15.811a255.883,255.883,0,0,0-32.38,53.4,462.965,462.965,0,0,0,123.589-2.885l-36.237-33.7c-2.572-2.391-5.226-4.9-6.545-8.238-4.017-10.163,6.091-21.747,2.874-32.221-2.912-9.483-15.065-12.7-18.723-21.89-2.871-7.214.464-15.3,3.04-22.636,4.212-12,7.75-26.688,6.219-39.453-4.189-.393-13.162-4.457-16.833-1.664-3.081,2.344-3.664,18.02-4.83,22.11A113.793,113.793,0,0,1,103.284,194.8Z" transform="translate(-8.332 -3.569)"/><path class="cls-3" d="M158.475,258.93c-2.572-2.391-5.226-4.9-6.545-8.238-4.017-10.163,6.091-21.747,2.874-32.221-2.912-9.483-15.065-12.7-18.723-21.89-2.251-5.656-.685-11.845,1.337-17.791a7,7,0,0,0-1.394-.655,13.3,13.3,0,0,0-5.66-.2l-17,1.861a109.571,109.571,0,0,1-10.075,15c-1.173,1.464-2.443,3.046-2.56,4.958-.282,4.618,5.495,6.324,8.992,9.124,4.076,3.263,5.3,9.189,4.394,14.587a43.6,43.6,0,0,0,4.928-.4,13.975,13.975,0,0,1-1.008,3.344c-1.294,2.932-3.535,5.39-4.668,8.388-1.521,4.027-.9,8.651-2.6,12.606-2.782,6.475-10.915,9.37-13.693,15.847-1.5,3.5-1.175,7.478-1.474,11.28-.611,7.784-4.02,15.125-4.759,22.748,1.281.094,2.623.25,3.844.25a76.369,76.369,0,0,0,2.618-12.5c.9-6.67,1.078-13.872,5.064-19.3,1.256-1.709,2.835-3.149,4.224-4.752,7.581-8.745,8.839-21.37,15.155-31.068,1.526-2.343,3.418-5.079,2.506-7.67l.67-.113c1.391.486,1.956,2.629,2.027,4.3q.385,9.1.77,18.195a7.55,7.55,0,0,1-.406,3.5c-.672,1.457-2.167,2.313-3.381,3.362-5.239,4.529-5.15,12.456-6.175,19.3a47.053,47.053,0,0,1-3.785,12.688,12.767,12.767,0,0,0-1.452,4.251c-.231,3.032,1.952,5.653,4,7.9l2.948-24.227a9.722,9.722,0,0,1,.887-3.522c.7-1.288,1.946-2.192,2.766-3.409,1.182-1.754,1.382-3.991,2.328-5.883s3.932-7.153,5.7-5.99c3.5,8.833-.553,26.917-.537,38.528,5.953-12.082,5.606-26.18,5.13-39.64a23.96,23.96,0,0,0-.659-5.69,25.014,25.014,0,0,1-1.131-3.964,15.887,15.887,0,0,1,.72-5.094,27.059,27.059,0,0,0-1.286-15.642,22.2,22.2,0,0,1,7.88.966c-.045.7-.131,1.393-.221,2.062-1.749,13.087.61,26.416,4.4,39.063a51.05,51.05,0,0,0,3.647,9.475c4.2,7.855,11.613,13.387,18.795,18.653-.975-5.493-4.953-9.876-8.5-14.186-6.073-7.388-11.378-15.613-14-24.809-.275-.963-.511-1.934-.725-2.911a27.247,27.247,0,0,0,2.8,3.521c1.656,2.105,2.554,4.692,3.848,7.038,6.557,11.888,23.115,17.619,25.319,31.015.221,1.345.279,2.714.371,4.077q8.877-1.058,17.715-2.446Zm-11.443-30.517L144.4,241.127a28.923,28.923,0,0,0-.552,3.492,55.044,55.044,0,0,1,1.538-20.52c.046.031.092.057.137.088a3.915,3.915,0,0,1,1.539,1.671A4.526,4.526,0,0,1,147.032,228.412Z" transform="translate(-8.332 -3.569)"/><path class="cls-4" d="M158.475,258.93c-2.572-2.391-5.226-4.9-6.545-8.238-4.017-10.163,6.091-21.747,2.874-32.221-2.912-9.483-15.065-12.7-18.723-21.89-2.251-5.655-.685-11.845,1.337-17.791a6.993,6.993,0,0,0-1.394-.655,13.3,13.3,0,0,0-5.66-.2l-17,1.861a109.559,109.559,0,0,1-10.075,15c-1.173,1.464-2.443,3.046-2.56,4.958-.282,4.618,5.495,6.324,8.992,9.124,4.076,3.263,5.3,9.189,4.394,14.587,10.565-.18,22.054-5.718,31.413.717a3.915,3.915,0,0,1,1.539,1.671,4.526,4.526,0,0,1-.03,2.554L144.4,241.127c-.565,2.731-1.1,5.72.192,8.192a25.037,25.037,0,0,0,2.866,3.622c1.656,2.105,2.554,4.692,3.848,7.038,6.557,11.888,23.115,17.619,25.319,31.015.221,1.345.279,2.714.371,4.077q8.877-1.058,17.715-2.446Z" transform="translate(-8.332 -3.569)"/><path class="cls-5" d="M88.854,297.122c3.66-4.569,4.3-11.127,4.3-17.123,0-6.705-.371-13.861,3.1-19.6,2.271-3.758,5.983-6.5,8.149-10.315a33.282,33.282,0,0,0,2.907-12.849c-1.241,1.651-2.534,3.265-3.8,4.874a255.887,255.887,0,0,0-32.38,53.4Q79.973,296.494,88.854,297.122Z" transform="translate(-8.332 -3.569)"/><path class="cls-6" d="M71.54,67.783c-12.221-10.71.4-18.308,4.159-28.286,4.138-10.991.54-20.822,15.154-24.166C98.6,13.558,103.345,14,110.622,9.837c4.9-2.806,10.174-6.725,16.18-6.224,6.521.544,7.792,4.813,11.625,8.937,4.891,5.26,9.71,6.087,16.185,8.673,29.273,11.7,14.773,41.528-9.153,48.693-18.559,5.558-57.8,12.559-73.919-2.133C67.138,63.926,80.008,75.5,71.54,67.783Z" transform="translate(-8.332 -3.569)"/><path class="cls-7" d="M150.808,30.109c-15-5-27-11.5-44-9.5-10.01,1.82-18.371,8.589-28.837,9.8A51.671,51.671,0,0,1,75.7,39.5c-3.756,9.978-16.38,17.576-4.159,28.286,16.114,14.692,55.359,7.691,73.919,2.133,17.5-5.241,29.956-22.611,23.926-36.139C164.124,37.242,157.468,32.012,150.808,30.109Z" transform="translate(-8.332 -3.569)"/><path class="cls-8" d="M83.558,43.109c-.663,1.326-8.835,2.832-11.267,2.687-4.7,7.173-10.284,13.634-.752,21.988,16.114,14.692,55.359,7.691,73.919,2.133,15.264-4.571,26.684-18.367,25.356-30.794a18.052,18.052,0,0,1-4.006.487C139.308,35.609,108.558,11.109,83.558,43.109Z" transform="translate(-8.332 -3.569)"/><path class="cls-9" d="M154.611,21.223c-6.474-2.587-11.294-3.414-16.184-8.673-3.834-4.123-5.1-8.393-11.626-8.937-6.005-.5-11.281,3.418-16.18,6.224C103.345,14,98.6,13.558,90.853,15.331c-8.211,1.879-10.673,5.806-11.988,10.836,1.037-.739,2-1.61,2.875-2.291a26.58,26.58,0,0,1,10.495-5c6.927-1.532,14.733-.348,20.642-4.273,2.524-1.676,4.716-4.279,7.736-4.516a9.834,9.834,0,0,1,4.094.808c11.1,4.073,20.984,12.047,32.762,13.1a18.934,18.934,0,0,0,2.844.055A37.706,37.706,0,0,0,154.611,21.223Z" transform="translate(-8.332 -3.569)"/><path class="cls-6" d="M39.862,131.041c-10.423-7.59-15.579-22.554-7.291-32.06,1.987-2.279,4.569-4.074,6.681-6.26,11.258-11.652,8.354-33.005,23.59-40.029,6.953-3.205,15.525-2.013,22.683-4.826,5.66-2.224,9.808-6.693,14.848-9.916a38.553,38.553,0,0,1,34.422-2.917c7.931,3.279,14.756,9.327,23.432,10.1,5.953.532,11.906-1.559,17.862-1.055C189.439,45.212,197.4,58.8,197.82,70.938c.12,3.477-.157,7.034.957,10.363,1.77,5.292,6.822,9.307,8.489,14.626,3.108,9.92-6.477,19.29-16.052,24.869-4.955,2.887-10.286,5.469-16.106,6.3-12.963,1.854-26.372-5.181-39-1.947-11.491,2.942-18.648,13.453-29.412,18.137C90.317,150.414,53.351,140.864,39.862,131.041Z" transform="translate(-8.332 -3.569)"/><path class="cls-7" d="M207.265,95.927c-1.667-5.32-6.718-9.334-8.489-14.626-1.114-3.329-.837-6.886-.957-10.363-.341-9.907-5.709-20.775-14.928-25.053a28.471,28.471,0,0,1-12.083,5.724c-9,2-18,2-26,6-12,6-20,18-33,20-21.684,3.1-44.564-3.391-64.931,1.415-1.782,5.042-3.946,9.888-7.626,13.7-2.111,2.185-4.694,3.981-6.681,6.26-8.288,9.507-3.132,24.47,7.291,32.06,13.489,9.823,50.455,19.373,66.834,12.246,10.763-4.684,17.921-15.195,29.412-18.137,12.628-3.234,26.037,3.8,39,1.947,5.819-.832,11.151-3.415,16.106-6.3C200.788,115.217,210.374,105.847,207.265,95.927Z" transform="translate(-8.332 -3.569)"/><path class="cls-8" d="M207.265,95.927c-1.667-5.32-6.718-9.334-8.489-14.626-1.114-3.329-.837-6.886-.957-10.363a32.272,32.272,0,0,0-5.626-16.981c-7.158,4.182-17.406,5.082-25.385,5.652-8,1-16,4-21,10-11,10-21,20-36,22-27.694,3.462-59.124.948-81.344,18.353-.1,7.775,4.487,16.047,11.4,21.079,13.489,9.823,50.455,19.373,66.834,12.246,10.763-4.684,17.921-15.195,29.412-18.137,12.628-3.234,26.037,3.8,39,1.947,5.819-.832,11.151-3.415,16.106-6.3C200.788,115.217,210.374,105.847,207.265,95.927Z" transform="translate(-8.332 -3.569)"/><path class="cls-9" d="M66.808,58.609c12-3,25,3,35-5s22-18,35-13c14.983,7.051,33.072,14.869,48.108,6.357a20.168,20.168,0,0,0-8.829-2.885c-5.956-.5-11.909,1.586-17.862,1.055-8.676-.775-15.5-6.823-23.432-10.1a38.553,38.553,0,0,0-34.422,2.917c-5.04,3.223-9.189,7.692-14.848,9.916-7.157,2.813-15.729,1.621-22.683,4.826-11.27,5.2-12.618,18.229-17.111,29.379C52.189,73.4,55.568,62.356,66.808,58.609Z" transform="translate(-8.332 -3.569)"/><path class="cls-6" d="M12.448,177.063c-6.376-10.017-5.5-24.852,3.715-32.343,4.234-3.442,9.775-5.171,13.525-9.136,3.671-3.881,5.092-9.329,7.848-13.906a27.18,27.18,0,0,1,20.6-12.841c6.075-.523,12.119,1.036,18.2,1.475,19.089,1.376,37.142-8.243,53.214-18.635s32.056-22.133,50.824-25.884c9.451-1.889,19.743-1.513,28.094,3.3,8.589,4.947,14.206,14.189,16.109,23.917.978,5,1.2,10.483,4.389,14.453,2.252,2.8,5.653,4.389,8.424,6.679,8.259,6.826,9.867,19.37,6.463,29.529s-10.848,18.4-18.463,25.941c-10.822,10.711-22.638,20.811-36.606,26.873s-30.451,7.684-44.346,1.457c-3.989-1.788-7.938-4.24-12.309-4.145s-8.2,2.711-11.967,4.924a77.883,77.883,0,0,1-42.691,10.6,40.536,40.536,0,0,1-13.759-2.665c-9.422-3.91-16.475-10.719-26.362-13.736C27.347,189.861,18.489,186.124,12.448,177.063Z" transform="translate(-8.332 -3.569)"/><path class="cls-7" d="M237.4,114.139c-1.5-1.244-3.192-2.284-4.783-3.42-11.935,6.908-23.869,8.934-35.8,16.891-15,10-33,19-51,8-3-2-8-2-11-1-28,9-49,36-82,29C40.78,160.6,27.057,153.072,19.711,142.3a29.955,29.955,0,0,0-3.547,2.424c-9.213,7.49-10.092,22.326-3.715,32.343,6.04,9.061,14.9,12.8,24.909,15.853,9.886,3.017,16.939,9.826,26.361,13.736a40.538,40.538,0,0,0,13.759,2.665,77.882,77.882,0,0,0,42.691-10.6c3.764-2.213,7.6-4.83,11.968-4.924s8.319,2.357,12.309,4.145c13.895,6.227,30.378,4.6,44.346-1.457S214.573,180.32,225.4,169.61c7.615-7.537,15.058-15.782,18.463-25.941S245.655,120.965,237.4,114.139Z" transform="translate(-8.332 -3.569)"/><path class="cls-10" d="M242.125,119.8c-.056,1.267-.148,2.535-.317,3.805-2,16-12,29-27,38-9,5-16,15-25,20-21,11-42-6-65-4-7,1-13,6-18,11-10,7-23,10-34,6-17-6-30-17-49-20-5.725-.52-11.716-5.109-15.446-11.36a27.112,27.112,0,0,0,4.085,13.814c6.04,9.061,14.9,12.8,24.909,15.853,9.886,3.017,16.939,9.826,26.361,13.736a40.538,40.538,0,0,0,13.759,2.665,77.882,77.882,0,0,0,42.691-10.6c3.764-2.213,7.6-4.83,11.968-4.924s8.319,2.357,12.309,4.145c13.895,6.227,30.378,4.6,44.346-1.457S214.573,180.32,225.4,169.61c7.615-7.537,15.058-15.782,18.463-25.941C246.463,135.9,246.12,126.739,242.125,119.8Z" transform="translate(-8.332 -3.569)"/><path class="cls-9" d="M208.474,69.09c-8.351-4.81-18.644-5.186-28.094-3.3-18.768,3.751-34.752,15.493-50.824,25.884s-34.125,20.011-53.214,18.634c-6.082-.438-12.126-2-18.2-1.475a27.18,27.18,0,0,0-20.6,12.841c-2.756,4.577-4.177,10.024-7.848,13.906a19.652,19.652,0,0,1-3.091,2.609,22.8,22.8,0,0,0,7.211-4.584c6-4,9-10,15-13,20-7,43.129,3.939,62-5,28.5-13.5,38.5-34.5,65.5-39.5,19.728-4.553,36.5,6.492,48.881,20.442-.192-1.191-.379-2.38-.607-3.544C222.68,83.279,217.063,74.037,208.474,69.09Z" transform="translate(-8.332 -3.569)"/></g></g></svg>