<svg xmlns="http://www.w3.org/2000/svg" viewBox="0 0 172.435 238.087"><defs><style>.cls-1{isolation:isolate;}.cls-2,.cls-4{fill:#8e7254;}.cls-3{fill:#616b5a;}.cls-3,.cls-8{opacity:0.15;}.cls-10,.cls-3,.cls-7,.cls-8,.cls-9{mix-blend-mode:multiply;}.cls-4{opacity:0.4;mix-blend-mode:screen;}.cls-10,.cls-5{fill:#4db723;}.cls-6{fill:#5fbe39;}.cls-7{fill:#f1f9ed;}.cls-8{fill:#3a991a;}.cls-9{fill:#eff6d5;}.cls-10{opacity:0.35;}</style></defs><title>дерево3</title><g class="cls-1"><g id="Isolation_Mode" data-name="Isolation Mode"><path class="cls-2" d="M81.508,174.154a7.727,7.727,0,0,0-.639,4.307,7.506,7.506,0,0,0,2.214,3.249c4.04,4.074,13.617,9.68,18.332,13.031,2.167,1.54,4.608,3.332,4.827,5.9a8.457,8.457,0,0,1-1.23,4.31l-17.1,34.772,49.862,1.689,5.757-18.425c1.7-5.442,3.4-11.307,1.509-16.692-1.675-4.77-5.877-8.276-10.005-11.405-9.914-7.514-18.9-14.511-29.935-20.431-2.205-1.183-4.624-2.552-5.356-4.862a8.9,8.9,0,0,1,0-4.033c1.392-9.081,3.4-18.315,4.09-27.448-9.123-.558-15.178,3.631-16.176,10.64A136.514,136.514,0,0,1,81.508,174.154Z" transform="translate(-3.487 -5.29)"/><path class="cls-3" d="M145.041,206.3c-1.675-4.77-5.877-8.276-10.005-11.405-9.914-7.514-18.9-14.511-29.935-20.431-2.205-1.183-4.624-2.552-5.356-4.862a8.9,8.9,0,0,1,0-4.033c1.392-9.081,3.4-18.315,4.09-27.448-9.123-.558-15.178,3.631-16.176,10.64a136.155,136.155,0,0,1-3.711,17.578c1.9-.157,3.788-.359,5.678-.585-.13.623-.259,1.245-.39,1.86-.612,2.88-1.329,5.9-.5,8.723,1.008,3.455,4.106,5.87,7.251,7.62s6.577,3.127,9.179,5.614c5.934,5.67,5.745,15.333,3.023,23.076S100.7,227.361,98.635,235.3c9.37-7.074,11.868-19.859,13.684-31.458a14.544,14.544,0,0,0,.23-4.537,6.348,6.348,0,0,1-.211-2.521c.207-.825,1.2-1.519,1.908-1.043.6,4.849,1.24,9.843,3.664,14.085.793,1.388,1.791,2.737,1.993,4.324a9.205,9.205,0,0,1-.194,2.71c-.775,4.507-3.794,22.005-4.568,26.512,10-16,9.759-32.065,4.077-40.033-.9-1.268-1.98-2.507-2.265-4.039-.243-1.3.111-2.728-.473-3.917a5.432,5.432,0,0,0-1.556-1.694l-18.8-15.361a32.252,32.252,0,0,1,21.328,12.225c2.3,3,4.121,6.463,7.127,8.75,1.506,1.146,3.288,1.977,4.5,3.434,2.215,2.672,1.867,6.544,2.545,9.947.391,1.964,1.155,3.842,1.491,5.815a27.461,27.461,0,0,1-.252,8.149l-1.916,14.608c2.349-2.122,3.141-5.427,3.814-8.521l2.925-13.441a21.861,21.861,0,0,0,.733-7.816c-.674-4.516-4.042-8.089-7.244-11.344L119.3,188.081l-.771-.782c.621.491,1.249.973,1.893,1.431,7.69,5.473,17.975,8.748,21.729,17.408,3.432,7.914-.175,16.724-1.3,25.415l2.676-8.564C145.232,217.547,146.932,211.682,145.041,206.3ZM95,170.3c-.158-1.413.333-3.017.006-4.306.047.041.1.074.141.12.684.728.689,1.834.88,2.814.739,3.78,4.282,5.845,7.856,7.728a37.238,37.238,0,0,1-5.314-1.882A6.194,6.194,0,0,1,95,170.3Z" transform="translate(-3.487 -5.29)"/><path class="cls-3" d="M143.532,222.989c1.7-5.442,3.4-11.307,1.509-16.692-1.675-4.77-5.877-8.276-10.005-11.405-9.914-7.514-18.9-14.511-29.935-20.431-2.205-1.183-4.624-2.552-5.356-4.862a8.9,8.9,0,0,1,0-4.033c1.392-9.081,3.4-18.315,4.09-27.448-9.123-.558-15.178,3.631-16.176,10.64a136.155,136.155,0,0,1-3.711,17.578q3.885-.322,7.751-.834c1.206-.161,2.617-.269,3.45.617.684.728.689,1.834.88,2.814.96,4.91,6.652,6.927,11,9.41,4.914,2.809,8.794,7.106,13.406,10.387,7.69,5.473,17.975,8.748,21.729,17.408,3.432,7.914-.175,16.724-1.3,25.415Z" transform="translate(-3.487 -5.29)"/><path class="cls-4" d="M83.083,181.71c3.464,3.493,10.991,8.109,16.041,11.468a21.815,21.815,0,0,0-4.63-5.235c-3.125-2.671-6.675-5-8.91-8.449-1.126-1.739-1.016-8.625-1.592-13.328q-1.124,4.027-2.484,7.989a7.729,7.729,0,0,0-.639,4.307A7.508,7.508,0,0,0,83.083,181.71Z" transform="translate(-3.487 -5.29)"/><path class="cls-4" d="M102.976,218.21c1.974-3.848,5.794-15.731,3.167-19.167-.083-.108-.219-.124-.394-.074a4.581,4.581,0,0,1,.493,1.674,8.457,8.457,0,0,1-1.23,4.31l-17.1,34.772,6.169.209C95.628,232.191,99.244,225.487,102.976,218.21Z" transform="translate(-3.487 -5.29)"/><path class="cls-5" d="M95.853,19.492c2.1.5,4.137,1.49,6.262,1.718,5.341.572,10.232-3.647,14.818-7.4,4.717-3.864,9.732-7.475,15.2-8.344a13.9,13.9,0,0,1,14.684,7.674c1.568,3.057,2.351,6.858,4.3,9.484,1.816,2.452,4.374,3.521,6.764,4.775,7.311,3.838,14.523,11.594,15.1,22.2a26.7,26.7,0,0,1-8.42,20.593c-5.046,4.566-11.153,6.4-17.156,7.58a98.93,98.93,0,0,1-55.888-5.44C79.41,67.513,69.231,52.121,75.8,33.577,79.286,23.734,87.907,17.6,95.853,19.492Z" transform="translate(-3.487 -5.29)"/><path class="cls-6" d="M147.439,14.464c-.195-.453-.4-.9-.617-1.328a13.9,13.9,0,0,0-14.684-7.674c-5.473.869-10.487,4.481-15.2,8.345l-.682.56C121.317,18.663,136.7,21.663,147.439,14.464Z" transform="translate(-3.487 -5.29)"/><path class="cls-7" d="M161.806,29.865c-.58.168-1.162.334-1.75.457-23.734,8.049-54.39,14.008-75.218-8.628A23.272,23.272,0,0,0,75.8,33.577C69.231,52.121,79.41,67.513,91.517,72.328a98.93,98.93,0,0,0,55.888,5.44c6-1.179,12.11-3.014,17.156-7.58a26.7,26.7,0,0,0,8.42-20.593C172.509,40.911,167.587,34.142,161.806,29.865Z" transform="translate(-3.487 -5.29)"/><path class="cls-8" d="M161.924,50.6c-16.814,3.8-32.695-1.267-48.575-10.138-12.949-7.027-25.9,6.5-39.585,3.589C73.3,57.741,81.781,68.456,91.517,72.328a98.93,98.93,0,0,0,55.888,5.44c6-1.179,12.11-3.014,17.156-7.58a26.772,26.772,0,0,0,7.911-14.14C169.793,52.348,166.339,50.17,161.924,50.6Z" transform="translate(-3.487 -5.29)"/><path class="cls-5" d="M147.847,73.508c1.432-4.387,1.359-9.519-1.319-13.277-4.258-5.976-13.017-6.283-20.212-4.84s-14.688,4.021-21.661,1.737c-4.418-1.447-7.98-4.674-11.839-7.266-7.586-5.095-17.345-7.845-25.991-4.887-2.15.736-4.19,1.805-6.4,2.323-6.338,1.484-12.825-1.746-19.334-1.668A19.7,19.7,0,0,0,22.567,61.1c-.806,4.164-.221,8.562-1.5,12.606a28.445,28.445,0,0,1-3.768,7L9.231,92.818c-2.543,3.819-5.16,7.834-5.661,12.4-.726,6.61,3.325,13.065,8.811,16.823s12.2,5.255,18.786,6.142c35.642,4.8,73-7.078,99.79-30.958C138.161,90.8,144.8,82.854,147.847,73.508Z" transform="translate(-3.487 -5.29)"/><path class="cls-7" d="M146.528,60.23c-4.258-5.976-13.017-6.283-20.212-4.84s-14.688,4.021-21.661,1.737a31.171,31.171,0,0,1-8.437-4.845,15.908,15.908,0,0,0-2.742,2.427c-20,24-45,33-75,29a12.357,12.357,0,0,0-3.114-.1l-6.13,9.207c-2.543,3.819-5.16,7.834-5.66,12.4-.726,6.61,3.325,13.065,8.811,16.823s12.2,5.255,18.786,6.142c35.642,4.8,73-7.078,99.791-30.958,7.2-6.42,13.837-14.365,16.889-23.712C149.28,69.121,149.206,63.989,146.528,60.23Z" transform="translate(-3.487 -5.29)"/><path class="cls-8" d="M121.476,62.71c-8,4-13,12-22,13-32.3,7.383-62.032,22.442-77.433,50.656a65.51,65.51,0,0,0,9.125,1.812c35.642,4.8,73-7.078,99.791-30.958,7.2-6.42,13.837-14.365,16.889-23.712a16.217,16.217,0,0,0-.08-11.031C139.61,57.963,129.182,57.756,121.476,62.71Z" transform="translate(-3.487 -5.29)"/><path class="cls-6" d="M79.476,49.71a16.181,16.181,0,0,0,5.063-4.058c-5.756-2.08-11.743-1.723-17.714-.677-1.574.276-6.862-.242-9.074.276-6.338,1.484-10.153.3-16.662.379A19.778,19.778,0,0,0,24.594,55.7C42.7,61.12,63.548,58.931,79.476,49.71Z" transform="translate(-3.487 -5.29)"/><path class="cls-5" d="M123.258,70.964c-5.559,2.574-9.945,7.058-15.607,9.48C101.6,83.034,95,83.869,88.646,85.405c-12.809,3.1-19.651,10.9-29.084,19.341C50.211,113.118,36.695,117,29.706,127.915c-6.291,9.827-2.557,21.209,7.332,26.862,12.17,6.957,26.25,1.7,38.213-2.833,5.756-2.182,11.381-3.714,17.6-3.473,7.346.285,14.527,2.216,21.865,2.684,22.336,1.424,60.583-4.629,61.192-33.264.263-12.338-2.663-28.716-14.058-35.435C150.182,75.578,137.636,64.307,123.258,70.964Z" transform="translate(-3.487 -5.29)"/><path class="cls-9" d="M101.476,109.71c-3,1-7,2-10,4-15,17-40,20-60,12-.045-.022-.084-.047-.128-.07a27.838,27.838,0,0,0-1.642,2.276c-6.291,9.827-2.557,21.209,7.332,26.862,12.17,6.957,26.25,1.7,38.213-2.833,5.756-2.182,11.381-3.714,17.6-3.473,7.346.285,14.527,2.216,21.865,2.684,22.336,1.424,60.583-4.629,61.192-33.264a64.674,64.674,0,0,0-1.611-16.041C152.007,115.717,126.287,105.893,101.476,109.71Z" transform="translate(-3.487 -5.29)"/><path class="cls-10" d="M153.476,135.71c-26,2-52-10-75,0-16.264,6.97-36.722,13.329-51.628,5.163a19.973,19.973,0,0,0,10.19,13.9c12.17,6.957,26.25,1.7,38.213-2.833,5.756-2.182,11.381-3.714,17.6-3.473,7.346.285,14.527,2.216,21.865,2.684,21.389,1.364,57.345-4.144,60.892-29.757A30.948,30.948,0,0,1,153.476,135.71Z" transform="translate(-3.487 -5.29)"/><path class="cls-6" d="M123.258,70.964c-5.559,2.574-9.945,7.058-15.607,9.48C101.6,83.034,95,83.869,88.646,85.405c-12.809,3.1-19.651,10.9-29.084,19.341-4.335,3.881-9.561,6.8-14.621,9.9,13.032,1.087,26.077-8.889,36.535-16.933,9-8,23-1,32-8,12.157-9.352,26.063-14.327,40.083-12.48C144.251,71.308,134.295,65.855,123.258,70.964Z" transform="translate(-3.487 -5.29)"/></g></g></svg>