<svg xmlns="http://www.w3.org/2000/svg" xmlns:xlink="http://www.w3.org/1999/xlink" viewBox="0 0 126.028 225.971"><defs><style>.cls-1{isolation:isolate;}.cls-2{fill:url(#linear-gradient);}.cls-3{fill:#17479e;}.cls-4{fill:url(#linear-gradient-2);}.cls-5{fill:url(#linear-gradient-3);}.cls-6{fill:#0e1d42;}.cls-7{fill:#051438;}.cls-8{fill:#6dcff6;}.cls-9{opacity:0.25;}.cls-11,.cls-9{mix-blend-mode:multiply;}.cls-10,.cls-11{fill:#c7c8ca;}.cls-12{fill:#fff;}.cls-13{fill:#fffffe;}.cls-14{fill:#ef5399;}.cls-15{fill:url(#linear-gradient-4);}.cls-16{fill:url(#linear-gradient-5);}.cls-17{fill:url(#linear-gradient-6);}.cls-18{fill:url(#linear-gradient-7);}.cls-19{fill:#f5a4c7;}</style><linearGradient id="linear-gradient" x1="60.025" y1="104.117" x2="74.625" y2="104.117" gradientUnits="userSpaceOnUse"><stop offset="0.714" stop-color="#4495d1"/><stop offset="0.872" stop-color="#4495d1"/></linearGradient><linearGradient id="linear-gradient-2" x1="34.692" y1="184.386" x2="34.692" y2="117.328" gradientUnits="userSpaceOnUse"><stop offset="0" stop-color="#6dcff6"/><stop offset="0.998" stop-color="#4495d1"/></linearGradient><linearGradient id="linear-gradient-3" x1="99.07" y1="184.386" x2="99.07" y2="117" xlink:href="#linear-gradient-2"/><linearGradient id="linear-gradient-4" x1="67.325" y1="122.333" x2="67.325" y2="150.763" gradientUnits="userSpaceOnUse"><stop offset="0" stop-color="#17479e"/><stop offset="1" stop-color="#1d306a"/></linearGradient><linearGradient id="linear-gradient-5" x1="86.155" y1="108" x2="86.155" y2="120.763" xlink:href="#linear-gradient-4"/><linearGradient id="linear-gradient-6" x1="49.125" y1="108" x2="49.125" y2="120.763" xlink:href="#linear-gradient-4"/><linearGradient id="linear-gradient-7" x1="67.325" y1="107.75" x2="67.325" y2="126.358" xlink:href="#linear-gradient-4"/></defs><title>Вампи</title><g class="cls-1"><g id="Layer_3" data-name="Layer 3"><path id="_Path_" data-name="&lt;Path&gt;" class="cls-2" d="M60.025,102.114v2.956s2.021,1.05,7.3,1.05,7.3-1.05,7.3-1.05v-2.956Z" transform="translate(-4.311 -3.75)"/><path id="_Path_2" data-name="&lt;Path&gt;" class="cls-3" d="M89.447,150.6,67.8,134.328,45.238,150.6s-7.265,20.43-9.431,63.99c0,0,2.781,8.641,13.972,6.857s9.381-8.271,9.381-8.271-5.153-15.012-.631-51.546c.622-5.025,4.525-9.459,8.815-9.459,4.96,0,8.055,4.452,8.814,9.459,3.791,25.034-.631,51.546-.631,51.546-1.222,9.987,6.469,5.584,13.624,6.286s9.5-4.872,9.5-4.872C96.487,171.033,89.447,150.6,89.447,150.6Z" transform="translate(-4.311 -3.75)"/><path id="_Path_3" data-name="&lt;Path&gt;" class="cls-4" d="M42.287,119.222c-2.317,15.445-5.629,23.623-9.369,31.2-2.3,4.656-3.761,9.393-5.61,12.966-.4-.034-.688-.055-.688-.055s-9.528-.7-10.133,2.048,8.111,2.662,8.111,2.662-7.683,12.3-5.33,13.57c3.025,1.639,7.9-8.45,7.9-8.45s-3.77,9.713-1.432,10.994,5.5-9.179,5.5-9.179-1.235,8.66.367,9.368,4.052-8.265,4.661-10.551c.995-3.734,3.4-4.442,6.019-13.609L52.3,126.654l.625-9.326-10.641,1.895" transform="translate(-4.311 -3.75)"/><path id="_Path_4" data-name="&lt;Path&gt;" class="cls-5" d="M92.363,119.222,79.947,117l2.106,10.417,10.311,32.77c2.623,9.167,5.025,9.875,6.019,13.609.609,2.286,3.059,11.259,4.661,10.551s.367-9.368.367-9.368,3.165,10.46,5.5,9.179-1.432-10.994-1.432-10.994,4.875,10.088,7.9,8.45c2.353-1.275-5.33-13.57-5.33-13.57s8.716.09,8.111-2.662-10.133-2.048-10.133-2.048-.287.021-.688.055c-1.849-3.573-3.312-8.31-5.61-12.966-3.74-7.577-7.052-15.755-9.369-31.2" transform="translate(-4.311 -3.75)"/><path id="_Path_5" data-name="&lt;Path&gt;" class="cls-6" d="M99.264,154.107,67.128,130.439,35.386,154.107c-5.755,6.72,14.392,10.879,31.939,10.879C83.88,164.986,105.019,160.827,99.264,154.107Z" transform="translate(-4.311 -3.75)"/><path id="_Path_6" data-name="&lt;Path&gt;" class="cls-6" d="M13.836,85.763C6.255,86.426,3.762,90.8,4.953,94.6c2.733,8.7-.642,11.92-.642,11.92s15.13,4.629,18.262-9.353C24.184,89.973,13.836,85.763,13.836,85.763Z" transform="translate(-4.311 -3.75)"/><path id="_Path_7" data-name="&lt;Path&gt;" class="cls-6" d="M125.548,69.539c-4.354-3.257,2.742-7.288,2.608-17.272a4.355,4.355,0,0,0-2.24-4.08,5.442,5.442,0,0,1-3.027-4.929c.552-15.312.731-25.7-9.719-34.772C103.8.355,81.264,1.582,68.018,20.971,57.564,3.75,35.3.385,25.422,6.791c-12.423,8.058-12.6,20.688-12.3,35.6a5.754,5.754,0,0,1-3.754,5.5,4.343,4.343,0,0,0-2.873,4.374C6.36,62.251,13.455,66.282,9.1,69.539c-5.394,4.036-5.75,9.943-1.037,13.96s9.463,2.708,15.73-1.22,2.9-6.808,0-9.689c-1.51-1.5.681-2.138,3.088-3.733h80.884c2.407,1.595,4.6,2.233,3.088,3.733-2.9,2.88-6.267,5.761,0,9.689s11.016,5.237,15.73,1.22S130.943,73.575,125.548,69.539Z" transform="translate(-4.311 -3.75)"/><g id="_Group_" data-name="&lt;Group&gt;"><path id="_Path_8" data-name="&lt;Path&gt;" class="cls-7" d="M122.608,80.267a9.364,9.364,0,0,0-2.547-14.584c-1.059-5.573-4.128-18.84-10.782-28.746-3.209-4.778-9-7.2-17.206-7.2-9.687,0-20.362,3.391-24.149,4.71-3.775-1.321-14.4-4.71-24.043-4.71-8.179,0-13.954,2.422-17.164,7.2-6.654,9.906-9.723,23.174-10.782,28.747A9.365,9.365,0,0,0,13.39,80.266a9.166,9.166,0,0,0,5.371,2.726c.209.5.46,1.043.75,1.628a35.2,35.2,0,0,0,4.283-2.34c6.267-3.928,2.9-6.808,0-9.689-1.51-1.5.681-2.138,3.088-3.733h80.884c2.407,1.595,4.6,2.233,3.088,3.733-2.9,2.88-6.267,5.761,0,9.689a30.948,30.948,0,0,0,5.4,2.8c.394-.76.722-1.465.984-2.088A9.168,9.168,0,0,0,122.608,80.267Z" transform="translate(-4.311 -3.75)"/></g><path id="_Path_9" data-name="&lt;Path&gt;" class="cls-8" d="M116.614,68.858s-2.551-17.741-10.6-29.726-38.09-.5-38.09-.5-29.886-11.486-37.937.5-10.6,29.726-10.6,29.726c-5.909,0-6.79,11.166,2.2,10.285,0,0,5.584,24.412,46.417,24.412s46.417-24.412,46.417-24.412C123.4,80.024,122.524,68.858,116.614,68.858Z" transform="translate(-4.311 -3.75)"/><g id="_Group_2" data-name="&lt;Group&gt;" class="cls-9"><path id="_Path_10" data-name="&lt;Path&gt;" class="cls-10" d="M68,99.86c-31.232,0-42.749-11.656-46.417-20.718C23.3,85.476,32.521,103.554,68,103.554s44.606-18.173,46.322-24.507C110.654,88.11,99.231,99.86,68,99.86Z" transform="translate(-4.311 -3.75)"/></g><path id="_Path_11" data-name="&lt;Path&gt;" class="cls-11" d="M116.134,71.839l-.925,4.263a2.022,2.022,0,0,0,2.776-1.388C118.778,72.467,116.134,71.839,116.134,71.839Z" transform="translate(-4.311 -3.75)"/><path id="_Path_12" data-name="&lt;Path&gt;" class="cls-11" d="M19.842,71.839l.925,4.263a2.022,2.022,0,0,1-2.776-1.388C17.2,72.467,19.842,71.839,19.842,71.839Z" transform="translate(-4.311 -3.75)"/><g id="_Group_3" data-name="&lt;Group&gt;"><g id="_Group_4" data-name="&lt;Group&gt;"><g id="_Group_5" data-name="&lt;Group&gt;"><g id="_Group_6" data-name="&lt;Group&gt;"><path id="_Path_13" data-name="&lt;Path&gt;" class="cls-12" d="M54.2,65.769c-.205-6.054-4.584-9.35-9.888-9.35h-.065c-5.412.027-9.494,3.061-9.455,9.633.039,6.545,4.776,9.821,10.116,9.821h.066C50.337,75.847,54.407,72,54.2,65.769Z" transform="translate(-4.311 -3.75)"/><path id="_Compound_Path_" data-name="&lt;Compound Path&gt;" class="cls-11" d="M44.308,54.747h-.046a11.413,11.413,0,0,0-7.933,2.814,11.171,11.171,0,0,0-3.213,8.5c.034,5.716,3.692,11.484,11.788,11.484a10.9,10.9,0,0,0,7.95-3.212,11.53,11.53,0,0,0,3.014-8.622C55.646,59.153,51,54.747,44.308,54.747Zm-9.52,11.307c-.039-6.572,4.043-9.606,9.455-9.633h.065c5.3,0,9.683,3.3,9.888,9.35.211,6.23-3.86,10.077-9.226,10.1H44.9C39.564,75.874,34.827,72.6,34.788,66.053Z" transform="translate(-4.311 -3.75)"/></g><g id="_Group_7" data-name="&lt;Group&gt;"><path id="_Path_14" data-name="&lt;Path&gt;" class="cls-12" d="M92.428,56.42h-.065c-5.3,0-9.683,3.3-9.888,9.35-.211,6.23,3.86,10.077,9.226,10.1h.066c5.34,0,10.077-3.276,10.116-9.821C101.922,59.481,97.84,56.447,92.428,56.42Z" transform="translate(-4.311 -3.75)"/><path id="_Compound_Path_2" data-name="&lt;Compound Path&gt;" class="cls-11" d="M100.343,57.56a11.389,11.389,0,0,0-7.906-2.814h-.073c-6.692,0-11.338,4.407-11.56,10.966a11.53,11.53,0,0,0,3.014,8.622,10.851,10.851,0,0,0,7.875,3.212c8.171,0,11.829-5.768,11.863-11.484A11.172,11.172,0,0,0,100.343,57.56ZM91.768,75.874H91.7c-5.367-.027-9.437-3.875-9.226-10.1.205-6.054,4.584-9.35,9.888-9.35h.065c5.412.027,9.494,3.061,9.455,9.633C101.844,72.6,97.108,75.874,91.768,75.874Z" transform="translate(-4.311 -3.75)"/></g><g id="_Group_8" data-name="&lt;Group&gt;"><path id="_Path_15" data-name="&lt;Path&gt;" class="cls-3" d="M96.655,61a6.912,6.912,0,0,0-4.348-1.524,6.687,6.687,0,1,0,0,13.37,7.132,7.132,0,0,0,4.836-1.956,1.2,1.2,0,0,0,0-1.731c-.858-.76-2.059-1.981-2.572-2.531a1.236,1.236,0,0,1,.043-1.751A28.592,28.592,0,0,0,96.749,62.8,1.234,1.234,0,0,0,96.655,61Z" transform="translate(-4.311 -3.75)"/></g><g id="_Group_9" data-name="&lt;Group&gt;"><path id="_Path_16" data-name="&lt;Path&gt;" class="cls-12" d="M92.25,68.43a1.26,1.26,0,0,0-1.672.608,1.075,1.075,0,0,0,.5,1.607,1.284,1.284,0,0,0,1.725-.651A1.036,1.036,0,0,0,92.25,68.43Z" transform="translate(-4.311 -3.75)"/></g><g id="_Group_10" data-name="&lt;Group&gt;"><path id="_Path_17" data-name="&lt;Path&gt;" class="cls-3" d="M40.017,61a6.912,6.912,0,0,1,4.348-1.524,6.687,6.687,0,1,1,0,13.37,7.132,7.132,0,0,1-4.836-1.956,1.2,1.2,0,0,1,0-1.731c.858-.76,2.059-1.981,2.572-2.531a1.236,1.236,0,0,0-.043-1.751A28.592,28.592,0,0,1,39.923,62.8,1.234,1.234,0,0,1,40.017,61Z" transform="translate(-4.311 -3.75)"/></g><g id="_Group_11" data-name="&lt;Group&gt;"><path id="_Path_18" data-name="&lt;Path&gt;" class="cls-12" d="M45.424,68.43a1.26,1.26,0,0,0-1.672.608,1.075,1.075,0,0,0,.5,1.607,1.284,1.284,0,0,0,1.725-.651A1.036,1.036,0,0,0,45.424,68.43Z" transform="translate(-4.311 -3.75)"/></g></g></g></g><g id="_Group_12" data-name="&lt;Group&gt;"><g id="_Group_13" data-name="&lt;Group&gt;"><path id="_Path_19" data-name="&lt;Path&gt;" class="cls-13" d="M48.36,91.74a42.574,42.574,0,0,0,2.46-6.924H42.484a45.72,45.72,0,0,0,1.791,6.739A11.423,11.423,0,0,1,48.36,91.74Z" transform="translate(-4.311 -3.75)"/><path id="_Path_20" data-name="&lt;Path&gt;" class="cls-14" d="M44.275,91.555c.56,1.452,1.214,2.561,1.9,2.561.742,0,1.5-1.017,2.182-2.376A11.423,11.423,0,0,0,44.275,91.555Z" transform="translate(-4.311 -3.75)"/></g><g id="_Group_14" data-name="&lt;Group&gt;"><path id="_Path_21" data-name="&lt;Path&gt;" class="cls-13" d="M87.638,91.74a42.574,42.574,0,0,1-2.46-6.924h8.335a45.72,45.72,0,0,1-1.791,6.739A11.423,11.423,0,0,0,87.638,91.74Z" transform="translate(-4.311 -3.75)"/><path id="_Path_22" data-name="&lt;Path&gt;" class="cls-14" d="M91.723,91.555c-.56,1.452-1.214,2.561-1.9,2.561-.742,0-1.5-1.017-2.182-2.376A11.423,11.423,0,0,1,91.723,91.555Z" transform="translate(-4.311 -3.75)"/></g></g><g id="_Group_15" data-name="&lt;Group&gt;"><path id="_Path_23" data-name="&lt;Path&gt;" class="cls-3" d="M68.338,90.276c-27.178,0-33.761-10.879-34.027-11.342a1.968,1.968,0,0,1,3.4-1.985c.118.188,6.157,9.391,30.629,9.391,24.5,0,29.853-9.216,29.9-9.309a1.981,1.981,0,0,1,2.654-.805,1.957,1.957,0,0,1,.838,2.622C101.5,79.315,95.584,90.276,68.338,90.276Z" transform="translate(-4.311 -3.75)"/></g><g id="_Group_16" data-name="&lt;Group&gt;"><path id="_Path_24" data-name="&lt;Path&gt;" class="cls-6" d="M103.356,53.615c-.914,0-2.534-4.2-4.74-5.284a1.968,1.968,0,1,1,1.736-3.533c3.959,1.945,4.47,8.555,3.406,8.776A2.056,2.056,0,0,1,103.356,53.615Z" transform="translate(-4.311 -3.75)"/></g><g id="_Group_17" data-name="&lt;Group&gt;"><path id="_Path_25" data-name="&lt;Path&gt;" class="cls-6" d="M32.853,53.615c.914,0,2.534-4.2,4.74-5.284A1.968,1.968,0,1,0,35.857,44.8c-3.959,1.945-4.47,8.555-3.406,8.776A2.056,2.056,0,0,0,32.853,53.615Z" transform="translate(-4.311 -3.75)"/></g><path id="_Path_26" data-name="&lt;Path&gt;" class="cls-6" d="M120.814,85.763c7.581.663,10.074,5.041,8.883,8.833-2.733,8.7.642,11.92.642,11.92s-15.13,4.629-18.262-9.353C110.466,89.973,120.814,85.763,120.814,85.763Z" transform="translate(-4.311 -3.75)"/><path id="_Path_27" data-name="&lt;Path&gt;" class="cls-14" d="M125.541,83.711a2.626,2.626,0,0,0-5.2.655,2.626,2.626,0,1,0-4.95,1.744c0,.021,0,.043.009.064.53,2.815,6.065,4.144,6.065,4.144s4.674-3.25,4.144-6.064c-.006-.032-.015-.062-.022-.093A2.631,2.631,0,0,0,125.541,83.711Z" transform="translate(-4.311 -3.75)"/><path id="_Path_28" data-name="&lt;Path&gt;" class="cls-14" d="M6.942,83.711a2.626,2.626,0,0,1,5.2.655,2.626,2.626,0,1,1,4.95,1.744c0,.021,0,.043-.009.064-.53,2.815-6.065,4.144-6.065,4.144s-4.674-3.25-4.144-6.064c.006-.032.015-.062.022-.093A2.631,2.631,0,0,1,6.942,83.711Z" transform="translate(-4.311 -3.75)"/><path id="_Path_29" data-name="&lt;Path&gt;" class="cls-7" d="M67.146,38.031c4.144,2.426.735,8.569-2.161,6.291-1.689,8.656,17.438,4.119,9.2-8.45C72,34.8,67.146,38.031,67.146,38.031Z" transform="translate(-4.311 -3.75)"/><g id="_Group_18" data-name="&lt;Group&gt;"><path id="_Path_30" data-name="&lt;Path&gt;" class="cls-14" d="M37.954,188.255c2.082.253,11.9,1.368,18.72.725,0-1.946.037-4.01.115-6.214-6.146-.786-15.729-1.084-18-1.146Q38.361,184.773,37.954,188.255Z" transform="translate(-4.311 -3.75)"/><path id="_Path_31" data-name="&lt;Path&gt;" class="cls-14" d="M40.927,168.377q-.572,3.044-1.151,6.625c1.095-.088,11.286-.833,17.335,1.479q.19-2.918.478-6.093C52.317,166.475,42.405,168.106,40.927,168.377Z" transform="translate(-4.311 -3.75)"/><path id="_Path_32" data-name="&lt;Path&gt;" class="cls-6" d="M39.776,175c-.332,2.067-.661,4.28-.982,6.618,2.266.061,11.849.36,18,1.146.07-1.986.178-4.085.321-6.285C51.062,174.169,40.871,174.914,39.776,175Z" transform="translate(-4.311 -3.75)"/><path id="_Path_33" data-name="&lt;Path&gt;" class="cls-6" d="M36.645,201.653q-.252,3.146-.468,6.493c2.122.83,13.044,4.649,21.721-.795-.265-1.678-.529-3.729-.744-6.187C49.557,204.874,39.569,202.487,36.645,201.653Z" transform="translate(-4.311 -3.75)"/><path id="_Path_34" data-name="&lt;Path&gt;" class="cls-14" d="M36.177,208.147c-.135,2.095-.261,4.233-.371,6.446,0,0,2.781,8.641,13.972,6.857s9.381-8.271,9.381-8.271a38.99,38.99,0,0,1-1.261-5.828C49.221,212.8,38.3,208.977,36.177,208.147Z" transform="translate(-4.311 -3.75)"/><path id="_Path_35" data-name="&lt;Path&gt;" class="cls-14" d="M37.241,194.925q-.316,3.241-.6,6.729c2.924.834,12.912,3.22,20.509-.489-.156-1.783-.283-3.788-.369-6C49.555,197.264,39.68,195.435,37.241,194.925Z" transform="translate(-4.311 -3.75)"/><g id="_Group_19" data-name="&lt;Group&gt;"><path id="_Path_36" data-name="&lt;Path&gt;" class="cls-6" d="M42.3,161.671c-.438,1.971-.9,4.2-1.371,6.706,1.478-.271,11.39-1.9,16.662,2.011q.253-2.783.588-5.762C53.886,159.013,44.557,161.055,42.3,161.671Z" transform="translate(-4.311 -3.75)"/><path id="_Path_37" data-name="&lt;Path&gt;" class="cls-3" d="M89.447,150.6,67.8,134.328,45.238,150.6A105.339,105.339,0,0,0,42.3,161.671c2.259-.616,11.588-2.658,15.878,2.955.11-.982.226-1.975.351-2.993.622-5.025,4.525-9.459,8.815-9.459,4.96,0,8.055,4.452,8.814,9.459.148.976.279,1.953.4,2.932,4.29-5.612,13.569-3.51,15.827-2.894A105.339,105.339,0,0,0,89.447,150.6Z" transform="translate(-4.311 -3.75)"/></g><path id="_Path_38" data-name="&lt;Path&gt;" class="cls-6" d="M37.954,188.255q-.372,3.2-.713,6.67c2.44.51,12.314,2.339,19.544.239q-.11-2.848-.111-6.184C49.858,189.623,40.035,188.508,37.954,188.255Z" transform="translate(-4.311 -3.75)"/><path id="_Path_39" data-name="&lt;Path&gt;" class="cls-6" d="M98.5,208.054q-.218-3.376-.474-6.545c-2.065.631-12.973,3.639-21.091-.388-.2,2.313-.409,4.367-.609,6.094C85.422,213.113,97.115,208.621,98.5,208.054Z" transform="translate(-4.311 -3.75)"/><path id="_Path_40" data-name="&lt;Path&gt;" class="cls-6" d="M97.442,194.911q-.338-3.469-.711-6.656c-2.122.258-12.283,1.41-19.108.684-.056,2.118-.145,4.153-.253,6.083C84.7,197.365,95.076,195.41,97.442,194.911Z" transform="translate(-4.311 -3.75)"/><path id="_Path_41" data-name="&lt;Path&gt;" class="cls-14" d="M98.027,201.509q-.275-3.416-.585-6.6c-2.366.5-12.74,2.454-20.073.111-.123,2.184-.273,4.223-.433,6.1C85.054,205.148,95.962,202.14,98.027,201.509Z" transform="translate(-4.311 -3.75)"/><path id="_Path_42" data-name="&lt;Path&gt;" class="cls-14" d="M98.5,208.054c-1.386.568-13.079,5.059-22.174-.839-.433,3.745-.8,5.965-.8,5.965-1.222,9.987,6.469,5.584,13.624,6.286s9.5-4.872,9.5-4.872C98.542,212.347,98.638,210.177,98.5,208.054Z" transform="translate(-4.311 -3.75)"/><path id="_Path_43" data-name="&lt;Path&gt;" class="cls-6" d="M93.757,168.377c-.472-2.511-.934-4.736-1.371-6.706-2.259-.616-11.537-2.719-15.827,2.894q.365,2.891.6,5.775C82.445,166.487,92.285,168.107,93.757,168.377Z" transform="translate(-4.311 -3.75)"/><path id="_Path_44" data-name="&lt;Path&gt;" class="cls-14" d="M94.9,174.978q-.573-3.566-1.148-6.6c-1.472-.27-11.312-1.89-16.6,1.963.174,2.112.3,4.21.385,6.28C83.165,174.3,92.8,174.828,94.9,174.978Z" transform="translate(-4.311 -3.75)"/><path id="_Path_45" data-name="&lt;Path&gt;" class="cls-6" d="M94.9,174.978c-2.1-.15-11.74-.682-17.362,1.642.086,2.079.133,4.129.144,6.132,6.5-.82,16.735-1.1,18.2-1.14C95.567,179.268,95.238,177.05,94.9,174.978Z" transform="translate(-4.311 -3.75)"/><path id="_Path_46" data-name="&lt;Path&gt;" class="cls-14" d="M96.731,188.255q-.406-3.488-.841-6.643c-1.468.037-11.7.32-18.2,1.14.012,2.121-.012,4.191-.065,6.187C84.448,189.665,94.609,188.513,96.731,188.255Z" transform="translate(-4.311 -3.75)"/></g><path id="_Path_47" data-name="&lt;Path&gt;" class="cls-15" d="M83.71,126.654c-6.412-1.358-11.862-5.792-16.369-5.792-11.022,0-16.4,5.792-16.4,5.792S43.3,136.718,35.386,154.107c0,0,7.672-5.9,31.927-5.869,24.274-.034,31.951,5.869,31.951,5.869C91.291,138.333,83.71,126.654,83.71,126.654Z" transform="translate(-4.311 -3.75)"/><path id="_Path_48" data-name="&lt;Path&gt;" class="cls-16" d="M84.028,121.748s1.613-1.107,7.241-2.3q.524-.111,1.095-.224s-1.791-8.639-4.168-9.139c-2.125-.447-5.092-.928-7.712-1.323-.764,3.948-1.431,9.406,3.372,12.988Z" transform="translate(-4.311 -3.75)"/><path id="_Path_49" data-name="&lt;Path&gt;" class="cls-17" d="M46.455,110.083c-2.377.5-4.168,9.139-4.168,9.139q.571.112,1.095.224c5.628,1.2,7.241,2.3,7.241,2.3h.172c8.271-1.963,4.384-8.1,3.372-12.988C51.546,109.155,48.58,109.636,46.455,110.083Z" transform="translate(-4.311 -3.75)"/><path id="_Path_50" data-name="&lt;Path&gt;" class="cls-18" d="M83.856,121.748c-.128-3.714-.833-8.861-3.372-12.988-3.185-.479-5.855-.83-5.855-.83s.051,5.4-7.3,5.306c-7.361.1-7.309-5.306-7.309-5.306s-2.67.351-5.855.83c-2.539,4.127-3.244,9.273-3.372,12.988a34.982,34.982,0,0,0,.146,4.905s10.678-4.68,32.77,0A34.982,34.982,0,0,0,83.856,121.748Z" transform="translate(-4.311 -3.75)"/><path id="_Path_51" data-name="&lt;Path&gt;" class="cls-6" d="M35.806,214.593c.014.033-.033-.014,0,0,15.058,6.657,23.353-1.414,23.353-1.414s12.474,12.164-2.732,15.878c-10,2.443-15.356-2.343-18.807-6.465A9.567,9.567,0,0,1,35.806,214.593Z" transform="translate(-4.311 -3.75)"/><path id="_Path_52" data-name="&lt;Path&gt;" class="cls-6" d="M98.653,214.593c-.014.033.033-.014,0,0-15.058,6.657-23.128-1.414-23.128-1.414s-12.7,12.164,2.507,15.878c10,2.443,15.356-2.343,18.807-6.465A9.567,9.567,0,0,0,98.653,214.593Z" transform="translate(-4.311 -3.75)"/><circle id="_Path_53" data-name="&lt;Path&gt;" class="cls-14" cx="62.996" cy="109.5" r="2.13"/><g id="_Group_20" data-name="&lt;Group&gt;"><path id="_Path_54" data-name="&lt;Path&gt;" class="cls-19" d="M91.186,205.226a2.881,2.881,0,0,1,2.115-3.884c2.216-.331,3.013.788,3.238,3.031.33,3.288-.018,7.828-2.609,8.364a1.745,1.745,0,0,1-2.13-.878C90.716,209.8,92.339,208.986,91.186,205.226Z" transform="translate(-4.311 -3.75)"/><path id="_Path_55" data-name="&lt;Path&gt;" class="cls-19" d="M92.687,194.781a2.682,2.682,0,0,0-2.433,3.112c.154,1.871,1.41,2.9,2.894,2.734a2.737,2.737,0,0,0,2.48-3.26C95.416,195.4,94.184,194.619,92.687,194.781Z" transform="translate(-4.311 -3.75)"/><path id="_Compound_Path_3" data-name="&lt;Compound Path&gt;" class="cls-19" d="M87.472,200.2a1.79,1.79,0,0,0,.5,2.466,1.846,1.846,0,0,0,2.538-.116A1.824,1.824,0,0,0,90,199.942,1.673,1.673,0,0,0,87.472,200.2Z" transform="translate(-4.311 -3.75)"/><path id="_Compound_Path_4" data-name="&lt;Compound Path&gt;" class="cls-19" d="M87.612,204.7a1.274,1.274,0,0,0,2.45.666,1.21,1.21,0,0,0-.954-1.554A1.172,1.172,0,0,0,87.612,204.7Z" transform="translate(-4.311 -3.75)"/></g></g></g></svg>