<?xml version="1.0" encoding="utf-8"?>
<!-- Generator: Adobe Illustrator 20.0.0, SVG Export Plug-In . SVG Version: 6.00 Build 0)  -->
<svg version="1.1" id="Isolation_Mode" xmlns="http://www.w3.org/2000/svg" xmlns:xlink="http://www.w3.org/1999/xlink" x="0px"
	 y="0px" width="266px" height="100px" viewBox="0 0 266 100" style="enable-background:new 0 0 266 100;" xml:space="preserve">
<style type="text/css">
	.st0{fill:url(#SVGID_1_);}
	.st1{fill:url(#SVGID_2_);}
	.st2{fill:#717A6A;}
	.st3{opacity:0.5;fill:#717A6A;enable-background:new    ;}
	.st4{fill:#798173;}
	.st5{fill:#989F94;}
	.st6{fill:url(#SVGID_3_);}
	.st7{fill:url(#SVGID_4_);}
</style>
<g>
	
		<linearGradient id="SVGID_1_" gradientUnits="userSpaceOnUse" x1="41.4954" y1="113.2551" x2="119.4776" y2="-10.7167" gradientTransform="matrix(1 0 0 -1 0 120)">
		<stop  offset="0" style="stop-color:#90978B"/>
		<stop  offset="0.3599" style="stop-color:#899184"/>
		<stop  offset="1" style="stop-color:#81897B"/>
	</linearGradient>
	<path class="st0" d="M101.22,8.906c13.914,1.864,28.532,5.403,38.289,15.496c11.848,12.256,13.548,30.822,14.596,47.836
		C154.737,82.492,155.368,92.746,156,103c-47.108,5.73-95.567-10.386-141.897-0.114c2.108-0.467-9.902-76.852-3.034-86.294
		c6.647-9.138,31.271-8.623,41.356-9.39C69.264,5.921,84.48,6.664,101.22,8.906z"/>
	
		<linearGradient id="SVGID_2_" gradientUnits="userSpaceOnUse" x1="14.9786" y1="56.9277" x2="121.6453" y2="46.9277" gradientTransform="matrix(1 0 0 -1 0 120)">
		<stop  offset="0" style="stop-color:#798173"/>
		<stop  offset="0.5376" style="stop-color:#697363"/>
		<stop  offset="1" style="stop-color:#616B5A"/>
	</linearGradient>
	<polygon class="st1" points="6.425,16.203 59.425,35.869 110.091,35.869 118.425,108.536 12.091,108.869 	"/>
	<path class="st2" d="M139.509,24.402c-1.086-1.123-2.241-2.153-3.439-3.121l-26.979,15.588l3.719,66.654
		c14.456,0.938,28.885,1.217,43.19-0.523c-0.632-10.254-1.263-20.508-1.895-30.761C153.058,55.224,151.357,36.658,139.509,24.402z"
		/>
	<path class="st3" d="M156,103c-0.632-10.254-1.263-20.508-1.895-30.761c-0.858-13.928-2.157-28.894-9.098-40.589
		c-6.383,0.734-12.417,5.304-14.25,9.886c-7.786,19.765-11.265,40.966-12.375,62.312C130.973,104.498,143.534,104.516,156,103z"/>
	<polygon class="st4" points="59.425,35.869 56.758,113.203 21.425,113.203 13.758,20.036 	"/>
	<polygon class="st5" points="13.758,20.036 59.258,33.036 107.258,34.536 136.446,21.473 109.258,39.536 58.758,38.036 	"/>
</g>
<g>
	
		<linearGradient id="SVGID_3_" gradientUnits="userSpaceOnUse" x1="185.2728" y1="81.9538" x2="202.0228" y2="20.2039" gradientTransform="matrix(1 0 0 -1 0 120)">
		<stop  offset="0" style="stop-color:#90978B"/>
		<stop  offset="0.3599" style="stop-color:#899184"/>
		<stop  offset="1" style="stop-color:#81897B"/>
	</linearGradient>
	<path class="st6" d="M248.758,36.869c0,0,16.667,22.667,12.553,75.421c-21.458,3.976-43.456,3.575-65.275,3.161
		c-18.614-0.353-37.228-0.707-55.842-1.06c-3.337-0.063-7.847-38.441-8.269-42.52c-0.936-9.061-3.555-22.183,2.279-30.272
		c5.851-8.113,18.737-8.981,27.73-9.915C214.758,26.203,248.758,36.869,248.758,36.869z"/>
	
		<linearGradient id="SVGID_4_" gradientUnits="userSpaceOnUse" x1="131.2507" y1="41.8881" x2="236.5008" y2="26.638" gradientTransform="matrix(1 0 0 -1 0 120)">
		<stop  offset="0" style="stop-color:#798173"/>
		<stop  offset="0.5376" style="stop-color:#697363"/>
		<stop  offset="1" style="stop-color:#616B5A"/>
	</linearGradient>
	<path class="st7" d="M227.258,57.036l-5.5,7l-80-11c0,0-5.786-1.578-10.817-2.865c-1.12,7.163,0.334,15.409,0.984,21.7
		c0.421,4.078,4.931,42.456,8.269,42.52c18.614,0.353,37.228,0.707,55.842,1.06c16.091,0.306,32.278,0.598,48.275-0.862
		L227.258,57.036z"/>
	<path class="st2" d="M248.076,36.668l-28.818,28.368c0,0,6.103,27.382,11.488,50.407c10.257-0.388,20.471-1.283,30.565-3.153
		c4.113-52.754-12.553-75.421-12.553-75.421S248.513,36.793,248.076,36.668z"/>
	<polygon class="st5" points="248.091,36.703 218.091,62.203 162.758,53.536 131.091,50.203 162.758,58.203 220.091,68.703 	"/>
</g>
</svg>
