<?xml version="1.0" encoding="utf-8"?>
<!-- Generator: Adobe Illustrator 20.0.0, SVG Export Plug-In . SVG Version: 6.00 Build 0)  -->
<svg version="1.1" id="Isolation_Mode" xmlns="http://www.w3.org/2000/svg" xmlns:xlink="http://www.w3.org/1999/xlink" x="0px"
	 y="0px" width="362px" height="130px" viewBox="0 0 362 130" style="enable-background:new 0 0 362 130;" xml:space="preserve">
<style type="text/css">
	.st0{fill:url(#SVGID_1_);}
	.st1{fill:url(#SVGID_2_);}
	.st2{fill:#717A6A;}
	.st3{fill:#989F94;}
	.st4{opacity:0.3;fill:#717A6A;}
	.st5{fill:url(#SVGID_3_);}
	.st6{fill:url(#SVGID_4_);}
	.st7{fill:#798173;}
	.st8{opacity:0.5;fill:#717A6A;}
	.st9{fill:url(#SVGID_5_);}
	.st10{fill:url(#SVGID_6_);}
</style>
<g>
	<g>
		<linearGradient id="SVGID_1_" gradientUnits="userSpaceOnUse" x1="92.8086" y1="71.7428" x2="229.8518" y2="85.1784">
			<stop  offset="0" style="stop-color:#798173"/>
			<stop  offset="0.5376" style="stop-color:#697363"/>
			<stop  offset="1" style="stop-color:#616B5A"/>
		</linearGradient>
		<path class="st0" d="M93.513,51.449c0.21-7.485,0.587-15.56,4.294-21.35c2.285-3.568,5.574-5.808,8.846-7.738
			c20.624-12.162,43.693-15.496,66.356-17.215c27.174-2.062,55.451-1.773,80.222,12.693c4.039,2.359,8.214,5.426,10.057,10.601
			c1.115,3.131,1.233,6.672,1.333,10.111c0.556,19.096,1.113,38.192,1.669,57.287c0.187,6.41,0.341,13.059-1.601,18.971
			c-3.229,9.83-11.362,15.253-19.009,19.462c-37.274,20.518-79.969,30.969-118.467,14.578c-8.484-3.612-16.809-8.624-23.206-16.626
			C87.496,111.572,92.774,77.774,93.513,51.449z"/>
		<linearGradient id="SVGID_2_" gradientUnits="userSpaceOnUse" x1="154.2832" y1="4.1" x2="230.6351" y2="88.419">
			<stop  offset="0" style="stop-color:#90978B"/>
			<stop  offset="0.3599" style="stop-color:#899184"/>
			<stop  offset="1" style="stop-color:#81897B"/>
		</linearGradient>
		<path class="st1" d="M210.513,55.78l50.661-31.283c-2.124-2.915-5.061-4.976-7.944-6.659
			C228.46,3.372,200.183,3.084,173.009,5.146c-22.663,1.72-45.732,5.053-66.356,17.215c-3.272,1.93-6.562,4.169-8.846,7.738
			c-1.234,1.927-2.093,4.11-2.705,6.437L210.513,55.78z"/>
		<path class="st2" d="M264.688,114.809c1.942-5.912,1.788-12.561,1.601-18.971c-0.556-19.096-1.113-38.192-1.669-57.287
			c-0.1-3.439-0.219-6.98-1.333-10.111c-0.556-1.56-1.341-2.91-2.253-4.125l-50.646,30.345l6.305,92.91
			c9.903-3.619,19.616-8.139,28.986-13.297C253.327,130.062,261.459,124.639,264.688,114.809z"/>
		<polygon class="st3" points="95.555,34.264 209.68,51.296 261.175,24.498 211.013,60.265 94.555,38.535 		"/>
		<path class="st4" d="M127.212,148.85c27.342,11.641,56.798,9.734,84.928,0.307c-0.217-1.449-0.443-2.832-0.586-4.043
			c-1.685-14.336-4.688-28.142-7-42.302c-1.595-9.766-3.653-27.344-9.999-33.951c-5.333-5.553-29.833-12.173-60.333-14.095
			c-12.476-0.786-28.167-0.854-40.833,0.854c-0.944,25.983-5.435,56.525,10.617,76.604
			C110.403,140.226,118.728,145.238,127.212,148.85z"/>
	</g>
	<g>
		<linearGradient id="SVGID_3_" gradientUnits="userSpaceOnUse" x1="79.6811" y1="70.3618" x2="110.081" y2="158.6386">
			<stop  offset="0" style="stop-color:#90978B"/>
			<stop  offset="0.3599" style="stop-color:#899184"/>
			<stop  offset="1" style="stop-color:#81897B"/>
		</linearGradient>
		<path class="st5" d="M7.048,96.865c0.151-5.264,0.493-11.038,3.358-14.815c1.817-2.394,4.371-3.577,6.841-4.644
			C71.037,54.164,129.846,50.33,185.2,66.459c1.861,0.543,3.811,1.169,5.202,2.844c1.469,1.77,2.059,4.399,2.563,6.9
			c6.948,34.446,9.352,70.39,7.079,105.849c-0.103,1.612-0.256,3.345-1.097,4.551c-0.861,1.234-2.227,1.608-3.498,1.906
			c-46.6,10.944-94.319,10.521-141.689,9.567c-12.186-0.245-43.901,3.954-46.772-15.521C3.06,155.911,6.273,123.875,7.048,96.865z"
			/>
		<linearGradient id="SVGID_4_" gradientUnits="userSpaceOnUse" x1="51.9095" y1="124.3898" x2="186.3299" y2="145.3824">
			<stop  offset="0" style="stop-color:#798173"/>
			<stop  offset="0.5376" style="stop-color:#697363"/>
			<stop  offset="1" style="stop-color:#616B5A"/>
		</linearGradient>
		<path class="st6" d="M192.965,76.203c-0.505-2.501-1.094-5.13-2.563-6.9c-0.117-0.141-0.244-0.265-0.369-0.392l-30.145,30.275
			l-63.667,9.824l-36-9.824L10.691,81.716c-0.094,0.113-0.194,0.216-0.284,0.335c-2.866,3.776-3.207,9.551-3.358,14.815
			c-0.775,27.009-3.988,59.046-0.061,85.689c2.871,19.475,34.586,15.276,46.772,15.521c47.37,0.954,95.089,1.377,141.689-9.566
			c1.271-0.299,2.637-0.673,3.498-1.906c0.841-1.206,0.994-2.939,1.097-4.551C202.317,146.593,199.914,110.649,192.965,76.203z"/>
		<path class="st7" d="M90.388,108.797L10.052,82.561c-2.534,3.774-2.859,9.27-3.003,14.304
			c-0.775,27.009-3.988,59.046-0.061,85.689c2.871,19.475,34.586,15.276,46.772,15.521c9.202,0.185,18.417,0.347,27.635,0.413
			L90.388,108.797z"/>
		<path class="st2" d="M198.947,186.603c0.841-1.206,0.994-2.939,1.097-4.551c2.273-35.459-0.13-71.402-7.079-105.849
			c-0.505-2.501-1.094-5.13-2.563-6.9c-0.207-0.249-0.428-0.468-0.657-0.674l-31.523,29.276l15.44,94.892
			c7.285-1.192,14.551-2.589,21.788-4.288C196.72,188.211,198.086,187.837,198.947,186.603z"/>
		<polygon class="st3" points="10.263,82.155 11.18,81.141 90.888,104.312 154.888,95.343 189.701,68.434 190.402,69.303 
			159.388,103.672 91.388,114.564 		"/>
	</g>
	<path class="st8" d="M265.138,55.46c-7.767,2.371-21.322,6.573-24.875,16.818c-5,24.987-5.74,41.481-4.99,67.379
		c3.509-1.702,6.981-3.5,10.406-5.385c7.647-4.21,15.779-9.633,19.009-19.463c1.942-5.912,1.788-12.561,1.601-18.971
		C265.884,81.935,265.543,69.362,265.138,55.46z"/>
	<g>
		<linearGradient id="SVGID_5_" gradientUnits="userSpaceOnUse" x1="260.063" y1="107.9175" x2="332.9547" y2="119.9515">
			<stop  offset="0" style="stop-color:#798173"/>
			<stop  offset="0.5376" style="stop-color:#697363"/>
			<stop  offset="1" style="stop-color:#616B5A"/>
		</linearGradient>
		<path class="st9" d="M249.888,165.178c0.272-27.653-4.5-55.132-4.5-82.791c0-7.712-2.29-13.841,2.976-17.638
			c7.512-5.416,17.726-6.413,26.024-7.528c16.092-2.162,32.127-5.019,48.471-2.943c5.707,0.725,11.528,0.919,16.918,3.246
			c6.882,2.971,8.525,8.162,9.072,17.265c1.19,19.808,1.625,41.506,2.503,61.29c0.549,12.381-0.079,25.599-0.278,37.95
			c-12.261,0.903-21.887,3.483-34.45,3.977c-12.426,0.488-24.939-0.445-37.236-2.493
			C272.347,174.342,257.711,166.104,249.888,165.178z"/>
		<path class="st7" d="M287.555,89.79l-41.946-21.575c-1.456,3.665-0.22,8.486-0.22,14.172c0,27.66,4.772,55.139,4.5,82.791
			c7.823,0.926,22.459,9.164,29.5,10.336c1.765,0.294,3.536,0.558,5.31,0.805L287.555,89.79z"/>
		<path class="st2" d="M351.352,136.079c-0.877-19.784-1.312-41.482-2.503-61.29c-0.431-7.18-1.557-11.919-5.385-15.062
			l-22.242,24.938l17.64,90.779c3.907-0.57,7.895-1.096,12.212-1.414C351.273,161.679,351.901,148.46,351.352,136.079z"/>
		<linearGradient id="SVGID_6_" gradientUnits="userSpaceOnUse" x1="301.7655" y1="69.2871" x2="376.9104" y2="128.2824">
			<stop  offset="0" style="stop-color:#90978B"/>
			<stop  offset="0.3599" style="stop-color:#899184"/>
			<stop  offset="1" style="stop-color:#81897B"/>
		</linearGradient>
		<path class="st10" d="M287.555,91.072l34-5.126l22.788-25.422c-1.187-1.189-2.672-2.183-4.567-3
			c-5.389-2.327-11.211-2.521-16.918-3.246c-16.344-2.076-32.379,0.781-48.471,2.943c-8.298,1.115-18.512,2.111-26.024,7.528
			c-1.195,0.861-1.986,1.849-2.518,2.941L287.555,91.072z"/>
		<polygon class="st3" points="246.221,68.861 287.388,86.694 320.388,81.782 344.221,61.6 322.388,87.975 286.888,95.022 		"/>
	</g>
</g>
</svg>
