<?xml version="1.0" encoding="utf-8"?>
<!-- Generator: Adobe Illustrator 20.0.0, SVG Export Plug-In . SVG Version: 6.00 Build 0)  -->
<svg version="1.1" id="Isolation_Mode" xmlns="http://www.w3.org/2000/svg" xmlns:xlink="http://www.w3.org/1999/xlink" x="0px"
	 y="0px" width="213.919px" height="149.422px" viewBox="0 0 213.919 149.422" style="enable-background:new 0 0 213.919 149.422;"
	 xml:space="preserve">
<style type="text/css">
	.st0{fill:url(#SVGID_1_);}
	.st1{fill:url(#SVGID_2_);}
	.st2{fill:#798173;}
	.st3{fill:#989F94;}
	.st4{opacity:0.5;fill:#717A6A;}
	.st5{fill:url(#SVGID_3_);}
	.st6{fill:url(#SVGID_4_);}
	.st7{fill:#717A6A;}
	.st8{fill:url(#SVGID_5_);}
	.st9{fill:url(#SVGID_6_);}
</style>
<g>
	<g>
		<g>
			
				<linearGradient id="SVGID_1_" gradientUnits="userSpaceOnUse" x1="907.6312" y1="39.7534" x2="947.2979" y2="47.7534" gradientTransform="matrix(-1 0 0 1 1175.7068 0)">
				<stop  offset="0" style="stop-color:#798173"/>
				<stop  offset="0.5376" style="stop-color:#697363"/>
				<stop  offset="1" style="stop-color:#616B5A"/>
			</linearGradient>
			<path class="st0" d="M224.159,8.626c-12.213,3.971-23.5,11.661-30.187,22.625c-7.639,12.527-8.66,27.852-9.479,42.502
				c23.509,2.906,47.017,5.812,70.526,8.719c0.972,0.12,2.083,0.199,2.805-0.463c0.634-0.581,0.734-1.527,0.793-2.385
				c1.367-19.95,2.267-39.931,2.699-59.923c0.263-12.161,1.834-15.015-11.156-14.93C241.367,4.829,232.544,5.9,224.159,8.626z"/>
			
				<linearGradient id="SVGID_2_" gradientUnits="userSpaceOnUse" x1="961.4715" y1="-8.2847" x2="887.4716" y2="75.7153" gradientTransform="matrix(-1 0 0 1 1175.7068 0)">
				<stop  offset="0" style="stop-color:#90978B"/>
				<stop  offset="0.3599" style="stop-color:#899184"/>
				<stop  offset="1" style="stop-color:#81897B"/>
			</linearGradient>
			<path class="st1" d="M224.159,8.626c8.385-2.727,17.208-3.797,26.001-3.855c12.991-0.085,11.419,2.768,11.156,14.93
				c-0.227,10.498-0.59,20.992-1.075,31.481c-18.734-11.952-37.458-21.138-54.912-32.593
				C210.904,14.178,217.387,10.828,224.159,8.626z"/>
			<path class="st2" d="M193.972,31.252c3.046-4.994,6.674-9.1,11.281-12.693l31.62,18.363l-4.918,42.699
				c-15.82-1.956-31.64-3.911-47.461-5.867C185.312,59.104,186.333,43.778,193.972,31.252z"/>
			<polygon class="st3" points="205.329,18.59 236.289,34.422 262.289,30.422 261.956,34.422 236.622,39.755 			"/>
		</g>
		<path class="st4" d="M185.697,58.377c17.258-1.455,32.092-1.955,48.603-1.163c9.092,2.406,17.656,6.359,24.974,11.927
			c-0.211,3.495-0.417,6.99-0.657,10.484c-0.059,0.857-0.159,1.804-0.793,2.385c-0.722,0.662-1.832,0.583-2.805,0.463
			c-7.688-0.95-15.377-1.901-23.065-2.851c-15.82-1.956-31.64-3.911-47.461-5.867c0.102-1.831,0.208-3.673,0.329-5.519
			C185.038,64.948,185.311,61.65,185.697,58.377z"/>
	</g>
	<g>
		
			<linearGradient id="SVGID_3_" gradientUnits="userSpaceOnUse" x1="946.8218" y1="63.6311" x2="1024.8041" y2="187.6029" gradientTransform="matrix(-1 0 0 1 1175.7068 0)">
			<stop  offset="0" style="stop-color:#90978B"/>
			<stop  offset="0.3599" style="stop-color:#899184"/>
			<stop  offset="1" style="stop-color:#81897B"/>
		</linearGradient>
		<path class="st5" d="M169.16,65.792c-13.914,1.864-28.532,5.403-38.289,15.496c-11.848,12.256-13.549,30.821-14.596,47.836
			c-0.632,10.254-1.263,20.508-1.895,30.762c47.108,5.73,95.567-10.386,141.897-0.114c-2.108-0.467,9.902-76.852,3.034-86.294
			c-6.647-9.138-31.271-8.623-41.356-9.39C201.116,62.807,185.9,63.55,169.16,65.792z"/>
		
			<linearGradient id="SVGID_4_" gradientUnits="userSpaceOnUse" x1="920.3051" y1="119.9584" x2="1026.9718" y2="129.9584" gradientTransform="matrix(-1 0 0 1 1175.7068 0)">
			<stop  offset="0" style="stop-color:#798173"/>
			<stop  offset="0.5376" style="stop-color:#697363"/>
			<stop  offset="1" style="stop-color:#616B5A"/>
		</linearGradient>
		<polygon class="st6" points="263.956,73.089 210.956,92.755 160.289,92.755 151.956,165.422 258.289,165.755 		"/>
		<path class="st7" d="M130.871,81.289c1.086-1.123,2.241-2.153,3.439-3.121l26.979,15.588l-3.719,66.654
			c-14.456,0.938-28.885,1.217-43.19-0.523c0.632-10.254,1.263-20.508,1.895-30.762C117.323,112.11,119.023,93.545,130.871,81.289z"
			/>
		<path class="st4" d="M114.38,159.886c0.632-10.254,1.263-20.508,1.895-30.762c0.858-13.928,2.157-28.894,9.098-40.589
			c6.383,0.734,12.417,5.304,14.25,9.886c7.786,19.765,11.265,40.966,12.376,62.312C139.407,161.385,126.846,161.403,114.38,159.886
			z"/>
		<polygon class="st2" points="210.956,92.755 213.622,170.089 248.956,170.089 256.622,76.922 		"/>
		<polygon class="st3" points="256.622,76.922 211.122,89.922 163.122,91.422 133.935,78.36 161.122,96.422 211.622,94.922 		"/>
	</g>
	<g>
		
			<linearGradient id="SVGID_5_" gradientUnits="userSpaceOnUse" x1="1090.5994" y1="94.9323" x2="1107.3494" y2="156.6822" gradientTransform="matrix(-1 0 0 1 1175.7068 0)">
			<stop  offset="0" style="stop-color:#90978B"/>
			<stop  offset="0.3599" style="stop-color:#899184"/>
			<stop  offset="1" style="stop-color:#81897B"/>
		</linearGradient>
		<path class="st8" d="M21.622,93.755c0,0-16.667,22.667-12.553,75.421c21.458,3.976,43.456,3.575,65.275,3.161
			c18.614-0.353,37.228-0.707,55.842-1.06c3.337-0.063,7.847-38.441,8.269-42.52c0.936-9.061,3.555-22.183-2.279-30.271
			c-5.851-8.113-18.737-8.981-27.73-9.915C55.622,83.089,21.622,93.755,21.622,93.755z"/>
		
			<linearGradient id="SVGID_6_" gradientUnits="userSpaceOnUse" x1="1036.5771" y1="134.998" x2="1141.8273" y2="150.248" gradientTransform="matrix(-1 0 0 1 1175.7068 0)">
			<stop  offset="0" style="stop-color:#798173"/>
			<stop  offset="0.5376" style="stop-color:#697363"/>
			<stop  offset="1" style="stop-color:#616B5A"/>
		</linearGradient>
		<path class="st9" d="M43.122,113.922l5.5,7l80-11c0,0,5.786-1.578,10.817-2.865c1.12,7.163-0.335,15.409-0.984,21.701
			c-0.421,4.078-4.931,42.456-8.269,42.52c-18.614,0.353-37.228,0.707-55.842,1.06c-16.091,0.305-32.278,0.598-48.275-0.861
			L43.122,113.922z"/>
		<path class="st7" d="M22.304,93.554l28.818,28.368c0,0-6.103,27.382-11.488,50.407c-10.258-0.388-20.471-1.283-30.565-3.153
			c-4.114-52.754,12.553-75.421,12.553-75.421S21.868,93.68,22.304,93.554z"/>
		<polygon class="st3" points="22.289,93.589 52.289,119.089 107.622,110.422 139.289,107.089 107.622,115.089 50.289,125.589 		"/>
	</g>
</g>
</svg>
