<svg id="Isolation_Mode" data-name="Isolation Mode" xmlns="http://www.w3.org/2000/svg" viewBox="0 0 860.416 128.43"><defs><style>.cls-1{fill:#7db727;}</style></defs><title>трава2</title><path class="cls-1" d="M8.838,21.962,22.929,43.686,27.14,17.573c.131-.811.731-1.884,1.458-1.5l1.074,20.054A89.027,89.027,0,0,1,49.549,5.5c-4.552,17.322-4,33.954-5.132,51.488-6.625.949-19.946,2.774-25.143-2.973C13.06,47.145,12.627,30.733,8.838,21.962Z" transform="translate(-8.838 -5.504)"/><path class="cls-1" d="M510.229,17.472A220.33,220.33,0,0,0,508.74,41.9,46.988,46.988,0,0,1,524.291,20.88c-6.883,5.449-5.8,26.339-6.48,34.022-7.928.751-16.513,1.106-17.217-8.336C499.9,37.246,505.656,25.251,510.229,17.472Z" transform="translate(-8.838 -5.504)"/><path class="cls-1" d="M566.125,19.928a91.625,91.625,0,0,1,11.394,23.312,222.8,222.8,0,0,0,1.137-34.708C583,17.807,582.336,28.3,582.71,38.771a83.682,83.682,0,0,1,14.885-21.662,97.99,97.99,0,0,0-7.524,40.147c-5.737-.232-13.7.719-18.825-1.431C573.127,43.01,570.423,32.019,566.125,19.928Z" transform="translate(-8.838 -5.504)"/><path class="cls-1" d="M712.026,11.746c8.488,12.32,8.852,19.591,12.124,27.407,1.636-7.452,1.454-8.725,3.722-18.254,3.73,7.712,4.3,9.347,6.275,17.891,4.476-11.159,8.874-14.973,17.738-23.1a224.485,224.485,0,0,0-3.463,44.2c-8.266-1.382-24.88.891-28.174-8.411C717.142,42.71,714.152,36.972,712.026,11.746Z" transform="translate(-8.838 -5.504)"/><path class="cls-1" d="M90.425,34.957,86.9,18.175a63.773,63.773,0,0,1,10.353,26.1L101.4,26.051c1.587,2.061,1.681,4.866,1.708,7.467q.093,8.981.186,17.961c3.462-6.656,7.056-13.481,12.729-18.39a113.17,113.17,0,0,0-4.447,24.163c-4.815.21-16.818,1.962-19.4-1.768C90.509,53.066,91.226,38.772,90.425,34.957Z" transform="translate(-8.838 -5.504)"/><path class="cls-1" d="M635.983,26.53l10.329,16.834a59.548,59.548,0,0,1,2.513-11.033,36.629,36.629,0,0,0,1.782,10.317A72.169,72.169,0,0,1,664.889,14.41,102.654,102.654,0,0,0,659.664,61.2c-.157-1.286-10.331-1.392-11.892-2.075-2.72-1.19-3.751-2.427-4.887-5.146C639.444,45.739,638.868,35.215,635.983,26.53Z" transform="translate(-8.838 -5.504)"/><path class="cls-1" d="M672.05,29.333c-1.137,7.752-1.663,10.4-1.137,16.377,2.819-5.524,5.938-10.125,10.2-13.733a56.135,56.135,0,0,0-2.017,25.678c-7.766.047-11.756,2-12.725-7.252C665.6,43.085,667.913,37.46,672.05,29.333Z" transform="translate(-8.838 -5.504)"/><path class="cls-1" d="M841.6,22.683a159.41,159.41,0,0,0-.388,23.868A75.513,75.513,0,0,1,856.716,16.93a196.739,196.739,0,0,0-6.505,25.448c4.971-9.487,10.26-19.344,19.044-25.473a136.549,136.549,0,0,0-9.875,39c-.142,1.417-21.11-.965-23.5-4.916C831.792,44.231,838.638,28.924,841.6,22.683Z" transform="translate(-8.838 -5.504)"/><path class="cls-1" d="M20.31,82.445a158.622,158.622,0,0,1,17.348,29.983A75.307,75.307,0,0,1,41.33,101.15l2.961,8.6a82.594,82.594,0,0,1,13.255-27.37,115.132,115.132,0,0,0-1.663,24.642A99.22,99.22,0,0,1,72.646,90.134a83.664,83.664,0,0,0-8.791,43.784c-.008-.113-21.912.021-23.885,0-3.813-.044-7.738.155-11.535-.195-4.556-.419-3.6-2.028-3.441-6.306C25.564,112.342,25.471,96.817,20.31,82.445Z" transform="translate(-8.838 -5.504)"/><path class="cls-1" d="M96.04,84.051a72.658,72.658,0,0,0-3.88,21.441,34.171,34.171,0,0,1,9.12-9,108.309,108.309,0,0,0-6.673,23.641,69.428,69.428,0,0,1,13.911-15.736,56.442,56.442,0,0,0-6.218,27.453c-10.7.738-29.323.238-29.323.238s1.983-8.674,2.782-11.33C79.816,107.281,86.1,94.192,96.04,84.051Z" transform="translate(-8.838 -5.504)"/><path class="cls-1" d="M144.176,92.822c4.369,7.763,8.751,16.321,11.252,24.87a61.261,61.261,0,0,0,1-13.577c3.4,4.449,3.717,10.22,3.157,16.277,3.56-6.914,5.2-10.057,14.881-19.285-4.25,9.585-5.5,22.427-4.25,31.727H147.5S148.273,103.169,144.176,92.822Z" transform="translate(-8.838 -5.504)"/><path class="cls-1" d="M458.322,77.743c8.822,5.3,14.9,13.922,21.5,21.684l3.2-11.19,6.059,11.25A48.355,48.355,0,0,1,500.143,76.21c-.833,7-2.371,18.034-2.07,23.059a60.152,60.152,0,0,1,19.257-28.921,157.164,157.164,0,0,0-11.06,56.029c-8.111-.18-32.961,0-32.961,0s-.4-.1-1.5-7C469.864,107.164,467.477,91.043,458.322,77.743Z" transform="translate(-8.838 -5.504)"/><path class="cls-1" d="M526.06,84.96c6.667,6.417,8.685,15.444,10.188,23.136,1.534-6.3,3.092-12.666,6.037-18.443l2.762,14.514,3.422-27.048a150.578,150.578,0,0,1,10.342,49.259c-7.433.241-31.083-.167-31.083-.167S529.143,96.793,526.06,84.96Z" transform="translate(-8.838 -5.504)"/><path class="cls-1" d="M619.143,73c-.722,8.9-1.625,18,.587,28.784,4.345-7.332,8.038-12.784,15.722-19.932-6.059,16.523-6.309,29.273-6.645,41.178-10.289-.03-21.914-.155-21.914-.155A133.34,133.34,0,0,1,619.143,73Z" transform="translate(-8.838 -5.504)"/><path class="cls-1" d="M811.434,87.888c4.558,5.288,7.466,13.83,9.923,20.179,1.746-12.7,8.034-25.712,13.386-31.407-1.124,9.078-1.976,19.068-1.429,27.82,5.953-12.747,13.5-24.41,25.174-32.254-6.551,16.243-8.79,36.784-6.394,54.133-10.045.205-37.2.182-37.2.182S816.539,105.392,811.434,87.888Z" transform="translate(-8.838 -5.504)"/><path class="cls-1" d="M696.143,85.21c9.333,7.333,15.824,18.414,21.441,27.572q.185-7.606.369-15.213,2.972,5.666,5.4,11.6c1.168-13.631,2.427-27.606,8.336-39.945q1,16.517,3.2,32.931a76.341,76.341,0,0,1,13.685-16.578l-3.848,19.906A83.018,83.018,0,0,1,760.316,91.5a75.739,75.739,0,0,0-7.173,34.375c-9.344,0-44.167.667-44.167.667S705.477,103.71,696.143,85.21Z" transform="translate(-8.838 -5.504)"/></svg>