<svg id="Isolation_Mode" data-name="Isolation Mode" xmlns="http://www.w3.org/2000/svg" viewBox="0 0 1131.998 128.43"><defs><style>.cls-1{fill:#7db727;}</style></defs><title>трава1</title><path class="cls-1" d="M12.838,13.962,26.929,35.686,31.14,9.573c.131-.811.731-1.884,1.458-1.5l1.074,20.054A89.027,89.027,0,0,1,53.549-2.5c-4.552,17.322-4,33.954-5.132,51.488-6.625.949-19.946,2.774-25.143-2.973C17.06,39.145,16.627,22.733,12.838,13.962Z" transform="translate(-12.838 2.496)"/><path class="cls-1" d="M514.229,9.472A220.33,220.33,0,0,0,512.74,33.9,46.988,46.988,0,0,1,528.291,12.88c-6.883,5.449-5.8,26.339-6.48,34.022-7.928.751-16.513,1.106-17.217-8.336C503.9,29.246,509.656,17.251,514.229,9.472Z" transform="translate(-12.838 2.496)"/><path class="cls-1" d="M570.125,11.928a91.625,91.625,0,0,1,11.394,23.312A222.8,222.8,0,0,0,582.655.531C587,9.807,586.336,20.3,586.71,30.771A83.682,83.682,0,0,1,601.595,9.109a97.99,97.99,0,0,0-7.524,40.147c-5.737-.232-13.7.719-18.825-1.431C577.127,35.01,574.423,24.019,570.125,11.928Z" transform="translate(-12.838 2.496)"/><path class="cls-1" d="M716.026,3.746c8.488,12.32,8.852,19.591,12.124,27.407,1.636-7.453,1.454-8.725,3.722-18.254,3.73,7.712,4.3,9.347,6.275,17.891,4.476-11.159,8.874-14.973,17.738-23.1a224.485,224.485,0,0,0-3.463,44.2c-8.266-1.382-24.88.891-28.174-8.411C721.142,34.71,718.152,28.972,716.026,3.746Z" transform="translate(-12.838 2.496)"/><path class="cls-1" d="M94.425,26.957,90.9,10.175a63.773,63.773,0,0,1,10.353,26.1L105.4,18.051c1.587,2.061,1.681,4.866,1.708,7.467q.093,8.981.186,17.961c3.462-6.656,7.056-13.481,12.729-18.39a113.17,113.17,0,0,0-4.447,24.163c-4.815.21-16.818,1.962-19.4-1.768C94.509,45.066,95.226,30.772,94.425,26.957Z" transform="translate(-12.838 2.496)"/><path class="cls-1" d="M639.983,18.53l10.329,16.834a59.548,59.548,0,0,1,2.513-11.033,36.629,36.629,0,0,0,1.782,10.317A72.169,72.169,0,0,1,668.889,6.41,102.654,102.654,0,0,0,663.664,53.2c-.157-1.286-10.331-1.392-11.892-2.075-2.72-1.19-3.751-2.427-4.887-5.146C643.444,37.739,642.868,27.215,639.983,18.53Z" transform="translate(-12.838 2.496)"/><path class="cls-1" d="M676.05,21.333c-1.137,7.752-1.663,10.4-1.137,16.377,2.819-5.524,5.938-10.125,10.2-13.733a56.135,56.135,0,0,0-2.017,25.678c-7.766.047-11.756,2-12.725-7.252C669.6,35.085,671.913,29.46,676.05,21.333Z" transform="translate(-12.838 2.496)"/><path class="cls-1" d="M845.6,14.683a159.41,159.41,0,0,0-.388,23.868A75.513,75.513,0,0,1,860.716,8.93a196.739,196.739,0,0,0-6.505,25.448c4.971-9.487,10.26-19.344,19.044-25.473a136.549,136.549,0,0,0-9.875,39c-.142,1.417-21.11-.965-23.5-4.916C835.792,36.231,842.638,20.924,845.6,14.683Z" transform="translate(-12.838 2.496)"/><path class="cls-1" d="M1111.172,9.413c4.8,10.047,7.843,16.65,11.8,26.214,1.75-7.667,3.27-11.528,5.333-18.167,1.167,4.667,1.25,9.583,1.25,14.917,4.071-10.1,8.679-16.949,15.191-25.674-4.107,14.007-4.774,27.09-5.549,38.26-6.531,1.452-17.929,5.5-21.808-1.587C1112.8,34.983,1112.56,29.96,1111.172,9.413Z" transform="translate(-12.838 2.496)"/><path class="cls-1" d="M24.31,74.445a158.622,158.622,0,0,1,17.348,29.983A75.307,75.307,0,0,1,45.33,93.15l2.961,8.6a82.594,82.594,0,0,1,13.255-27.37,115.132,115.132,0,0,0-1.663,24.642A99.22,99.22,0,0,1,76.646,82.134a83.664,83.664,0,0,0-8.791,43.784c-.008-.113-21.912.021-23.884,0-3.813-.044-7.738.155-11.535-.2-4.556-.419-3.6-2.028-3.441-6.306C29.564,104.342,29.471,88.817,24.31,74.445Z" transform="translate(-12.838 2.496)"/><path class="cls-1" d="M100.04,76.051a72.658,72.658,0,0,0-3.88,21.441,34.171,34.171,0,0,1,9.12-9,108.309,108.309,0,0,0-6.673,23.641,69.428,69.428,0,0,1,13.911-15.736,56.442,56.442,0,0,0-6.218,27.453c-10.7.738-29.323.238-29.323.238s1.983-8.674,2.782-11.33C83.816,99.281,90.1,86.192,100.04,76.051Z" transform="translate(-12.838 2.496)"/><path class="cls-1" d="M148.176,84.822c4.369,7.763,8.751,16.321,11.252,24.87a61.261,61.261,0,0,0,1-13.577c3.4,4.449,3.717,10.22,3.157,16.277,3.56-6.914,5.2-10.057,14.881-19.285-4.25,9.585-5.5,22.427-4.25,31.727H151.5S152.273,95.169,148.176,84.822Z" transform="translate(-12.838 2.496)"/><path class="cls-1" d="M462.322,69.743c8.822,5.3,14.9,13.922,21.5,21.684l3.2-11.19,6.059,11.25A48.355,48.355,0,0,1,504.143,68.21c-.833,7-2.371,18.034-2.07,23.059a60.152,60.152,0,0,1,19.257-28.921,157.164,157.164,0,0,0-11.06,56.029c-8.111-.18-32.961,0-32.961,0s-.4-.1-1.5-7C473.864,99.164,471.477,83.043,462.322,69.743Z" transform="translate(-12.838 2.496)"/><path class="cls-1" d="M530.06,76.96c6.667,6.417,8.685,15.444,10.188,23.136,1.534-6.3,3.092-12.666,6.037-18.443l2.762,14.514,3.422-27.048a150.578,150.578,0,0,1,10.342,49.259c-7.433.241-31.083-.167-31.083-.167S533.143,88.793,530.06,76.96Z" transform="translate(-12.838 2.496)"/><path class="cls-1" d="M623.143,65c-.722,8.9-1.625,18,.587,28.784,4.345-7.332,8.038-12.784,15.722-19.932-6.059,16.523-6.309,29.273-6.645,41.178-10.289-.03-21.914-.155-21.914-.155A133.34,133.34,0,0,1,623.143,65Z" transform="translate(-12.838 2.496)"/><path class="cls-1" d="M815.434,79.888c4.558,5.288,7.466,13.83,9.923,20.179,1.746-12.7,8.034-25.712,13.386-31.407-1.124,9.078-1.976,19.068-1.429,27.82,5.953-12.747,13.5-24.41,25.174-32.254-6.551,16.243-8.79,36.784-6.394,54.133-10.045.205-37.2.182-37.2.182S820.539,97.392,815.434,79.888Z" transform="translate(-12.838 2.496)"/><path class="cls-1" d="M700.143,77.21c9.333,7.333,15.824,18.414,21.441,27.572q.185-7.606.369-15.213,2.972,5.666,5.4,11.6c1.168-13.631,2.427-27.606,8.336-39.945q1,16.517,3.2,32.931a76.341,76.341,0,0,1,13.685-16.578L748.724,97.48A83.018,83.018,0,0,1,764.316,83.5a75.739,75.739,0,0,0-7.173,34.375c-9.344,0-44.167.667-44.167.667S709.477,95.71,700.143,77.21Z" transform="translate(-12.838 2.496)"/><path class="cls-1" d="M1116.977,104.326c2.167-18.417,7.917-27.282,14.222-34.116-1.805,5.917-2.305,12.917-2.452,19.291a25.211,25.211,0,0,1,8.864-9.427,42.188,42.188,0,0,0-.635,10.636c2.5-3,4.917-5.583,7.859-7.077-2.943,12.327-1.026,18.244-.217,20.693C1134.56,104.293,1125.393,104.377,1116.977,104.326Z" transform="translate(-12.838 2.496)"/></svg>